%TF.GenerationSoftware,KiCad,Pcbnew,9.0.2*%
%TF.CreationDate,2026-03-14T11:02:16+00:00*%
%TF.ProjectId,AI_ASSISTANT,41495f41-5353-4495-9354-414e542e6b69,rev?*%
%TF.SameCoordinates,Original*%
%TF.FileFunction,Legend,Top*%
%TF.FilePolarity,Positive*%
%FSLAX46Y46*%
G04 Gerber Fmt 4.6, Leading zero omitted, Abs format (unit mm)*
G04 Created by KiCad (PCBNEW 9.0.2) date 2026-03-14 11:02:16*
%MOMM*%
%LPD*%
G01*
G04 APERTURE LIST*
%ADD10C,0.150000*%
%ADD11C,0.100000*%
%ADD12C,0.250000*%
%ADD13C,0.120000*%
%ADD14C,0.127000*%
%ADD15C,0.200000*%
%ADD16C,0.152400*%
%ADD17C,0.000000*%
%ADD18C,0.300000*%
G04 APERTURE END LIST*
D10*
X166879819Y-97684523D02*
X166879819Y-97065476D01*
X166879819Y-97065476D02*
X167260771Y-97398809D01*
X167260771Y-97398809D02*
X167260771Y-97255952D01*
X167260771Y-97255952D02*
X167308390Y-97160714D01*
X167308390Y-97160714D02*
X167356009Y-97113095D01*
X167356009Y-97113095D02*
X167451247Y-97065476D01*
X167451247Y-97065476D02*
X167689342Y-97065476D01*
X167689342Y-97065476D02*
X167784580Y-97113095D01*
X167784580Y-97113095D02*
X167832200Y-97160714D01*
X167832200Y-97160714D02*
X167879819Y-97255952D01*
X167879819Y-97255952D02*
X167879819Y-97541666D01*
X167879819Y-97541666D02*
X167832200Y-97636904D01*
X167832200Y-97636904D02*
X167784580Y-97684523D01*
X166879819Y-96160714D02*
X166879819Y-96636904D01*
X166879819Y-96636904D02*
X167356009Y-96684523D01*
X167356009Y-96684523D02*
X167308390Y-96636904D01*
X167308390Y-96636904D02*
X167260771Y-96541666D01*
X167260771Y-96541666D02*
X167260771Y-96303571D01*
X167260771Y-96303571D02*
X167308390Y-96208333D01*
X167308390Y-96208333D02*
X167356009Y-96160714D01*
X167356009Y-96160714D02*
X167451247Y-96113095D01*
X167451247Y-96113095D02*
X167689342Y-96113095D01*
X167689342Y-96113095D02*
X167784580Y-96160714D01*
X167784580Y-96160714D02*
X167832200Y-96208333D01*
X167832200Y-96208333D02*
X167879819Y-96303571D01*
X167879819Y-96303571D02*
X167879819Y-96541666D01*
X167879819Y-96541666D02*
X167832200Y-96636904D01*
X167832200Y-96636904D02*
X167784580Y-96684523D01*
X167213152Y-84360714D02*
X167879819Y-84360714D01*
X166832200Y-84598809D02*
X167546485Y-84836904D01*
X167546485Y-84836904D02*
X167546485Y-84217857D01*
X166879819Y-83646428D02*
X166879819Y-83551190D01*
X166879819Y-83551190D02*
X166927438Y-83455952D01*
X166927438Y-83455952D02*
X166975057Y-83408333D01*
X166975057Y-83408333D02*
X167070295Y-83360714D01*
X167070295Y-83360714D02*
X167260771Y-83313095D01*
X167260771Y-83313095D02*
X167498866Y-83313095D01*
X167498866Y-83313095D02*
X167689342Y-83360714D01*
X167689342Y-83360714D02*
X167784580Y-83408333D01*
X167784580Y-83408333D02*
X167832200Y-83455952D01*
X167832200Y-83455952D02*
X167879819Y-83551190D01*
X167879819Y-83551190D02*
X167879819Y-83646428D01*
X167879819Y-83646428D02*
X167832200Y-83741666D01*
X167832200Y-83741666D02*
X167784580Y-83789285D01*
X167784580Y-83789285D02*
X167689342Y-83836904D01*
X167689342Y-83836904D02*
X167498866Y-83884523D01*
X167498866Y-83884523D02*
X167260771Y-83884523D01*
X167260771Y-83884523D02*
X167070295Y-83836904D01*
X167070295Y-83836904D02*
X166975057Y-83789285D01*
X166975057Y-83789285D02*
X166927438Y-83741666D01*
X166927438Y-83741666D02*
X166879819Y-83646428D01*
X101485714Y-108294104D02*
X101961904Y-108294104D01*
X101390476Y-108579819D02*
X101723809Y-107579819D01*
X101723809Y-107579819D02*
X102057142Y-108579819D01*
X102819047Y-107579819D02*
X102628571Y-107579819D01*
X102628571Y-107579819D02*
X102533333Y-107627438D01*
X102533333Y-107627438D02*
X102485714Y-107675057D01*
X102485714Y-107675057D02*
X102390476Y-107817914D01*
X102390476Y-107817914D02*
X102342857Y-108008390D01*
X102342857Y-108008390D02*
X102342857Y-108389342D01*
X102342857Y-108389342D02*
X102390476Y-108484580D01*
X102390476Y-108484580D02*
X102438095Y-108532200D01*
X102438095Y-108532200D02*
X102533333Y-108579819D01*
X102533333Y-108579819D02*
X102723809Y-108579819D01*
X102723809Y-108579819D02*
X102819047Y-108532200D01*
X102819047Y-108532200D02*
X102866666Y-108484580D01*
X102866666Y-108484580D02*
X102914285Y-108389342D01*
X102914285Y-108389342D02*
X102914285Y-108151247D01*
X102914285Y-108151247D02*
X102866666Y-108056009D01*
X102866666Y-108056009D02*
X102819047Y-108008390D01*
X102819047Y-108008390D02*
X102723809Y-107960771D01*
X102723809Y-107960771D02*
X102533333Y-107960771D01*
X102533333Y-107960771D02*
X102438095Y-108008390D01*
X102438095Y-108008390D02*
X102390476Y-108056009D01*
X102390476Y-108056009D02*
X102342857Y-108151247D01*
D11*
X150702693Y-108697419D02*
X150131265Y-108697419D01*
X150416979Y-108697419D02*
X150416979Y-107697419D01*
X150416979Y-107697419D02*
X150321741Y-107840276D01*
X150321741Y-107840276D02*
X150226503Y-107935514D01*
X150226503Y-107935514D02*
X150131265Y-107983133D01*
X151559836Y-107697419D02*
X151369360Y-107697419D01*
X151369360Y-107697419D02*
X151274122Y-107745038D01*
X151274122Y-107745038D02*
X151226503Y-107792657D01*
X151226503Y-107792657D02*
X151131265Y-107935514D01*
X151131265Y-107935514D02*
X151083646Y-108125990D01*
X151083646Y-108125990D02*
X151083646Y-108506942D01*
X151083646Y-108506942D02*
X151131265Y-108602180D01*
X151131265Y-108602180D02*
X151178884Y-108649800D01*
X151178884Y-108649800D02*
X151274122Y-108697419D01*
X151274122Y-108697419D02*
X151464598Y-108697419D01*
X151464598Y-108697419D02*
X151559836Y-108649800D01*
X151559836Y-108649800D02*
X151607455Y-108602180D01*
X151607455Y-108602180D02*
X151655074Y-108506942D01*
X151655074Y-108506942D02*
X151655074Y-108268847D01*
X151655074Y-108268847D02*
X151607455Y-108173609D01*
X151607455Y-108173609D02*
X151559836Y-108125990D01*
X151559836Y-108125990D02*
X151464598Y-108078371D01*
X151464598Y-108078371D02*
X151274122Y-108078371D01*
X151274122Y-108078371D02*
X151178884Y-108125990D01*
X151178884Y-108125990D02*
X151131265Y-108173609D01*
X151131265Y-108173609D02*
X151083646Y-108268847D01*
D10*
X167213152Y-81835714D02*
X167879819Y-81835714D01*
X166832200Y-82073809D02*
X167546485Y-82311904D01*
X167546485Y-82311904D02*
X167546485Y-81692857D01*
X167879819Y-80788095D02*
X167879819Y-81359523D01*
X167879819Y-81073809D02*
X166879819Y-81073809D01*
X166879819Y-81073809D02*
X167022676Y-81169047D01*
X167022676Y-81169047D02*
X167117914Y-81264285D01*
X167117914Y-81264285D02*
X167165533Y-81359523D01*
X98960714Y-108319104D02*
X99436904Y-108319104D01*
X98865476Y-108604819D02*
X99198809Y-107604819D01*
X99198809Y-107604819D02*
X99532142Y-108604819D01*
X100341666Y-107604819D02*
X99865476Y-107604819D01*
X99865476Y-107604819D02*
X99817857Y-108081009D01*
X99817857Y-108081009D02*
X99865476Y-108033390D01*
X99865476Y-108033390D02*
X99960714Y-107985771D01*
X99960714Y-107985771D02*
X100198809Y-107985771D01*
X100198809Y-107985771D02*
X100294047Y-108033390D01*
X100294047Y-108033390D02*
X100341666Y-108081009D01*
X100341666Y-108081009D02*
X100389285Y-108176247D01*
X100389285Y-108176247D02*
X100389285Y-108414342D01*
X100389285Y-108414342D02*
X100341666Y-108509580D01*
X100341666Y-108509580D02*
X100294047Y-108557200D01*
X100294047Y-108557200D02*
X100198809Y-108604819D01*
X100198809Y-108604819D02*
X99960714Y-108604819D01*
X99960714Y-108604819D02*
X99865476Y-108557200D01*
X99865476Y-108557200D02*
X99817857Y-108509580D01*
D11*
X158252693Y-108672419D02*
X157681265Y-108672419D01*
X157966979Y-108672419D02*
X157966979Y-107672419D01*
X157966979Y-107672419D02*
X157871741Y-107815276D01*
X157871741Y-107815276D02*
X157776503Y-107910514D01*
X157776503Y-107910514D02*
X157681265Y-107958133D01*
X159109836Y-108005752D02*
X159109836Y-108672419D01*
X158871741Y-107624800D02*
X158633646Y-108339085D01*
X158633646Y-108339085D02*
X159252693Y-108339085D01*
X160306265Y-107742657D02*
X160353884Y-107695038D01*
X160353884Y-107695038D02*
X160449122Y-107647419D01*
X160449122Y-107647419D02*
X160687217Y-107647419D01*
X160687217Y-107647419D02*
X160782455Y-107695038D01*
X160782455Y-107695038D02*
X160830074Y-107742657D01*
X160830074Y-107742657D02*
X160877693Y-107837895D01*
X160877693Y-107837895D02*
X160877693Y-107933133D01*
X160877693Y-107933133D02*
X160830074Y-108075990D01*
X160830074Y-108075990D02*
X160258646Y-108647419D01*
X160258646Y-108647419D02*
X160877693Y-108647419D01*
X161830074Y-108647419D02*
X161258646Y-108647419D01*
X161544360Y-108647419D02*
X161544360Y-107647419D01*
X161544360Y-107647419D02*
X161449122Y-107790276D01*
X161449122Y-107790276D02*
X161353884Y-107885514D01*
X161353884Y-107885514D02*
X161258646Y-107933133D01*
X153052693Y-108697419D02*
X152481265Y-108697419D01*
X152766979Y-108697419D02*
X152766979Y-107697419D01*
X152766979Y-107697419D02*
X152671741Y-107840276D01*
X152671741Y-107840276D02*
X152576503Y-107935514D01*
X152576503Y-107935514D02*
X152481265Y-107983133D01*
X153957455Y-107697419D02*
X153481265Y-107697419D01*
X153481265Y-107697419D02*
X153433646Y-108173609D01*
X153433646Y-108173609D02*
X153481265Y-108125990D01*
X153481265Y-108125990D02*
X153576503Y-108078371D01*
X153576503Y-108078371D02*
X153814598Y-108078371D01*
X153814598Y-108078371D02*
X153909836Y-108125990D01*
X153909836Y-108125990D02*
X153957455Y-108173609D01*
X153957455Y-108173609D02*
X154005074Y-108268847D01*
X154005074Y-108268847D02*
X154005074Y-108506942D01*
X154005074Y-108506942D02*
X153957455Y-108602180D01*
X153957455Y-108602180D02*
X153909836Y-108649800D01*
X153909836Y-108649800D02*
X153814598Y-108697419D01*
X153814598Y-108697419D02*
X153576503Y-108697419D01*
X153576503Y-108697419D02*
X153481265Y-108649800D01*
X153481265Y-108649800D02*
X153433646Y-108602180D01*
D10*
X166879819Y-92584523D02*
X166879819Y-91965476D01*
X166879819Y-91965476D02*
X167260771Y-92298809D01*
X167260771Y-92298809D02*
X167260771Y-92155952D01*
X167260771Y-92155952D02*
X167308390Y-92060714D01*
X167308390Y-92060714D02*
X167356009Y-92013095D01*
X167356009Y-92013095D02*
X167451247Y-91965476D01*
X167451247Y-91965476D02*
X167689342Y-91965476D01*
X167689342Y-91965476D02*
X167784580Y-92013095D01*
X167784580Y-92013095D02*
X167832200Y-92060714D01*
X167832200Y-92060714D02*
X167879819Y-92155952D01*
X167879819Y-92155952D02*
X167879819Y-92441666D01*
X167879819Y-92441666D02*
X167832200Y-92536904D01*
X167832200Y-92536904D02*
X167784580Y-92584523D01*
X166879819Y-91632142D02*
X166879819Y-90965476D01*
X166879819Y-90965476D02*
X167879819Y-91394047D01*
D11*
X78372419Y-50588972D02*
X79372419Y-50255639D01*
X79372419Y-50255639D02*
X78372419Y-49922306D01*
X79372419Y-49588972D02*
X78372419Y-49588972D01*
X79372419Y-49112782D02*
X78372419Y-49112782D01*
X78372419Y-49112782D02*
X79372419Y-48541354D01*
X79372419Y-48541354D02*
X78372419Y-48541354D01*
D10*
X114235714Y-108319104D02*
X114711904Y-108319104D01*
X114140476Y-108604819D02*
X114473809Y-107604819D01*
X114473809Y-107604819D02*
X114807142Y-108604819D01*
X115092857Y-107700057D02*
X115140476Y-107652438D01*
X115140476Y-107652438D02*
X115235714Y-107604819D01*
X115235714Y-107604819D02*
X115473809Y-107604819D01*
X115473809Y-107604819D02*
X115569047Y-107652438D01*
X115569047Y-107652438D02*
X115616666Y-107700057D01*
X115616666Y-107700057D02*
X115664285Y-107795295D01*
X115664285Y-107795295D02*
X115664285Y-107890533D01*
X115664285Y-107890533D02*
X115616666Y-108033390D01*
X115616666Y-108033390D02*
X115045238Y-108604819D01*
X115045238Y-108604819D02*
X115664285Y-108604819D01*
X156710715Y-72004819D02*
X156710715Y-71004819D01*
X156710715Y-71004819D02*
X157044048Y-71719104D01*
X157044048Y-71719104D02*
X157377381Y-71004819D01*
X157377381Y-71004819D02*
X157377381Y-72004819D01*
X157853572Y-72004819D02*
X157853572Y-71004819D01*
X158901190Y-71909580D02*
X158853571Y-71957200D01*
X158853571Y-71957200D02*
X158710714Y-72004819D01*
X158710714Y-72004819D02*
X158615476Y-72004819D01*
X158615476Y-72004819D02*
X158472619Y-71957200D01*
X158472619Y-71957200D02*
X158377381Y-71861961D01*
X158377381Y-71861961D02*
X158329762Y-71766723D01*
X158329762Y-71766723D02*
X158282143Y-71576247D01*
X158282143Y-71576247D02*
X158282143Y-71433390D01*
X158282143Y-71433390D02*
X158329762Y-71242914D01*
X158329762Y-71242914D02*
X158377381Y-71147676D01*
X158377381Y-71147676D02*
X158472619Y-71052438D01*
X158472619Y-71052438D02*
X158615476Y-71004819D01*
X158615476Y-71004819D02*
X158710714Y-71004819D01*
X158710714Y-71004819D02*
X158853571Y-71052438D01*
X158853571Y-71052438D02*
X158901190Y-71100057D01*
X160091667Y-72004819D02*
X160091667Y-71004819D01*
X160567857Y-72004819D02*
X160567857Y-71004819D01*
X160567857Y-71004819D02*
X161139285Y-72004819D01*
X161139285Y-72004819D02*
X161139285Y-71004819D01*
X96117857Y-46231009D02*
X96260714Y-46278628D01*
X96260714Y-46278628D02*
X96308333Y-46326247D01*
X96308333Y-46326247D02*
X96355952Y-46421485D01*
X96355952Y-46421485D02*
X96355952Y-46564342D01*
X96355952Y-46564342D02*
X96308333Y-46659580D01*
X96308333Y-46659580D02*
X96260714Y-46707200D01*
X96260714Y-46707200D02*
X96165476Y-46754819D01*
X96165476Y-46754819D02*
X95784524Y-46754819D01*
X95784524Y-46754819D02*
X95784524Y-45754819D01*
X95784524Y-45754819D02*
X96117857Y-45754819D01*
X96117857Y-45754819D02*
X96213095Y-45802438D01*
X96213095Y-45802438D02*
X96260714Y-45850057D01*
X96260714Y-45850057D02*
X96308333Y-45945295D01*
X96308333Y-45945295D02*
X96308333Y-46040533D01*
X96308333Y-46040533D02*
X96260714Y-46135771D01*
X96260714Y-46135771D02*
X96213095Y-46183390D01*
X96213095Y-46183390D02*
X96117857Y-46231009D01*
X96117857Y-46231009D02*
X95784524Y-46231009D01*
X96975000Y-45754819D02*
X97165476Y-45754819D01*
X97165476Y-45754819D02*
X97260714Y-45802438D01*
X97260714Y-45802438D02*
X97355952Y-45897676D01*
X97355952Y-45897676D02*
X97403571Y-46088152D01*
X97403571Y-46088152D02*
X97403571Y-46421485D01*
X97403571Y-46421485D02*
X97355952Y-46611961D01*
X97355952Y-46611961D02*
X97260714Y-46707200D01*
X97260714Y-46707200D02*
X97165476Y-46754819D01*
X97165476Y-46754819D02*
X96975000Y-46754819D01*
X96975000Y-46754819D02*
X96879762Y-46707200D01*
X96879762Y-46707200D02*
X96784524Y-46611961D01*
X96784524Y-46611961D02*
X96736905Y-46421485D01*
X96736905Y-46421485D02*
X96736905Y-46088152D01*
X96736905Y-46088152D02*
X96784524Y-45897676D01*
X96784524Y-45897676D02*
X96879762Y-45802438D01*
X96879762Y-45802438D02*
X96975000Y-45754819D01*
X98022619Y-45754819D02*
X98213095Y-45754819D01*
X98213095Y-45754819D02*
X98308333Y-45802438D01*
X98308333Y-45802438D02*
X98403571Y-45897676D01*
X98403571Y-45897676D02*
X98451190Y-46088152D01*
X98451190Y-46088152D02*
X98451190Y-46421485D01*
X98451190Y-46421485D02*
X98403571Y-46611961D01*
X98403571Y-46611961D02*
X98308333Y-46707200D01*
X98308333Y-46707200D02*
X98213095Y-46754819D01*
X98213095Y-46754819D02*
X98022619Y-46754819D01*
X98022619Y-46754819D02*
X97927381Y-46707200D01*
X97927381Y-46707200D02*
X97832143Y-46611961D01*
X97832143Y-46611961D02*
X97784524Y-46421485D01*
X97784524Y-46421485D02*
X97784524Y-46088152D01*
X97784524Y-46088152D02*
X97832143Y-45897676D01*
X97832143Y-45897676D02*
X97927381Y-45802438D01*
X97927381Y-45802438D02*
X98022619Y-45754819D01*
X98736905Y-45754819D02*
X99308333Y-45754819D01*
X99022619Y-46754819D02*
X99022619Y-45754819D01*
X166879819Y-87334523D02*
X166879819Y-86715476D01*
X166879819Y-86715476D02*
X167260771Y-87048809D01*
X167260771Y-87048809D02*
X167260771Y-86905952D01*
X167260771Y-86905952D02*
X167308390Y-86810714D01*
X167308390Y-86810714D02*
X167356009Y-86763095D01*
X167356009Y-86763095D02*
X167451247Y-86715476D01*
X167451247Y-86715476D02*
X167689342Y-86715476D01*
X167689342Y-86715476D02*
X167784580Y-86763095D01*
X167784580Y-86763095D02*
X167832200Y-86810714D01*
X167832200Y-86810714D02*
X167879819Y-86905952D01*
X167879819Y-86905952D02*
X167879819Y-87191666D01*
X167879819Y-87191666D02*
X167832200Y-87286904D01*
X167832200Y-87286904D02*
X167784580Y-87334523D01*
X167879819Y-86239285D02*
X167879819Y-86048809D01*
X167879819Y-86048809D02*
X167832200Y-85953571D01*
X167832200Y-85953571D02*
X167784580Y-85905952D01*
X167784580Y-85905952D02*
X167641723Y-85810714D01*
X167641723Y-85810714D02*
X167451247Y-85763095D01*
X167451247Y-85763095D02*
X167070295Y-85763095D01*
X167070295Y-85763095D02*
X166975057Y-85810714D01*
X166975057Y-85810714D02*
X166927438Y-85858333D01*
X166927438Y-85858333D02*
X166879819Y-85953571D01*
X166879819Y-85953571D02*
X166879819Y-86144047D01*
X166879819Y-86144047D02*
X166927438Y-86239285D01*
X166927438Y-86239285D02*
X166975057Y-86286904D01*
X166975057Y-86286904D02*
X167070295Y-86334523D01*
X167070295Y-86334523D02*
X167308390Y-86334523D01*
X167308390Y-86334523D02*
X167403628Y-86286904D01*
X167403628Y-86286904D02*
X167451247Y-86239285D01*
X167451247Y-86239285D02*
X167498866Y-86144047D01*
X167498866Y-86144047D02*
X167498866Y-85953571D01*
X167498866Y-85953571D02*
X167451247Y-85858333D01*
X167451247Y-85858333D02*
X167403628Y-85810714D01*
X167403628Y-85810714D02*
X167308390Y-85763095D01*
X111810714Y-108319104D02*
X112286904Y-108319104D01*
X111715476Y-108604819D02*
X112048809Y-107604819D01*
X112048809Y-107604819D02*
X112382142Y-108604819D01*
X112763095Y-108604819D02*
X112953571Y-108604819D01*
X112953571Y-108604819D02*
X113048809Y-108557200D01*
X113048809Y-108557200D02*
X113096428Y-108509580D01*
X113096428Y-108509580D02*
X113191666Y-108366723D01*
X113191666Y-108366723D02*
X113239285Y-108176247D01*
X113239285Y-108176247D02*
X113239285Y-107795295D01*
X113239285Y-107795295D02*
X113191666Y-107700057D01*
X113191666Y-107700057D02*
X113144047Y-107652438D01*
X113144047Y-107652438D02*
X113048809Y-107604819D01*
X113048809Y-107604819D02*
X112858333Y-107604819D01*
X112858333Y-107604819D02*
X112763095Y-107652438D01*
X112763095Y-107652438D02*
X112715476Y-107700057D01*
X112715476Y-107700057D02*
X112667857Y-107795295D01*
X112667857Y-107795295D02*
X112667857Y-108033390D01*
X112667857Y-108033390D02*
X112715476Y-108128628D01*
X112715476Y-108128628D02*
X112763095Y-108176247D01*
X112763095Y-108176247D02*
X112858333Y-108223866D01*
X112858333Y-108223866D02*
X113048809Y-108223866D01*
X113048809Y-108223866D02*
X113144047Y-108176247D01*
X113144047Y-108176247D02*
X113191666Y-108128628D01*
X113191666Y-108128628D02*
X113239285Y-108033390D01*
D12*
X90870236Y-90765809D02*
X91822617Y-90765809D01*
X90679760Y-91337238D02*
X91346426Y-89337238D01*
X91346426Y-89337238D02*
X92013093Y-91337238D01*
X92679760Y-91337238D02*
X92679760Y-89337238D01*
X95060713Y-90765809D02*
X96013094Y-90765809D01*
X94870237Y-91337238D02*
X95536903Y-89337238D01*
X95536903Y-89337238D02*
X96203570Y-91337238D01*
X96774999Y-91242000D02*
X97060713Y-91337238D01*
X97060713Y-91337238D02*
X97536904Y-91337238D01*
X97536904Y-91337238D02*
X97727380Y-91242000D01*
X97727380Y-91242000D02*
X97822618Y-91146761D01*
X97822618Y-91146761D02*
X97917856Y-90956285D01*
X97917856Y-90956285D02*
X97917856Y-90765809D01*
X97917856Y-90765809D02*
X97822618Y-90575333D01*
X97822618Y-90575333D02*
X97727380Y-90480095D01*
X97727380Y-90480095D02*
X97536904Y-90384857D01*
X97536904Y-90384857D02*
X97155951Y-90289619D01*
X97155951Y-90289619D02*
X96965475Y-90194380D01*
X96965475Y-90194380D02*
X96870237Y-90099142D01*
X96870237Y-90099142D02*
X96774999Y-89908666D01*
X96774999Y-89908666D02*
X96774999Y-89718190D01*
X96774999Y-89718190D02*
X96870237Y-89527714D01*
X96870237Y-89527714D02*
X96965475Y-89432476D01*
X96965475Y-89432476D02*
X97155951Y-89337238D01*
X97155951Y-89337238D02*
X97632142Y-89337238D01*
X97632142Y-89337238D02*
X97917856Y-89432476D01*
X98679761Y-91242000D02*
X98965475Y-91337238D01*
X98965475Y-91337238D02*
X99441666Y-91337238D01*
X99441666Y-91337238D02*
X99632142Y-91242000D01*
X99632142Y-91242000D02*
X99727380Y-91146761D01*
X99727380Y-91146761D02*
X99822618Y-90956285D01*
X99822618Y-90956285D02*
X99822618Y-90765809D01*
X99822618Y-90765809D02*
X99727380Y-90575333D01*
X99727380Y-90575333D02*
X99632142Y-90480095D01*
X99632142Y-90480095D02*
X99441666Y-90384857D01*
X99441666Y-90384857D02*
X99060713Y-90289619D01*
X99060713Y-90289619D02*
X98870237Y-90194380D01*
X98870237Y-90194380D02*
X98774999Y-90099142D01*
X98774999Y-90099142D02*
X98679761Y-89908666D01*
X98679761Y-89908666D02*
X98679761Y-89718190D01*
X98679761Y-89718190D02*
X98774999Y-89527714D01*
X98774999Y-89527714D02*
X98870237Y-89432476D01*
X98870237Y-89432476D02*
X99060713Y-89337238D01*
X99060713Y-89337238D02*
X99536904Y-89337238D01*
X99536904Y-89337238D02*
X99822618Y-89432476D01*
X100679761Y-91337238D02*
X100679761Y-89337238D01*
X101536904Y-91242000D02*
X101822618Y-91337238D01*
X101822618Y-91337238D02*
X102298809Y-91337238D01*
X102298809Y-91337238D02*
X102489285Y-91242000D01*
X102489285Y-91242000D02*
X102584523Y-91146761D01*
X102584523Y-91146761D02*
X102679761Y-90956285D01*
X102679761Y-90956285D02*
X102679761Y-90765809D01*
X102679761Y-90765809D02*
X102584523Y-90575333D01*
X102584523Y-90575333D02*
X102489285Y-90480095D01*
X102489285Y-90480095D02*
X102298809Y-90384857D01*
X102298809Y-90384857D02*
X101917856Y-90289619D01*
X101917856Y-90289619D02*
X101727380Y-90194380D01*
X101727380Y-90194380D02*
X101632142Y-90099142D01*
X101632142Y-90099142D02*
X101536904Y-89908666D01*
X101536904Y-89908666D02*
X101536904Y-89718190D01*
X101536904Y-89718190D02*
X101632142Y-89527714D01*
X101632142Y-89527714D02*
X101727380Y-89432476D01*
X101727380Y-89432476D02*
X101917856Y-89337238D01*
X101917856Y-89337238D02*
X102394047Y-89337238D01*
X102394047Y-89337238D02*
X102679761Y-89432476D01*
X103251190Y-89337238D02*
X104394047Y-89337238D01*
X103822618Y-91337238D02*
X103822618Y-89337238D01*
X104965476Y-90765809D02*
X105917857Y-90765809D01*
X104775000Y-91337238D02*
X105441666Y-89337238D01*
X105441666Y-89337238D02*
X106108333Y-91337238D01*
X106775000Y-91337238D02*
X106775000Y-89337238D01*
X106775000Y-89337238D02*
X107917857Y-91337238D01*
X107917857Y-91337238D02*
X107917857Y-89337238D01*
X108584524Y-89337238D02*
X109727381Y-89337238D01*
X109155952Y-91337238D02*
X109155952Y-89337238D01*
X111632144Y-89337238D02*
X112298810Y-91337238D01*
X112298810Y-91337238D02*
X112965477Y-89337238D01*
X114679763Y-91337238D02*
X113536906Y-91337238D01*
X114108334Y-91337238D02*
X114108334Y-89337238D01*
X114108334Y-89337238D02*
X113917858Y-89622952D01*
X113917858Y-89622952D02*
X113727382Y-89813428D01*
X113727382Y-89813428D02*
X113536906Y-89908666D01*
D10*
X166879819Y-95134523D02*
X166879819Y-94515476D01*
X166879819Y-94515476D02*
X167260771Y-94848809D01*
X167260771Y-94848809D02*
X167260771Y-94705952D01*
X167260771Y-94705952D02*
X167308390Y-94610714D01*
X167308390Y-94610714D02*
X167356009Y-94563095D01*
X167356009Y-94563095D02*
X167451247Y-94515476D01*
X167451247Y-94515476D02*
X167689342Y-94515476D01*
X167689342Y-94515476D02*
X167784580Y-94563095D01*
X167784580Y-94563095D02*
X167832200Y-94610714D01*
X167832200Y-94610714D02*
X167879819Y-94705952D01*
X167879819Y-94705952D02*
X167879819Y-94991666D01*
X167879819Y-94991666D02*
X167832200Y-95086904D01*
X167832200Y-95086904D02*
X167784580Y-95134523D01*
X166879819Y-93658333D02*
X166879819Y-93848809D01*
X166879819Y-93848809D02*
X166927438Y-93944047D01*
X166927438Y-93944047D02*
X166975057Y-93991666D01*
X166975057Y-93991666D02*
X167117914Y-94086904D01*
X167117914Y-94086904D02*
X167308390Y-94134523D01*
X167308390Y-94134523D02*
X167689342Y-94134523D01*
X167689342Y-94134523D02*
X167784580Y-94086904D01*
X167784580Y-94086904D02*
X167832200Y-94039285D01*
X167832200Y-94039285D02*
X167879819Y-93944047D01*
X167879819Y-93944047D02*
X167879819Y-93753571D01*
X167879819Y-93753571D02*
X167832200Y-93658333D01*
X167832200Y-93658333D02*
X167784580Y-93610714D01*
X167784580Y-93610714D02*
X167689342Y-93563095D01*
X167689342Y-93563095D02*
X167451247Y-93563095D01*
X167451247Y-93563095D02*
X167356009Y-93610714D01*
X167356009Y-93610714D02*
X167308390Y-93658333D01*
X167308390Y-93658333D02*
X167260771Y-93753571D01*
X167260771Y-93753571D02*
X167260771Y-93944047D01*
X167260771Y-93944047D02*
X167308390Y-94039285D01*
X167308390Y-94039285D02*
X167356009Y-94086904D01*
X167356009Y-94086904D02*
X167451247Y-94134523D01*
X103910714Y-108294104D02*
X104386904Y-108294104D01*
X103815476Y-108579819D02*
X104148809Y-107579819D01*
X104148809Y-107579819D02*
X104482142Y-108579819D01*
X104720238Y-107579819D02*
X105386904Y-107579819D01*
X105386904Y-107579819D02*
X104958333Y-108579819D01*
D11*
X155627693Y-108697419D02*
X155056265Y-108697419D01*
X155341979Y-108697419D02*
X155341979Y-107697419D01*
X155341979Y-107697419D02*
X155246741Y-107840276D01*
X155246741Y-107840276D02*
X155151503Y-107935514D01*
X155151503Y-107935514D02*
X155056265Y-107983133D01*
X155961027Y-107697419D02*
X156580074Y-107697419D01*
X156580074Y-107697419D02*
X156246741Y-108078371D01*
X156246741Y-108078371D02*
X156389598Y-108078371D01*
X156389598Y-108078371D02*
X156484836Y-108125990D01*
X156484836Y-108125990D02*
X156532455Y-108173609D01*
X156532455Y-108173609D02*
X156580074Y-108268847D01*
X156580074Y-108268847D02*
X156580074Y-108506942D01*
X156580074Y-108506942D02*
X156532455Y-108602180D01*
X156532455Y-108602180D02*
X156484836Y-108649800D01*
X156484836Y-108649800D02*
X156389598Y-108697419D01*
X156389598Y-108697419D02*
X156103884Y-108697419D01*
X156103884Y-108697419D02*
X156008646Y-108649800D01*
X156008646Y-108649800D02*
X155961027Y-108602180D01*
D10*
X166879819Y-90009523D02*
X166879819Y-89390476D01*
X166879819Y-89390476D02*
X167260771Y-89723809D01*
X167260771Y-89723809D02*
X167260771Y-89580952D01*
X167260771Y-89580952D02*
X167308390Y-89485714D01*
X167308390Y-89485714D02*
X167356009Y-89438095D01*
X167356009Y-89438095D02*
X167451247Y-89390476D01*
X167451247Y-89390476D02*
X167689342Y-89390476D01*
X167689342Y-89390476D02*
X167784580Y-89438095D01*
X167784580Y-89438095D02*
X167832200Y-89485714D01*
X167832200Y-89485714D02*
X167879819Y-89580952D01*
X167879819Y-89580952D02*
X167879819Y-89866666D01*
X167879819Y-89866666D02*
X167832200Y-89961904D01*
X167832200Y-89961904D02*
X167784580Y-90009523D01*
X167308390Y-88819047D02*
X167260771Y-88914285D01*
X167260771Y-88914285D02*
X167213152Y-88961904D01*
X167213152Y-88961904D02*
X167117914Y-89009523D01*
X167117914Y-89009523D02*
X167070295Y-89009523D01*
X167070295Y-89009523D02*
X166975057Y-88961904D01*
X166975057Y-88961904D02*
X166927438Y-88914285D01*
X166927438Y-88914285D02*
X166879819Y-88819047D01*
X166879819Y-88819047D02*
X166879819Y-88628571D01*
X166879819Y-88628571D02*
X166927438Y-88533333D01*
X166927438Y-88533333D02*
X166975057Y-88485714D01*
X166975057Y-88485714D02*
X167070295Y-88438095D01*
X167070295Y-88438095D02*
X167117914Y-88438095D01*
X167117914Y-88438095D02*
X167213152Y-88485714D01*
X167213152Y-88485714D02*
X167260771Y-88533333D01*
X167260771Y-88533333D02*
X167308390Y-88628571D01*
X167308390Y-88628571D02*
X167308390Y-88819047D01*
X167308390Y-88819047D02*
X167356009Y-88914285D01*
X167356009Y-88914285D02*
X167403628Y-88961904D01*
X167403628Y-88961904D02*
X167498866Y-89009523D01*
X167498866Y-89009523D02*
X167689342Y-89009523D01*
X167689342Y-89009523D02*
X167784580Y-88961904D01*
X167784580Y-88961904D02*
X167832200Y-88914285D01*
X167832200Y-88914285D02*
X167879819Y-88819047D01*
X167879819Y-88819047D02*
X167879819Y-88628571D01*
X167879819Y-88628571D02*
X167832200Y-88533333D01*
X167832200Y-88533333D02*
X167784580Y-88485714D01*
X167784580Y-88485714D02*
X167689342Y-88438095D01*
X167689342Y-88438095D02*
X167498866Y-88438095D01*
X167498866Y-88438095D02*
X167403628Y-88485714D01*
X167403628Y-88485714D02*
X167356009Y-88533333D01*
X167356009Y-88533333D02*
X167308390Y-88628571D01*
X166904819Y-74636904D02*
X166904819Y-74065476D01*
X167904819Y-74351190D02*
X166904819Y-74351190D01*
X166904819Y-73827380D02*
X167904819Y-73160714D01*
X166904819Y-73160714D02*
X167904819Y-73827380D01*
X167213152Y-79310714D02*
X167879819Y-79310714D01*
X166832200Y-79548809D02*
X167546485Y-79786904D01*
X167546485Y-79786904D02*
X167546485Y-79167857D01*
X166975057Y-78834523D02*
X166927438Y-78786904D01*
X166927438Y-78786904D02*
X166879819Y-78691666D01*
X166879819Y-78691666D02*
X166879819Y-78453571D01*
X166879819Y-78453571D02*
X166927438Y-78358333D01*
X166927438Y-78358333D02*
X166975057Y-78310714D01*
X166975057Y-78310714D02*
X167070295Y-78263095D01*
X167070295Y-78263095D02*
X167165533Y-78263095D01*
X167165533Y-78263095D02*
X167308390Y-78310714D01*
X167308390Y-78310714D02*
X167879819Y-78882142D01*
X167879819Y-78882142D02*
X167879819Y-78263095D01*
X167879819Y-76616666D02*
X167403628Y-76949999D01*
X167879819Y-77188094D02*
X166879819Y-77188094D01*
X166879819Y-77188094D02*
X166879819Y-76807142D01*
X166879819Y-76807142D02*
X166927438Y-76711904D01*
X166927438Y-76711904D02*
X166975057Y-76664285D01*
X166975057Y-76664285D02*
X167070295Y-76616666D01*
X167070295Y-76616666D02*
X167213152Y-76616666D01*
X167213152Y-76616666D02*
X167308390Y-76664285D01*
X167308390Y-76664285D02*
X167356009Y-76711904D01*
X167356009Y-76711904D02*
X167403628Y-76807142D01*
X167403628Y-76807142D02*
X167403628Y-77188094D01*
X166879819Y-76283332D02*
X167879819Y-75616666D01*
X166879819Y-75616666D02*
X167879819Y-76283332D01*
D11*
X136606265Y-73574800D02*
X136749122Y-73622419D01*
X136749122Y-73622419D02*
X136987217Y-73622419D01*
X136987217Y-73622419D02*
X137082455Y-73574800D01*
X137082455Y-73574800D02*
X137130074Y-73527180D01*
X137130074Y-73527180D02*
X137177693Y-73431942D01*
X137177693Y-73431942D02*
X137177693Y-73336704D01*
X137177693Y-73336704D02*
X137130074Y-73241466D01*
X137130074Y-73241466D02*
X137082455Y-73193847D01*
X137082455Y-73193847D02*
X136987217Y-73146228D01*
X136987217Y-73146228D02*
X136796741Y-73098609D01*
X136796741Y-73098609D02*
X136701503Y-73050990D01*
X136701503Y-73050990D02*
X136653884Y-73003371D01*
X136653884Y-73003371D02*
X136606265Y-72908133D01*
X136606265Y-72908133D02*
X136606265Y-72812895D01*
X136606265Y-72812895D02*
X136653884Y-72717657D01*
X136653884Y-72717657D02*
X136701503Y-72670038D01*
X136701503Y-72670038D02*
X136796741Y-72622419D01*
X136796741Y-72622419D02*
X137034836Y-72622419D01*
X137034836Y-72622419D02*
X137177693Y-72670038D01*
X137606265Y-73622419D02*
X137606265Y-72622419D01*
X138606264Y-72670038D02*
X138511026Y-72622419D01*
X138511026Y-72622419D02*
X138368169Y-72622419D01*
X138368169Y-72622419D02*
X138225312Y-72670038D01*
X138225312Y-72670038D02*
X138130074Y-72765276D01*
X138130074Y-72765276D02*
X138082455Y-72860514D01*
X138082455Y-72860514D02*
X138034836Y-73050990D01*
X138034836Y-73050990D02*
X138034836Y-73193847D01*
X138034836Y-73193847D02*
X138082455Y-73384323D01*
X138082455Y-73384323D02*
X138130074Y-73479561D01*
X138130074Y-73479561D02*
X138225312Y-73574800D01*
X138225312Y-73574800D02*
X138368169Y-73622419D01*
X138368169Y-73622419D02*
X138463407Y-73622419D01*
X138463407Y-73622419D02*
X138606264Y-73574800D01*
X138606264Y-73574800D02*
X138653883Y-73527180D01*
X138653883Y-73527180D02*
X138653883Y-73193847D01*
X138653883Y-73193847D02*
X138463407Y-73193847D01*
X139082455Y-73622419D02*
X139082455Y-72622419D01*
X139082455Y-72622419D02*
X139653883Y-73622419D01*
X139653883Y-73622419D02*
X139653883Y-72622419D01*
X140082455Y-73336704D02*
X140558645Y-73336704D01*
X139987217Y-73622419D02*
X140320550Y-72622419D01*
X140320550Y-72622419D02*
X140653883Y-73622419D01*
X141463407Y-73622419D02*
X140987217Y-73622419D01*
X140987217Y-73622419D02*
X140987217Y-72622419D01*
D10*
X96285714Y-108394104D02*
X96761904Y-108394104D01*
X96190476Y-108679819D02*
X96523809Y-107679819D01*
X96523809Y-107679819D02*
X96857142Y-108679819D01*
X97619047Y-108013152D02*
X97619047Y-108679819D01*
X97380952Y-107632200D02*
X97142857Y-108346485D01*
X97142857Y-108346485D02*
X97761904Y-108346485D01*
X126422618Y-107354819D02*
X126089285Y-106878628D01*
X125851190Y-107354819D02*
X125851190Y-106354819D01*
X125851190Y-106354819D02*
X126232142Y-106354819D01*
X126232142Y-106354819D02*
X126327380Y-106402438D01*
X126327380Y-106402438D02*
X126374999Y-106450057D01*
X126374999Y-106450057D02*
X126422618Y-106545295D01*
X126422618Y-106545295D02*
X126422618Y-106688152D01*
X126422618Y-106688152D02*
X126374999Y-106783390D01*
X126374999Y-106783390D02*
X126327380Y-106831009D01*
X126327380Y-106831009D02*
X126232142Y-106878628D01*
X126232142Y-106878628D02*
X125851190Y-106878628D01*
X126851190Y-106831009D02*
X127184523Y-106831009D01*
X127327380Y-107354819D02*
X126851190Y-107354819D01*
X126851190Y-107354819D02*
X126851190Y-106354819D01*
X126851190Y-106354819D02*
X127327380Y-106354819D01*
X127708333Y-107307200D02*
X127851190Y-107354819D01*
X127851190Y-107354819D02*
X128089285Y-107354819D01*
X128089285Y-107354819D02*
X128184523Y-107307200D01*
X128184523Y-107307200D02*
X128232142Y-107259580D01*
X128232142Y-107259580D02*
X128279761Y-107164342D01*
X128279761Y-107164342D02*
X128279761Y-107069104D01*
X128279761Y-107069104D02*
X128232142Y-106973866D01*
X128232142Y-106973866D02*
X128184523Y-106926247D01*
X128184523Y-106926247D02*
X128089285Y-106878628D01*
X128089285Y-106878628D02*
X127898809Y-106831009D01*
X127898809Y-106831009D02*
X127803571Y-106783390D01*
X127803571Y-106783390D02*
X127755952Y-106735771D01*
X127755952Y-106735771D02*
X127708333Y-106640533D01*
X127708333Y-106640533D02*
X127708333Y-106545295D01*
X127708333Y-106545295D02*
X127755952Y-106450057D01*
X127755952Y-106450057D02*
X127803571Y-106402438D01*
X127803571Y-106402438D02*
X127898809Y-106354819D01*
X127898809Y-106354819D02*
X128136904Y-106354819D01*
X128136904Y-106354819D02*
X128279761Y-106402438D01*
X128708333Y-106831009D02*
X129041666Y-106831009D01*
X129184523Y-107354819D02*
X128708333Y-107354819D01*
X128708333Y-107354819D02*
X128708333Y-106354819D01*
X128708333Y-106354819D02*
X129184523Y-106354819D01*
X129470238Y-106354819D02*
X130041666Y-106354819D01*
X129755952Y-107354819D02*
X129755952Y-106354819D01*
D11*
X144752693Y-107695038D02*
X144657455Y-107647419D01*
X144657455Y-107647419D02*
X144514598Y-107647419D01*
X144514598Y-107647419D02*
X144371741Y-107695038D01*
X144371741Y-107695038D02*
X144276503Y-107790276D01*
X144276503Y-107790276D02*
X144228884Y-107885514D01*
X144228884Y-107885514D02*
X144181265Y-108075990D01*
X144181265Y-108075990D02*
X144181265Y-108218847D01*
X144181265Y-108218847D02*
X144228884Y-108409323D01*
X144228884Y-108409323D02*
X144276503Y-108504561D01*
X144276503Y-108504561D02*
X144371741Y-108599800D01*
X144371741Y-108599800D02*
X144514598Y-108647419D01*
X144514598Y-108647419D02*
X144609836Y-108647419D01*
X144609836Y-108647419D02*
X144752693Y-108599800D01*
X144752693Y-108599800D02*
X144800312Y-108552180D01*
X144800312Y-108552180D02*
X144800312Y-108218847D01*
X144800312Y-108218847D02*
X144609836Y-108218847D01*
X145228884Y-108647419D02*
X145228884Y-107647419D01*
X145228884Y-107647419D02*
X145800312Y-108647419D01*
X145800312Y-108647419D02*
X145800312Y-107647419D01*
X146276503Y-108647419D02*
X146276503Y-107647419D01*
X146276503Y-107647419D02*
X146514598Y-107647419D01*
X146514598Y-107647419D02*
X146657455Y-107695038D01*
X146657455Y-107695038D02*
X146752693Y-107790276D01*
X146752693Y-107790276D02*
X146800312Y-107885514D01*
X146800312Y-107885514D02*
X146847931Y-108075990D01*
X146847931Y-108075990D02*
X146847931Y-108218847D01*
X146847931Y-108218847D02*
X146800312Y-108409323D01*
X146800312Y-108409323D02*
X146752693Y-108504561D01*
X146752693Y-108504561D02*
X146657455Y-108599800D01*
X146657455Y-108599800D02*
X146514598Y-108647419D01*
X146514598Y-108647419D02*
X146276503Y-108647419D01*
X103931265Y-78636704D02*
X104407455Y-78636704D01*
X103836027Y-78922419D02*
X104169360Y-77922419D01*
X104169360Y-77922419D02*
X104502693Y-78922419D01*
X104836027Y-78922419D02*
X104836027Y-77922419D01*
X104836027Y-77922419D02*
X105169360Y-78636704D01*
X105169360Y-78636704D02*
X105502693Y-77922419D01*
X105502693Y-77922419D02*
X105502693Y-78922419D01*
X105978884Y-78922419D02*
X105978884Y-77922419D01*
X105978884Y-77922419D02*
X106359836Y-77922419D01*
X106359836Y-77922419D02*
X106455074Y-77970038D01*
X106455074Y-77970038D02*
X106502693Y-78017657D01*
X106502693Y-78017657D02*
X106550312Y-78112895D01*
X106550312Y-78112895D02*
X106550312Y-78255752D01*
X106550312Y-78255752D02*
X106502693Y-78350990D01*
X106502693Y-78350990D02*
X106455074Y-78398609D01*
X106455074Y-78398609D02*
X106359836Y-78446228D01*
X106359836Y-78446228D02*
X105978884Y-78446228D01*
X107740789Y-78922419D02*
X107740789Y-77922419D01*
X107740789Y-77922419D02*
X108121741Y-77922419D01*
X108121741Y-77922419D02*
X108216979Y-77970038D01*
X108216979Y-77970038D02*
X108264598Y-78017657D01*
X108264598Y-78017657D02*
X108312217Y-78112895D01*
X108312217Y-78112895D02*
X108312217Y-78255752D01*
X108312217Y-78255752D02*
X108264598Y-78350990D01*
X108264598Y-78350990D02*
X108216979Y-78398609D01*
X108216979Y-78398609D02*
X108121741Y-78446228D01*
X108121741Y-78446228D02*
X107740789Y-78446228D01*
X108645551Y-77922419D02*
X108883646Y-78922419D01*
X108883646Y-78922419D02*
X109074122Y-78208133D01*
X109074122Y-78208133D02*
X109264598Y-78922419D01*
X109264598Y-78922419D02*
X109502694Y-77922419D01*
X110455074Y-78922419D02*
X110121741Y-78446228D01*
X109883646Y-78922419D02*
X109883646Y-77922419D01*
X109883646Y-77922419D02*
X110264598Y-77922419D01*
X110264598Y-77922419D02*
X110359836Y-77970038D01*
X110359836Y-77970038D02*
X110407455Y-78017657D01*
X110407455Y-78017657D02*
X110455074Y-78112895D01*
X110455074Y-78112895D02*
X110455074Y-78255752D01*
X110455074Y-78255752D02*
X110407455Y-78350990D01*
X110407455Y-78350990D02*
X110359836Y-78398609D01*
X110359836Y-78398609D02*
X110264598Y-78446228D01*
X110264598Y-78446228D02*
X109883646Y-78446228D01*
X101438665Y-73096115D02*
X101438665Y-72762782D01*
X101962475Y-72619925D02*
X101962475Y-73096115D01*
X101962475Y-73096115D02*
X100962475Y-73096115D01*
X100962475Y-73096115D02*
X100962475Y-72619925D01*
X101914856Y-72238972D02*
X101962475Y-72096115D01*
X101962475Y-72096115D02*
X101962475Y-71858020D01*
X101962475Y-71858020D02*
X101914856Y-71762782D01*
X101914856Y-71762782D02*
X101867236Y-71715163D01*
X101867236Y-71715163D02*
X101771998Y-71667544D01*
X101771998Y-71667544D02*
X101676760Y-71667544D01*
X101676760Y-71667544D02*
X101581522Y-71715163D01*
X101581522Y-71715163D02*
X101533903Y-71762782D01*
X101533903Y-71762782D02*
X101486284Y-71858020D01*
X101486284Y-71858020D02*
X101438665Y-72048496D01*
X101438665Y-72048496D02*
X101391046Y-72143734D01*
X101391046Y-72143734D02*
X101343427Y-72191353D01*
X101343427Y-72191353D02*
X101248189Y-72238972D01*
X101248189Y-72238972D02*
X101152951Y-72238972D01*
X101152951Y-72238972D02*
X101057713Y-72191353D01*
X101057713Y-72191353D02*
X101010094Y-72143734D01*
X101010094Y-72143734D02*
X100962475Y-72048496D01*
X100962475Y-72048496D02*
X100962475Y-71810401D01*
X100962475Y-71810401D02*
X101010094Y-71667544D01*
X101962475Y-71238972D02*
X100962475Y-71238972D01*
X100962475Y-71238972D02*
X100962475Y-70858020D01*
X100962475Y-70858020D02*
X101010094Y-70762782D01*
X101010094Y-70762782D02*
X101057713Y-70715163D01*
X101057713Y-70715163D02*
X101152951Y-70667544D01*
X101152951Y-70667544D02*
X101295808Y-70667544D01*
X101295808Y-70667544D02*
X101391046Y-70715163D01*
X101391046Y-70715163D02*
X101438665Y-70762782D01*
X101438665Y-70762782D02*
X101486284Y-70858020D01*
X101486284Y-70858020D02*
X101486284Y-71238972D01*
X100962475Y-70334210D02*
X100962475Y-69715163D01*
X100962475Y-69715163D02*
X101343427Y-70048496D01*
X101343427Y-70048496D02*
X101343427Y-69905639D01*
X101343427Y-69905639D02*
X101391046Y-69810401D01*
X101391046Y-69810401D02*
X101438665Y-69762782D01*
X101438665Y-69762782D02*
X101533903Y-69715163D01*
X101533903Y-69715163D02*
X101771998Y-69715163D01*
X101771998Y-69715163D02*
X101867236Y-69762782D01*
X101867236Y-69762782D02*
X101914856Y-69810401D01*
X101914856Y-69810401D02*
X101962475Y-69905639D01*
X101962475Y-69905639D02*
X101962475Y-70191353D01*
X101962475Y-70191353D02*
X101914856Y-70286591D01*
X101914856Y-70286591D02*
X101867236Y-70334210D01*
X101057713Y-69334210D02*
X101010094Y-69286591D01*
X101010094Y-69286591D02*
X100962475Y-69191353D01*
X100962475Y-69191353D02*
X100962475Y-68953258D01*
X100962475Y-68953258D02*
X101010094Y-68858020D01*
X101010094Y-68858020D02*
X101057713Y-68810401D01*
X101057713Y-68810401D02*
X101152951Y-68762782D01*
X101152951Y-68762782D02*
X101248189Y-68762782D01*
X101248189Y-68762782D02*
X101391046Y-68810401D01*
X101391046Y-68810401D02*
X101962475Y-69381829D01*
X101962475Y-69381829D02*
X101962475Y-68762782D01*
X103572419Y-72334210D02*
X102572419Y-72334210D01*
X102572419Y-72334210D02*
X102572419Y-71953258D01*
X102572419Y-71953258D02*
X102620038Y-71858020D01*
X102620038Y-71858020D02*
X102667657Y-71810401D01*
X102667657Y-71810401D02*
X102762895Y-71762782D01*
X102762895Y-71762782D02*
X102905752Y-71762782D01*
X102905752Y-71762782D02*
X103000990Y-71810401D01*
X103000990Y-71810401D02*
X103048609Y-71858020D01*
X103048609Y-71858020D02*
X103096228Y-71953258D01*
X103096228Y-71953258D02*
X103096228Y-72334210D01*
X102572419Y-71429448D02*
X103572419Y-71191353D01*
X103572419Y-71191353D02*
X102858133Y-71000877D01*
X102858133Y-71000877D02*
X103572419Y-70810401D01*
X103572419Y-70810401D02*
X102572419Y-70572306D01*
X103572419Y-69619925D02*
X103096228Y-69953258D01*
X103572419Y-70191353D02*
X102572419Y-70191353D01*
X102572419Y-70191353D02*
X102572419Y-69810401D01*
X102572419Y-69810401D02*
X102620038Y-69715163D01*
X102620038Y-69715163D02*
X102667657Y-69667544D01*
X102667657Y-69667544D02*
X102762895Y-69619925D01*
X102762895Y-69619925D02*
X102905752Y-69619925D01*
X102905752Y-69619925D02*
X103000990Y-69667544D01*
X103000990Y-69667544D02*
X103048609Y-69715163D01*
X103048609Y-69715163D02*
X103096228Y-69810401D01*
X103096228Y-69810401D02*
X103096228Y-70191353D01*
D10*
X109210714Y-108294104D02*
X109686904Y-108294104D01*
X109115476Y-108579819D02*
X109448809Y-107579819D01*
X109448809Y-107579819D02*
X109782142Y-108579819D01*
X110020238Y-107579819D02*
X110639285Y-107579819D01*
X110639285Y-107579819D02*
X110305952Y-107960771D01*
X110305952Y-107960771D02*
X110448809Y-107960771D01*
X110448809Y-107960771D02*
X110544047Y-108008390D01*
X110544047Y-108008390D02*
X110591666Y-108056009D01*
X110591666Y-108056009D02*
X110639285Y-108151247D01*
X110639285Y-108151247D02*
X110639285Y-108389342D01*
X110639285Y-108389342D02*
X110591666Y-108484580D01*
X110591666Y-108484580D02*
X110544047Y-108532200D01*
X110544047Y-108532200D02*
X110448809Y-108579819D01*
X110448809Y-108579819D02*
X110163095Y-108579819D01*
X110163095Y-108579819D02*
X110067857Y-108532200D01*
X110067857Y-108532200D02*
X110020238Y-108484580D01*
X106610714Y-108319104D02*
X107086904Y-108319104D01*
X106515476Y-108604819D02*
X106848809Y-107604819D01*
X106848809Y-107604819D02*
X107182142Y-108604819D01*
X107658333Y-108033390D02*
X107563095Y-107985771D01*
X107563095Y-107985771D02*
X107515476Y-107938152D01*
X107515476Y-107938152D02*
X107467857Y-107842914D01*
X107467857Y-107842914D02*
X107467857Y-107795295D01*
X107467857Y-107795295D02*
X107515476Y-107700057D01*
X107515476Y-107700057D02*
X107563095Y-107652438D01*
X107563095Y-107652438D02*
X107658333Y-107604819D01*
X107658333Y-107604819D02*
X107848809Y-107604819D01*
X107848809Y-107604819D02*
X107944047Y-107652438D01*
X107944047Y-107652438D02*
X107991666Y-107700057D01*
X107991666Y-107700057D02*
X108039285Y-107795295D01*
X108039285Y-107795295D02*
X108039285Y-107842914D01*
X108039285Y-107842914D02*
X107991666Y-107938152D01*
X107991666Y-107938152D02*
X107944047Y-107985771D01*
X107944047Y-107985771D02*
X107848809Y-108033390D01*
X107848809Y-108033390D02*
X107658333Y-108033390D01*
X107658333Y-108033390D02*
X107563095Y-108081009D01*
X107563095Y-108081009D02*
X107515476Y-108128628D01*
X107515476Y-108128628D02*
X107467857Y-108223866D01*
X107467857Y-108223866D02*
X107467857Y-108414342D01*
X107467857Y-108414342D02*
X107515476Y-108509580D01*
X107515476Y-108509580D02*
X107563095Y-108557200D01*
X107563095Y-108557200D02*
X107658333Y-108604819D01*
X107658333Y-108604819D02*
X107848809Y-108604819D01*
X107848809Y-108604819D02*
X107944047Y-108557200D01*
X107944047Y-108557200D02*
X107991666Y-108509580D01*
X107991666Y-108509580D02*
X108039285Y-108414342D01*
X108039285Y-108414342D02*
X108039285Y-108223866D01*
X108039285Y-108223866D02*
X107991666Y-108128628D01*
X107991666Y-108128628D02*
X107944047Y-108081009D01*
X107944047Y-108081009D02*
X107848809Y-108033390D01*
X148201142Y-93704580D02*
X148153523Y-93752200D01*
X148153523Y-93752200D02*
X148010666Y-93799819D01*
X148010666Y-93799819D02*
X147915428Y-93799819D01*
X147915428Y-93799819D02*
X147772571Y-93752200D01*
X147772571Y-93752200D02*
X147677333Y-93656961D01*
X147677333Y-93656961D02*
X147629714Y-93561723D01*
X147629714Y-93561723D02*
X147582095Y-93371247D01*
X147582095Y-93371247D02*
X147582095Y-93228390D01*
X147582095Y-93228390D02*
X147629714Y-93037914D01*
X147629714Y-93037914D02*
X147677333Y-92942676D01*
X147677333Y-92942676D02*
X147772571Y-92847438D01*
X147772571Y-92847438D02*
X147915428Y-92799819D01*
X147915428Y-92799819D02*
X148010666Y-92799819D01*
X148010666Y-92799819D02*
X148153523Y-92847438D01*
X148153523Y-92847438D02*
X148201142Y-92895057D01*
X149153523Y-93799819D02*
X148582095Y-93799819D01*
X148867809Y-93799819D02*
X148867809Y-92799819D01*
X148867809Y-92799819D02*
X148772571Y-92942676D01*
X148772571Y-92942676D02*
X148677333Y-93037914D01*
X148677333Y-93037914D02*
X148582095Y-93085533D01*
X150010666Y-93133152D02*
X150010666Y-93799819D01*
X149772571Y-92752200D02*
X149534476Y-93466485D01*
X149534476Y-93466485D02*
X150153523Y-93466485D01*
X116938095Y-43444819D02*
X116938095Y-44254342D01*
X116938095Y-44254342D02*
X116985714Y-44349580D01*
X116985714Y-44349580D02*
X117033333Y-44397200D01*
X117033333Y-44397200D02*
X117128571Y-44444819D01*
X117128571Y-44444819D02*
X117319047Y-44444819D01*
X117319047Y-44444819D02*
X117414285Y-44397200D01*
X117414285Y-44397200D02*
X117461904Y-44349580D01*
X117461904Y-44349580D02*
X117509523Y-44254342D01*
X117509523Y-44254342D02*
X117509523Y-43444819D01*
X118509523Y-44444819D02*
X117938095Y-44444819D01*
X118223809Y-44444819D02*
X118223809Y-43444819D01*
X118223809Y-43444819D02*
X118128571Y-43587676D01*
X118128571Y-43587676D02*
X118033333Y-43682914D01*
X118033333Y-43682914D02*
X117938095Y-43730533D01*
X122883333Y-81334819D02*
X122550000Y-80858628D01*
X122311905Y-81334819D02*
X122311905Y-80334819D01*
X122311905Y-80334819D02*
X122692857Y-80334819D01*
X122692857Y-80334819D02*
X122788095Y-80382438D01*
X122788095Y-80382438D02*
X122835714Y-80430057D01*
X122835714Y-80430057D02*
X122883333Y-80525295D01*
X122883333Y-80525295D02*
X122883333Y-80668152D01*
X122883333Y-80668152D02*
X122835714Y-80763390D01*
X122835714Y-80763390D02*
X122788095Y-80811009D01*
X122788095Y-80811009D02*
X122692857Y-80858628D01*
X122692857Y-80858628D02*
X122311905Y-80858628D01*
X123835714Y-81334819D02*
X123264286Y-81334819D01*
X123550000Y-81334819D02*
X123550000Y-80334819D01*
X123550000Y-80334819D02*
X123454762Y-80477676D01*
X123454762Y-80477676D02*
X123359524Y-80572914D01*
X123359524Y-80572914D02*
X123264286Y-80620533D01*
X142354819Y-105583333D02*
X143069104Y-105583333D01*
X143069104Y-105583333D02*
X143211961Y-105630952D01*
X143211961Y-105630952D02*
X143307200Y-105726190D01*
X143307200Y-105726190D02*
X143354819Y-105869047D01*
X143354819Y-105869047D02*
X143354819Y-105964285D01*
X142354819Y-105202380D02*
X142354819Y-104535714D01*
X142354819Y-104535714D02*
X143354819Y-104964285D01*
X121454819Y-83592857D02*
X120978628Y-83926190D01*
X121454819Y-84164285D02*
X120454819Y-84164285D01*
X120454819Y-84164285D02*
X120454819Y-83783333D01*
X120454819Y-83783333D02*
X120502438Y-83688095D01*
X120502438Y-83688095D02*
X120550057Y-83640476D01*
X120550057Y-83640476D02*
X120645295Y-83592857D01*
X120645295Y-83592857D02*
X120788152Y-83592857D01*
X120788152Y-83592857D02*
X120883390Y-83640476D01*
X120883390Y-83640476D02*
X120931009Y-83688095D01*
X120931009Y-83688095D02*
X120978628Y-83783333D01*
X120978628Y-83783333D02*
X120978628Y-84164285D01*
X121454819Y-82640476D02*
X121454819Y-83211904D01*
X121454819Y-82926190D02*
X120454819Y-82926190D01*
X120454819Y-82926190D02*
X120597676Y-83021428D01*
X120597676Y-83021428D02*
X120692914Y-83116666D01*
X120692914Y-83116666D02*
X120740533Y-83211904D01*
X120454819Y-82021428D02*
X120454819Y-81926190D01*
X120454819Y-81926190D02*
X120502438Y-81830952D01*
X120502438Y-81830952D02*
X120550057Y-81783333D01*
X120550057Y-81783333D02*
X120645295Y-81735714D01*
X120645295Y-81735714D02*
X120835771Y-81688095D01*
X120835771Y-81688095D02*
X121073866Y-81688095D01*
X121073866Y-81688095D02*
X121264342Y-81735714D01*
X121264342Y-81735714D02*
X121359580Y-81783333D01*
X121359580Y-81783333D02*
X121407200Y-81830952D01*
X121407200Y-81830952D02*
X121454819Y-81926190D01*
X121454819Y-81926190D02*
X121454819Y-82021428D01*
X121454819Y-82021428D02*
X121407200Y-82116666D01*
X121407200Y-82116666D02*
X121359580Y-82164285D01*
X121359580Y-82164285D02*
X121264342Y-82211904D01*
X121264342Y-82211904D02*
X121073866Y-82259523D01*
X121073866Y-82259523D02*
X120835771Y-82259523D01*
X120835771Y-82259523D02*
X120645295Y-82211904D01*
X120645295Y-82211904D02*
X120550057Y-82164285D01*
X120550057Y-82164285D02*
X120502438Y-82116666D01*
X120502438Y-82116666D02*
X120454819Y-82021428D01*
X84142319Y-91063333D02*
X84856604Y-91063333D01*
X84856604Y-91063333D02*
X84999461Y-91110952D01*
X84999461Y-91110952D02*
X85094700Y-91206190D01*
X85094700Y-91206190D02*
X85142319Y-91349047D01*
X85142319Y-91349047D02*
X85142319Y-91444285D01*
X84142319Y-90682380D02*
X84142319Y-90063333D01*
X84142319Y-90063333D02*
X84523271Y-90396666D01*
X84523271Y-90396666D02*
X84523271Y-90253809D01*
X84523271Y-90253809D02*
X84570890Y-90158571D01*
X84570890Y-90158571D02*
X84618509Y-90110952D01*
X84618509Y-90110952D02*
X84713747Y-90063333D01*
X84713747Y-90063333D02*
X84951842Y-90063333D01*
X84951842Y-90063333D02*
X85047080Y-90110952D01*
X85047080Y-90110952D02*
X85094700Y-90158571D01*
X85094700Y-90158571D02*
X85142319Y-90253809D01*
X85142319Y-90253809D02*
X85142319Y-90539523D01*
X85142319Y-90539523D02*
X85094700Y-90634761D01*
X85094700Y-90634761D02*
X85047080Y-90682380D01*
X133580952Y-108207200D02*
X133723809Y-108254819D01*
X133723809Y-108254819D02*
X133961904Y-108254819D01*
X133961904Y-108254819D02*
X134057142Y-108207200D01*
X134057142Y-108207200D02*
X134104761Y-108159580D01*
X134104761Y-108159580D02*
X134152380Y-108064342D01*
X134152380Y-108064342D02*
X134152380Y-107969104D01*
X134152380Y-107969104D02*
X134104761Y-107873866D01*
X134104761Y-107873866D02*
X134057142Y-107826247D01*
X134057142Y-107826247D02*
X133961904Y-107778628D01*
X133961904Y-107778628D02*
X133771428Y-107731009D01*
X133771428Y-107731009D02*
X133676190Y-107683390D01*
X133676190Y-107683390D02*
X133628571Y-107635771D01*
X133628571Y-107635771D02*
X133580952Y-107540533D01*
X133580952Y-107540533D02*
X133580952Y-107445295D01*
X133580952Y-107445295D02*
X133628571Y-107350057D01*
X133628571Y-107350057D02*
X133676190Y-107302438D01*
X133676190Y-107302438D02*
X133771428Y-107254819D01*
X133771428Y-107254819D02*
X134009523Y-107254819D01*
X134009523Y-107254819D02*
X134152380Y-107302438D01*
X134580952Y-108254819D02*
X134580952Y-107254819D01*
X134580952Y-107254819D02*
X134961904Y-107254819D01*
X134961904Y-107254819D02*
X135057142Y-107302438D01*
X135057142Y-107302438D02*
X135104761Y-107350057D01*
X135104761Y-107350057D02*
X135152380Y-107445295D01*
X135152380Y-107445295D02*
X135152380Y-107588152D01*
X135152380Y-107588152D02*
X135104761Y-107683390D01*
X135104761Y-107683390D02*
X135057142Y-107731009D01*
X135057142Y-107731009D02*
X134961904Y-107778628D01*
X134961904Y-107778628D02*
X134580952Y-107778628D01*
X135580952Y-107731009D02*
X135914285Y-107731009D01*
X136057142Y-108254819D02*
X135580952Y-108254819D01*
X135580952Y-108254819D02*
X135580952Y-107254819D01*
X135580952Y-107254819D02*
X136057142Y-107254819D01*
X136438095Y-107969104D02*
X136914285Y-107969104D01*
X136342857Y-108254819D02*
X136676190Y-107254819D01*
X136676190Y-107254819D02*
X137009523Y-108254819D01*
X137342857Y-108254819D02*
X137342857Y-107254819D01*
X137914285Y-108254819D02*
X137485714Y-107683390D01*
X137914285Y-107254819D02*
X137342857Y-107826247D01*
X138342857Y-107731009D02*
X138676190Y-107731009D01*
X138819047Y-108254819D02*
X138342857Y-108254819D01*
X138342857Y-108254819D02*
X138342857Y-107254819D01*
X138342857Y-107254819D02*
X138819047Y-107254819D01*
X139819047Y-108254819D02*
X139485714Y-107778628D01*
X139247619Y-108254819D02*
X139247619Y-107254819D01*
X139247619Y-107254819D02*
X139628571Y-107254819D01*
X139628571Y-107254819D02*
X139723809Y-107302438D01*
X139723809Y-107302438D02*
X139771428Y-107350057D01*
X139771428Y-107350057D02*
X139819047Y-107445295D01*
X139819047Y-107445295D02*
X139819047Y-107588152D01*
X139819047Y-107588152D02*
X139771428Y-107683390D01*
X139771428Y-107683390D02*
X139723809Y-107731009D01*
X139723809Y-107731009D02*
X139628571Y-107778628D01*
X139628571Y-107778628D02*
X139247619Y-107778628D01*
X97074580Y-76667857D02*
X97122200Y-76715476D01*
X97122200Y-76715476D02*
X97169819Y-76858333D01*
X97169819Y-76858333D02*
X97169819Y-76953571D01*
X97169819Y-76953571D02*
X97122200Y-77096428D01*
X97122200Y-77096428D02*
X97026961Y-77191666D01*
X97026961Y-77191666D02*
X96931723Y-77239285D01*
X96931723Y-77239285D02*
X96741247Y-77286904D01*
X96741247Y-77286904D02*
X96598390Y-77286904D01*
X96598390Y-77286904D02*
X96407914Y-77239285D01*
X96407914Y-77239285D02*
X96312676Y-77191666D01*
X96312676Y-77191666D02*
X96217438Y-77096428D01*
X96217438Y-77096428D02*
X96169819Y-76953571D01*
X96169819Y-76953571D02*
X96169819Y-76858333D01*
X96169819Y-76858333D02*
X96217438Y-76715476D01*
X96217438Y-76715476D02*
X96265057Y-76667857D01*
X97169819Y-75715476D02*
X97169819Y-76286904D01*
X97169819Y-76001190D02*
X96169819Y-76001190D01*
X96169819Y-76001190D02*
X96312676Y-76096428D01*
X96312676Y-76096428D02*
X96407914Y-76191666D01*
X96407914Y-76191666D02*
X96455533Y-76286904D01*
X96265057Y-75334523D02*
X96217438Y-75286904D01*
X96217438Y-75286904D02*
X96169819Y-75191666D01*
X96169819Y-75191666D02*
X96169819Y-74953571D01*
X96169819Y-74953571D02*
X96217438Y-74858333D01*
X96217438Y-74858333D02*
X96265057Y-74810714D01*
X96265057Y-74810714D02*
X96360295Y-74763095D01*
X96360295Y-74763095D02*
X96455533Y-74763095D01*
X96455533Y-74763095D02*
X96598390Y-74810714D01*
X96598390Y-74810714D02*
X97169819Y-75382142D01*
X97169819Y-75382142D02*
X97169819Y-74763095D01*
X125959580Y-94392857D02*
X126007200Y-94440476D01*
X126007200Y-94440476D02*
X126054819Y-94583333D01*
X126054819Y-94583333D02*
X126054819Y-94678571D01*
X126054819Y-94678571D02*
X126007200Y-94821428D01*
X126007200Y-94821428D02*
X125911961Y-94916666D01*
X125911961Y-94916666D02*
X125816723Y-94964285D01*
X125816723Y-94964285D02*
X125626247Y-95011904D01*
X125626247Y-95011904D02*
X125483390Y-95011904D01*
X125483390Y-95011904D02*
X125292914Y-94964285D01*
X125292914Y-94964285D02*
X125197676Y-94916666D01*
X125197676Y-94916666D02*
X125102438Y-94821428D01*
X125102438Y-94821428D02*
X125054819Y-94678571D01*
X125054819Y-94678571D02*
X125054819Y-94583333D01*
X125054819Y-94583333D02*
X125102438Y-94440476D01*
X125102438Y-94440476D02*
X125150057Y-94392857D01*
X126054819Y-93440476D02*
X126054819Y-94011904D01*
X126054819Y-93726190D02*
X125054819Y-93726190D01*
X125054819Y-93726190D02*
X125197676Y-93821428D01*
X125197676Y-93821428D02*
X125292914Y-93916666D01*
X125292914Y-93916666D02*
X125340533Y-94011904D01*
X125054819Y-93107142D02*
X125054819Y-92440476D01*
X125054819Y-92440476D02*
X126054819Y-92869047D01*
X140261904Y-91295180D02*
X140261904Y-90485657D01*
X140261904Y-90485657D02*
X140214285Y-90390419D01*
X140214285Y-90390419D02*
X140166666Y-90342800D01*
X140166666Y-90342800D02*
X140071428Y-90295180D01*
X140071428Y-90295180D02*
X139880952Y-90295180D01*
X139880952Y-90295180D02*
X139785714Y-90342800D01*
X139785714Y-90342800D02*
X139738095Y-90390419D01*
X139738095Y-90390419D02*
X139690476Y-90485657D01*
X139690476Y-90485657D02*
X139690476Y-91295180D01*
X139309523Y-91295180D02*
X138690476Y-91295180D01*
X138690476Y-91295180D02*
X139023809Y-90914228D01*
X139023809Y-90914228D02*
X138880952Y-90914228D01*
X138880952Y-90914228D02*
X138785714Y-90866609D01*
X138785714Y-90866609D02*
X138738095Y-90818990D01*
X138738095Y-90818990D02*
X138690476Y-90723752D01*
X138690476Y-90723752D02*
X138690476Y-90485657D01*
X138690476Y-90485657D02*
X138738095Y-90390419D01*
X138738095Y-90390419D02*
X138785714Y-90342800D01*
X138785714Y-90342800D02*
X138880952Y-90295180D01*
X138880952Y-90295180D02*
X139166666Y-90295180D01*
X139166666Y-90295180D02*
X139261904Y-90342800D01*
X139261904Y-90342800D02*
X139309523Y-90390419D01*
X142217800Y-96351619D02*
X142217800Y-96589714D01*
X141979705Y-96494476D02*
X142217800Y-96589714D01*
X142217800Y-96589714D02*
X142455895Y-96494476D01*
X142074943Y-96780190D02*
X142217800Y-96589714D01*
X142217800Y-96589714D02*
X142360657Y-96780190D01*
X142217799Y-97441980D02*
X142217799Y-97203885D01*
X142455894Y-97299123D02*
X142217799Y-97203885D01*
X142217799Y-97203885D02*
X141979704Y-97299123D01*
X142360656Y-97013409D02*
X142217799Y-97203885D01*
X142217799Y-97203885D02*
X142074942Y-97013409D01*
X103357142Y-59054819D02*
X103023809Y-58578628D01*
X102785714Y-59054819D02*
X102785714Y-58054819D01*
X102785714Y-58054819D02*
X103166666Y-58054819D01*
X103166666Y-58054819D02*
X103261904Y-58102438D01*
X103261904Y-58102438D02*
X103309523Y-58150057D01*
X103309523Y-58150057D02*
X103357142Y-58245295D01*
X103357142Y-58245295D02*
X103357142Y-58388152D01*
X103357142Y-58388152D02*
X103309523Y-58483390D01*
X103309523Y-58483390D02*
X103261904Y-58531009D01*
X103261904Y-58531009D02*
X103166666Y-58578628D01*
X103166666Y-58578628D02*
X102785714Y-58578628D01*
X104309523Y-59054819D02*
X103738095Y-59054819D01*
X104023809Y-59054819D02*
X104023809Y-58054819D01*
X104023809Y-58054819D02*
X103928571Y-58197676D01*
X103928571Y-58197676D02*
X103833333Y-58292914D01*
X103833333Y-58292914D02*
X103738095Y-58340533D01*
X105214285Y-58054819D02*
X104738095Y-58054819D01*
X104738095Y-58054819D02*
X104690476Y-58531009D01*
X104690476Y-58531009D02*
X104738095Y-58483390D01*
X104738095Y-58483390D02*
X104833333Y-58435771D01*
X104833333Y-58435771D02*
X105071428Y-58435771D01*
X105071428Y-58435771D02*
X105166666Y-58483390D01*
X105166666Y-58483390D02*
X105214285Y-58531009D01*
X105214285Y-58531009D02*
X105261904Y-58626247D01*
X105261904Y-58626247D02*
X105261904Y-58864342D01*
X105261904Y-58864342D02*
X105214285Y-58959580D01*
X105214285Y-58959580D02*
X105166666Y-59007200D01*
X105166666Y-59007200D02*
X105071428Y-59054819D01*
X105071428Y-59054819D02*
X104833333Y-59054819D01*
X104833333Y-59054819D02*
X104738095Y-59007200D01*
X104738095Y-59007200D02*
X104690476Y-58959580D01*
X147279819Y-57041904D02*
X148089342Y-57041904D01*
X148089342Y-57041904D02*
X148184580Y-56994285D01*
X148184580Y-56994285D02*
X148232200Y-56946666D01*
X148232200Y-56946666D02*
X148279819Y-56851428D01*
X148279819Y-56851428D02*
X148279819Y-56660952D01*
X148279819Y-56660952D02*
X148232200Y-56565714D01*
X148232200Y-56565714D02*
X148184580Y-56518095D01*
X148184580Y-56518095D02*
X148089342Y-56470476D01*
X148089342Y-56470476D02*
X147279819Y-56470476D01*
X147375057Y-56041904D02*
X147327438Y-55994285D01*
X147327438Y-55994285D02*
X147279819Y-55899047D01*
X147279819Y-55899047D02*
X147279819Y-55660952D01*
X147279819Y-55660952D02*
X147327438Y-55565714D01*
X147327438Y-55565714D02*
X147375057Y-55518095D01*
X147375057Y-55518095D02*
X147470295Y-55470476D01*
X147470295Y-55470476D02*
X147565533Y-55470476D01*
X147565533Y-55470476D02*
X147708390Y-55518095D01*
X147708390Y-55518095D02*
X148279819Y-56089523D01*
X148279819Y-56089523D02*
X148279819Y-55470476D01*
X95722142Y-52534580D02*
X95674523Y-52582200D01*
X95674523Y-52582200D02*
X95531666Y-52629819D01*
X95531666Y-52629819D02*
X95436428Y-52629819D01*
X95436428Y-52629819D02*
X95293571Y-52582200D01*
X95293571Y-52582200D02*
X95198333Y-52486961D01*
X95198333Y-52486961D02*
X95150714Y-52391723D01*
X95150714Y-52391723D02*
X95103095Y-52201247D01*
X95103095Y-52201247D02*
X95103095Y-52058390D01*
X95103095Y-52058390D02*
X95150714Y-51867914D01*
X95150714Y-51867914D02*
X95198333Y-51772676D01*
X95198333Y-51772676D02*
X95293571Y-51677438D01*
X95293571Y-51677438D02*
X95436428Y-51629819D01*
X95436428Y-51629819D02*
X95531666Y-51629819D01*
X95531666Y-51629819D02*
X95674523Y-51677438D01*
X95674523Y-51677438D02*
X95722142Y-51725057D01*
X96674523Y-52629819D02*
X96103095Y-52629819D01*
X96388809Y-52629819D02*
X96388809Y-51629819D01*
X96388809Y-51629819D02*
X96293571Y-51772676D01*
X96293571Y-51772676D02*
X96198333Y-51867914D01*
X96198333Y-51867914D02*
X96103095Y-51915533D01*
X97626904Y-52629819D02*
X97055476Y-52629819D01*
X97341190Y-52629819D02*
X97341190Y-51629819D01*
X97341190Y-51629819D02*
X97245952Y-51772676D01*
X97245952Y-51772676D02*
X97150714Y-51867914D01*
X97150714Y-51867914D02*
X97055476Y-51915533D01*
X153379819Y-69666666D02*
X152903628Y-69999999D01*
X153379819Y-70238094D02*
X152379819Y-70238094D01*
X152379819Y-70238094D02*
X152379819Y-69857142D01*
X152379819Y-69857142D02*
X152427438Y-69761904D01*
X152427438Y-69761904D02*
X152475057Y-69714285D01*
X152475057Y-69714285D02*
X152570295Y-69666666D01*
X152570295Y-69666666D02*
X152713152Y-69666666D01*
X152713152Y-69666666D02*
X152808390Y-69714285D01*
X152808390Y-69714285D02*
X152856009Y-69761904D01*
X152856009Y-69761904D02*
X152903628Y-69857142D01*
X152903628Y-69857142D02*
X152903628Y-70238094D01*
X152713152Y-68809523D02*
X153379819Y-68809523D01*
X152332200Y-69047618D02*
X153046485Y-69285713D01*
X153046485Y-69285713D02*
X153046485Y-68666666D01*
X122709580Y-102416666D02*
X122757200Y-102464285D01*
X122757200Y-102464285D02*
X122804819Y-102607142D01*
X122804819Y-102607142D02*
X122804819Y-102702380D01*
X122804819Y-102702380D02*
X122757200Y-102845237D01*
X122757200Y-102845237D02*
X122661961Y-102940475D01*
X122661961Y-102940475D02*
X122566723Y-102988094D01*
X122566723Y-102988094D02*
X122376247Y-103035713D01*
X122376247Y-103035713D02*
X122233390Y-103035713D01*
X122233390Y-103035713D02*
X122042914Y-102988094D01*
X122042914Y-102988094D02*
X121947676Y-102940475D01*
X121947676Y-102940475D02*
X121852438Y-102845237D01*
X121852438Y-102845237D02*
X121804819Y-102702380D01*
X121804819Y-102702380D02*
X121804819Y-102607142D01*
X121804819Y-102607142D02*
X121852438Y-102464285D01*
X121852438Y-102464285D02*
X121900057Y-102416666D01*
X122804819Y-101940475D02*
X122804819Y-101749999D01*
X122804819Y-101749999D02*
X122757200Y-101654761D01*
X122757200Y-101654761D02*
X122709580Y-101607142D01*
X122709580Y-101607142D02*
X122566723Y-101511904D01*
X122566723Y-101511904D02*
X122376247Y-101464285D01*
X122376247Y-101464285D02*
X121995295Y-101464285D01*
X121995295Y-101464285D02*
X121900057Y-101511904D01*
X121900057Y-101511904D02*
X121852438Y-101559523D01*
X121852438Y-101559523D02*
X121804819Y-101654761D01*
X121804819Y-101654761D02*
X121804819Y-101845237D01*
X121804819Y-101845237D02*
X121852438Y-101940475D01*
X121852438Y-101940475D02*
X121900057Y-101988094D01*
X121900057Y-101988094D02*
X121995295Y-102035713D01*
X121995295Y-102035713D02*
X122233390Y-102035713D01*
X122233390Y-102035713D02*
X122328628Y-101988094D01*
X122328628Y-101988094D02*
X122376247Y-101940475D01*
X122376247Y-101940475D02*
X122423866Y-101845237D01*
X122423866Y-101845237D02*
X122423866Y-101654761D01*
X122423866Y-101654761D02*
X122376247Y-101559523D01*
X122376247Y-101559523D02*
X122328628Y-101511904D01*
X122328628Y-101511904D02*
X122233390Y-101464285D01*
X110709580Y-54166666D02*
X110757200Y-54214285D01*
X110757200Y-54214285D02*
X110804819Y-54357142D01*
X110804819Y-54357142D02*
X110804819Y-54452380D01*
X110804819Y-54452380D02*
X110757200Y-54595237D01*
X110757200Y-54595237D02*
X110661961Y-54690475D01*
X110661961Y-54690475D02*
X110566723Y-54738094D01*
X110566723Y-54738094D02*
X110376247Y-54785713D01*
X110376247Y-54785713D02*
X110233390Y-54785713D01*
X110233390Y-54785713D02*
X110042914Y-54738094D01*
X110042914Y-54738094D02*
X109947676Y-54690475D01*
X109947676Y-54690475D02*
X109852438Y-54595237D01*
X109852438Y-54595237D02*
X109804819Y-54452380D01*
X109804819Y-54452380D02*
X109804819Y-54357142D01*
X109804819Y-54357142D02*
X109852438Y-54214285D01*
X109852438Y-54214285D02*
X109900057Y-54166666D01*
X109804819Y-53833332D02*
X109804819Y-53166666D01*
X109804819Y-53166666D02*
X110804819Y-53595237D01*
X137357142Y-84709580D02*
X137309523Y-84757200D01*
X137309523Y-84757200D02*
X137166666Y-84804819D01*
X137166666Y-84804819D02*
X137071428Y-84804819D01*
X137071428Y-84804819D02*
X136928571Y-84757200D01*
X136928571Y-84757200D02*
X136833333Y-84661961D01*
X136833333Y-84661961D02*
X136785714Y-84566723D01*
X136785714Y-84566723D02*
X136738095Y-84376247D01*
X136738095Y-84376247D02*
X136738095Y-84233390D01*
X136738095Y-84233390D02*
X136785714Y-84042914D01*
X136785714Y-84042914D02*
X136833333Y-83947676D01*
X136833333Y-83947676D02*
X136928571Y-83852438D01*
X136928571Y-83852438D02*
X137071428Y-83804819D01*
X137071428Y-83804819D02*
X137166666Y-83804819D01*
X137166666Y-83804819D02*
X137309523Y-83852438D01*
X137309523Y-83852438D02*
X137357142Y-83900057D01*
X138309523Y-84804819D02*
X137738095Y-84804819D01*
X138023809Y-84804819D02*
X138023809Y-83804819D01*
X138023809Y-83804819D02*
X137928571Y-83947676D01*
X137928571Y-83947676D02*
X137833333Y-84042914D01*
X137833333Y-84042914D02*
X137738095Y-84090533D01*
X139214285Y-83804819D02*
X138738095Y-83804819D01*
X138738095Y-83804819D02*
X138690476Y-84281009D01*
X138690476Y-84281009D02*
X138738095Y-84233390D01*
X138738095Y-84233390D02*
X138833333Y-84185771D01*
X138833333Y-84185771D02*
X139071428Y-84185771D01*
X139071428Y-84185771D02*
X139166666Y-84233390D01*
X139166666Y-84233390D02*
X139214285Y-84281009D01*
X139214285Y-84281009D02*
X139261904Y-84376247D01*
X139261904Y-84376247D02*
X139261904Y-84614342D01*
X139261904Y-84614342D02*
X139214285Y-84709580D01*
X139214285Y-84709580D02*
X139166666Y-84757200D01*
X139166666Y-84757200D02*
X139071428Y-84804819D01*
X139071428Y-84804819D02*
X138833333Y-84804819D01*
X138833333Y-84804819D02*
X138738095Y-84757200D01*
X138738095Y-84757200D02*
X138690476Y-84709580D01*
X113238095Y-79054819D02*
X113238095Y-79864342D01*
X113238095Y-79864342D02*
X113285714Y-79959580D01*
X113285714Y-79959580D02*
X113333333Y-80007200D01*
X113333333Y-80007200D02*
X113428571Y-80054819D01*
X113428571Y-80054819D02*
X113619047Y-80054819D01*
X113619047Y-80054819D02*
X113714285Y-80007200D01*
X113714285Y-80007200D02*
X113761904Y-79959580D01*
X113761904Y-79959580D02*
X113809523Y-79864342D01*
X113809523Y-79864342D02*
X113809523Y-79054819D01*
X114714285Y-79054819D02*
X114523809Y-79054819D01*
X114523809Y-79054819D02*
X114428571Y-79102438D01*
X114428571Y-79102438D02*
X114380952Y-79150057D01*
X114380952Y-79150057D02*
X114285714Y-79292914D01*
X114285714Y-79292914D02*
X114238095Y-79483390D01*
X114238095Y-79483390D02*
X114238095Y-79864342D01*
X114238095Y-79864342D02*
X114285714Y-79959580D01*
X114285714Y-79959580D02*
X114333333Y-80007200D01*
X114333333Y-80007200D02*
X114428571Y-80054819D01*
X114428571Y-80054819D02*
X114619047Y-80054819D01*
X114619047Y-80054819D02*
X114714285Y-80007200D01*
X114714285Y-80007200D02*
X114761904Y-79959580D01*
X114761904Y-79959580D02*
X114809523Y-79864342D01*
X114809523Y-79864342D02*
X114809523Y-79626247D01*
X114809523Y-79626247D02*
X114761904Y-79531009D01*
X114761904Y-79531009D02*
X114714285Y-79483390D01*
X114714285Y-79483390D02*
X114619047Y-79435771D01*
X114619047Y-79435771D02*
X114428571Y-79435771D01*
X114428571Y-79435771D02*
X114333333Y-79483390D01*
X114333333Y-79483390D02*
X114285714Y-79531009D01*
X114285714Y-79531009D02*
X114238095Y-79626247D01*
X124357142Y-83124819D02*
X124023809Y-82648628D01*
X123785714Y-83124819D02*
X123785714Y-82124819D01*
X123785714Y-82124819D02*
X124166666Y-82124819D01*
X124166666Y-82124819D02*
X124261904Y-82172438D01*
X124261904Y-82172438D02*
X124309523Y-82220057D01*
X124309523Y-82220057D02*
X124357142Y-82315295D01*
X124357142Y-82315295D02*
X124357142Y-82458152D01*
X124357142Y-82458152D02*
X124309523Y-82553390D01*
X124309523Y-82553390D02*
X124261904Y-82601009D01*
X124261904Y-82601009D02*
X124166666Y-82648628D01*
X124166666Y-82648628D02*
X123785714Y-82648628D01*
X125309523Y-83124819D02*
X124738095Y-83124819D01*
X125023809Y-83124819D02*
X125023809Y-82124819D01*
X125023809Y-82124819D02*
X124928571Y-82267676D01*
X124928571Y-82267676D02*
X124833333Y-82362914D01*
X124833333Y-82362914D02*
X124738095Y-82410533D01*
X126261904Y-83124819D02*
X125690476Y-83124819D01*
X125976190Y-83124819D02*
X125976190Y-82124819D01*
X125976190Y-82124819D02*
X125880952Y-82267676D01*
X125880952Y-82267676D02*
X125785714Y-82362914D01*
X125785714Y-82362914D02*
X125690476Y-82410533D01*
X130757142Y-93459580D02*
X130709523Y-93507200D01*
X130709523Y-93507200D02*
X130566666Y-93554819D01*
X130566666Y-93554819D02*
X130471428Y-93554819D01*
X130471428Y-93554819D02*
X130328571Y-93507200D01*
X130328571Y-93507200D02*
X130233333Y-93411961D01*
X130233333Y-93411961D02*
X130185714Y-93316723D01*
X130185714Y-93316723D02*
X130138095Y-93126247D01*
X130138095Y-93126247D02*
X130138095Y-92983390D01*
X130138095Y-92983390D02*
X130185714Y-92792914D01*
X130185714Y-92792914D02*
X130233333Y-92697676D01*
X130233333Y-92697676D02*
X130328571Y-92602438D01*
X130328571Y-92602438D02*
X130471428Y-92554819D01*
X130471428Y-92554819D02*
X130566666Y-92554819D01*
X130566666Y-92554819D02*
X130709523Y-92602438D01*
X130709523Y-92602438D02*
X130757142Y-92650057D01*
X131709523Y-93554819D02*
X131138095Y-93554819D01*
X131423809Y-93554819D02*
X131423809Y-92554819D01*
X131423809Y-92554819D02*
X131328571Y-92697676D01*
X131328571Y-92697676D02*
X131233333Y-92792914D01*
X131233333Y-92792914D02*
X131138095Y-92840533D01*
X132566666Y-92554819D02*
X132376190Y-92554819D01*
X132376190Y-92554819D02*
X132280952Y-92602438D01*
X132280952Y-92602438D02*
X132233333Y-92650057D01*
X132233333Y-92650057D02*
X132138095Y-92792914D01*
X132138095Y-92792914D02*
X132090476Y-92983390D01*
X132090476Y-92983390D02*
X132090476Y-93364342D01*
X132090476Y-93364342D02*
X132138095Y-93459580D01*
X132138095Y-93459580D02*
X132185714Y-93507200D01*
X132185714Y-93507200D02*
X132280952Y-93554819D01*
X132280952Y-93554819D02*
X132471428Y-93554819D01*
X132471428Y-93554819D02*
X132566666Y-93507200D01*
X132566666Y-93507200D02*
X132614285Y-93459580D01*
X132614285Y-93459580D02*
X132661904Y-93364342D01*
X132661904Y-93364342D02*
X132661904Y-93126247D01*
X132661904Y-93126247D02*
X132614285Y-93031009D01*
X132614285Y-93031009D02*
X132566666Y-92983390D01*
X132566666Y-92983390D02*
X132471428Y-92935771D01*
X132471428Y-92935771D02*
X132280952Y-92935771D01*
X132280952Y-92935771D02*
X132185714Y-92983390D01*
X132185714Y-92983390D02*
X132138095Y-93031009D01*
X132138095Y-93031009D02*
X132090476Y-93126247D01*
X107733333Y-63559580D02*
X107685714Y-63607200D01*
X107685714Y-63607200D02*
X107542857Y-63654819D01*
X107542857Y-63654819D02*
X107447619Y-63654819D01*
X107447619Y-63654819D02*
X107304762Y-63607200D01*
X107304762Y-63607200D02*
X107209524Y-63511961D01*
X107209524Y-63511961D02*
X107161905Y-63416723D01*
X107161905Y-63416723D02*
X107114286Y-63226247D01*
X107114286Y-63226247D02*
X107114286Y-63083390D01*
X107114286Y-63083390D02*
X107161905Y-62892914D01*
X107161905Y-62892914D02*
X107209524Y-62797676D01*
X107209524Y-62797676D02*
X107304762Y-62702438D01*
X107304762Y-62702438D02*
X107447619Y-62654819D01*
X107447619Y-62654819D02*
X107542857Y-62654819D01*
X107542857Y-62654819D02*
X107685714Y-62702438D01*
X107685714Y-62702438D02*
X107733333Y-62750057D01*
X108304762Y-63083390D02*
X108209524Y-63035771D01*
X108209524Y-63035771D02*
X108161905Y-62988152D01*
X108161905Y-62988152D02*
X108114286Y-62892914D01*
X108114286Y-62892914D02*
X108114286Y-62845295D01*
X108114286Y-62845295D02*
X108161905Y-62750057D01*
X108161905Y-62750057D02*
X108209524Y-62702438D01*
X108209524Y-62702438D02*
X108304762Y-62654819D01*
X108304762Y-62654819D02*
X108495238Y-62654819D01*
X108495238Y-62654819D02*
X108590476Y-62702438D01*
X108590476Y-62702438D02*
X108638095Y-62750057D01*
X108638095Y-62750057D02*
X108685714Y-62845295D01*
X108685714Y-62845295D02*
X108685714Y-62892914D01*
X108685714Y-62892914D02*
X108638095Y-62988152D01*
X108638095Y-62988152D02*
X108590476Y-63035771D01*
X108590476Y-63035771D02*
X108495238Y-63083390D01*
X108495238Y-63083390D02*
X108304762Y-63083390D01*
X108304762Y-63083390D02*
X108209524Y-63131009D01*
X108209524Y-63131009D02*
X108161905Y-63178628D01*
X108161905Y-63178628D02*
X108114286Y-63273866D01*
X108114286Y-63273866D02*
X108114286Y-63464342D01*
X108114286Y-63464342D02*
X108161905Y-63559580D01*
X108161905Y-63559580D02*
X108209524Y-63607200D01*
X108209524Y-63607200D02*
X108304762Y-63654819D01*
X108304762Y-63654819D02*
X108495238Y-63654819D01*
X108495238Y-63654819D02*
X108590476Y-63607200D01*
X108590476Y-63607200D02*
X108638095Y-63559580D01*
X108638095Y-63559580D02*
X108685714Y-63464342D01*
X108685714Y-63464342D02*
X108685714Y-63273866D01*
X108685714Y-63273866D02*
X108638095Y-63178628D01*
X108638095Y-63178628D02*
X108590476Y-63131009D01*
X108590476Y-63131009D02*
X108495238Y-63083390D01*
X93549819Y-49083333D02*
X94264104Y-49083333D01*
X94264104Y-49083333D02*
X94406961Y-49130952D01*
X94406961Y-49130952D02*
X94502200Y-49226190D01*
X94502200Y-49226190D02*
X94549819Y-49369047D01*
X94549819Y-49369047D02*
X94549819Y-49464285D01*
X93645057Y-48654761D02*
X93597438Y-48607142D01*
X93597438Y-48607142D02*
X93549819Y-48511904D01*
X93549819Y-48511904D02*
X93549819Y-48273809D01*
X93549819Y-48273809D02*
X93597438Y-48178571D01*
X93597438Y-48178571D02*
X93645057Y-48130952D01*
X93645057Y-48130952D02*
X93740295Y-48083333D01*
X93740295Y-48083333D02*
X93835533Y-48083333D01*
X93835533Y-48083333D02*
X93978390Y-48130952D01*
X93978390Y-48130952D02*
X94549819Y-48702380D01*
X94549819Y-48702380D02*
X94549819Y-48083333D01*
X146869580Y-66246666D02*
X146917200Y-66294285D01*
X146917200Y-66294285D02*
X146964819Y-66437142D01*
X146964819Y-66437142D02*
X146964819Y-66532380D01*
X146964819Y-66532380D02*
X146917200Y-66675237D01*
X146917200Y-66675237D02*
X146821961Y-66770475D01*
X146821961Y-66770475D02*
X146726723Y-66818094D01*
X146726723Y-66818094D02*
X146536247Y-66865713D01*
X146536247Y-66865713D02*
X146393390Y-66865713D01*
X146393390Y-66865713D02*
X146202914Y-66818094D01*
X146202914Y-66818094D02*
X146107676Y-66770475D01*
X146107676Y-66770475D02*
X146012438Y-66675237D01*
X146012438Y-66675237D02*
X145964819Y-66532380D01*
X145964819Y-66532380D02*
X145964819Y-66437142D01*
X145964819Y-66437142D02*
X146012438Y-66294285D01*
X146012438Y-66294285D02*
X146060057Y-66246666D01*
X145964819Y-65913332D02*
X145964819Y-65294285D01*
X145964819Y-65294285D02*
X146345771Y-65627618D01*
X146345771Y-65627618D02*
X146345771Y-65484761D01*
X146345771Y-65484761D02*
X146393390Y-65389523D01*
X146393390Y-65389523D02*
X146441009Y-65341904D01*
X146441009Y-65341904D02*
X146536247Y-65294285D01*
X146536247Y-65294285D02*
X146774342Y-65294285D01*
X146774342Y-65294285D02*
X146869580Y-65341904D01*
X146869580Y-65341904D02*
X146917200Y-65389523D01*
X146917200Y-65389523D02*
X146964819Y-65484761D01*
X146964819Y-65484761D02*
X146964819Y-65770475D01*
X146964819Y-65770475D02*
X146917200Y-65865713D01*
X146917200Y-65865713D02*
X146869580Y-65913332D01*
X85244819Y-79238094D02*
X84244819Y-79238094D01*
X84244819Y-79238094D02*
X84244819Y-78999999D01*
X84244819Y-78999999D02*
X84292438Y-78857142D01*
X84292438Y-78857142D02*
X84387676Y-78761904D01*
X84387676Y-78761904D02*
X84482914Y-78714285D01*
X84482914Y-78714285D02*
X84673390Y-78666666D01*
X84673390Y-78666666D02*
X84816247Y-78666666D01*
X84816247Y-78666666D02*
X85006723Y-78714285D01*
X85006723Y-78714285D02*
X85101961Y-78761904D01*
X85101961Y-78761904D02*
X85197200Y-78857142D01*
X85197200Y-78857142D02*
X85244819Y-78999999D01*
X85244819Y-78999999D02*
X85244819Y-79238094D01*
X84244819Y-78333332D02*
X84244819Y-77714285D01*
X84244819Y-77714285D02*
X84625771Y-78047618D01*
X84625771Y-78047618D02*
X84625771Y-77904761D01*
X84625771Y-77904761D02*
X84673390Y-77809523D01*
X84673390Y-77809523D02*
X84721009Y-77761904D01*
X84721009Y-77761904D02*
X84816247Y-77714285D01*
X84816247Y-77714285D02*
X85054342Y-77714285D01*
X85054342Y-77714285D02*
X85149580Y-77761904D01*
X85149580Y-77761904D02*
X85197200Y-77809523D01*
X85197200Y-77809523D02*
X85244819Y-77904761D01*
X85244819Y-77904761D02*
X85244819Y-78190475D01*
X85244819Y-78190475D02*
X85197200Y-78285713D01*
X85197200Y-78285713D02*
X85149580Y-78333332D01*
X84874819Y-73681904D02*
X83874819Y-73681904D01*
X84874819Y-73110476D02*
X84303390Y-73539047D01*
X83874819Y-73110476D02*
X84446247Y-73681904D01*
X101784819Y-65142857D02*
X101308628Y-65476190D01*
X101784819Y-65714285D02*
X100784819Y-65714285D01*
X100784819Y-65714285D02*
X100784819Y-65333333D01*
X100784819Y-65333333D02*
X100832438Y-65238095D01*
X100832438Y-65238095D02*
X100880057Y-65190476D01*
X100880057Y-65190476D02*
X100975295Y-65142857D01*
X100975295Y-65142857D02*
X101118152Y-65142857D01*
X101118152Y-65142857D02*
X101213390Y-65190476D01*
X101213390Y-65190476D02*
X101261009Y-65238095D01*
X101261009Y-65238095D02*
X101308628Y-65333333D01*
X101308628Y-65333333D02*
X101308628Y-65714285D01*
X101784819Y-64190476D02*
X101784819Y-64761904D01*
X101784819Y-64476190D02*
X100784819Y-64476190D01*
X100784819Y-64476190D02*
X100927676Y-64571428D01*
X100927676Y-64571428D02*
X101022914Y-64666666D01*
X101022914Y-64666666D02*
X101070533Y-64761904D01*
X100784819Y-63857142D02*
X100784819Y-63190476D01*
X100784819Y-63190476D02*
X101784819Y-63619047D01*
X138011905Y-77534819D02*
X138011905Y-76534819D01*
X138011905Y-76534819D02*
X138250000Y-76534819D01*
X138250000Y-76534819D02*
X138392857Y-76582438D01*
X138392857Y-76582438D02*
X138488095Y-76677676D01*
X138488095Y-76677676D02*
X138535714Y-76772914D01*
X138535714Y-76772914D02*
X138583333Y-76963390D01*
X138583333Y-76963390D02*
X138583333Y-77106247D01*
X138583333Y-77106247D02*
X138535714Y-77296723D01*
X138535714Y-77296723D02*
X138488095Y-77391961D01*
X138488095Y-77391961D02*
X138392857Y-77487200D01*
X138392857Y-77487200D02*
X138250000Y-77534819D01*
X138250000Y-77534819D02*
X138011905Y-77534819D01*
X139440476Y-76534819D02*
X139250000Y-76534819D01*
X139250000Y-76534819D02*
X139154762Y-76582438D01*
X139154762Y-76582438D02*
X139107143Y-76630057D01*
X139107143Y-76630057D02*
X139011905Y-76772914D01*
X139011905Y-76772914D02*
X138964286Y-76963390D01*
X138964286Y-76963390D02*
X138964286Y-77344342D01*
X138964286Y-77344342D02*
X139011905Y-77439580D01*
X139011905Y-77439580D02*
X139059524Y-77487200D01*
X139059524Y-77487200D02*
X139154762Y-77534819D01*
X139154762Y-77534819D02*
X139345238Y-77534819D01*
X139345238Y-77534819D02*
X139440476Y-77487200D01*
X139440476Y-77487200D02*
X139488095Y-77439580D01*
X139488095Y-77439580D02*
X139535714Y-77344342D01*
X139535714Y-77344342D02*
X139535714Y-77106247D01*
X139535714Y-77106247D02*
X139488095Y-77011009D01*
X139488095Y-77011009D02*
X139440476Y-76963390D01*
X139440476Y-76963390D02*
X139345238Y-76915771D01*
X139345238Y-76915771D02*
X139154762Y-76915771D01*
X139154762Y-76915771D02*
X139059524Y-76963390D01*
X139059524Y-76963390D02*
X139011905Y-77011009D01*
X139011905Y-77011009D02*
X138964286Y-77106247D01*
X105009580Y-54266666D02*
X105057200Y-54314285D01*
X105057200Y-54314285D02*
X105104819Y-54457142D01*
X105104819Y-54457142D02*
X105104819Y-54552380D01*
X105104819Y-54552380D02*
X105057200Y-54695237D01*
X105057200Y-54695237D02*
X104961961Y-54790475D01*
X104961961Y-54790475D02*
X104866723Y-54838094D01*
X104866723Y-54838094D02*
X104676247Y-54885713D01*
X104676247Y-54885713D02*
X104533390Y-54885713D01*
X104533390Y-54885713D02*
X104342914Y-54838094D01*
X104342914Y-54838094D02*
X104247676Y-54790475D01*
X104247676Y-54790475D02*
X104152438Y-54695237D01*
X104152438Y-54695237D02*
X104104819Y-54552380D01*
X104104819Y-54552380D02*
X104104819Y-54457142D01*
X104104819Y-54457142D02*
X104152438Y-54314285D01*
X104152438Y-54314285D02*
X104200057Y-54266666D01*
X104104819Y-53361904D02*
X104104819Y-53838094D01*
X104104819Y-53838094D02*
X104581009Y-53885713D01*
X104581009Y-53885713D02*
X104533390Y-53838094D01*
X104533390Y-53838094D02*
X104485771Y-53742856D01*
X104485771Y-53742856D02*
X104485771Y-53504761D01*
X104485771Y-53504761D02*
X104533390Y-53409523D01*
X104533390Y-53409523D02*
X104581009Y-53361904D01*
X104581009Y-53361904D02*
X104676247Y-53314285D01*
X104676247Y-53314285D02*
X104914342Y-53314285D01*
X104914342Y-53314285D02*
X105009580Y-53361904D01*
X105009580Y-53361904D02*
X105057200Y-53409523D01*
X105057200Y-53409523D02*
X105104819Y-53504761D01*
X105104819Y-53504761D02*
X105104819Y-53742856D01*
X105104819Y-53742856D02*
X105057200Y-53838094D01*
X105057200Y-53838094D02*
X105009580Y-53885713D01*
X149107142Y-82374819D02*
X148773809Y-81898628D01*
X148535714Y-82374819D02*
X148535714Y-81374819D01*
X148535714Y-81374819D02*
X148916666Y-81374819D01*
X148916666Y-81374819D02*
X149011904Y-81422438D01*
X149011904Y-81422438D02*
X149059523Y-81470057D01*
X149059523Y-81470057D02*
X149107142Y-81565295D01*
X149107142Y-81565295D02*
X149107142Y-81708152D01*
X149107142Y-81708152D02*
X149059523Y-81803390D01*
X149059523Y-81803390D02*
X149011904Y-81851009D01*
X149011904Y-81851009D02*
X148916666Y-81898628D01*
X148916666Y-81898628D02*
X148535714Y-81898628D01*
X150059523Y-82374819D02*
X149488095Y-82374819D01*
X149773809Y-82374819D02*
X149773809Y-81374819D01*
X149773809Y-81374819D02*
X149678571Y-81517676D01*
X149678571Y-81517676D02*
X149583333Y-81612914D01*
X149583333Y-81612914D02*
X149488095Y-81660533D01*
X150916666Y-81708152D02*
X150916666Y-82374819D01*
X150678571Y-81327200D02*
X150440476Y-82041485D01*
X150440476Y-82041485D02*
X151059523Y-82041485D01*
X117134819Y-106083333D02*
X117849104Y-106083333D01*
X117849104Y-106083333D02*
X117991961Y-106130952D01*
X117991961Y-106130952D02*
X118087200Y-106226190D01*
X118087200Y-106226190D02*
X118134819Y-106369047D01*
X118134819Y-106369047D02*
X118134819Y-106464285D01*
X117134819Y-105130952D02*
X117134819Y-105607142D01*
X117134819Y-105607142D02*
X117611009Y-105654761D01*
X117611009Y-105654761D02*
X117563390Y-105607142D01*
X117563390Y-105607142D02*
X117515771Y-105511904D01*
X117515771Y-105511904D02*
X117515771Y-105273809D01*
X117515771Y-105273809D02*
X117563390Y-105178571D01*
X117563390Y-105178571D02*
X117611009Y-105130952D01*
X117611009Y-105130952D02*
X117706247Y-105083333D01*
X117706247Y-105083333D02*
X117944342Y-105083333D01*
X117944342Y-105083333D02*
X118039580Y-105130952D01*
X118039580Y-105130952D02*
X118087200Y-105178571D01*
X118087200Y-105178571D02*
X118134819Y-105273809D01*
X118134819Y-105273809D02*
X118134819Y-105511904D01*
X118134819Y-105511904D02*
X118087200Y-105607142D01*
X118087200Y-105607142D02*
X118039580Y-105654761D01*
X158719819Y-57142857D02*
X158243628Y-57476190D01*
X158719819Y-57714285D02*
X157719819Y-57714285D01*
X157719819Y-57714285D02*
X157719819Y-57333333D01*
X157719819Y-57333333D02*
X157767438Y-57238095D01*
X157767438Y-57238095D02*
X157815057Y-57190476D01*
X157815057Y-57190476D02*
X157910295Y-57142857D01*
X157910295Y-57142857D02*
X158053152Y-57142857D01*
X158053152Y-57142857D02*
X158148390Y-57190476D01*
X158148390Y-57190476D02*
X158196009Y-57238095D01*
X158196009Y-57238095D02*
X158243628Y-57333333D01*
X158243628Y-57333333D02*
X158243628Y-57714285D01*
X158719819Y-56190476D02*
X158719819Y-56761904D01*
X158719819Y-56476190D02*
X157719819Y-56476190D01*
X157719819Y-56476190D02*
X157862676Y-56571428D01*
X157862676Y-56571428D02*
X157957914Y-56666666D01*
X157957914Y-56666666D02*
X158005533Y-56761904D01*
X157815057Y-55809523D02*
X157767438Y-55761904D01*
X157767438Y-55761904D02*
X157719819Y-55666666D01*
X157719819Y-55666666D02*
X157719819Y-55428571D01*
X157719819Y-55428571D02*
X157767438Y-55333333D01*
X157767438Y-55333333D02*
X157815057Y-55285714D01*
X157815057Y-55285714D02*
X157910295Y-55238095D01*
X157910295Y-55238095D02*
X158005533Y-55238095D01*
X158005533Y-55238095D02*
X158148390Y-55285714D01*
X158148390Y-55285714D02*
X158719819Y-55857142D01*
X158719819Y-55857142D02*
X158719819Y-55238095D01*
X151217333Y-93704580D02*
X151169714Y-93752200D01*
X151169714Y-93752200D02*
X151026857Y-93799819D01*
X151026857Y-93799819D02*
X150931619Y-93799819D01*
X150931619Y-93799819D02*
X150788762Y-93752200D01*
X150788762Y-93752200D02*
X150693524Y-93656961D01*
X150693524Y-93656961D02*
X150645905Y-93561723D01*
X150645905Y-93561723D02*
X150598286Y-93371247D01*
X150598286Y-93371247D02*
X150598286Y-93228390D01*
X150598286Y-93228390D02*
X150645905Y-93037914D01*
X150645905Y-93037914D02*
X150693524Y-92942676D01*
X150693524Y-92942676D02*
X150788762Y-92847438D01*
X150788762Y-92847438D02*
X150931619Y-92799819D01*
X150931619Y-92799819D02*
X151026857Y-92799819D01*
X151026857Y-92799819D02*
X151169714Y-92847438D01*
X151169714Y-92847438D02*
X151217333Y-92895057D01*
X152169714Y-93799819D02*
X151598286Y-93799819D01*
X151884000Y-93799819D02*
X151884000Y-92799819D01*
X151884000Y-92799819D02*
X151788762Y-92942676D01*
X151788762Y-92942676D02*
X151693524Y-93037914D01*
X151693524Y-93037914D02*
X151598286Y-93085533D01*
X131709580Y-84842857D02*
X131757200Y-84890476D01*
X131757200Y-84890476D02*
X131804819Y-85033333D01*
X131804819Y-85033333D02*
X131804819Y-85128571D01*
X131804819Y-85128571D02*
X131757200Y-85271428D01*
X131757200Y-85271428D02*
X131661961Y-85366666D01*
X131661961Y-85366666D02*
X131566723Y-85414285D01*
X131566723Y-85414285D02*
X131376247Y-85461904D01*
X131376247Y-85461904D02*
X131233390Y-85461904D01*
X131233390Y-85461904D02*
X131042914Y-85414285D01*
X131042914Y-85414285D02*
X130947676Y-85366666D01*
X130947676Y-85366666D02*
X130852438Y-85271428D01*
X130852438Y-85271428D02*
X130804819Y-85128571D01*
X130804819Y-85128571D02*
X130804819Y-85033333D01*
X130804819Y-85033333D02*
X130852438Y-84890476D01*
X130852438Y-84890476D02*
X130900057Y-84842857D01*
X131804819Y-83890476D02*
X131804819Y-84461904D01*
X131804819Y-84176190D02*
X130804819Y-84176190D01*
X130804819Y-84176190D02*
X130947676Y-84271428D01*
X130947676Y-84271428D02*
X131042914Y-84366666D01*
X131042914Y-84366666D02*
X131090533Y-84461904D01*
X130804819Y-83557142D02*
X130804819Y-82938095D01*
X130804819Y-82938095D02*
X131185771Y-83271428D01*
X131185771Y-83271428D02*
X131185771Y-83128571D01*
X131185771Y-83128571D02*
X131233390Y-83033333D01*
X131233390Y-83033333D02*
X131281009Y-82985714D01*
X131281009Y-82985714D02*
X131376247Y-82938095D01*
X131376247Y-82938095D02*
X131614342Y-82938095D01*
X131614342Y-82938095D02*
X131709580Y-82985714D01*
X131709580Y-82985714D02*
X131757200Y-83033333D01*
X131757200Y-83033333D02*
X131804819Y-83128571D01*
X131804819Y-83128571D02*
X131804819Y-83414285D01*
X131804819Y-83414285D02*
X131757200Y-83509523D01*
X131757200Y-83509523D02*
X131709580Y-83557142D01*
X144454666Y-86672009D02*
X144121333Y-86672009D01*
X144121333Y-87195819D02*
X144121333Y-86195819D01*
X144121333Y-86195819D02*
X144597523Y-86195819D01*
X145311809Y-86672009D02*
X145454666Y-86719628D01*
X145454666Y-86719628D02*
X145502285Y-86767247D01*
X145502285Y-86767247D02*
X145549904Y-86862485D01*
X145549904Y-86862485D02*
X145549904Y-87005342D01*
X145549904Y-87005342D02*
X145502285Y-87100580D01*
X145502285Y-87100580D02*
X145454666Y-87148200D01*
X145454666Y-87148200D02*
X145359428Y-87195819D01*
X145359428Y-87195819D02*
X144978476Y-87195819D01*
X144978476Y-87195819D02*
X144978476Y-86195819D01*
X144978476Y-86195819D02*
X145311809Y-86195819D01*
X145311809Y-86195819D02*
X145407047Y-86243438D01*
X145407047Y-86243438D02*
X145454666Y-86291057D01*
X145454666Y-86291057D02*
X145502285Y-86386295D01*
X145502285Y-86386295D02*
X145502285Y-86481533D01*
X145502285Y-86481533D02*
X145454666Y-86576771D01*
X145454666Y-86576771D02*
X145407047Y-86624390D01*
X145407047Y-86624390D02*
X145311809Y-86672009D01*
X145311809Y-86672009D02*
X144978476Y-86672009D01*
X145930857Y-86291057D02*
X145978476Y-86243438D01*
X145978476Y-86243438D02*
X146073714Y-86195819D01*
X146073714Y-86195819D02*
X146311809Y-86195819D01*
X146311809Y-86195819D02*
X146407047Y-86243438D01*
X146407047Y-86243438D02*
X146454666Y-86291057D01*
X146454666Y-86291057D02*
X146502285Y-86386295D01*
X146502285Y-86386295D02*
X146502285Y-86481533D01*
X146502285Y-86481533D02*
X146454666Y-86624390D01*
X146454666Y-86624390D02*
X145883238Y-87195819D01*
X145883238Y-87195819D02*
X146502285Y-87195819D01*
X87357142Y-90054819D02*
X87023809Y-89578628D01*
X86785714Y-90054819D02*
X86785714Y-89054819D01*
X86785714Y-89054819D02*
X87166666Y-89054819D01*
X87166666Y-89054819D02*
X87261904Y-89102438D01*
X87261904Y-89102438D02*
X87309523Y-89150057D01*
X87309523Y-89150057D02*
X87357142Y-89245295D01*
X87357142Y-89245295D02*
X87357142Y-89388152D01*
X87357142Y-89388152D02*
X87309523Y-89483390D01*
X87309523Y-89483390D02*
X87261904Y-89531009D01*
X87261904Y-89531009D02*
X87166666Y-89578628D01*
X87166666Y-89578628D02*
X86785714Y-89578628D01*
X87738095Y-89150057D02*
X87785714Y-89102438D01*
X87785714Y-89102438D02*
X87880952Y-89054819D01*
X87880952Y-89054819D02*
X88119047Y-89054819D01*
X88119047Y-89054819D02*
X88214285Y-89102438D01*
X88214285Y-89102438D02*
X88261904Y-89150057D01*
X88261904Y-89150057D02*
X88309523Y-89245295D01*
X88309523Y-89245295D02*
X88309523Y-89340533D01*
X88309523Y-89340533D02*
X88261904Y-89483390D01*
X88261904Y-89483390D02*
X87690476Y-90054819D01*
X87690476Y-90054819D02*
X88309523Y-90054819D01*
X89261904Y-90054819D02*
X88690476Y-90054819D01*
X88976190Y-90054819D02*
X88976190Y-89054819D01*
X88976190Y-89054819D02*
X88880952Y-89197676D01*
X88880952Y-89197676D02*
X88785714Y-89292914D01*
X88785714Y-89292914D02*
X88690476Y-89340533D01*
X164666666Y-98924819D02*
X164666666Y-99639104D01*
X164666666Y-99639104D02*
X164619047Y-99781961D01*
X164619047Y-99781961D02*
X164523809Y-99877200D01*
X164523809Y-99877200D02*
X164380952Y-99924819D01*
X164380952Y-99924819D02*
X164285714Y-99924819D01*
X165571428Y-98924819D02*
X165380952Y-98924819D01*
X165380952Y-98924819D02*
X165285714Y-98972438D01*
X165285714Y-98972438D02*
X165238095Y-99020057D01*
X165238095Y-99020057D02*
X165142857Y-99162914D01*
X165142857Y-99162914D02*
X165095238Y-99353390D01*
X165095238Y-99353390D02*
X165095238Y-99734342D01*
X165095238Y-99734342D02*
X165142857Y-99829580D01*
X165142857Y-99829580D02*
X165190476Y-99877200D01*
X165190476Y-99877200D02*
X165285714Y-99924819D01*
X165285714Y-99924819D02*
X165476190Y-99924819D01*
X165476190Y-99924819D02*
X165571428Y-99877200D01*
X165571428Y-99877200D02*
X165619047Y-99829580D01*
X165619047Y-99829580D02*
X165666666Y-99734342D01*
X165666666Y-99734342D02*
X165666666Y-99496247D01*
X165666666Y-99496247D02*
X165619047Y-99401009D01*
X165619047Y-99401009D02*
X165571428Y-99353390D01*
X165571428Y-99353390D02*
X165476190Y-99305771D01*
X165476190Y-99305771D02*
X165285714Y-99305771D01*
X165285714Y-99305771D02*
X165190476Y-99353390D01*
X165190476Y-99353390D02*
X165142857Y-99401009D01*
X165142857Y-99401009D02*
X165095238Y-99496247D01*
X121607142Y-90959580D02*
X121559523Y-91007200D01*
X121559523Y-91007200D02*
X121416666Y-91054819D01*
X121416666Y-91054819D02*
X121321428Y-91054819D01*
X121321428Y-91054819D02*
X121178571Y-91007200D01*
X121178571Y-91007200D02*
X121083333Y-90911961D01*
X121083333Y-90911961D02*
X121035714Y-90816723D01*
X121035714Y-90816723D02*
X120988095Y-90626247D01*
X120988095Y-90626247D02*
X120988095Y-90483390D01*
X120988095Y-90483390D02*
X121035714Y-90292914D01*
X121035714Y-90292914D02*
X121083333Y-90197676D01*
X121083333Y-90197676D02*
X121178571Y-90102438D01*
X121178571Y-90102438D02*
X121321428Y-90054819D01*
X121321428Y-90054819D02*
X121416666Y-90054819D01*
X121416666Y-90054819D02*
X121559523Y-90102438D01*
X121559523Y-90102438D02*
X121607142Y-90150057D01*
X122559523Y-91054819D02*
X121988095Y-91054819D01*
X122273809Y-91054819D02*
X122273809Y-90054819D01*
X122273809Y-90054819D02*
X122178571Y-90197676D01*
X122178571Y-90197676D02*
X122083333Y-90292914D01*
X122083333Y-90292914D02*
X121988095Y-90340533D01*
X123130952Y-90483390D02*
X123035714Y-90435771D01*
X123035714Y-90435771D02*
X122988095Y-90388152D01*
X122988095Y-90388152D02*
X122940476Y-90292914D01*
X122940476Y-90292914D02*
X122940476Y-90245295D01*
X122940476Y-90245295D02*
X122988095Y-90150057D01*
X122988095Y-90150057D02*
X123035714Y-90102438D01*
X123035714Y-90102438D02*
X123130952Y-90054819D01*
X123130952Y-90054819D02*
X123321428Y-90054819D01*
X123321428Y-90054819D02*
X123416666Y-90102438D01*
X123416666Y-90102438D02*
X123464285Y-90150057D01*
X123464285Y-90150057D02*
X123511904Y-90245295D01*
X123511904Y-90245295D02*
X123511904Y-90292914D01*
X123511904Y-90292914D02*
X123464285Y-90388152D01*
X123464285Y-90388152D02*
X123416666Y-90435771D01*
X123416666Y-90435771D02*
X123321428Y-90483390D01*
X123321428Y-90483390D02*
X123130952Y-90483390D01*
X123130952Y-90483390D02*
X123035714Y-90531009D01*
X123035714Y-90531009D02*
X122988095Y-90578628D01*
X122988095Y-90578628D02*
X122940476Y-90673866D01*
X122940476Y-90673866D02*
X122940476Y-90864342D01*
X122940476Y-90864342D02*
X122988095Y-90959580D01*
X122988095Y-90959580D02*
X123035714Y-91007200D01*
X123035714Y-91007200D02*
X123130952Y-91054819D01*
X123130952Y-91054819D02*
X123321428Y-91054819D01*
X123321428Y-91054819D02*
X123416666Y-91007200D01*
X123416666Y-91007200D02*
X123464285Y-90959580D01*
X123464285Y-90959580D02*
X123511904Y-90864342D01*
X123511904Y-90864342D02*
X123511904Y-90673866D01*
X123511904Y-90673866D02*
X123464285Y-90578628D01*
X123464285Y-90578628D02*
X123416666Y-90531009D01*
X123416666Y-90531009D02*
X123321428Y-90483390D01*
X108709580Y-54216666D02*
X108757200Y-54264285D01*
X108757200Y-54264285D02*
X108804819Y-54407142D01*
X108804819Y-54407142D02*
X108804819Y-54502380D01*
X108804819Y-54502380D02*
X108757200Y-54645237D01*
X108757200Y-54645237D02*
X108661961Y-54740475D01*
X108661961Y-54740475D02*
X108566723Y-54788094D01*
X108566723Y-54788094D02*
X108376247Y-54835713D01*
X108376247Y-54835713D02*
X108233390Y-54835713D01*
X108233390Y-54835713D02*
X108042914Y-54788094D01*
X108042914Y-54788094D02*
X107947676Y-54740475D01*
X107947676Y-54740475D02*
X107852438Y-54645237D01*
X107852438Y-54645237D02*
X107804819Y-54502380D01*
X107804819Y-54502380D02*
X107804819Y-54407142D01*
X107804819Y-54407142D02*
X107852438Y-54264285D01*
X107852438Y-54264285D02*
X107900057Y-54216666D01*
X107804819Y-53359523D02*
X107804819Y-53549999D01*
X107804819Y-53549999D02*
X107852438Y-53645237D01*
X107852438Y-53645237D02*
X107900057Y-53692856D01*
X107900057Y-53692856D02*
X108042914Y-53788094D01*
X108042914Y-53788094D02*
X108233390Y-53835713D01*
X108233390Y-53835713D02*
X108614342Y-53835713D01*
X108614342Y-53835713D02*
X108709580Y-53788094D01*
X108709580Y-53788094D02*
X108757200Y-53740475D01*
X108757200Y-53740475D02*
X108804819Y-53645237D01*
X108804819Y-53645237D02*
X108804819Y-53454761D01*
X108804819Y-53454761D02*
X108757200Y-53359523D01*
X108757200Y-53359523D02*
X108709580Y-53311904D01*
X108709580Y-53311904D02*
X108614342Y-53264285D01*
X108614342Y-53264285D02*
X108376247Y-53264285D01*
X108376247Y-53264285D02*
X108281009Y-53311904D01*
X108281009Y-53311904D02*
X108233390Y-53359523D01*
X108233390Y-53359523D02*
X108185771Y-53454761D01*
X108185771Y-53454761D02*
X108185771Y-53645237D01*
X108185771Y-53645237D02*
X108233390Y-53740475D01*
X108233390Y-53740475D02*
X108281009Y-53788094D01*
X108281009Y-53788094D02*
X108376247Y-53835713D01*
X154999405Y-86034819D02*
X154999405Y-85034819D01*
X154999405Y-85034819D02*
X155237500Y-85034819D01*
X155237500Y-85034819D02*
X155380357Y-85082438D01*
X155380357Y-85082438D02*
X155475595Y-85177676D01*
X155475595Y-85177676D02*
X155523214Y-85272914D01*
X155523214Y-85272914D02*
X155570833Y-85463390D01*
X155570833Y-85463390D02*
X155570833Y-85606247D01*
X155570833Y-85606247D02*
X155523214Y-85796723D01*
X155523214Y-85796723D02*
X155475595Y-85891961D01*
X155475595Y-85891961D02*
X155380357Y-85987200D01*
X155380357Y-85987200D02*
X155237500Y-86034819D01*
X155237500Y-86034819D02*
X154999405Y-86034819D01*
X155951786Y-85130057D02*
X155999405Y-85082438D01*
X155999405Y-85082438D02*
X156094643Y-85034819D01*
X156094643Y-85034819D02*
X156332738Y-85034819D01*
X156332738Y-85034819D02*
X156427976Y-85082438D01*
X156427976Y-85082438D02*
X156475595Y-85130057D01*
X156475595Y-85130057D02*
X156523214Y-85225295D01*
X156523214Y-85225295D02*
X156523214Y-85320533D01*
X156523214Y-85320533D02*
X156475595Y-85463390D01*
X156475595Y-85463390D02*
X155904167Y-86034819D01*
X155904167Y-86034819D02*
X156523214Y-86034819D01*
X86907142Y-96034819D02*
X86573809Y-95558628D01*
X86335714Y-96034819D02*
X86335714Y-95034819D01*
X86335714Y-95034819D02*
X86716666Y-95034819D01*
X86716666Y-95034819D02*
X86811904Y-95082438D01*
X86811904Y-95082438D02*
X86859523Y-95130057D01*
X86859523Y-95130057D02*
X86907142Y-95225295D01*
X86907142Y-95225295D02*
X86907142Y-95368152D01*
X86907142Y-95368152D02*
X86859523Y-95463390D01*
X86859523Y-95463390D02*
X86811904Y-95511009D01*
X86811904Y-95511009D02*
X86716666Y-95558628D01*
X86716666Y-95558628D02*
X86335714Y-95558628D01*
X87288095Y-95130057D02*
X87335714Y-95082438D01*
X87335714Y-95082438D02*
X87430952Y-95034819D01*
X87430952Y-95034819D02*
X87669047Y-95034819D01*
X87669047Y-95034819D02*
X87764285Y-95082438D01*
X87764285Y-95082438D02*
X87811904Y-95130057D01*
X87811904Y-95130057D02*
X87859523Y-95225295D01*
X87859523Y-95225295D02*
X87859523Y-95320533D01*
X87859523Y-95320533D02*
X87811904Y-95463390D01*
X87811904Y-95463390D02*
X87240476Y-96034819D01*
X87240476Y-96034819D02*
X87859523Y-96034819D01*
X88478571Y-95034819D02*
X88573809Y-95034819D01*
X88573809Y-95034819D02*
X88669047Y-95082438D01*
X88669047Y-95082438D02*
X88716666Y-95130057D01*
X88716666Y-95130057D02*
X88764285Y-95225295D01*
X88764285Y-95225295D02*
X88811904Y-95415771D01*
X88811904Y-95415771D02*
X88811904Y-95653866D01*
X88811904Y-95653866D02*
X88764285Y-95844342D01*
X88764285Y-95844342D02*
X88716666Y-95939580D01*
X88716666Y-95939580D02*
X88669047Y-95987200D01*
X88669047Y-95987200D02*
X88573809Y-96034819D01*
X88573809Y-96034819D02*
X88478571Y-96034819D01*
X88478571Y-96034819D02*
X88383333Y-95987200D01*
X88383333Y-95987200D02*
X88335714Y-95939580D01*
X88335714Y-95939580D02*
X88288095Y-95844342D01*
X88288095Y-95844342D02*
X88240476Y-95653866D01*
X88240476Y-95653866D02*
X88240476Y-95415771D01*
X88240476Y-95415771D02*
X88288095Y-95225295D01*
X88288095Y-95225295D02*
X88335714Y-95130057D01*
X88335714Y-95130057D02*
X88383333Y-95082438D01*
X88383333Y-95082438D02*
X88478571Y-95034819D01*
X144659580Y-95366666D02*
X144707200Y-95414285D01*
X144707200Y-95414285D02*
X144754819Y-95557142D01*
X144754819Y-95557142D02*
X144754819Y-95652380D01*
X144754819Y-95652380D02*
X144707200Y-95795237D01*
X144707200Y-95795237D02*
X144611961Y-95890475D01*
X144611961Y-95890475D02*
X144516723Y-95938094D01*
X144516723Y-95938094D02*
X144326247Y-95985713D01*
X144326247Y-95985713D02*
X144183390Y-95985713D01*
X144183390Y-95985713D02*
X143992914Y-95938094D01*
X143992914Y-95938094D02*
X143897676Y-95890475D01*
X143897676Y-95890475D02*
X143802438Y-95795237D01*
X143802438Y-95795237D02*
X143754819Y-95652380D01*
X143754819Y-95652380D02*
X143754819Y-95557142D01*
X143754819Y-95557142D02*
X143802438Y-95414285D01*
X143802438Y-95414285D02*
X143850057Y-95366666D01*
X143850057Y-94985713D02*
X143802438Y-94938094D01*
X143802438Y-94938094D02*
X143754819Y-94842856D01*
X143754819Y-94842856D02*
X143754819Y-94604761D01*
X143754819Y-94604761D02*
X143802438Y-94509523D01*
X143802438Y-94509523D02*
X143850057Y-94461904D01*
X143850057Y-94461904D02*
X143945295Y-94414285D01*
X143945295Y-94414285D02*
X144040533Y-94414285D01*
X144040533Y-94414285D02*
X144183390Y-94461904D01*
X144183390Y-94461904D02*
X144754819Y-95033332D01*
X144754819Y-95033332D02*
X144754819Y-94414285D01*
X93178333Y-65478819D02*
X92845000Y-65002628D01*
X92606905Y-65478819D02*
X92606905Y-64478819D01*
X92606905Y-64478819D02*
X92987857Y-64478819D01*
X92987857Y-64478819D02*
X93083095Y-64526438D01*
X93083095Y-64526438D02*
X93130714Y-64574057D01*
X93130714Y-64574057D02*
X93178333Y-64669295D01*
X93178333Y-64669295D02*
X93178333Y-64812152D01*
X93178333Y-64812152D02*
X93130714Y-64907390D01*
X93130714Y-64907390D02*
X93083095Y-64955009D01*
X93083095Y-64955009D02*
X92987857Y-65002628D01*
X92987857Y-65002628D02*
X92606905Y-65002628D01*
X93749762Y-64907390D02*
X93654524Y-64859771D01*
X93654524Y-64859771D02*
X93606905Y-64812152D01*
X93606905Y-64812152D02*
X93559286Y-64716914D01*
X93559286Y-64716914D02*
X93559286Y-64669295D01*
X93559286Y-64669295D02*
X93606905Y-64574057D01*
X93606905Y-64574057D02*
X93654524Y-64526438D01*
X93654524Y-64526438D02*
X93749762Y-64478819D01*
X93749762Y-64478819D02*
X93940238Y-64478819D01*
X93940238Y-64478819D02*
X94035476Y-64526438D01*
X94035476Y-64526438D02*
X94083095Y-64574057D01*
X94083095Y-64574057D02*
X94130714Y-64669295D01*
X94130714Y-64669295D02*
X94130714Y-64716914D01*
X94130714Y-64716914D02*
X94083095Y-64812152D01*
X94083095Y-64812152D02*
X94035476Y-64859771D01*
X94035476Y-64859771D02*
X93940238Y-64907390D01*
X93940238Y-64907390D02*
X93749762Y-64907390D01*
X93749762Y-64907390D02*
X93654524Y-64955009D01*
X93654524Y-64955009D02*
X93606905Y-65002628D01*
X93606905Y-65002628D02*
X93559286Y-65097866D01*
X93559286Y-65097866D02*
X93559286Y-65288342D01*
X93559286Y-65288342D02*
X93606905Y-65383580D01*
X93606905Y-65383580D02*
X93654524Y-65431200D01*
X93654524Y-65431200D02*
X93749762Y-65478819D01*
X93749762Y-65478819D02*
X93940238Y-65478819D01*
X93940238Y-65478819D02*
X94035476Y-65431200D01*
X94035476Y-65431200D02*
X94083095Y-65383580D01*
X94083095Y-65383580D02*
X94130714Y-65288342D01*
X94130714Y-65288342D02*
X94130714Y-65097866D01*
X94130714Y-65097866D02*
X94083095Y-65002628D01*
X94083095Y-65002628D02*
X94035476Y-64955009D01*
X94035476Y-64955009D02*
X93940238Y-64907390D01*
X118511904Y-94795180D02*
X118511904Y-93985657D01*
X118511904Y-93985657D02*
X118464285Y-93890419D01*
X118464285Y-93890419D02*
X118416666Y-93842800D01*
X118416666Y-93842800D02*
X118321428Y-93795180D01*
X118321428Y-93795180D02*
X118130952Y-93795180D01*
X118130952Y-93795180D02*
X118035714Y-93842800D01*
X118035714Y-93842800D02*
X117988095Y-93890419D01*
X117988095Y-93890419D02*
X117940476Y-93985657D01*
X117940476Y-93985657D02*
X117940476Y-94795180D01*
X117035714Y-94461847D02*
X117035714Y-93795180D01*
X117273809Y-94842800D02*
X117511904Y-94128514D01*
X117511904Y-94128514D02*
X116892857Y-94128514D01*
X120232850Y-96229219D02*
X120232850Y-96467314D01*
X119994755Y-96372076D02*
X120232850Y-96467314D01*
X120232850Y-96467314D02*
X120470945Y-96372076D01*
X120089993Y-96657790D02*
X120232850Y-96467314D01*
X120232850Y-96467314D02*
X120375707Y-96657790D01*
X120232849Y-97319580D02*
X120232849Y-97081485D01*
X120470944Y-97176723D02*
X120232849Y-97081485D01*
X120232849Y-97081485D02*
X119994754Y-97176723D01*
X120375706Y-96891009D02*
X120232849Y-97081485D01*
X120232849Y-97081485D02*
X120089992Y-96891009D01*
X112544642Y-78534819D02*
X112211309Y-78058628D01*
X111973214Y-78534819D02*
X111973214Y-77534819D01*
X111973214Y-77534819D02*
X112354166Y-77534819D01*
X112354166Y-77534819D02*
X112449404Y-77582438D01*
X112449404Y-77582438D02*
X112497023Y-77630057D01*
X112497023Y-77630057D02*
X112544642Y-77725295D01*
X112544642Y-77725295D02*
X112544642Y-77868152D01*
X112544642Y-77868152D02*
X112497023Y-77963390D01*
X112497023Y-77963390D02*
X112449404Y-78011009D01*
X112449404Y-78011009D02*
X112354166Y-78058628D01*
X112354166Y-78058628D02*
X111973214Y-78058628D01*
X113497023Y-78534819D02*
X112925595Y-78534819D01*
X113211309Y-78534819D02*
X113211309Y-77534819D01*
X113211309Y-77534819D02*
X113116071Y-77677676D01*
X113116071Y-77677676D02*
X113020833Y-77772914D01*
X113020833Y-77772914D02*
X112925595Y-77820533D01*
X114068452Y-77963390D02*
X113973214Y-77915771D01*
X113973214Y-77915771D02*
X113925595Y-77868152D01*
X113925595Y-77868152D02*
X113877976Y-77772914D01*
X113877976Y-77772914D02*
X113877976Y-77725295D01*
X113877976Y-77725295D02*
X113925595Y-77630057D01*
X113925595Y-77630057D02*
X113973214Y-77582438D01*
X113973214Y-77582438D02*
X114068452Y-77534819D01*
X114068452Y-77534819D02*
X114258928Y-77534819D01*
X114258928Y-77534819D02*
X114354166Y-77582438D01*
X114354166Y-77582438D02*
X114401785Y-77630057D01*
X114401785Y-77630057D02*
X114449404Y-77725295D01*
X114449404Y-77725295D02*
X114449404Y-77772914D01*
X114449404Y-77772914D02*
X114401785Y-77868152D01*
X114401785Y-77868152D02*
X114354166Y-77915771D01*
X114354166Y-77915771D02*
X114258928Y-77963390D01*
X114258928Y-77963390D02*
X114068452Y-77963390D01*
X114068452Y-77963390D02*
X113973214Y-78011009D01*
X113973214Y-78011009D02*
X113925595Y-78058628D01*
X113925595Y-78058628D02*
X113877976Y-78153866D01*
X113877976Y-78153866D02*
X113877976Y-78344342D01*
X113877976Y-78344342D02*
X113925595Y-78439580D01*
X113925595Y-78439580D02*
X113973214Y-78487200D01*
X113973214Y-78487200D02*
X114068452Y-78534819D01*
X114068452Y-78534819D02*
X114258928Y-78534819D01*
X114258928Y-78534819D02*
X114354166Y-78487200D01*
X114354166Y-78487200D02*
X114401785Y-78439580D01*
X114401785Y-78439580D02*
X114449404Y-78344342D01*
X114449404Y-78344342D02*
X114449404Y-78153866D01*
X114449404Y-78153866D02*
X114401785Y-78058628D01*
X114401785Y-78058628D02*
X114354166Y-78011009D01*
X114354166Y-78011009D02*
X114258928Y-77963390D01*
X87604819Y-87642857D02*
X87128628Y-87976190D01*
X87604819Y-88214285D02*
X86604819Y-88214285D01*
X86604819Y-88214285D02*
X86604819Y-87833333D01*
X86604819Y-87833333D02*
X86652438Y-87738095D01*
X86652438Y-87738095D02*
X86700057Y-87690476D01*
X86700057Y-87690476D02*
X86795295Y-87642857D01*
X86795295Y-87642857D02*
X86938152Y-87642857D01*
X86938152Y-87642857D02*
X87033390Y-87690476D01*
X87033390Y-87690476D02*
X87081009Y-87738095D01*
X87081009Y-87738095D02*
X87128628Y-87833333D01*
X87128628Y-87833333D02*
X87128628Y-88214285D01*
X87604819Y-86690476D02*
X87604819Y-87261904D01*
X87604819Y-86976190D02*
X86604819Y-86976190D01*
X86604819Y-86976190D02*
X86747676Y-87071428D01*
X86747676Y-87071428D02*
X86842914Y-87166666D01*
X86842914Y-87166666D02*
X86890533Y-87261904D01*
X86604819Y-85833333D02*
X86604819Y-86023809D01*
X86604819Y-86023809D02*
X86652438Y-86119047D01*
X86652438Y-86119047D02*
X86700057Y-86166666D01*
X86700057Y-86166666D02*
X86842914Y-86261904D01*
X86842914Y-86261904D02*
X87033390Y-86309523D01*
X87033390Y-86309523D02*
X87414342Y-86309523D01*
X87414342Y-86309523D02*
X87509580Y-86261904D01*
X87509580Y-86261904D02*
X87557200Y-86214285D01*
X87557200Y-86214285D02*
X87604819Y-86119047D01*
X87604819Y-86119047D02*
X87604819Y-85928571D01*
X87604819Y-85928571D02*
X87557200Y-85833333D01*
X87557200Y-85833333D02*
X87509580Y-85785714D01*
X87509580Y-85785714D02*
X87414342Y-85738095D01*
X87414342Y-85738095D02*
X87176247Y-85738095D01*
X87176247Y-85738095D02*
X87081009Y-85785714D01*
X87081009Y-85785714D02*
X87033390Y-85833333D01*
X87033390Y-85833333D02*
X86985771Y-85928571D01*
X86985771Y-85928571D02*
X86985771Y-86119047D01*
X86985771Y-86119047D02*
X87033390Y-86214285D01*
X87033390Y-86214285D02*
X87081009Y-86261904D01*
X87081009Y-86261904D02*
X87176247Y-86309523D01*
X147928333Y-53209580D02*
X147880714Y-53257200D01*
X147880714Y-53257200D02*
X147737857Y-53304819D01*
X147737857Y-53304819D02*
X147642619Y-53304819D01*
X147642619Y-53304819D02*
X147499762Y-53257200D01*
X147499762Y-53257200D02*
X147404524Y-53161961D01*
X147404524Y-53161961D02*
X147356905Y-53066723D01*
X147356905Y-53066723D02*
X147309286Y-52876247D01*
X147309286Y-52876247D02*
X147309286Y-52733390D01*
X147309286Y-52733390D02*
X147356905Y-52542914D01*
X147356905Y-52542914D02*
X147404524Y-52447676D01*
X147404524Y-52447676D02*
X147499762Y-52352438D01*
X147499762Y-52352438D02*
X147642619Y-52304819D01*
X147642619Y-52304819D02*
X147737857Y-52304819D01*
X147737857Y-52304819D02*
X147880714Y-52352438D01*
X147880714Y-52352438D02*
X147928333Y-52400057D01*
X148785476Y-52638152D02*
X148785476Y-53304819D01*
X148547381Y-52257200D02*
X148309286Y-52971485D01*
X148309286Y-52971485D02*
X148928333Y-52971485D01*
X98124819Y-71738094D02*
X97124819Y-71738094D01*
X97124819Y-71738094D02*
X97124819Y-71499999D01*
X97124819Y-71499999D02*
X97172438Y-71357142D01*
X97172438Y-71357142D02*
X97267676Y-71261904D01*
X97267676Y-71261904D02*
X97362914Y-71214285D01*
X97362914Y-71214285D02*
X97553390Y-71166666D01*
X97553390Y-71166666D02*
X97696247Y-71166666D01*
X97696247Y-71166666D02*
X97886723Y-71214285D01*
X97886723Y-71214285D02*
X97981961Y-71261904D01*
X97981961Y-71261904D02*
X98077200Y-71357142D01*
X98077200Y-71357142D02*
X98124819Y-71499999D01*
X98124819Y-71499999D02*
X98124819Y-71738094D01*
X97458152Y-70309523D02*
X98124819Y-70309523D01*
X97077200Y-70547618D02*
X97791485Y-70785713D01*
X97791485Y-70785713D02*
X97791485Y-70166666D01*
X93489819Y-58691666D02*
X93013628Y-59024999D01*
X93489819Y-59263094D02*
X92489819Y-59263094D01*
X92489819Y-59263094D02*
X92489819Y-58882142D01*
X92489819Y-58882142D02*
X92537438Y-58786904D01*
X92537438Y-58786904D02*
X92585057Y-58739285D01*
X92585057Y-58739285D02*
X92680295Y-58691666D01*
X92680295Y-58691666D02*
X92823152Y-58691666D01*
X92823152Y-58691666D02*
X92918390Y-58739285D01*
X92918390Y-58739285D02*
X92966009Y-58786904D01*
X92966009Y-58786904D02*
X93013628Y-58882142D01*
X93013628Y-58882142D02*
X93013628Y-59263094D01*
X93489819Y-58215475D02*
X93489819Y-58024999D01*
X93489819Y-58024999D02*
X93442200Y-57929761D01*
X93442200Y-57929761D02*
X93394580Y-57882142D01*
X93394580Y-57882142D02*
X93251723Y-57786904D01*
X93251723Y-57786904D02*
X93061247Y-57739285D01*
X93061247Y-57739285D02*
X92680295Y-57739285D01*
X92680295Y-57739285D02*
X92585057Y-57786904D01*
X92585057Y-57786904D02*
X92537438Y-57834523D01*
X92537438Y-57834523D02*
X92489819Y-57929761D01*
X92489819Y-57929761D02*
X92489819Y-58120237D01*
X92489819Y-58120237D02*
X92537438Y-58215475D01*
X92537438Y-58215475D02*
X92585057Y-58263094D01*
X92585057Y-58263094D02*
X92680295Y-58310713D01*
X92680295Y-58310713D02*
X92918390Y-58310713D01*
X92918390Y-58310713D02*
X93013628Y-58263094D01*
X93013628Y-58263094D02*
X93061247Y-58215475D01*
X93061247Y-58215475D02*
X93108866Y-58120237D01*
X93108866Y-58120237D02*
X93108866Y-57929761D01*
X93108866Y-57929761D02*
X93061247Y-57834523D01*
X93061247Y-57834523D02*
X93013628Y-57786904D01*
X93013628Y-57786904D02*
X92918390Y-57739285D01*
X153602967Y-67445202D02*
X152602613Y-67445202D01*
X152602613Y-67445202D02*
X153317152Y-67111751D01*
X153317152Y-67111751D02*
X152602613Y-66778299D01*
X152602613Y-66778299D02*
X153602967Y-66778299D01*
X153602967Y-66301940D02*
X152602613Y-66301940D01*
X153602967Y-65730309D02*
X153031337Y-66159032D01*
X152602613Y-65730309D02*
X153174244Y-66301940D01*
X152697885Y-65349222D02*
X152650249Y-65301586D01*
X152650249Y-65301586D02*
X152602613Y-65206314D01*
X152602613Y-65206314D02*
X152602613Y-64968135D01*
X152602613Y-64968135D02*
X152650249Y-64872863D01*
X152650249Y-64872863D02*
X152697885Y-64825227D01*
X152697885Y-64825227D02*
X152793157Y-64777591D01*
X152793157Y-64777591D02*
X152888429Y-64777591D01*
X152888429Y-64777591D02*
X153031337Y-64825227D01*
X153031337Y-64825227D02*
X153602967Y-65396858D01*
X153602967Y-65396858D02*
X153602967Y-64777591D01*
X132457142Y-73754819D02*
X132123809Y-73278628D01*
X131885714Y-73754819D02*
X131885714Y-72754819D01*
X131885714Y-72754819D02*
X132266666Y-72754819D01*
X132266666Y-72754819D02*
X132361904Y-72802438D01*
X132361904Y-72802438D02*
X132409523Y-72850057D01*
X132409523Y-72850057D02*
X132457142Y-72945295D01*
X132457142Y-72945295D02*
X132457142Y-73088152D01*
X132457142Y-73088152D02*
X132409523Y-73183390D01*
X132409523Y-73183390D02*
X132361904Y-73231009D01*
X132361904Y-73231009D02*
X132266666Y-73278628D01*
X132266666Y-73278628D02*
X131885714Y-73278628D01*
X133409523Y-73754819D02*
X132838095Y-73754819D01*
X133123809Y-73754819D02*
X133123809Y-72754819D01*
X133123809Y-72754819D02*
X133028571Y-72897676D01*
X133028571Y-72897676D02*
X132933333Y-72992914D01*
X132933333Y-72992914D02*
X132838095Y-73040533D01*
X133885714Y-73754819D02*
X134076190Y-73754819D01*
X134076190Y-73754819D02*
X134171428Y-73707200D01*
X134171428Y-73707200D02*
X134219047Y-73659580D01*
X134219047Y-73659580D02*
X134314285Y-73516723D01*
X134314285Y-73516723D02*
X134361904Y-73326247D01*
X134361904Y-73326247D02*
X134361904Y-72945295D01*
X134361904Y-72945295D02*
X134314285Y-72850057D01*
X134314285Y-72850057D02*
X134266666Y-72802438D01*
X134266666Y-72802438D02*
X134171428Y-72754819D01*
X134171428Y-72754819D02*
X133980952Y-72754819D01*
X133980952Y-72754819D02*
X133885714Y-72802438D01*
X133885714Y-72802438D02*
X133838095Y-72850057D01*
X133838095Y-72850057D02*
X133790476Y-72945295D01*
X133790476Y-72945295D02*
X133790476Y-73183390D01*
X133790476Y-73183390D02*
X133838095Y-73278628D01*
X133838095Y-73278628D02*
X133885714Y-73326247D01*
X133885714Y-73326247D02*
X133980952Y-73373866D01*
X133980952Y-73373866D02*
X134171428Y-73373866D01*
X134171428Y-73373866D02*
X134266666Y-73326247D01*
X134266666Y-73326247D02*
X134314285Y-73278628D01*
X134314285Y-73278628D02*
X134361904Y-73183390D01*
X135534819Y-84416666D02*
X135058628Y-84749999D01*
X135534819Y-84988094D02*
X134534819Y-84988094D01*
X134534819Y-84988094D02*
X134534819Y-84607142D01*
X134534819Y-84607142D02*
X134582438Y-84511904D01*
X134582438Y-84511904D02*
X134630057Y-84464285D01*
X134630057Y-84464285D02*
X134725295Y-84416666D01*
X134725295Y-84416666D02*
X134868152Y-84416666D01*
X134868152Y-84416666D02*
X134963390Y-84464285D01*
X134963390Y-84464285D02*
X135011009Y-84511904D01*
X135011009Y-84511904D02*
X135058628Y-84607142D01*
X135058628Y-84607142D02*
X135058628Y-84988094D01*
X134630057Y-84035713D02*
X134582438Y-83988094D01*
X134582438Y-83988094D02*
X134534819Y-83892856D01*
X134534819Y-83892856D02*
X134534819Y-83654761D01*
X134534819Y-83654761D02*
X134582438Y-83559523D01*
X134582438Y-83559523D02*
X134630057Y-83511904D01*
X134630057Y-83511904D02*
X134725295Y-83464285D01*
X134725295Y-83464285D02*
X134820533Y-83464285D01*
X134820533Y-83464285D02*
X134963390Y-83511904D01*
X134963390Y-83511904D02*
X135534819Y-84083332D01*
X135534819Y-84083332D02*
X135534819Y-83464285D01*
X80334819Y-63888094D02*
X79334819Y-63888094D01*
X79334819Y-63888094D02*
X79334819Y-63649999D01*
X79334819Y-63649999D02*
X79382438Y-63507142D01*
X79382438Y-63507142D02*
X79477676Y-63411904D01*
X79477676Y-63411904D02*
X79572914Y-63364285D01*
X79572914Y-63364285D02*
X79763390Y-63316666D01*
X79763390Y-63316666D02*
X79906247Y-63316666D01*
X79906247Y-63316666D02*
X80096723Y-63364285D01*
X80096723Y-63364285D02*
X80191961Y-63411904D01*
X80191961Y-63411904D02*
X80287200Y-63507142D01*
X80287200Y-63507142D02*
X80334819Y-63649999D01*
X80334819Y-63649999D02*
X80334819Y-63888094D01*
X80334819Y-62364285D02*
X80334819Y-62935713D01*
X80334819Y-62649999D02*
X79334819Y-62649999D01*
X79334819Y-62649999D02*
X79477676Y-62745237D01*
X79477676Y-62745237D02*
X79572914Y-62840475D01*
X79572914Y-62840475D02*
X79620533Y-62935713D01*
X80704819Y-68491904D02*
X79704819Y-68491904D01*
X80704819Y-67920476D02*
X80133390Y-68349047D01*
X79704819Y-67920476D02*
X80276247Y-68491904D01*
X87604819Y-102142857D02*
X87128628Y-102476190D01*
X87604819Y-102714285D02*
X86604819Y-102714285D01*
X86604819Y-102714285D02*
X86604819Y-102333333D01*
X86604819Y-102333333D02*
X86652438Y-102238095D01*
X86652438Y-102238095D02*
X86700057Y-102190476D01*
X86700057Y-102190476D02*
X86795295Y-102142857D01*
X86795295Y-102142857D02*
X86938152Y-102142857D01*
X86938152Y-102142857D02*
X87033390Y-102190476D01*
X87033390Y-102190476D02*
X87081009Y-102238095D01*
X87081009Y-102238095D02*
X87128628Y-102333333D01*
X87128628Y-102333333D02*
X87128628Y-102714285D01*
X86700057Y-101761904D02*
X86652438Y-101714285D01*
X86652438Y-101714285D02*
X86604819Y-101619047D01*
X86604819Y-101619047D02*
X86604819Y-101380952D01*
X86604819Y-101380952D02*
X86652438Y-101285714D01*
X86652438Y-101285714D02*
X86700057Y-101238095D01*
X86700057Y-101238095D02*
X86795295Y-101190476D01*
X86795295Y-101190476D02*
X86890533Y-101190476D01*
X86890533Y-101190476D02*
X87033390Y-101238095D01*
X87033390Y-101238095D02*
X87604819Y-101809523D01*
X87604819Y-101809523D02*
X87604819Y-101190476D01*
X86700057Y-100809523D02*
X86652438Y-100761904D01*
X86652438Y-100761904D02*
X86604819Y-100666666D01*
X86604819Y-100666666D02*
X86604819Y-100428571D01*
X86604819Y-100428571D02*
X86652438Y-100333333D01*
X86652438Y-100333333D02*
X86700057Y-100285714D01*
X86700057Y-100285714D02*
X86795295Y-100238095D01*
X86795295Y-100238095D02*
X86890533Y-100238095D01*
X86890533Y-100238095D02*
X87033390Y-100285714D01*
X87033390Y-100285714D02*
X87604819Y-100857142D01*
X87604819Y-100857142D02*
X87604819Y-100238095D01*
X106857142Y-86459580D02*
X106809523Y-86507200D01*
X106809523Y-86507200D02*
X106666666Y-86554819D01*
X106666666Y-86554819D02*
X106571428Y-86554819D01*
X106571428Y-86554819D02*
X106428571Y-86507200D01*
X106428571Y-86507200D02*
X106333333Y-86411961D01*
X106333333Y-86411961D02*
X106285714Y-86316723D01*
X106285714Y-86316723D02*
X106238095Y-86126247D01*
X106238095Y-86126247D02*
X106238095Y-85983390D01*
X106238095Y-85983390D02*
X106285714Y-85792914D01*
X106285714Y-85792914D02*
X106333333Y-85697676D01*
X106333333Y-85697676D02*
X106428571Y-85602438D01*
X106428571Y-85602438D02*
X106571428Y-85554819D01*
X106571428Y-85554819D02*
X106666666Y-85554819D01*
X106666666Y-85554819D02*
X106809523Y-85602438D01*
X106809523Y-85602438D02*
X106857142Y-85650057D01*
X107809523Y-86554819D02*
X107238095Y-86554819D01*
X107523809Y-86554819D02*
X107523809Y-85554819D01*
X107523809Y-85554819D02*
X107428571Y-85697676D01*
X107428571Y-85697676D02*
X107333333Y-85792914D01*
X107333333Y-85792914D02*
X107238095Y-85840533D01*
X108428571Y-85554819D02*
X108523809Y-85554819D01*
X108523809Y-85554819D02*
X108619047Y-85602438D01*
X108619047Y-85602438D02*
X108666666Y-85650057D01*
X108666666Y-85650057D02*
X108714285Y-85745295D01*
X108714285Y-85745295D02*
X108761904Y-85935771D01*
X108761904Y-85935771D02*
X108761904Y-86173866D01*
X108761904Y-86173866D02*
X108714285Y-86364342D01*
X108714285Y-86364342D02*
X108666666Y-86459580D01*
X108666666Y-86459580D02*
X108619047Y-86507200D01*
X108619047Y-86507200D02*
X108523809Y-86554819D01*
X108523809Y-86554819D02*
X108428571Y-86554819D01*
X108428571Y-86554819D02*
X108333333Y-86507200D01*
X108333333Y-86507200D02*
X108285714Y-86459580D01*
X108285714Y-86459580D02*
X108238095Y-86364342D01*
X108238095Y-86364342D02*
X108190476Y-86173866D01*
X108190476Y-86173866D02*
X108190476Y-85935771D01*
X108190476Y-85935771D02*
X108238095Y-85745295D01*
X108238095Y-85745295D02*
X108285714Y-85650057D01*
X108285714Y-85650057D02*
X108333333Y-85602438D01*
X108333333Y-85602438D02*
X108428571Y-85554819D01*
X106511905Y-74874819D02*
X106511905Y-73874819D01*
X106511905Y-73874819D02*
X106750000Y-73874819D01*
X106750000Y-73874819D02*
X106892857Y-73922438D01*
X106892857Y-73922438D02*
X106988095Y-74017676D01*
X106988095Y-74017676D02*
X107035714Y-74112914D01*
X107035714Y-74112914D02*
X107083333Y-74303390D01*
X107083333Y-74303390D02*
X107083333Y-74446247D01*
X107083333Y-74446247D02*
X107035714Y-74636723D01*
X107035714Y-74636723D02*
X106988095Y-74731961D01*
X106988095Y-74731961D02*
X106892857Y-74827200D01*
X106892857Y-74827200D02*
X106750000Y-74874819D01*
X106750000Y-74874819D02*
X106511905Y-74874819D01*
X107988095Y-73874819D02*
X107511905Y-73874819D01*
X107511905Y-73874819D02*
X107464286Y-74351009D01*
X107464286Y-74351009D02*
X107511905Y-74303390D01*
X107511905Y-74303390D02*
X107607143Y-74255771D01*
X107607143Y-74255771D02*
X107845238Y-74255771D01*
X107845238Y-74255771D02*
X107940476Y-74303390D01*
X107940476Y-74303390D02*
X107988095Y-74351009D01*
X107988095Y-74351009D02*
X108035714Y-74446247D01*
X108035714Y-74446247D02*
X108035714Y-74684342D01*
X108035714Y-74684342D02*
X107988095Y-74779580D01*
X107988095Y-74779580D02*
X107940476Y-74827200D01*
X107940476Y-74827200D02*
X107845238Y-74874819D01*
X107845238Y-74874819D02*
X107607143Y-74874819D01*
X107607143Y-74874819D02*
X107511905Y-74827200D01*
X107511905Y-74827200D02*
X107464286Y-74779580D01*
X84666666Y-53534819D02*
X84666666Y-54249104D01*
X84666666Y-54249104D02*
X84619047Y-54391961D01*
X84619047Y-54391961D02*
X84523809Y-54487200D01*
X84523809Y-54487200D02*
X84380952Y-54534819D01*
X84380952Y-54534819D02*
X84285714Y-54534819D01*
X85666666Y-54534819D02*
X85095238Y-54534819D01*
X85380952Y-54534819D02*
X85380952Y-53534819D01*
X85380952Y-53534819D02*
X85285714Y-53677676D01*
X85285714Y-53677676D02*
X85190476Y-53772914D01*
X85190476Y-53772914D02*
X85095238Y-53820533D01*
X126666667Y-98407200D02*
X126809524Y-98454819D01*
X126809524Y-98454819D02*
X127047619Y-98454819D01*
X127047619Y-98454819D02*
X127142857Y-98407200D01*
X127142857Y-98407200D02*
X127190476Y-98359580D01*
X127190476Y-98359580D02*
X127238095Y-98264342D01*
X127238095Y-98264342D02*
X127238095Y-98169104D01*
X127238095Y-98169104D02*
X127190476Y-98073866D01*
X127190476Y-98073866D02*
X127142857Y-98026247D01*
X127142857Y-98026247D02*
X127047619Y-97978628D01*
X127047619Y-97978628D02*
X126857143Y-97931009D01*
X126857143Y-97931009D02*
X126761905Y-97883390D01*
X126761905Y-97883390D02*
X126714286Y-97835771D01*
X126714286Y-97835771D02*
X126666667Y-97740533D01*
X126666667Y-97740533D02*
X126666667Y-97645295D01*
X126666667Y-97645295D02*
X126714286Y-97550057D01*
X126714286Y-97550057D02*
X126761905Y-97502438D01*
X126761905Y-97502438D02*
X126857143Y-97454819D01*
X126857143Y-97454819D02*
X127095238Y-97454819D01*
X127095238Y-97454819D02*
X127238095Y-97502438D01*
X127571429Y-97454819D02*
X127809524Y-98454819D01*
X127809524Y-98454819D02*
X128000000Y-97740533D01*
X128000000Y-97740533D02*
X128190476Y-98454819D01*
X128190476Y-98454819D02*
X128428572Y-97454819D01*
X129333333Y-98454819D02*
X128761905Y-98454819D01*
X129047619Y-98454819D02*
X129047619Y-97454819D01*
X129047619Y-97454819D02*
X128952381Y-97597676D01*
X128952381Y-97597676D02*
X128857143Y-97692914D01*
X128857143Y-97692914D02*
X128761905Y-97740533D01*
X149428333Y-62624819D02*
X149095000Y-62148628D01*
X148856905Y-62624819D02*
X148856905Y-61624819D01*
X148856905Y-61624819D02*
X149237857Y-61624819D01*
X149237857Y-61624819D02*
X149333095Y-61672438D01*
X149333095Y-61672438D02*
X149380714Y-61720057D01*
X149380714Y-61720057D02*
X149428333Y-61815295D01*
X149428333Y-61815295D02*
X149428333Y-61958152D01*
X149428333Y-61958152D02*
X149380714Y-62053390D01*
X149380714Y-62053390D02*
X149333095Y-62101009D01*
X149333095Y-62101009D02*
X149237857Y-62148628D01*
X149237857Y-62148628D02*
X148856905Y-62148628D01*
X149761667Y-61624819D02*
X150380714Y-61624819D01*
X150380714Y-61624819D02*
X150047381Y-62005771D01*
X150047381Y-62005771D02*
X150190238Y-62005771D01*
X150190238Y-62005771D02*
X150285476Y-62053390D01*
X150285476Y-62053390D02*
X150333095Y-62101009D01*
X150333095Y-62101009D02*
X150380714Y-62196247D01*
X150380714Y-62196247D02*
X150380714Y-62434342D01*
X150380714Y-62434342D02*
X150333095Y-62529580D01*
X150333095Y-62529580D02*
X150285476Y-62577200D01*
X150285476Y-62577200D02*
X150190238Y-62624819D01*
X150190238Y-62624819D02*
X149904524Y-62624819D01*
X149904524Y-62624819D02*
X149809286Y-62577200D01*
X149809286Y-62577200D02*
X149761667Y-62529580D01*
X89419819Y-70286904D02*
X90229342Y-70286904D01*
X90229342Y-70286904D02*
X90324580Y-70239285D01*
X90324580Y-70239285D02*
X90372200Y-70191666D01*
X90372200Y-70191666D02*
X90419819Y-70096428D01*
X90419819Y-70096428D02*
X90419819Y-69905952D01*
X90419819Y-69905952D02*
X90372200Y-69810714D01*
X90372200Y-69810714D02*
X90324580Y-69763095D01*
X90324580Y-69763095D02*
X90229342Y-69715476D01*
X90229342Y-69715476D02*
X89419819Y-69715476D01*
X89419819Y-68763095D02*
X89419819Y-69239285D01*
X89419819Y-69239285D02*
X89896009Y-69286904D01*
X89896009Y-69286904D02*
X89848390Y-69239285D01*
X89848390Y-69239285D02*
X89800771Y-69144047D01*
X89800771Y-69144047D02*
X89800771Y-68905952D01*
X89800771Y-68905952D02*
X89848390Y-68810714D01*
X89848390Y-68810714D02*
X89896009Y-68763095D01*
X89896009Y-68763095D02*
X89991247Y-68715476D01*
X89991247Y-68715476D02*
X90229342Y-68715476D01*
X90229342Y-68715476D02*
X90324580Y-68763095D01*
X90324580Y-68763095D02*
X90372200Y-68810714D01*
X90372200Y-68810714D02*
X90419819Y-68905952D01*
X90419819Y-68905952D02*
X90419819Y-69144047D01*
X90419819Y-69144047D02*
X90372200Y-69239285D01*
X90372200Y-69239285D02*
X90324580Y-69286904D01*
D13*
%TO.C,C14*%
X147680000Y-90754252D02*
X147680000Y-89331748D01*
X149500000Y-90754252D02*
X149500000Y-89331748D01*
D14*
%TO.C,U1*%
X115275000Y-45375000D02*
X133275000Y-45375000D01*
X115275000Y-52095000D02*
X115275000Y-45375000D01*
X115275000Y-70145000D02*
X115275000Y-70875000D01*
X115275000Y-70875000D02*
X116520000Y-70875000D01*
X133275000Y-45375000D02*
X133275000Y-52095000D01*
X133275000Y-70145000D02*
X133275000Y-70875000D01*
X133275000Y-70875000D02*
X132030000Y-70875000D01*
D15*
X114175000Y-52865000D02*
G75*
G02*
X113975000Y-52865000I-100000J0D01*
G01*
X113975000Y-52865000D02*
G75*
G02*
X114175000Y-52865000I100000J0D01*
G01*
D13*
%TO.C,R1*%
X123777064Y-78140000D02*
X122322936Y-78140000D01*
X123777064Y-79960000D02*
X122322936Y-79960000D01*
%TO.C,J7*%
X144340000Y-103920000D02*
X145670000Y-103920000D01*
X144340000Y-105250000D02*
X144340000Y-103920000D01*
X146940000Y-103920000D02*
X162240000Y-103920000D01*
X146940000Y-106580000D02*
X146940000Y-103920000D01*
X146940000Y-106580000D02*
X162240000Y-106580000D01*
X162240000Y-106580000D02*
X162240000Y-103920000D01*
%TO.C,R10*%
X118290000Y-83627064D02*
X118290000Y-82172936D01*
X120110000Y-83627064D02*
X120110000Y-82172936D01*
D14*
%TO.C,J3*%
X73645000Y-87530000D02*
X75431500Y-87530000D01*
X73645000Y-96470000D02*
X75431500Y-96470000D01*
X79361500Y-87530000D02*
X77558500Y-87530000D01*
X79361500Y-96470000D02*
X77558500Y-96470000D01*
D15*
X82275000Y-88750000D02*
G75*
G02*
X82075000Y-88750000I-100000J0D01*
G01*
X82075000Y-88750000D02*
G75*
G02*
X82275000Y-88750000I100000J0D01*
G01*
D13*
%TO.C,SPEAKER*%
X137477064Y-104590000D02*
X136022936Y-104590000D01*
X137477064Y-106410000D02*
X136022936Y-106410000D01*
%TO.C,C12*%
X93955000Y-75313748D02*
X93955000Y-76736252D01*
X95775000Y-75313748D02*
X95775000Y-76736252D01*
%TO.C,C17*%
X122840000Y-93038748D02*
X122840000Y-94461252D01*
X124660000Y-93038748D02*
X124660000Y-94461252D01*
D16*
%TO.C,U3*%
X137379100Y-95880800D02*
X141620900Y-95880800D01*
X141620900Y-85619200D02*
X137379100Y-85619200D01*
D17*
G36*
X135639200Y-87765500D02*
G01*
X135385200Y-87765500D01*
X135385200Y-87384500D01*
X135639200Y-87384500D01*
X135639200Y-87765500D01*
G37*
D13*
%TO.C,R15*%
X108727064Y-57490000D02*
X107272936Y-57490000D01*
X108727064Y-59310000D02*
X107272936Y-59310000D01*
D14*
%TO.C,U2*%
X149010000Y-58645000D02*
X149010000Y-56265000D01*
X153910000Y-58645000D02*
X153910000Y-56265000D01*
D15*
X149655000Y-61455000D02*
G75*
G02*
X149455000Y-61455000I-100000J0D01*
G01*
X149455000Y-61455000D02*
G75*
G02*
X149655000Y-61455000I100000J0D01*
G01*
D13*
%TO.C,C11*%
X95653748Y-53115000D02*
X97076252Y-53115000D01*
X95653748Y-54935000D02*
X97076252Y-54935000D01*
%TO.C,R4*%
X150185000Y-68772936D02*
X150185000Y-70227064D01*
X152005000Y-68772936D02*
X152005000Y-70227064D01*
%TO.C,C9*%
X119590000Y-101538748D02*
X119590000Y-102961252D01*
X121410000Y-101538748D02*
X121410000Y-102961252D01*
%TO.C,C7*%
X111090000Y-53288748D02*
X111090000Y-54711252D01*
X112910000Y-53288748D02*
X112910000Y-54711252D01*
%TO.C,C15*%
X138711252Y-81590000D02*
X137288748Y-81590000D01*
X138711252Y-83410000D02*
X137288748Y-83410000D01*
%TO.C,U6*%
X114000000Y-80440000D02*
X112050000Y-80440000D01*
X114000000Y-80440000D02*
X115950000Y-80440000D01*
X114000000Y-85560000D02*
X112050000Y-85560000D01*
X114000000Y-85560000D02*
X115950000Y-85560000D01*
X111300000Y-80535000D02*
X111060000Y-80205000D01*
X111540000Y-80205000D01*
X111300000Y-80535000D01*
G36*
X111300000Y-80535000D02*
G01*
X111060000Y-80205000D01*
X111540000Y-80205000D01*
X111300000Y-80535000D01*
G37*
%TO.C,R11*%
X124272936Y-83590000D02*
X125727064Y-83590000D01*
X124272936Y-85410000D02*
X125727064Y-85410000D01*
%TO.C,C16*%
X132111252Y-90340000D02*
X130688748Y-90340000D01*
X132111252Y-92160000D02*
X130688748Y-92160000D01*
%TO.C,C8*%
X107288748Y-60490000D02*
X108711252Y-60490000D01*
X107288748Y-62310000D02*
X108711252Y-62310000D01*
%TO.C,J2*%
X95095000Y-50130000D02*
X95095000Y-48750000D01*
X96475000Y-50130000D02*
X95095000Y-50130000D01*
X97745000Y-47370000D02*
X100395000Y-47370000D01*
X97745000Y-50130000D02*
X97745000Y-47370000D01*
X97745000Y-50130000D02*
X100395000Y-50130000D01*
X100395000Y-50130000D02*
X100395000Y-47370000D01*
%TO.C,C3*%
X143750000Y-65368748D02*
X143750000Y-66791252D01*
X145570000Y-65368748D02*
X145570000Y-66791252D01*
%TO.C,D3*%
X82320000Y-74760000D02*
X82320000Y-75780000D01*
X82320000Y-82240000D02*
X82320000Y-81220000D01*
X83790000Y-76560000D02*
X80850000Y-76560000D01*
X83790000Y-76680000D02*
X80850000Y-76680000D01*
X83790000Y-76800000D02*
X80850000Y-76800000D01*
X83790000Y-75780000D02*
X80850000Y-75780000D01*
X80850000Y-81220000D01*
X83790000Y-81220000D01*
X83790000Y-75780000D01*
%TO.C,R17*%
X98590000Y-63772936D02*
X98590000Y-65227064D01*
X100410000Y-63772936D02*
X100410000Y-65227064D01*
%TO.C,D6*%
X137150000Y-76385000D02*
X141210000Y-76385000D01*
X141210000Y-74115000D02*
X137150000Y-74115000D01*
X141210000Y-76385000D02*
X141210000Y-74115000D01*
%TO.C,C5*%
X103740000Y-53388748D02*
X103740000Y-54811252D01*
X105560000Y-53388748D02*
X105560000Y-54811252D01*
%TO.C,R14*%
X149022936Y-82840000D02*
X150477064Y-82840000D01*
X149022936Y-84660000D02*
X150477064Y-84660000D01*
%TO.C,J5*%
X95800000Y-104420000D02*
X95800000Y-107080000D01*
X113640000Y-104420000D02*
X95800000Y-104420000D01*
X113640000Y-104420000D02*
X113640000Y-107080000D01*
X113640000Y-107080000D02*
X95800000Y-107080000D01*
X116240000Y-105750000D02*
X116240000Y-107080000D01*
X116240000Y-107080000D02*
X114910000Y-107080000D01*
%TO.C,R12*%
X159185000Y-57227064D02*
X159185000Y-55772936D01*
X161005000Y-57227064D02*
X161005000Y-55772936D01*
%TO.C,C1*%
X150093000Y-90754252D02*
X150093000Y-89331748D01*
X151913000Y-90754252D02*
X151913000Y-89331748D01*
%TO.C,C13*%
X128590000Y-85288748D02*
X128590000Y-86711252D01*
X130410000Y-85288748D02*
X130410000Y-86711252D01*
%TO.C,FB2*%
X145240000Y-89447936D02*
X145240000Y-90652064D01*
X147060000Y-89447936D02*
X147060000Y-90652064D01*
%TO.C,R21*%
X88277064Y-90490000D02*
X86822936Y-90490000D01*
X88277064Y-92310000D02*
X86822936Y-92310000D01*
%TO.C,J6*%
X163670000Y-95430000D02*
X163670000Y-72510000D01*
X163670000Y-98030000D02*
X163670000Y-96700000D01*
X165000000Y-98030000D02*
X163670000Y-98030000D01*
X166330000Y-72510000D02*
X163670000Y-72510000D01*
X166330000Y-95430000D02*
X163670000Y-95430000D01*
X166330000Y-95430000D02*
X166330000Y-72510000D01*
%TO.C,C18*%
X122961252Y-87840000D02*
X121538748Y-87840000D01*
X122961252Y-89660000D02*
X121538748Y-89660000D01*
%TO.C,C6*%
X107440000Y-53338748D02*
X107440000Y-54761252D01*
X109260000Y-53338748D02*
X109260000Y-54761252D01*
%TO.C,D2*%
X154137500Y-84885000D02*
X158197500Y-84885000D01*
X158197500Y-82615000D02*
X154137500Y-82615000D01*
X158197500Y-84885000D02*
X158197500Y-82615000D01*
%TO.C,R20*%
X88277064Y-92840000D02*
X86822936Y-92840000D01*
X88277064Y-94660000D02*
X86822936Y-94660000D01*
%TO.C,C2*%
X145240000Y-95911252D02*
X145240000Y-94488748D01*
X147060000Y-95911252D02*
X147060000Y-94488748D01*
%TO.C,R8*%
X94092064Y-62115000D02*
X92637936Y-62115000D01*
X94092064Y-63935000D02*
X92637936Y-63935000D01*
D16*
%TO.C,U4*%
X116073600Y-95926400D02*
X119426400Y-95926400D01*
X119426400Y-92573600D02*
X116073600Y-92573600D01*
D13*
%TO.C,R18*%
X113914564Y-75340000D02*
X112460436Y-75340000D01*
X113914564Y-77160000D02*
X112460436Y-77160000D01*
%TO.C,R16*%
X84410000Y-86272936D02*
X84410000Y-87727064D01*
X86230000Y-86272936D02*
X86230000Y-87727064D01*
%TO.C,C4*%
X148806252Y-50090000D02*
X147383748Y-50090000D01*
X148806252Y-51910000D02*
X147383748Y-51910000D01*
%TO.C,D4*%
X98365000Y-69400000D02*
X98365000Y-73460000D01*
X98365000Y-73460000D02*
X100635000Y-73460000D01*
X100635000Y-73460000D02*
X100635000Y-69400000D01*
%TO.C,R9*%
X93955000Y-59252064D02*
X93955000Y-57797936D01*
X95775000Y-59252064D02*
X95775000Y-57797936D01*
D14*
%TO.C,MK2*%
X163715000Y-65500000D02*
G75*
G02*
X154015000Y-65500000I-4850000J0D01*
G01*
X154015000Y-65500000D02*
G75*
G02*
X163715000Y-65500000I4850000J0D01*
G01*
D18*
X160706000Y-60057000D02*
G75*
G02*
X160506000Y-60057000I-100000J0D01*
G01*
X160506000Y-60057000D02*
G75*
G02*
X160706000Y-60057000I100000J0D01*
G01*
D13*
%TO.C,R19*%
X132022936Y-74340000D02*
X133477064Y-74340000D01*
X132022936Y-76160000D02*
X133477064Y-76160000D01*
%TO.C,R2*%
X132340000Y-83522936D02*
X132340000Y-84977064D01*
X134160000Y-83522936D02*
X134160000Y-84977064D01*
%TO.C,D1*%
X80880000Y-64850000D02*
X83820000Y-64850000D01*
X80880000Y-64970000D02*
X83820000Y-64970000D01*
X80880000Y-65090000D02*
X83820000Y-65090000D01*
X82350000Y-59410000D02*
X82350000Y-60430000D01*
X82350000Y-66890000D02*
X82350000Y-65870000D01*
X80880000Y-65870000D02*
X83820000Y-65870000D01*
X83820000Y-60430000D01*
X80880000Y-60430000D01*
X80880000Y-65870000D01*
%TO.C,R22*%
X84410000Y-100772936D02*
X84410000Y-102227064D01*
X86230000Y-100772936D02*
X86230000Y-102227064D01*
%TO.C,C10*%
X108211252Y-83340000D02*
X106788748Y-83340000D01*
X108211252Y-85160000D02*
X106788748Y-85160000D01*
%TO.C,D5*%
X104790000Y-75115000D02*
X104790000Y-77385000D01*
X104790000Y-77385000D02*
X108850000Y-77385000D01*
X108850000Y-75115000D02*
X104790000Y-75115000D01*
%TO.C,J1*%
X79920000Y-45190000D02*
X79920000Y-52810000D01*
X79920000Y-46460000D02*
X90080000Y-46460000D01*
X79920000Y-52810000D02*
X90080000Y-52810000D01*
X90080000Y-45190000D02*
X79920000Y-45190000D01*
X90080000Y-52810000D02*
X90080000Y-45190000D01*
%TO.C,SW1*%
X124500000Y-101500000D02*
X124500000Y-103000000D01*
X125750000Y-105500000D02*
X130250000Y-105500000D01*
X130250000Y-99000000D02*
X125750000Y-99000000D01*
X131500000Y-103000000D02*
X131500000Y-101500000D01*
%TO.C,R3*%
X148867936Y-63090000D02*
X150322064Y-63090000D01*
X148867936Y-64910000D02*
X150322064Y-64910000D01*
%TO.C,U5*%
X90805000Y-69525000D02*
X90805000Y-67575000D01*
X90805000Y-69525000D02*
X90805000Y-71475000D01*
X95925000Y-69525000D02*
X95925000Y-67575000D01*
X95925000Y-69525000D02*
X95925000Y-71475000D01*
X90900000Y-72225000D02*
X90570000Y-72465000D01*
X90570000Y-71985000D01*
X90900000Y-72225000D01*
G36*
X90900000Y-72225000D02*
G01*
X90570000Y-72465000D01*
X90570000Y-71985000D01*
X90900000Y-72225000D01*
G37*
%TD*%
M02*
