M48
; DRILL file {KiCad 9.0.2} date 2026-03-14T11:02:21+0000
; FORMAT={-:-/ absolute / metric / decimal}
; #@! TF.CreationDate,2026-03-14T11:02:21+00:00
; #@! TF.GenerationSoftware,Kicad,Pcbnew,9.0.2
; #@! TF.FileFunction,Plated,1,4,PTH
FMAT,2
METRIC
; #@! TA.AperFunction,Plated,PTH,ViaDrill
T1C0.330
; #@! TA.AperFunction,Plated,PTH,ComponentDrill
T2C0.330
; #@! TA.AperFunction,Plated,PTH,ComponentDrill
T3C0.870
; #@! TA.AperFunction,Plated,PTH,ComponentDrill
T4C1.000
; #@! TA.AperFunction,Plated,PTH,ComponentDrill
T5C1.100
; #@! TA.AperFunction,Plated,PTH,ComponentDrill
T6C1.520
%
G90
G05
T1
X76.075Y-63.275
X76.1Y-81.175
X76.225Y-51.45
X76.3Y-73.05
X76.475Y-91.025
X76.5Y-84.75
X76.5Y-99.0
X76.85Y-104.0
X79.25Y-84.75
X79.25Y-99.25
X82.0Y-87.0
X83.25Y-104.5
X84.925Y-107.0
X87.0Y-83.75
X87.5Y-55.25
X89.0Y-71.5
X93.0Y-79.5
X93.025Y-46.775
X93.1Y-106.675
X93.225Y-98.55
X98.0Y-75.25
X98.05Y-103.45
X99.45Y-79.047
X100.925Y-88.375
X101.0Y-95.6
X102.05Y-79.05
X102.25Y-50.5
X103.475Y-89.55
X103.5Y-74.15
X103.525Y-100.85
X103.75Y-62.75
X105.75Y-78.65
X105.938Y-81.75
X106.05Y-71.5
X106.05Y-93.85
X106.05Y-102.625
X106.1Y-46.6
X107.0Y-50.25
X108.55Y-98.325
X108.625Y-81.3
X109.3Y-49.05
X109.837Y-69.662
X111.125Y-73.025
X111.125Y-97.025
X111.525Y-79.175
X111.7Y-66.835
X112.0Y-50.25
X113.65Y-72.7
X113.75Y-58.5
X113.8Y-57.45
X113.812Y-59.688
X113.875Y-50.975
X113.925Y-46.375
X113.925Y-47.85
X113.925Y-60.825
X114.0Y-49.375
X116.0Y-96.75
X116.207Y-71.775
X117.275Y-65.565
X117.3Y-64.3
X117.4Y-52.125
X117.475Y-63.025
X117.587Y-61.837
X118.188Y-59.812
X118.625Y-51.925
X118.85Y-100.1
X119.525Y-78.75
X119.775Y-56.175
X119.8Y-73.95
X119.83Y-72.125
X120.025Y-52.1
X120.5Y-76.25
X120.75Y-73.95
X120.8Y-107.275
X121.4Y-76.825
X121.475Y-52.025
X121.65Y-92.188
X122.95Y-52.075
X123.175Y-75.175
X123.225Y-76.425
X123.85Y-74.625
X123.85Y-86.65
X124.225Y-77.65
X124.5Y-73.975
X124.575Y-52.075
X125.175Y-73.275
X125.837Y-76.837
X126.0Y-52.05
X126.0Y-89.45
X126.0Y-91.15
X126.075Y-73.625
X126.537Y-76.287
X126.85Y-65.3
X126.938Y-78.938
X127.112Y-75.612
X127.2Y-87.562
X127.225Y-74.55
X127.4Y-51.975
X127.95Y-91.25
X128.95Y-96.775
X128.975Y-52.025
X129.012Y-75.412
X129.025Y-74.025
X129.213Y-72.812
X129.575Y-107.45
X130.25Y-68.15
X130.5Y-52.025
X130.875Y-54.135
X131.287Y-56.212
X131.325Y-82.0
X132.05Y-52.075
X133.5Y-84.25
X134.25Y-89.25
X134.45Y-46.55
X134.45Y-51.025
X134.5Y-48.05
X134.5Y-64.295
X134.505Y-66.83
X134.525Y-49.525
X134.528Y-57.972
X134.575Y-56.75
X134.575Y-59.25
X134.575Y-60.5
X134.575Y-65.565
X134.575Y-68.25
X134.6Y-61.75
X134.6Y-63.0
X134.7Y-80.95
X135.1Y-52.4
X138.0Y-85.35
X138.75Y-93.5
X139.75Y-94.25
X140.0Y-90.25
X140.75Y-107.475
X142.55Y-75.25
X144.15Y-51.0
X145.95Y-46.225
X146.0Y-99.5
X148.717Y-89.916
X150.525Y-75.7
X152.25Y-72.75
X152.527Y-90.17
X153.8Y-107.85
X154.575Y-102.725
X154.6Y-93.7
X155.65Y-59.9
X156.75Y-46.25
X159.0Y-84.5
X159.725Y-95.55
X159.725Y-102.475
X163.725Y-46.8
X165.825Y-107.275
X166.275Y-58.325
X166.65Y-65.5
X166.75Y-50.325
X167.35Y-75.075
X167.4Y-82.0
X167.475Y-89.825
X167.475Y-96.65
T2
X121.375Y-59.885
X121.375Y-61.285
X122.075Y-59.185
X122.075Y-60.585
X122.075Y-61.985
X122.775Y-59.885
X122.775Y-61.285
X123.475Y-59.185
X123.475Y-60.585
X123.475Y-61.985
X124.175Y-59.885
X124.175Y-61.285
T3
X157.595Y-63.5
X160.135Y-63.5
T4
X96.475Y-48.75
X97.13Y-105.75
X99.015Y-48.75
X99.67Y-105.75
X102.21Y-105.75
X104.75Y-105.75
X107.29Y-105.75
X109.83Y-105.75
X112.37Y-105.75
X114.91Y-105.75
X145.67Y-105.25
X148.21Y-105.25
X150.75Y-105.25
X153.29Y-105.25
X155.83Y-105.25
X158.37Y-105.25
X160.91Y-105.25
X165.0Y-73.84
X165.0Y-76.38
X165.0Y-78.92
X165.0Y-81.46
X165.0Y-84.0
X165.0Y-86.54
X165.0Y-89.08
X165.0Y-91.62
X165.0Y-94.16
X165.0Y-96.7
T5
X82.32Y-73.42
X82.32Y-83.58
X82.35Y-58.07
X82.35Y-68.23
X124.75Y-100.0
X124.75Y-104.5
X131.25Y-100.0
X131.25Y-104.5
T6
X82.46Y-49.0
X87.54Y-49.0
M30
