%TF.GenerationSoftware,KiCad,Pcbnew,9.0.2*%
%TF.CreationDate,2026-03-14T11:02:16+00:00*%
%TF.ProjectId,AI_ASSISTANT,41495f41-5353-4495-9354-414e542e6b69,rev?*%
%TF.SameCoordinates,Original*%
%TF.FileFunction,Legend,Bot*%
%TF.FilePolarity,Positive*%
%FSLAX46Y46*%
G04 Gerber Fmt 4.6, Leading zero omitted, Abs format (unit mm)*
G04 Created by KiCad (PCBNEW 9.0.2) date 2026-03-14 11:02:16*
%MOMM*%
%LPD*%
G01*
G04 APERTURE LIST*
%ADD10C,0.100000*%
G04 APERTURE END LIST*
D10*
X157872306Y-53120038D02*
X157967544Y-53072419D01*
X157967544Y-53072419D02*
X158110401Y-53072419D01*
X158110401Y-53072419D02*
X158253258Y-53120038D01*
X158253258Y-53120038D02*
X158348496Y-53215276D01*
X158348496Y-53215276D02*
X158396115Y-53310514D01*
X158396115Y-53310514D02*
X158443734Y-53500990D01*
X158443734Y-53500990D02*
X158443734Y-53643847D01*
X158443734Y-53643847D02*
X158396115Y-53834323D01*
X158396115Y-53834323D02*
X158348496Y-53929561D01*
X158348496Y-53929561D02*
X158253258Y-54024800D01*
X158253258Y-54024800D02*
X158110401Y-54072419D01*
X158110401Y-54072419D02*
X158015163Y-54072419D01*
X158015163Y-54072419D02*
X157872306Y-54024800D01*
X157872306Y-54024800D02*
X157824687Y-53977180D01*
X157824687Y-53977180D02*
X157824687Y-53643847D01*
X157824687Y-53643847D02*
X158015163Y-53643847D01*
X157396115Y-54072419D02*
X157396115Y-53405752D01*
X157396115Y-53072419D02*
X157443734Y-53120038D01*
X157443734Y-53120038D02*
X157396115Y-53167657D01*
X157396115Y-53167657D02*
X157348496Y-53120038D01*
X157348496Y-53120038D02*
X157396115Y-53072419D01*
X157396115Y-53072419D02*
X157396115Y-53167657D01*
X157062782Y-53405752D02*
X156681830Y-53405752D01*
X156919925Y-53072419D02*
X156919925Y-53929561D01*
X156919925Y-53929561D02*
X156872306Y-54024800D01*
X156872306Y-54024800D02*
X156777068Y-54072419D01*
X156777068Y-54072419D02*
X156681830Y-54072419D01*
X156348496Y-54072419D02*
X156348496Y-53072419D01*
X155919925Y-54072419D02*
X155919925Y-53548609D01*
X155919925Y-53548609D02*
X155967544Y-53453371D01*
X155967544Y-53453371D02*
X156062782Y-53405752D01*
X156062782Y-53405752D02*
X156205639Y-53405752D01*
X156205639Y-53405752D02*
X156300877Y-53453371D01*
X156300877Y-53453371D02*
X156348496Y-53500990D01*
X155015163Y-53405752D02*
X155015163Y-54072419D01*
X155443734Y-53405752D02*
X155443734Y-53929561D01*
X155443734Y-53929561D02*
X155396115Y-54024800D01*
X155396115Y-54024800D02*
X155300877Y-54072419D01*
X155300877Y-54072419D02*
X155158020Y-54072419D01*
X155158020Y-54072419D02*
X155062782Y-54024800D01*
X155062782Y-54024800D02*
X155015163Y-53977180D01*
X154538972Y-54072419D02*
X154538972Y-53072419D01*
X154538972Y-53453371D02*
X154443734Y-53405752D01*
X154443734Y-53405752D02*
X154253258Y-53405752D01*
X154253258Y-53405752D02*
X154158020Y-53453371D01*
X154158020Y-53453371D02*
X154110401Y-53500990D01*
X154110401Y-53500990D02*
X154062782Y-53596228D01*
X154062782Y-53596228D02*
X154062782Y-53881942D01*
X154062782Y-53881942D02*
X154110401Y-53977180D01*
X154110401Y-53977180D02*
X154158020Y-54024800D01*
X154158020Y-54024800D02*
X154253258Y-54072419D01*
X154253258Y-54072419D02*
X154443734Y-54072419D01*
X154443734Y-54072419D02*
X154538972Y-54024800D01*
X153634210Y-53977180D02*
X153586591Y-54024800D01*
X153586591Y-54024800D02*
X153634210Y-54072419D01*
X153634210Y-54072419D02*
X153681829Y-54024800D01*
X153681829Y-54024800D02*
X153634210Y-53977180D01*
X153634210Y-53977180D02*
X153634210Y-54072419D01*
X153634210Y-53453371D02*
X153586591Y-53500990D01*
X153586591Y-53500990D02*
X153634210Y-53548609D01*
X153634210Y-53548609D02*
X153681829Y-53500990D01*
X153681829Y-53500990D02*
X153634210Y-53453371D01*
X153634210Y-53453371D02*
X153634210Y-53548609D01*
X151919925Y-54072419D02*
X152396115Y-54072419D01*
X152396115Y-54072419D02*
X152396115Y-53072419D01*
X151158020Y-53405752D02*
X151158020Y-54072419D01*
X151586591Y-53405752D02*
X151586591Y-53929561D01*
X151586591Y-53929561D02*
X151538972Y-54024800D01*
X151538972Y-54024800D02*
X151443734Y-54072419D01*
X151443734Y-54072419D02*
X151300877Y-54072419D01*
X151300877Y-54072419D02*
X151205639Y-54024800D01*
X151205639Y-54024800D02*
X151158020Y-53977180D01*
X150253258Y-54024800D02*
X150348496Y-54072419D01*
X150348496Y-54072419D02*
X150538972Y-54072419D01*
X150538972Y-54072419D02*
X150634210Y-54024800D01*
X150634210Y-54024800D02*
X150681829Y-53977180D01*
X150681829Y-53977180D02*
X150729448Y-53881942D01*
X150729448Y-53881942D02*
X150729448Y-53596228D01*
X150729448Y-53596228D02*
X150681829Y-53500990D01*
X150681829Y-53500990D02*
X150634210Y-53453371D01*
X150634210Y-53453371D02*
X150538972Y-53405752D01*
X150538972Y-53405752D02*
X150348496Y-53405752D01*
X150348496Y-53405752D02*
X150253258Y-53453371D01*
X149824686Y-54072419D02*
X149824686Y-53405752D01*
X149824686Y-53072419D02*
X149872305Y-53120038D01*
X149872305Y-53120038D02*
X149824686Y-53167657D01*
X149824686Y-53167657D02*
X149777067Y-53120038D01*
X149777067Y-53120038D02*
X149824686Y-53072419D01*
X149824686Y-53072419D02*
X149824686Y-53167657D01*
X148919925Y-54072419D02*
X148919925Y-53072419D01*
X148919925Y-54024800D02*
X149015163Y-54072419D01*
X149015163Y-54072419D02*
X149205639Y-54072419D01*
X149205639Y-54072419D02*
X149300877Y-54024800D01*
X149300877Y-54024800D02*
X149348496Y-53977180D01*
X149348496Y-53977180D02*
X149396115Y-53881942D01*
X149396115Y-53881942D02*
X149396115Y-53596228D01*
X149396115Y-53596228D02*
X149348496Y-53500990D01*
X149348496Y-53500990D02*
X149300877Y-53453371D01*
X149300877Y-53453371D02*
X149205639Y-53405752D01*
X149205639Y-53405752D02*
X149015163Y-53405752D01*
X149015163Y-53405752D02*
X148919925Y-53453371D01*
X147919925Y-54072419D02*
X148491353Y-54072419D01*
X148205639Y-54072419D02*
X148205639Y-53072419D01*
X148205639Y-53072419D02*
X148300877Y-53215276D01*
X148300877Y-53215276D02*
X148396115Y-53310514D01*
X148396115Y-53310514D02*
X148491353Y-53358133D01*
X147443734Y-54072419D02*
X147253258Y-54072419D01*
X147253258Y-54072419D02*
X147158020Y-54024800D01*
X147158020Y-54024800D02*
X147110401Y-53977180D01*
X147110401Y-53977180D02*
X147015163Y-53834323D01*
X147015163Y-53834323D02*
X146967544Y-53643847D01*
X146967544Y-53643847D02*
X146967544Y-53262895D01*
X146967544Y-53262895D02*
X147015163Y-53167657D01*
X147015163Y-53167657D02*
X147062782Y-53120038D01*
X147062782Y-53120038D02*
X147158020Y-53072419D01*
X147158020Y-53072419D02*
X147348496Y-53072419D01*
X147348496Y-53072419D02*
X147443734Y-53120038D01*
X147443734Y-53120038D02*
X147491353Y-53167657D01*
X147491353Y-53167657D02*
X147538972Y-53262895D01*
X147538972Y-53262895D02*
X147538972Y-53500990D01*
X147538972Y-53500990D02*
X147491353Y-53596228D01*
X147491353Y-53596228D02*
X147443734Y-53643847D01*
X147443734Y-53643847D02*
X147348496Y-53691466D01*
X147348496Y-53691466D02*
X147158020Y-53691466D01*
X147158020Y-53691466D02*
X147062782Y-53643847D01*
X147062782Y-53643847D02*
X147015163Y-53596228D01*
X147015163Y-53596228D02*
X146967544Y-53500990D01*
X158396115Y-55847419D02*
X158396115Y-54847419D01*
X158396115Y-54847419D02*
X158158020Y-54847419D01*
X158158020Y-54847419D02*
X158015163Y-54895038D01*
X158015163Y-54895038D02*
X157919925Y-54990276D01*
X157919925Y-54990276D02*
X157872306Y-55085514D01*
X157872306Y-55085514D02*
X157824687Y-55275990D01*
X157824687Y-55275990D02*
X157824687Y-55418847D01*
X157824687Y-55418847D02*
X157872306Y-55609323D01*
X157872306Y-55609323D02*
X157919925Y-55704561D01*
X157919925Y-55704561D02*
X158015163Y-55799800D01*
X158015163Y-55799800D02*
X158158020Y-55847419D01*
X158158020Y-55847419D02*
X158396115Y-55847419D01*
X156967544Y-55847419D02*
X156967544Y-55323609D01*
X156967544Y-55323609D02*
X157015163Y-55228371D01*
X157015163Y-55228371D02*
X157110401Y-55180752D01*
X157110401Y-55180752D02*
X157300877Y-55180752D01*
X157300877Y-55180752D02*
X157396115Y-55228371D01*
X156967544Y-55799800D02*
X157062782Y-55847419D01*
X157062782Y-55847419D02*
X157300877Y-55847419D01*
X157300877Y-55847419D02*
X157396115Y-55799800D01*
X157396115Y-55799800D02*
X157443734Y-55704561D01*
X157443734Y-55704561D02*
X157443734Y-55609323D01*
X157443734Y-55609323D02*
X157396115Y-55514085D01*
X157396115Y-55514085D02*
X157300877Y-55466466D01*
X157300877Y-55466466D02*
X157062782Y-55466466D01*
X157062782Y-55466466D02*
X156967544Y-55418847D01*
X156634210Y-55180752D02*
X156253258Y-55180752D01*
X156491353Y-54847419D02*
X156491353Y-55704561D01*
X156491353Y-55704561D02*
X156443734Y-55799800D01*
X156443734Y-55799800D02*
X156348496Y-55847419D01*
X156348496Y-55847419D02*
X156253258Y-55847419D01*
X155538972Y-55799800D02*
X155634210Y-55847419D01*
X155634210Y-55847419D02*
X155824686Y-55847419D01*
X155824686Y-55847419D02*
X155919924Y-55799800D01*
X155919924Y-55799800D02*
X155967543Y-55704561D01*
X155967543Y-55704561D02*
X155967543Y-55323609D01*
X155967543Y-55323609D02*
X155919924Y-55228371D01*
X155919924Y-55228371D02*
X155824686Y-55180752D01*
X155824686Y-55180752D02*
X155634210Y-55180752D01*
X155634210Y-55180752D02*
X155538972Y-55228371D01*
X155538972Y-55228371D02*
X155491353Y-55323609D01*
X155491353Y-55323609D02*
X155491353Y-55418847D01*
X155491353Y-55418847D02*
X155967543Y-55514085D01*
X154348495Y-55561704D02*
X153872305Y-55561704D01*
X154443733Y-55847419D02*
X154110400Y-54847419D01*
X154110400Y-54847419D02*
X153777067Y-55847419D01*
X153491352Y-55799800D02*
X153396114Y-55847419D01*
X153396114Y-55847419D02*
X153205638Y-55847419D01*
X153205638Y-55847419D02*
X153110400Y-55799800D01*
X153110400Y-55799800D02*
X153062781Y-55704561D01*
X153062781Y-55704561D02*
X153062781Y-55656942D01*
X153062781Y-55656942D02*
X153110400Y-55561704D01*
X153110400Y-55561704D02*
X153205638Y-55514085D01*
X153205638Y-55514085D02*
X153348495Y-55514085D01*
X153348495Y-55514085D02*
X153443733Y-55466466D01*
X153443733Y-55466466D02*
X153491352Y-55371228D01*
X153491352Y-55371228D02*
X153491352Y-55323609D01*
X153491352Y-55323609D02*
X153443733Y-55228371D01*
X153443733Y-55228371D02*
X153348495Y-55180752D01*
X153348495Y-55180752D02*
X153205638Y-55180752D01*
X153205638Y-55180752D02*
X153110400Y-55228371D01*
X152681828Y-55799800D02*
X152586590Y-55847419D01*
X152586590Y-55847419D02*
X152396114Y-55847419D01*
X152396114Y-55847419D02*
X152300876Y-55799800D01*
X152300876Y-55799800D02*
X152253257Y-55704561D01*
X152253257Y-55704561D02*
X152253257Y-55656942D01*
X152253257Y-55656942D02*
X152300876Y-55561704D01*
X152300876Y-55561704D02*
X152396114Y-55514085D01*
X152396114Y-55514085D02*
X152538971Y-55514085D01*
X152538971Y-55514085D02*
X152634209Y-55466466D01*
X152634209Y-55466466D02*
X152681828Y-55371228D01*
X152681828Y-55371228D02*
X152681828Y-55323609D01*
X152681828Y-55323609D02*
X152634209Y-55228371D01*
X152634209Y-55228371D02*
X152538971Y-55180752D01*
X152538971Y-55180752D02*
X152396114Y-55180752D01*
X152396114Y-55180752D02*
X152300876Y-55228371D01*
X151443733Y-55799800D02*
X151538971Y-55847419D01*
X151538971Y-55847419D02*
X151729447Y-55847419D01*
X151729447Y-55847419D02*
X151824685Y-55799800D01*
X151824685Y-55799800D02*
X151872304Y-55704561D01*
X151872304Y-55704561D02*
X151872304Y-55323609D01*
X151872304Y-55323609D02*
X151824685Y-55228371D01*
X151824685Y-55228371D02*
X151729447Y-55180752D01*
X151729447Y-55180752D02*
X151538971Y-55180752D01*
X151538971Y-55180752D02*
X151443733Y-55228371D01*
X151443733Y-55228371D02*
X151396114Y-55323609D01*
X151396114Y-55323609D02*
X151396114Y-55418847D01*
X151396114Y-55418847D02*
X151872304Y-55514085D01*
X150967542Y-55847419D02*
X150967542Y-55180752D01*
X150967542Y-55275990D02*
X150919923Y-55228371D01*
X150919923Y-55228371D02*
X150824685Y-55180752D01*
X150824685Y-55180752D02*
X150681828Y-55180752D01*
X150681828Y-55180752D02*
X150586590Y-55228371D01*
X150586590Y-55228371D02*
X150538971Y-55323609D01*
X150538971Y-55323609D02*
X150538971Y-55847419D01*
X150538971Y-55323609D02*
X150491352Y-55228371D01*
X150491352Y-55228371D02*
X150396114Y-55180752D01*
X150396114Y-55180752D02*
X150253257Y-55180752D01*
X150253257Y-55180752D02*
X150158018Y-55228371D01*
X150158018Y-55228371D02*
X150110399Y-55323609D01*
X150110399Y-55323609D02*
X150110399Y-55847419D01*
X149634209Y-55847419D02*
X149634209Y-54847419D01*
X149634209Y-55228371D02*
X149538971Y-55180752D01*
X149538971Y-55180752D02*
X149348495Y-55180752D01*
X149348495Y-55180752D02*
X149253257Y-55228371D01*
X149253257Y-55228371D02*
X149205638Y-55275990D01*
X149205638Y-55275990D02*
X149158019Y-55371228D01*
X149158019Y-55371228D02*
X149158019Y-55656942D01*
X149158019Y-55656942D02*
X149205638Y-55752180D01*
X149205638Y-55752180D02*
X149253257Y-55799800D01*
X149253257Y-55799800D02*
X149348495Y-55847419D01*
X149348495Y-55847419D02*
X149538971Y-55847419D01*
X149538971Y-55847419D02*
X149634209Y-55799800D01*
X148586590Y-55847419D02*
X148681828Y-55799800D01*
X148681828Y-55799800D02*
X148729447Y-55704561D01*
X148729447Y-55704561D02*
X148729447Y-54847419D01*
X147824685Y-55799800D02*
X147919923Y-55847419D01*
X147919923Y-55847419D02*
X148110399Y-55847419D01*
X148110399Y-55847419D02*
X148205637Y-55799800D01*
X148205637Y-55799800D02*
X148253256Y-55704561D01*
X148253256Y-55704561D02*
X148253256Y-55323609D01*
X148253256Y-55323609D02*
X148205637Y-55228371D01*
X148205637Y-55228371D02*
X148110399Y-55180752D01*
X148110399Y-55180752D02*
X147919923Y-55180752D01*
X147919923Y-55180752D02*
X147824685Y-55228371D01*
X147824685Y-55228371D02*
X147777066Y-55323609D01*
X147777066Y-55323609D02*
X147777066Y-55418847D01*
X147777066Y-55418847D02*
X148253256Y-55514085D01*
X146919923Y-55847419D02*
X146919923Y-54847419D01*
X146919923Y-55799800D02*
X147015161Y-55847419D01*
X147015161Y-55847419D02*
X147205637Y-55847419D01*
X147205637Y-55847419D02*
X147300875Y-55799800D01*
X147300875Y-55799800D02*
X147348494Y-55752180D01*
X147348494Y-55752180D02*
X147396113Y-55656942D01*
X147396113Y-55656942D02*
X147396113Y-55371228D01*
X147396113Y-55371228D02*
X147348494Y-55275990D01*
X147348494Y-55275990D02*
X147300875Y-55228371D01*
X147300875Y-55228371D02*
X147205637Y-55180752D01*
X147205637Y-55180752D02*
X147015161Y-55180752D01*
X147015161Y-55180752D02*
X146919923Y-55228371D01*
X146443732Y-55752180D02*
X146396113Y-55799800D01*
X146396113Y-55799800D02*
X146443732Y-55847419D01*
X146443732Y-55847419D02*
X146491351Y-55799800D01*
X146491351Y-55799800D02*
X146443732Y-55752180D01*
X146443732Y-55752180D02*
X146443732Y-55847419D01*
X146443732Y-55228371D02*
X146396113Y-55275990D01*
X146396113Y-55275990D02*
X146443732Y-55323609D01*
X146443732Y-55323609D02*
X146491351Y-55275990D01*
X146491351Y-55275990D02*
X146443732Y-55228371D01*
X146443732Y-55228371D02*
X146443732Y-55323609D01*
M02*
