%TF.GenerationSoftware,KiCad,Pcbnew,9.0.2*%
%TF.CreationDate,2026-03-14T11:02:16+00:00*%
%TF.ProjectId,AI_ASSISTANT,41495f41-5353-4495-9354-414e542e6b69,rev?*%
%TF.SameCoordinates,Original*%
%TF.FileFunction,Copper,L2,Inr*%
%TF.FilePolarity,Positive*%
%FSLAX46Y46*%
G04 Gerber Fmt 4.6, Leading zero omitted, Abs format (unit mm)*
G04 Created by KiCad (PCBNEW 9.0.2) date 2026-03-14 11:02:16*
%MOMM*%
%LPD*%
G01*
G04 APERTURE LIST*
G04 Aperture macros list*
%AMRoundRect*
0 Rectangle with rounded corners*
0 $1 Rounding radius*
0 $2 $3 $4 $5 $6 $7 $8 $9 X,Y pos of 4 corners*
0 Add a 4 corners polygon primitive as box body*
4,1,4,$2,$3,$4,$5,$6,$7,$8,$9,$2,$3,0*
0 Add four circle primitives for the rounded corners*
1,1,$1+$1,$2,$3*
1,1,$1+$1,$4,$5*
1,1,$1+$1,$6,$7*
1,1,$1+$1,$8,$9*
0 Add four rect primitives between the rounded corners*
20,1,$1+$1,$2,$3,$4,$5,0*
20,1,$1+$1,$4,$5,$6,$7,0*
20,1,$1+$1,$6,$7,$8,$9,0*
20,1,$1+$1,$8,$9,$2,$3,0*%
G04 Aperture macros list end*
%TA.AperFunction,ComponentPad*%
%ADD10C,0.635000*%
%TD*%
%TA.AperFunction,ComponentPad*%
%ADD11C,1.700000*%
%TD*%
%TA.AperFunction,ComponentPad*%
%ADD12R,1.700000X1.700000*%
%TD*%
%TA.AperFunction,ComponentPad*%
%ADD13RoundRect,0.249999X-0.850001X0.850001X-0.850001X-0.850001X0.850001X-0.850001X0.850001X0.850001X0*%
%TD*%
%TA.AperFunction,ComponentPad*%
%ADD14C,2.200000*%
%TD*%
%TA.AperFunction,ComponentPad*%
%ADD15R,1.378000X1.378000*%
%TD*%
%TA.AperFunction,ComponentPad*%
%ADD16C,1.378000*%
%TD*%
%TA.AperFunction,ComponentPad*%
%ADD17RoundRect,0.249999X0.850001X-0.850001X0.850001X0.850001X-0.850001X0.850001X-0.850001X-0.850001X0*%
%TD*%
%TA.AperFunction,ComponentPad*%
%ADD18R,3.000000X3.000000*%
%TD*%
%TA.AperFunction,ComponentPad*%
%ADD19C,3.000000*%
%TD*%
%TA.AperFunction,ComponentPad*%
%ADD20C,2.000000*%
%TD*%
%TA.AperFunction,ViaPad*%
%ADD21C,0.635000*%
%TD*%
G04 APERTURE END LIST*
D10*
%TO.N,GND*%
%TO.C,U1*%
X122775000Y-59885000D03*
X121375000Y-59885000D03*
X124175000Y-59885000D03*
X121375000Y-61285000D03*
X122775000Y-61285000D03*
X124175000Y-61285000D03*
X122075000Y-59185000D03*
X123475000Y-59185000D03*
X122075000Y-60585000D03*
X123475000Y-60585000D03*
X123475000Y-61985000D03*
X122075000Y-61985000D03*
%TD*%
D11*
%TO.N,/GPIO14*%
%TO.C,J7*%
X158370000Y-105250000D03*
%TO.N,N/C*%
X148210000Y-105250000D03*
%TO.N,/GPIO16*%
X150750000Y-105250000D03*
%TO.N,/GPIO15*%
X153290000Y-105250000D03*
%TO.N,/GPIO13*%
X155830000Y-105250000D03*
%TO.N,/GPIO21*%
X160910000Y-105250000D03*
D12*
%TO.N,N/C*%
X145670000Y-105250000D03*
%TD*%
%TO.N,GND*%
%TO.C,J2*%
X96475000Y-48750000D03*
D11*
%TO.N,/BOOT*%
X99015000Y-48750000D03*
%TD*%
D13*
%TO.N,VS*%
%TO.C,D3*%
X82320000Y-73420000D03*
D14*
%TO.N,Net-(D3-A)*%
X82320000Y-83580000D03*
%TD*%
D11*
%TO.N,/A5*%
%TO.C,J5*%
X99670000Y-105750000D03*
D12*
%TO.N,/A2*%
X114910000Y-105750000D03*
D11*
%TO.N,/A9*%
X112370000Y-105750000D03*
%TO.N,/A3*%
X109830000Y-105750000D03*
%TO.N,/A8*%
X107290000Y-105750000D03*
%TO.N,/A7*%
X104750000Y-105750000D03*
%TO.N,/A6*%
X102210000Y-105750000D03*
%TO.N,/A4*%
X97130000Y-105750000D03*
%TD*%
%TO.N,/GPIO36*%
%TO.C,J6*%
X165000000Y-94160000D03*
D12*
%TO.N,/GPIO35*%
X165000000Y-96700000D03*
D11*
%TO.N,/GPIO37*%
X165000000Y-91620000D03*
%TO.N,/GPIO38*%
X165000000Y-89080000D03*
%TO.N,/GPIO39*%
X165000000Y-86540000D03*
%TO.N,/GPIO40*%
X165000000Y-84000000D03*
%TO.N,/GPIO41*%
X165000000Y-81460000D03*
%TO.N,/GPIO42*%
X165000000Y-78920000D03*
%TO.N,/RX*%
X165000000Y-76380000D03*
%TO.N,/TX*%
X165000000Y-73840000D03*
%TD*%
D15*
%TO.N,Net-(MK2-Pad1)*%
%TO.C,MK2*%
X160135000Y-63500000D03*
D16*
%TO.N,Net-(MK2-Pad2)*%
X157595000Y-63500000D03*
%TD*%
D17*
%TO.N,VS*%
%TO.C,D1*%
X82350000Y-68230000D03*
D14*
%TO.N,Net-(D1-A)*%
X82350000Y-58070000D03*
%TD*%
D18*
%TO.N,GND*%
%TO.C,J1*%
X87540000Y-49000000D03*
D19*
%TO.N,Net-(D1-A)*%
X82460000Y-49000000D03*
%TD*%
D20*
%TO.N,GND*%
%TO.C,SW1*%
X124750000Y-100000000D03*
X131250000Y-100000000D03*
%TO.N,Net-(U1-EN)*%
X124750000Y-104500000D03*
X131250000Y-104500000D03*
%TD*%
D21*
%TO.N,GND*%
X127400000Y-51975000D03*
X79250000Y-99250000D03*
X134525000Y-49525000D03*
X167350000Y-75075000D03*
X111525000Y-79175000D03*
X126000000Y-52050000D03*
X76075000Y-63275000D03*
X167400000Y-82000000D03*
X126075000Y-73625000D03*
X163725000Y-46800000D03*
X127225000Y-74550000D03*
X103525000Y-100850000D03*
X82000000Y-87000000D03*
X166650000Y-65500000D03*
X113875000Y-50975000D03*
X76850000Y-104000000D03*
X76225000Y-51450000D03*
X103750000Y-62750000D03*
X106050000Y-102625000D03*
X145950000Y-46225000D03*
X84925000Y-107000000D03*
X105937500Y-81750000D03*
X138750000Y-93500000D03*
X152527000Y-90170000D03*
X134250000Y-89250000D03*
X150525000Y-75700000D03*
X167475000Y-89825000D03*
X127200000Y-87562500D03*
X111125000Y-73025000D03*
X138000000Y-85350000D03*
X120800000Y-107275000D03*
X134450000Y-51025000D03*
X113925000Y-47850000D03*
X98000000Y-75250000D03*
X129575000Y-107450000D03*
X119775000Y-56175000D03*
X79250000Y-84750000D03*
X98050000Y-103450000D03*
X122950000Y-52075000D03*
X159725000Y-95550000D03*
X76300000Y-73050000D03*
X76100000Y-81175000D03*
X87000000Y-83750000D03*
X108550000Y-98325000D03*
X128950000Y-96775000D03*
X140750000Y-107475000D03*
X153800000Y-107850000D03*
X123850000Y-86650000D03*
X93000000Y-79500000D03*
X133500000Y-84250000D03*
X154600000Y-93700000D03*
X134450000Y-46550000D03*
X93025000Y-46775000D03*
X166275000Y-58325000D03*
X101000000Y-95600000D03*
X127950000Y-91250000D03*
X146000000Y-99500000D03*
X108625000Y-81300000D03*
X121650000Y-92187500D03*
X93225000Y-98550000D03*
X119525000Y-78750000D03*
X113925000Y-46375000D03*
X139750000Y-94250000D03*
X152250000Y-72750000D03*
X117400000Y-52125000D03*
X106050000Y-71500000D03*
X124575000Y-52075000D03*
X144150000Y-51000000D03*
X87500000Y-55250000D03*
X156750000Y-46250000D03*
X167475000Y-96650000D03*
X102250000Y-50500000D03*
X116000000Y-96750000D03*
X106050000Y-93850000D03*
X83250000Y-104500000D03*
X155650000Y-59900000D03*
X121400000Y-76825000D03*
X166750000Y-50325000D03*
X114000000Y-49375000D03*
X148717000Y-89916000D03*
X159725000Y-102475000D03*
X123225000Y-76425000D03*
X118850000Y-100100000D03*
X128975000Y-52025000D03*
X103500000Y-74150000D03*
X134500000Y-48050000D03*
X76500000Y-99000000D03*
X112000000Y-50250000D03*
X106100000Y-46600000D03*
X118625000Y-51925000D03*
X100925000Y-88375000D03*
X130500000Y-52025000D03*
X120025000Y-52100000D03*
X76475000Y-91025000D03*
X113650000Y-72700000D03*
X105750000Y-78650000D03*
X103475000Y-89550000D03*
X159000000Y-84500000D03*
X111125000Y-97025000D03*
X93100000Y-106675000D03*
X76500000Y-84750000D03*
X89000000Y-71500000D03*
X124225000Y-77650000D03*
X121475000Y-52025000D03*
X134700000Y-80950000D03*
X154575000Y-102725000D03*
X142550000Y-75250000D03*
X132050000Y-52075000D03*
X126850000Y-65300000D03*
X165825000Y-107275000D03*
X107000000Y-50250000D03*
X119800000Y-73950000D03*
%TO.N,+3.3V AMP*%
X126000000Y-89450000D03*
X126000000Y-91150000D03*
%TO.N,+3V3 ESP*%
X135100000Y-52400000D03*
X130875000Y-54135000D03*
%TO.N,Net-(U1-EN)*%
X109837500Y-69662500D03*
X118187500Y-59812500D03*
%TO.N,VS*%
X102050000Y-79050000D03*
X99450000Y-79047500D03*
%TO.N,/BOOT*%
X109300000Y-49050000D03*
X130250000Y-68150000D03*
%TO.N,/AMPLIFIER CIRCUIT/MUTE_IO*%
X140000000Y-90250000D03*
X117275000Y-65565000D03*
X123175000Y-75175000D03*
X126937500Y-78937500D03*
%TO.N,/AMPLIFIER CIRCUIT/SHND_IO*%
X123850000Y-74625000D03*
X125837500Y-76837500D03*
X117300000Y-64300000D03*
X131325000Y-82000000D03*
%TO.N,/GPIO14*%
X129025000Y-74025000D03*
%TO.N,/RX*%
X134527500Y-57972500D03*
%TO.N,/A4*%
X113800000Y-57450000D03*
%TO.N,/A8*%
X111700000Y-66835000D03*
%TO.N,/A2*%
X131287500Y-56212500D03*
%TO.N,/GPIO37*%
X134575000Y-65565000D03*
%TO.N,/TX*%
X134575000Y-56750000D03*
%TO.N,/AUDIO_SYNC*%
X120750000Y-73950000D03*
X120500000Y-76250000D03*
%TO.N,/GPIO21*%
X129212500Y-72812500D03*
%TO.N,/GPIO15*%
X117587500Y-61837500D03*
X127112500Y-75612500D03*
X125175000Y-73275000D03*
%TO.N,/GPIO40*%
X134600000Y-61750000D03*
%TO.N,/GPIO35*%
X134575000Y-68250000D03*
%TO.N,/A6*%
X113812500Y-59687500D03*
%TO.N,/GPIO41*%
X134575000Y-60500000D03*
%TO.N,/GPIO39*%
X134600000Y-63000000D03*
%TO.N,/A3*%
X116207500Y-71775000D03*
%TO.N,/GPIO42*%
X134575000Y-59250000D03*
%TO.N,/GPIO38*%
X134500000Y-64295000D03*
%TO.N,/A5*%
X113750000Y-58500000D03*
%TO.N,/A9*%
X119830000Y-72125000D03*
%TO.N,/A7*%
X113925000Y-60825000D03*
%TO.N,/GPIO13*%
X129012500Y-75412500D03*
%TO.N,/GPIO36*%
X134505000Y-66830000D03*
%TO.N,/GPIO16*%
X126537500Y-76287500D03*
X117475000Y-63025000D03*
X124500000Y-73975000D03*
%TD*%
%TA.AperFunction,Conductor*%
%TO.N,GND*%
G36*
X114943039Y-45520185D02*
G01*
X114988794Y-45572989D01*
X115000000Y-45624500D01*
X115000000Y-51347766D01*
X115000000Y-51472766D01*
X133500000Y-51472766D01*
X133500000Y-45624500D01*
X133519685Y-45557461D01*
X133572489Y-45511706D01*
X133624000Y-45500500D01*
X167875500Y-45500500D01*
X167942539Y-45520185D01*
X167988294Y-45572989D01*
X167999500Y-45624500D01*
X167999500Y-108625500D01*
X167979815Y-108692539D01*
X167927011Y-108738294D01*
X167875500Y-108749500D01*
X74124500Y-108749500D01*
X74057461Y-108729815D01*
X74011706Y-108677011D01*
X74000500Y-108625500D01*
X74000500Y-105643713D01*
X95779500Y-105643713D01*
X95779500Y-105856287D01*
X95812754Y-106066243D01*
X95839278Y-106147876D01*
X95878444Y-106268414D01*
X95974951Y-106457820D01*
X96099890Y-106629786D01*
X96250213Y-106780109D01*
X96422179Y-106905048D01*
X96422181Y-106905049D01*
X96422184Y-106905051D01*
X96611588Y-107001557D01*
X96813757Y-107067246D01*
X97023713Y-107100500D01*
X97023714Y-107100500D01*
X97236286Y-107100500D01*
X97236287Y-107100500D01*
X97446243Y-107067246D01*
X97648412Y-107001557D01*
X97837816Y-106905051D01*
X97924138Y-106842335D01*
X98009786Y-106780109D01*
X98009788Y-106780106D01*
X98009792Y-106780104D01*
X98160104Y-106629792D01*
X98160106Y-106629788D01*
X98160109Y-106629786D01*
X98285048Y-106457820D01*
X98285047Y-106457820D01*
X98285051Y-106457816D01*
X98289514Y-106449054D01*
X98337488Y-106398259D01*
X98405308Y-106381463D01*
X98471444Y-106403999D01*
X98510486Y-106449056D01*
X98514951Y-106457820D01*
X98639890Y-106629786D01*
X98790213Y-106780109D01*
X98962179Y-106905048D01*
X98962181Y-106905049D01*
X98962184Y-106905051D01*
X99151588Y-107001557D01*
X99353757Y-107067246D01*
X99563713Y-107100500D01*
X99563714Y-107100500D01*
X99776286Y-107100500D01*
X99776287Y-107100500D01*
X99986243Y-107067246D01*
X100188412Y-107001557D01*
X100377816Y-106905051D01*
X100464138Y-106842335D01*
X100549786Y-106780109D01*
X100549788Y-106780106D01*
X100549792Y-106780104D01*
X100700104Y-106629792D01*
X100700106Y-106629788D01*
X100700109Y-106629786D01*
X100825048Y-106457820D01*
X100825047Y-106457820D01*
X100825051Y-106457816D01*
X100829514Y-106449054D01*
X100877488Y-106398259D01*
X100945308Y-106381463D01*
X101011444Y-106403999D01*
X101050486Y-106449056D01*
X101054951Y-106457820D01*
X101179890Y-106629786D01*
X101330213Y-106780109D01*
X101502179Y-106905048D01*
X101502181Y-106905049D01*
X101502184Y-106905051D01*
X101691588Y-107001557D01*
X101893757Y-107067246D01*
X102103713Y-107100500D01*
X102103714Y-107100500D01*
X102316286Y-107100500D01*
X102316287Y-107100500D01*
X102526243Y-107067246D01*
X102728412Y-107001557D01*
X102917816Y-106905051D01*
X103004138Y-106842335D01*
X103089786Y-106780109D01*
X103089788Y-106780106D01*
X103089792Y-106780104D01*
X103240104Y-106629792D01*
X103240106Y-106629788D01*
X103240109Y-106629786D01*
X103365048Y-106457820D01*
X103365047Y-106457820D01*
X103365051Y-106457816D01*
X103369514Y-106449054D01*
X103417488Y-106398259D01*
X103485308Y-106381463D01*
X103551444Y-106403999D01*
X103590486Y-106449056D01*
X103594951Y-106457820D01*
X103719890Y-106629786D01*
X103870213Y-106780109D01*
X104042179Y-106905048D01*
X104042181Y-106905049D01*
X104042184Y-106905051D01*
X104231588Y-107001557D01*
X104433757Y-107067246D01*
X104643713Y-107100500D01*
X104643714Y-107100500D01*
X104856286Y-107100500D01*
X104856287Y-107100500D01*
X105066243Y-107067246D01*
X105268412Y-107001557D01*
X105457816Y-106905051D01*
X105544138Y-106842335D01*
X105629786Y-106780109D01*
X105629788Y-106780106D01*
X105629792Y-106780104D01*
X105780104Y-106629792D01*
X105780106Y-106629788D01*
X105780109Y-106629786D01*
X105905048Y-106457820D01*
X105905047Y-106457820D01*
X105905051Y-106457816D01*
X105909514Y-106449054D01*
X105957488Y-106398259D01*
X106025308Y-106381463D01*
X106091444Y-106403999D01*
X106130486Y-106449056D01*
X106134951Y-106457820D01*
X106259890Y-106629786D01*
X106410213Y-106780109D01*
X106582179Y-106905048D01*
X106582181Y-106905049D01*
X106582184Y-106905051D01*
X106771588Y-107001557D01*
X106973757Y-107067246D01*
X107183713Y-107100500D01*
X107183714Y-107100500D01*
X107396286Y-107100500D01*
X107396287Y-107100500D01*
X107606243Y-107067246D01*
X107808412Y-107001557D01*
X107997816Y-106905051D01*
X108084138Y-106842335D01*
X108169786Y-106780109D01*
X108169788Y-106780106D01*
X108169792Y-106780104D01*
X108320104Y-106629792D01*
X108320106Y-106629788D01*
X108320109Y-106629786D01*
X108445048Y-106457820D01*
X108445047Y-106457820D01*
X108445051Y-106457816D01*
X108449514Y-106449054D01*
X108497488Y-106398259D01*
X108565308Y-106381463D01*
X108631444Y-106403999D01*
X108670486Y-106449056D01*
X108674951Y-106457820D01*
X108799890Y-106629786D01*
X108950213Y-106780109D01*
X109122179Y-106905048D01*
X109122181Y-106905049D01*
X109122184Y-106905051D01*
X109311588Y-107001557D01*
X109513757Y-107067246D01*
X109723713Y-107100500D01*
X109723714Y-107100500D01*
X109936286Y-107100500D01*
X109936287Y-107100500D01*
X110146243Y-107067246D01*
X110348412Y-107001557D01*
X110537816Y-106905051D01*
X110624138Y-106842335D01*
X110709786Y-106780109D01*
X110709788Y-106780106D01*
X110709792Y-106780104D01*
X110860104Y-106629792D01*
X110860106Y-106629788D01*
X110860109Y-106629786D01*
X110985048Y-106457820D01*
X110985047Y-106457820D01*
X110985051Y-106457816D01*
X110989514Y-106449054D01*
X111037488Y-106398259D01*
X111105308Y-106381463D01*
X111171444Y-106403999D01*
X111210486Y-106449056D01*
X111214951Y-106457820D01*
X111339890Y-106629786D01*
X111490213Y-106780109D01*
X111662179Y-106905048D01*
X111662181Y-106905049D01*
X111662184Y-106905051D01*
X111851588Y-107001557D01*
X112053757Y-107067246D01*
X112263713Y-107100500D01*
X112263714Y-107100500D01*
X112476286Y-107100500D01*
X112476287Y-107100500D01*
X112686243Y-107067246D01*
X112888412Y-107001557D01*
X113077816Y-106905051D01*
X113249792Y-106780104D01*
X113363329Y-106666566D01*
X113424648Y-106633084D01*
X113494340Y-106638068D01*
X113550274Y-106679939D01*
X113567189Y-106710917D01*
X113616202Y-106842328D01*
X113616206Y-106842335D01*
X113702452Y-106957544D01*
X113702455Y-106957547D01*
X113817664Y-107043793D01*
X113817671Y-107043797D01*
X113952517Y-107094091D01*
X113952516Y-107094091D01*
X113959444Y-107094835D01*
X114012127Y-107100500D01*
X115807872Y-107100499D01*
X115867483Y-107094091D01*
X116002331Y-107043796D01*
X116117546Y-106957546D01*
X116203796Y-106842331D01*
X116254091Y-106707483D01*
X116260500Y-106647873D01*
X116260499Y-104852128D01*
X116254091Y-104792517D01*
X116252810Y-104789083D01*
X116203797Y-104657671D01*
X116203793Y-104657664D01*
X116117547Y-104542456D01*
X116117548Y-104542456D01*
X116117546Y-104542454D01*
X116002331Y-104456204D01*
X116002328Y-104456202D01*
X115867482Y-104405908D01*
X115867483Y-104405908D01*
X115807883Y-104399501D01*
X115807881Y-104399500D01*
X115807873Y-104399500D01*
X115807864Y-104399500D01*
X114012129Y-104399500D01*
X114012123Y-104399501D01*
X113952516Y-104405908D01*
X113817671Y-104456202D01*
X113817664Y-104456206D01*
X113702455Y-104542452D01*
X113702452Y-104542455D01*
X113616206Y-104657664D01*
X113616203Y-104657669D01*
X113567189Y-104789083D01*
X113525317Y-104845016D01*
X113459853Y-104869433D01*
X113391580Y-104854581D01*
X113363326Y-104833430D01*
X113249786Y-104719890D01*
X113077820Y-104594951D01*
X112888414Y-104498444D01*
X112888413Y-104498443D01*
X112888412Y-104498443D01*
X112686243Y-104432754D01*
X112686241Y-104432753D01*
X112686240Y-104432753D01*
X112524957Y-104407208D01*
X112476287Y-104399500D01*
X112263713Y-104399500D01*
X112215042Y-104407208D01*
X112053760Y-104432753D01*
X111851585Y-104498444D01*
X111662179Y-104594951D01*
X111490213Y-104719890D01*
X111339890Y-104870213D01*
X111214949Y-105042182D01*
X111210484Y-105050946D01*
X111162509Y-105101742D01*
X111094688Y-105118536D01*
X111028553Y-105095998D01*
X110989516Y-105050946D01*
X110985050Y-105042182D01*
X110860109Y-104870213D01*
X110709786Y-104719890D01*
X110537820Y-104594951D01*
X110348414Y-104498444D01*
X110348413Y-104498443D01*
X110348412Y-104498443D01*
X110146243Y-104432754D01*
X110146241Y-104432753D01*
X110146240Y-104432753D01*
X109984957Y-104407208D01*
X109936287Y-104399500D01*
X109723713Y-104399500D01*
X109675042Y-104407208D01*
X109513760Y-104432753D01*
X109311585Y-104498444D01*
X109122179Y-104594951D01*
X108950213Y-104719890D01*
X108799890Y-104870213D01*
X108674949Y-105042182D01*
X108670484Y-105050946D01*
X108622509Y-105101742D01*
X108554688Y-105118536D01*
X108488553Y-105095998D01*
X108449516Y-105050946D01*
X108445050Y-105042182D01*
X108320109Y-104870213D01*
X108169786Y-104719890D01*
X107997820Y-104594951D01*
X107808414Y-104498444D01*
X107808413Y-104498443D01*
X107808412Y-104498443D01*
X107606243Y-104432754D01*
X107606241Y-104432753D01*
X107606240Y-104432753D01*
X107444957Y-104407208D01*
X107396287Y-104399500D01*
X107183713Y-104399500D01*
X107135042Y-104407208D01*
X106973760Y-104432753D01*
X106771585Y-104498444D01*
X106582179Y-104594951D01*
X106410213Y-104719890D01*
X106259890Y-104870213D01*
X106134949Y-105042182D01*
X106130484Y-105050946D01*
X106082509Y-105101742D01*
X106014688Y-105118536D01*
X105948553Y-105095998D01*
X105909516Y-105050946D01*
X105905050Y-105042182D01*
X105780109Y-104870213D01*
X105629786Y-104719890D01*
X105457820Y-104594951D01*
X105268414Y-104498444D01*
X105268413Y-104498443D01*
X105268412Y-104498443D01*
X105066243Y-104432754D01*
X105066241Y-104432753D01*
X105066240Y-104432753D01*
X104904957Y-104407208D01*
X104856287Y-104399500D01*
X104643713Y-104399500D01*
X104595042Y-104407208D01*
X104433760Y-104432753D01*
X104231585Y-104498444D01*
X104042179Y-104594951D01*
X103870213Y-104719890D01*
X103719890Y-104870213D01*
X103594949Y-105042182D01*
X103590484Y-105050946D01*
X103542509Y-105101742D01*
X103474688Y-105118536D01*
X103408553Y-105095998D01*
X103369516Y-105050946D01*
X103365050Y-105042182D01*
X103240109Y-104870213D01*
X103089786Y-104719890D01*
X102917820Y-104594951D01*
X102728414Y-104498444D01*
X102728413Y-104498443D01*
X102728412Y-104498443D01*
X102526243Y-104432754D01*
X102526241Y-104432753D01*
X102526240Y-104432753D01*
X102364957Y-104407208D01*
X102316287Y-104399500D01*
X102103713Y-104399500D01*
X102055042Y-104407208D01*
X101893760Y-104432753D01*
X101691585Y-104498444D01*
X101502179Y-104594951D01*
X101330213Y-104719890D01*
X101179890Y-104870213D01*
X101054949Y-105042182D01*
X101050484Y-105050946D01*
X101002509Y-105101742D01*
X100934688Y-105118536D01*
X100868553Y-105095998D01*
X100829516Y-105050946D01*
X100825050Y-105042182D01*
X100700109Y-104870213D01*
X100549786Y-104719890D01*
X100377820Y-104594951D01*
X100188414Y-104498444D01*
X100188413Y-104498443D01*
X100188412Y-104498443D01*
X99986243Y-104432754D01*
X99986241Y-104432753D01*
X99986240Y-104432753D01*
X99824957Y-104407208D01*
X99776287Y-104399500D01*
X99563713Y-104399500D01*
X99515042Y-104407208D01*
X99353760Y-104432753D01*
X99151585Y-104498444D01*
X98962179Y-104594951D01*
X98790213Y-104719890D01*
X98639890Y-104870213D01*
X98514949Y-105042182D01*
X98510484Y-105050946D01*
X98462509Y-105101742D01*
X98394688Y-105118536D01*
X98328553Y-105095998D01*
X98289516Y-105050946D01*
X98285050Y-105042182D01*
X98160109Y-104870213D01*
X98009786Y-104719890D01*
X97837820Y-104594951D01*
X97648414Y-104498444D01*
X97648413Y-104498443D01*
X97648412Y-104498443D01*
X97446243Y-104432754D01*
X97446241Y-104432753D01*
X97446240Y-104432753D01*
X97284957Y-104407208D01*
X97236287Y-104399500D01*
X97023713Y-104399500D01*
X96975042Y-104407208D01*
X96813760Y-104432753D01*
X96611585Y-104498444D01*
X96422179Y-104594951D01*
X96250213Y-104719890D01*
X96099890Y-104870213D01*
X95974951Y-105042179D01*
X95878444Y-105231585D01*
X95812753Y-105433760D01*
X95791771Y-105566239D01*
X95779500Y-105643713D01*
X74000500Y-105643713D01*
X74000500Y-104381902D01*
X123249500Y-104381902D01*
X123249500Y-104618097D01*
X123286446Y-104851368D01*
X123359433Y-105075996D01*
X123438712Y-105231588D01*
X123466657Y-105286433D01*
X123605483Y-105477510D01*
X123772490Y-105644517D01*
X123963567Y-105783343D01*
X124062991Y-105834002D01*
X124174003Y-105890566D01*
X124174005Y-105890566D01*
X124174008Y-105890568D01*
X124294412Y-105929689D01*
X124398631Y-105963553D01*
X124631903Y-106000500D01*
X124631908Y-106000500D01*
X124868097Y-106000500D01*
X125101368Y-105963553D01*
X125119012Y-105957820D01*
X125325992Y-105890568D01*
X125536433Y-105783343D01*
X125727510Y-105644517D01*
X125894517Y-105477510D01*
X126033343Y-105286433D01*
X126140568Y-105075992D01*
X126213553Y-104851368D01*
X126223534Y-104788349D01*
X126250500Y-104618097D01*
X126250500Y-104381902D01*
X129749500Y-104381902D01*
X129749500Y-104618097D01*
X129786446Y-104851368D01*
X129859433Y-105075996D01*
X129938712Y-105231588D01*
X129966657Y-105286433D01*
X130105483Y-105477510D01*
X130272490Y-105644517D01*
X130463567Y-105783343D01*
X130562991Y-105834002D01*
X130674003Y-105890566D01*
X130674005Y-105890566D01*
X130674008Y-105890568D01*
X130794412Y-105929689D01*
X130898631Y-105963553D01*
X131131903Y-106000500D01*
X131131908Y-106000500D01*
X131368097Y-106000500D01*
X131601368Y-105963553D01*
X131619012Y-105957820D01*
X131825992Y-105890568D01*
X132036433Y-105783343D01*
X132227510Y-105644517D01*
X132394517Y-105477510D01*
X132533343Y-105286433D01*
X132640568Y-105075992D01*
X132713553Y-104851368D01*
X132723534Y-104788349D01*
X132750500Y-104618097D01*
X132750500Y-104381905D01*
X132748330Y-104368206D01*
X132748330Y-104368204D01*
X132745785Y-104352135D01*
X144319500Y-104352135D01*
X144319500Y-106147870D01*
X144319501Y-106147876D01*
X144325908Y-106207483D01*
X144376202Y-106342328D01*
X144376206Y-106342335D01*
X144462452Y-106457544D01*
X144462455Y-106457547D01*
X144577664Y-106543793D01*
X144577671Y-106543797D01*
X144712517Y-106594091D01*
X144712516Y-106594091D01*
X144719444Y-106594835D01*
X144772127Y-106600500D01*
X146567872Y-106600499D01*
X146627483Y-106594091D01*
X146762331Y-106543796D01*
X146877546Y-106457546D01*
X146963796Y-106342331D01*
X147012810Y-106210916D01*
X147054681Y-106154984D01*
X147120145Y-106130566D01*
X147188418Y-106145417D01*
X147216673Y-106166569D01*
X147330213Y-106280109D01*
X147502179Y-106405048D01*
X147502181Y-106405049D01*
X147502184Y-106405051D01*
X147691588Y-106501557D01*
X147893757Y-106567246D01*
X148103713Y-106600500D01*
X148103714Y-106600500D01*
X148316286Y-106600500D01*
X148316287Y-106600500D01*
X148526243Y-106567246D01*
X148728412Y-106501557D01*
X148917816Y-106405051D01*
X149004138Y-106342335D01*
X149089786Y-106280109D01*
X149089788Y-106280106D01*
X149089792Y-106280104D01*
X149240104Y-106129792D01*
X149240106Y-106129788D01*
X149240109Y-106129786D01*
X149365048Y-105957820D01*
X149365047Y-105957820D01*
X149365051Y-105957816D01*
X149369514Y-105949054D01*
X149417488Y-105898259D01*
X149485308Y-105881463D01*
X149551444Y-105903999D01*
X149590486Y-105949056D01*
X149594951Y-105957820D01*
X149719890Y-106129786D01*
X149870213Y-106280109D01*
X150042179Y-106405048D01*
X150042181Y-106405049D01*
X150042184Y-106405051D01*
X150231588Y-106501557D01*
X150433757Y-106567246D01*
X150643713Y-106600500D01*
X150643714Y-106600500D01*
X150856286Y-106600500D01*
X150856287Y-106600500D01*
X151066243Y-106567246D01*
X151268412Y-106501557D01*
X151457816Y-106405051D01*
X151544138Y-106342335D01*
X151629786Y-106280109D01*
X151629788Y-106280106D01*
X151629792Y-106280104D01*
X151780104Y-106129792D01*
X151780106Y-106129788D01*
X151780109Y-106129786D01*
X151905048Y-105957820D01*
X151905047Y-105957820D01*
X151905051Y-105957816D01*
X151909514Y-105949054D01*
X151957488Y-105898259D01*
X152025308Y-105881463D01*
X152091444Y-105903999D01*
X152130486Y-105949056D01*
X152134951Y-105957820D01*
X152259890Y-106129786D01*
X152410213Y-106280109D01*
X152582179Y-106405048D01*
X152582181Y-106405049D01*
X152582184Y-106405051D01*
X152771588Y-106501557D01*
X152973757Y-106567246D01*
X153183713Y-106600500D01*
X153183714Y-106600500D01*
X153396286Y-106600500D01*
X153396287Y-106600500D01*
X153606243Y-106567246D01*
X153808412Y-106501557D01*
X153997816Y-106405051D01*
X154084138Y-106342335D01*
X154169786Y-106280109D01*
X154169788Y-106280106D01*
X154169792Y-106280104D01*
X154320104Y-106129792D01*
X154320106Y-106129788D01*
X154320109Y-106129786D01*
X154445048Y-105957820D01*
X154445047Y-105957820D01*
X154445051Y-105957816D01*
X154449514Y-105949054D01*
X154497488Y-105898259D01*
X154565308Y-105881463D01*
X154631444Y-105903999D01*
X154670486Y-105949056D01*
X154674951Y-105957820D01*
X154799890Y-106129786D01*
X154950213Y-106280109D01*
X155122179Y-106405048D01*
X155122181Y-106405049D01*
X155122184Y-106405051D01*
X155311588Y-106501557D01*
X155513757Y-106567246D01*
X155723713Y-106600500D01*
X155723714Y-106600500D01*
X155936286Y-106600500D01*
X155936287Y-106600500D01*
X156146243Y-106567246D01*
X156348412Y-106501557D01*
X156537816Y-106405051D01*
X156624138Y-106342335D01*
X156709786Y-106280109D01*
X156709788Y-106280106D01*
X156709792Y-106280104D01*
X156860104Y-106129792D01*
X156860106Y-106129788D01*
X156860109Y-106129786D01*
X156985048Y-105957820D01*
X156985047Y-105957820D01*
X156985051Y-105957816D01*
X156989514Y-105949054D01*
X157037488Y-105898259D01*
X157105308Y-105881463D01*
X157171444Y-105903999D01*
X157210486Y-105949056D01*
X157214951Y-105957820D01*
X157339890Y-106129786D01*
X157490213Y-106280109D01*
X157662179Y-106405048D01*
X157662181Y-106405049D01*
X157662184Y-106405051D01*
X157851588Y-106501557D01*
X158053757Y-106567246D01*
X158263713Y-106600500D01*
X158263714Y-106600500D01*
X158476286Y-106600500D01*
X158476287Y-106600500D01*
X158686243Y-106567246D01*
X158888412Y-106501557D01*
X159077816Y-106405051D01*
X159164138Y-106342335D01*
X159249786Y-106280109D01*
X159249788Y-106280106D01*
X159249792Y-106280104D01*
X159400104Y-106129792D01*
X159400106Y-106129788D01*
X159400109Y-106129786D01*
X159525048Y-105957820D01*
X159525047Y-105957820D01*
X159525051Y-105957816D01*
X159529514Y-105949054D01*
X159577488Y-105898259D01*
X159645308Y-105881463D01*
X159711444Y-105903999D01*
X159750486Y-105949056D01*
X159754951Y-105957820D01*
X159879890Y-106129786D01*
X160030213Y-106280109D01*
X160202179Y-106405048D01*
X160202181Y-106405049D01*
X160202184Y-106405051D01*
X160391588Y-106501557D01*
X160593757Y-106567246D01*
X160803713Y-106600500D01*
X160803714Y-106600500D01*
X161016286Y-106600500D01*
X161016287Y-106600500D01*
X161226243Y-106567246D01*
X161428412Y-106501557D01*
X161617816Y-106405051D01*
X161704138Y-106342335D01*
X161789786Y-106280109D01*
X161789788Y-106280106D01*
X161789792Y-106280104D01*
X161940104Y-106129792D01*
X161940106Y-106129788D01*
X161940109Y-106129786D01*
X162065048Y-105957820D01*
X162065047Y-105957820D01*
X162065051Y-105957816D01*
X162161557Y-105768412D01*
X162227246Y-105566243D01*
X162260500Y-105356287D01*
X162260500Y-105143713D01*
X162227246Y-104933757D01*
X162161557Y-104731588D01*
X162065051Y-104542184D01*
X162065049Y-104542181D01*
X162065048Y-104542179D01*
X161940109Y-104370213D01*
X161789786Y-104219890D01*
X161617820Y-104094951D01*
X161428414Y-103998444D01*
X161428413Y-103998443D01*
X161428412Y-103998443D01*
X161226243Y-103932754D01*
X161226241Y-103932753D01*
X161226240Y-103932753D01*
X161064957Y-103907208D01*
X161016287Y-103899500D01*
X160803713Y-103899500D01*
X160755042Y-103907208D01*
X160593760Y-103932753D01*
X160391585Y-103998444D01*
X160202179Y-104094951D01*
X160030213Y-104219890D01*
X159879890Y-104370213D01*
X159754949Y-104542182D01*
X159750484Y-104550946D01*
X159702509Y-104601742D01*
X159634688Y-104618536D01*
X159568553Y-104595998D01*
X159529516Y-104550946D01*
X159525050Y-104542182D01*
X159400109Y-104370213D01*
X159249786Y-104219890D01*
X159077820Y-104094951D01*
X158888414Y-103998444D01*
X158888413Y-103998443D01*
X158888412Y-103998443D01*
X158686243Y-103932754D01*
X158686241Y-103932753D01*
X158686240Y-103932753D01*
X158524957Y-103907208D01*
X158476287Y-103899500D01*
X158263713Y-103899500D01*
X158215042Y-103907208D01*
X158053760Y-103932753D01*
X157851585Y-103998444D01*
X157662179Y-104094951D01*
X157490213Y-104219890D01*
X157339890Y-104370213D01*
X157214949Y-104542182D01*
X157210484Y-104550946D01*
X157162509Y-104601742D01*
X157094688Y-104618536D01*
X157028553Y-104595998D01*
X156989516Y-104550946D01*
X156985050Y-104542182D01*
X156860109Y-104370213D01*
X156709786Y-104219890D01*
X156537820Y-104094951D01*
X156348414Y-103998444D01*
X156348413Y-103998443D01*
X156348412Y-103998443D01*
X156146243Y-103932754D01*
X156146241Y-103932753D01*
X156146240Y-103932753D01*
X155984957Y-103907208D01*
X155936287Y-103899500D01*
X155723713Y-103899500D01*
X155675042Y-103907208D01*
X155513760Y-103932753D01*
X155311585Y-103998444D01*
X155122179Y-104094951D01*
X154950213Y-104219890D01*
X154799890Y-104370213D01*
X154674949Y-104542182D01*
X154670484Y-104550946D01*
X154622509Y-104601742D01*
X154554688Y-104618536D01*
X154488553Y-104595998D01*
X154449516Y-104550946D01*
X154445050Y-104542182D01*
X154320109Y-104370213D01*
X154169786Y-104219890D01*
X153997820Y-104094951D01*
X153808414Y-103998444D01*
X153808413Y-103998443D01*
X153808412Y-103998443D01*
X153606243Y-103932754D01*
X153606241Y-103932753D01*
X153606240Y-103932753D01*
X153444957Y-103907208D01*
X153396287Y-103899500D01*
X153183713Y-103899500D01*
X153135042Y-103907208D01*
X152973760Y-103932753D01*
X152771585Y-103998444D01*
X152582179Y-104094951D01*
X152410213Y-104219890D01*
X152259890Y-104370213D01*
X152134949Y-104542182D01*
X152130484Y-104550946D01*
X152082509Y-104601742D01*
X152014688Y-104618536D01*
X151948553Y-104595998D01*
X151909516Y-104550946D01*
X151905050Y-104542182D01*
X151780109Y-104370213D01*
X151629786Y-104219890D01*
X151457820Y-104094951D01*
X151268414Y-103998444D01*
X151268413Y-103998443D01*
X151268412Y-103998443D01*
X151066243Y-103932754D01*
X151066241Y-103932753D01*
X151066240Y-103932753D01*
X150904957Y-103907208D01*
X150856287Y-103899500D01*
X150643713Y-103899500D01*
X150595042Y-103907208D01*
X150433760Y-103932753D01*
X150231585Y-103998444D01*
X150042179Y-104094951D01*
X149870213Y-104219890D01*
X149719890Y-104370213D01*
X149594949Y-104542182D01*
X149590484Y-104550946D01*
X149542509Y-104601742D01*
X149474688Y-104618536D01*
X149408553Y-104595998D01*
X149369516Y-104550946D01*
X149365050Y-104542182D01*
X149240109Y-104370213D01*
X149089786Y-104219890D01*
X148917820Y-104094951D01*
X148728414Y-103998444D01*
X148728413Y-103998443D01*
X148728412Y-103998443D01*
X148526243Y-103932754D01*
X148526241Y-103932753D01*
X148526240Y-103932753D01*
X148364957Y-103907208D01*
X148316287Y-103899500D01*
X148103713Y-103899500D01*
X148055042Y-103907208D01*
X147893760Y-103932753D01*
X147691585Y-103998444D01*
X147502179Y-104094951D01*
X147330215Y-104219889D01*
X147216673Y-104333431D01*
X147155350Y-104366915D01*
X147085658Y-104361931D01*
X147029725Y-104320059D01*
X147012810Y-104289082D01*
X146963797Y-104157671D01*
X146963793Y-104157664D01*
X146877547Y-104042455D01*
X146877544Y-104042452D01*
X146762335Y-103956206D01*
X146762328Y-103956202D01*
X146627482Y-103905908D01*
X146627483Y-103905908D01*
X146567883Y-103899501D01*
X146567881Y-103899500D01*
X146567873Y-103899500D01*
X146567864Y-103899500D01*
X144772129Y-103899500D01*
X144772123Y-103899501D01*
X144712516Y-103905908D01*
X144577671Y-103956202D01*
X144577664Y-103956206D01*
X144462455Y-104042452D01*
X144462452Y-104042455D01*
X144376206Y-104157664D01*
X144376202Y-104157671D01*
X144325908Y-104292517D01*
X144319501Y-104352116D01*
X144319500Y-104352135D01*
X132745785Y-104352135D01*
X132713553Y-104148631D01*
X132651028Y-103956202D01*
X132640568Y-103924008D01*
X132640566Y-103924005D01*
X132640566Y-103924003D01*
X132533342Y-103713566D01*
X132394517Y-103522490D01*
X132227510Y-103355483D01*
X132036433Y-103216657D01*
X131825996Y-103109433D01*
X131601368Y-103036446D01*
X131368097Y-102999500D01*
X131368092Y-102999500D01*
X131131908Y-102999500D01*
X131131903Y-102999500D01*
X130898631Y-103036446D01*
X130674003Y-103109433D01*
X130463566Y-103216657D01*
X130354550Y-103295862D01*
X130272490Y-103355483D01*
X130272488Y-103355485D01*
X130272487Y-103355485D01*
X130105485Y-103522487D01*
X130105485Y-103522488D01*
X130105483Y-103522490D01*
X130045862Y-103604550D01*
X129966657Y-103713566D01*
X129859433Y-103924003D01*
X129786446Y-104148631D01*
X129749500Y-104381902D01*
X126250500Y-104381902D01*
X126213553Y-104148631D01*
X126151028Y-103956202D01*
X126140568Y-103924008D01*
X126140566Y-103924005D01*
X126140566Y-103924003D01*
X126033342Y-103713566D01*
X125894517Y-103522490D01*
X125727510Y-103355483D01*
X125536433Y-103216657D01*
X125325996Y-103109433D01*
X125101368Y-103036446D01*
X124868097Y-102999500D01*
X124868092Y-102999500D01*
X124631908Y-102999500D01*
X124631903Y-102999500D01*
X124398631Y-103036446D01*
X124174003Y-103109433D01*
X123963566Y-103216657D01*
X123854550Y-103295862D01*
X123772490Y-103355483D01*
X123772488Y-103355485D01*
X123772487Y-103355485D01*
X123605485Y-103522487D01*
X123605485Y-103522488D01*
X123605483Y-103522490D01*
X123545862Y-103604550D01*
X123466657Y-103713566D01*
X123359433Y-103924003D01*
X123286446Y-104148631D01*
X123249500Y-104381902D01*
X74000500Y-104381902D01*
X74000500Y-99881947D01*
X123250000Y-99881947D01*
X123250000Y-100118052D01*
X123286934Y-100351247D01*
X123359897Y-100575802D01*
X123467087Y-100786174D01*
X123527338Y-100869104D01*
X123527340Y-100869105D01*
X124226212Y-100170233D01*
X124237482Y-100212292D01*
X124309890Y-100337708D01*
X124412292Y-100440110D01*
X124537708Y-100512518D01*
X124579765Y-100523787D01*
X123880893Y-101222658D01*
X123963828Y-101282914D01*
X124174197Y-101390102D01*
X124398752Y-101463065D01*
X124398751Y-101463065D01*
X124631948Y-101500000D01*
X124868052Y-101500000D01*
X125101247Y-101463065D01*
X125325802Y-101390102D01*
X125536163Y-101282918D01*
X125536169Y-101282914D01*
X125619104Y-101222658D01*
X125619105Y-101222658D01*
X124920233Y-100523787D01*
X124962292Y-100512518D01*
X125087708Y-100440110D01*
X125190110Y-100337708D01*
X125262518Y-100212292D01*
X125273787Y-100170234D01*
X125972658Y-100869105D01*
X125972658Y-100869104D01*
X126032914Y-100786169D01*
X126032918Y-100786163D01*
X126140102Y-100575802D01*
X126213065Y-100351247D01*
X126250000Y-100118052D01*
X126250000Y-99881947D01*
X129750000Y-99881947D01*
X129750000Y-100118052D01*
X129786934Y-100351247D01*
X129859897Y-100575802D01*
X129967087Y-100786174D01*
X130027338Y-100869104D01*
X130027340Y-100869105D01*
X130726212Y-100170233D01*
X130737482Y-100212292D01*
X130809890Y-100337708D01*
X130912292Y-100440110D01*
X131037708Y-100512518D01*
X131079765Y-100523787D01*
X130380893Y-101222658D01*
X130463828Y-101282914D01*
X130674197Y-101390102D01*
X130898752Y-101463065D01*
X130898751Y-101463065D01*
X131131948Y-101500000D01*
X131368052Y-101500000D01*
X131601247Y-101463065D01*
X131825802Y-101390102D01*
X132036163Y-101282918D01*
X132036169Y-101282914D01*
X132119104Y-101222658D01*
X132119105Y-101222658D01*
X131420233Y-100523787D01*
X131462292Y-100512518D01*
X131587708Y-100440110D01*
X131690110Y-100337708D01*
X131762518Y-100212292D01*
X131773787Y-100170234D01*
X132472658Y-100869105D01*
X132472658Y-100869104D01*
X132532914Y-100786169D01*
X132532918Y-100786163D01*
X132640102Y-100575802D01*
X132713065Y-100351247D01*
X132750000Y-100118052D01*
X132750000Y-99881947D01*
X132713065Y-99648752D01*
X132640102Y-99424197D01*
X132532914Y-99213828D01*
X132472658Y-99130894D01*
X132472658Y-99130893D01*
X131773787Y-99829765D01*
X131762518Y-99787708D01*
X131690110Y-99662292D01*
X131587708Y-99559890D01*
X131462292Y-99487482D01*
X131420234Y-99476212D01*
X132119105Y-98777340D01*
X132119104Y-98777338D01*
X132036174Y-98717087D01*
X131825802Y-98609897D01*
X131601247Y-98536934D01*
X131601248Y-98536934D01*
X131368052Y-98500000D01*
X131131948Y-98500000D01*
X130898752Y-98536934D01*
X130674197Y-98609897D01*
X130463830Y-98717084D01*
X130380894Y-98777340D01*
X131079766Y-99476212D01*
X131037708Y-99487482D01*
X130912292Y-99559890D01*
X130809890Y-99662292D01*
X130737482Y-99787708D01*
X130726212Y-99829766D01*
X130027340Y-99130894D01*
X129967084Y-99213830D01*
X129859897Y-99424197D01*
X129786934Y-99648752D01*
X129750000Y-99881947D01*
X126250000Y-99881947D01*
X126213065Y-99648752D01*
X126140102Y-99424197D01*
X126032914Y-99213828D01*
X125972658Y-99130894D01*
X125972658Y-99130893D01*
X125273787Y-99829765D01*
X125262518Y-99787708D01*
X125190110Y-99662292D01*
X125087708Y-99559890D01*
X124962292Y-99487482D01*
X124920234Y-99476212D01*
X125619105Y-98777340D01*
X125619104Y-98777339D01*
X125536174Y-98717087D01*
X125325802Y-98609897D01*
X125101247Y-98536934D01*
X125101248Y-98536934D01*
X124868052Y-98500000D01*
X124631948Y-98500000D01*
X124398752Y-98536934D01*
X124174197Y-98609897D01*
X123963830Y-98717084D01*
X123880894Y-98777340D01*
X124579766Y-99476212D01*
X124537708Y-99487482D01*
X124412292Y-99559890D01*
X124309890Y-99662292D01*
X124237482Y-99787708D01*
X124226212Y-99829766D01*
X123527340Y-99130894D01*
X123467084Y-99213830D01*
X123359897Y-99424197D01*
X123286934Y-99648752D01*
X123250000Y-99881947D01*
X74000500Y-99881947D01*
X74000500Y-94817525D01*
X79374500Y-94817525D01*
X79374500Y-94962475D01*
X79412016Y-95102485D01*
X79412017Y-95102488D01*
X79484488Y-95228011D01*
X79484490Y-95228013D01*
X79484491Y-95228015D01*
X79586985Y-95330509D01*
X79586986Y-95330510D01*
X79586988Y-95330511D01*
X79712511Y-95402982D01*
X79712512Y-95402982D01*
X79712515Y-95402984D01*
X79852525Y-95440500D01*
X79852528Y-95440500D01*
X79997472Y-95440500D01*
X79997475Y-95440500D01*
X80137485Y-95402984D01*
X80263015Y-95330509D01*
X80365509Y-95228015D01*
X80437984Y-95102485D01*
X80475500Y-94962475D01*
X80475500Y-94817525D01*
X80437984Y-94677515D01*
X80365509Y-94551985D01*
X80263015Y-94449491D01*
X80263013Y-94449490D01*
X80263011Y-94449488D01*
X80137488Y-94377017D01*
X80137489Y-94377017D01*
X80126006Y-94373940D01*
X79997475Y-94339500D01*
X79852525Y-94339500D01*
X79723993Y-94373940D01*
X79712511Y-94377017D01*
X79586988Y-94449488D01*
X79586982Y-94449493D01*
X79484493Y-94551982D01*
X79484488Y-94551988D01*
X79412017Y-94677511D01*
X79412016Y-94677515D01*
X79374500Y-94817525D01*
X74000500Y-94817525D01*
X74000500Y-89037525D01*
X79374500Y-89037525D01*
X79374500Y-89182475D01*
X79412016Y-89322485D01*
X79412017Y-89322488D01*
X79484488Y-89448011D01*
X79484490Y-89448013D01*
X79484491Y-89448015D01*
X79586985Y-89550509D01*
X79586986Y-89550510D01*
X79586988Y-89550511D01*
X79712511Y-89622982D01*
X79712512Y-89622982D01*
X79712515Y-89622984D01*
X79852525Y-89660500D01*
X79852528Y-89660500D01*
X79997472Y-89660500D01*
X79997475Y-89660500D01*
X80137485Y-89622984D01*
X80263015Y-89550509D01*
X80365509Y-89448015D01*
X80410881Y-89369429D01*
X125182000Y-89369429D01*
X125182000Y-89530570D01*
X125213433Y-89688594D01*
X125213435Y-89688602D01*
X125275096Y-89837466D01*
X125364619Y-89971447D01*
X125478552Y-90085380D01*
X125478555Y-90085382D01*
X125612532Y-90174902D01*
X125612534Y-90174903D01*
X125612536Y-90174904D01*
X125637970Y-90185440D01*
X125692373Y-90229281D01*
X125714437Y-90295576D01*
X125697157Y-90363275D01*
X125646019Y-90410885D01*
X125637970Y-90414560D01*
X125612536Y-90425095D01*
X125478552Y-90514619D01*
X125364619Y-90628552D01*
X125275096Y-90762533D01*
X125213435Y-90911397D01*
X125213433Y-90911405D01*
X125182000Y-91069429D01*
X125182000Y-91230570D01*
X125213433Y-91388594D01*
X125213435Y-91388602D01*
X125275096Y-91537466D01*
X125364619Y-91671447D01*
X125478552Y-91785380D01*
X125612533Y-91874903D01*
X125686965Y-91905733D01*
X125761398Y-91936565D01*
X125919429Y-91967999D01*
X125919433Y-91968000D01*
X125919434Y-91968000D01*
X126080567Y-91968000D01*
X126080568Y-91967999D01*
X126238602Y-91936565D01*
X126387468Y-91874902D01*
X126521445Y-91785382D01*
X126635382Y-91671445D01*
X126724902Y-91537468D01*
X126786565Y-91388602D01*
X126818000Y-91230566D01*
X126818000Y-91069434D01*
X126786565Y-90911398D01*
X126728594Y-90771445D01*
X126724903Y-90762533D01*
X126635380Y-90628552D01*
X126521447Y-90514619D01*
X126387466Y-90425096D01*
X126362030Y-90414561D01*
X126307627Y-90370720D01*
X126285562Y-90304426D01*
X126302841Y-90236726D01*
X126353979Y-90189116D01*
X126362030Y-90185439D01*
X126387466Y-90174903D01*
X126387466Y-90174902D01*
X126387468Y-90174902D01*
X126395659Y-90169429D01*
X139182000Y-90169429D01*
X139182000Y-90330570D01*
X139213433Y-90488594D01*
X139213435Y-90488602D01*
X139275096Y-90637466D01*
X139364619Y-90771447D01*
X139478552Y-90885380D01*
X139612533Y-90974903D01*
X139686965Y-91005733D01*
X139761398Y-91036565D01*
X139919429Y-91067999D01*
X139919433Y-91068000D01*
X139919434Y-91068000D01*
X140080567Y-91068000D01*
X140080568Y-91067999D01*
X140238602Y-91036565D01*
X140387468Y-90974902D01*
X140521445Y-90885382D01*
X140635382Y-90771445D01*
X140724902Y-90637468D01*
X140786565Y-90488602D01*
X140818000Y-90330566D01*
X140818000Y-90169434D01*
X140786565Y-90011398D01*
X140755733Y-89936965D01*
X140724903Y-89862533D01*
X140635380Y-89728552D01*
X140521447Y-89614619D01*
X140387466Y-89525096D01*
X140238602Y-89463435D01*
X140238594Y-89463433D01*
X140080570Y-89432000D01*
X140080566Y-89432000D01*
X139919434Y-89432000D01*
X139919429Y-89432000D01*
X139761405Y-89463433D01*
X139761397Y-89463435D01*
X139612533Y-89525096D01*
X139478552Y-89614619D01*
X139364619Y-89728552D01*
X139275096Y-89862533D01*
X139213435Y-90011397D01*
X139213433Y-90011405D01*
X139182000Y-90169429D01*
X126395659Y-90169429D01*
X126521445Y-90085382D01*
X126521448Y-90085379D01*
X126531167Y-90075661D01*
X126635379Y-89971448D01*
X126635380Y-89971447D01*
X126635382Y-89971445D01*
X126724902Y-89837468D01*
X126786565Y-89688602D01*
X126818000Y-89530566D01*
X126818000Y-89369434D01*
X126786565Y-89211398D01*
X126755733Y-89136965D01*
X126724903Y-89062533D01*
X126635380Y-88928552D01*
X126521447Y-88814619D01*
X126387466Y-88725096D01*
X126238602Y-88663435D01*
X126238594Y-88663433D01*
X126080570Y-88632000D01*
X126080566Y-88632000D01*
X125919434Y-88632000D01*
X125919429Y-88632000D01*
X125761405Y-88663433D01*
X125761397Y-88663435D01*
X125612533Y-88725096D01*
X125478552Y-88814619D01*
X125364619Y-88928552D01*
X125275096Y-89062533D01*
X125213435Y-89211397D01*
X125213433Y-89211405D01*
X125182000Y-89369429D01*
X80410881Y-89369429D01*
X80437984Y-89322485D01*
X80475500Y-89182475D01*
X80475500Y-89037525D01*
X80437984Y-88897515D01*
X80390123Y-88814618D01*
X80365511Y-88771988D01*
X80365506Y-88771982D01*
X80263017Y-88669493D01*
X80263011Y-88669488D01*
X80137488Y-88597017D01*
X80137489Y-88597017D01*
X80126006Y-88593940D01*
X79997475Y-88559500D01*
X79852525Y-88559500D01*
X79723993Y-88593940D01*
X79712511Y-88597017D01*
X79586988Y-88669488D01*
X79586982Y-88669493D01*
X79484493Y-88771982D01*
X79484488Y-88771988D01*
X79412017Y-88897511D01*
X79412016Y-88897515D01*
X79374500Y-89037525D01*
X74000500Y-89037525D01*
X74000500Y-83454038D01*
X80719500Y-83454038D01*
X80719500Y-83705961D01*
X80758910Y-83954785D01*
X80836760Y-84194383D01*
X80951132Y-84418848D01*
X81099201Y-84622649D01*
X81099205Y-84622654D01*
X81277345Y-84800794D01*
X81277350Y-84800798D01*
X81386077Y-84879792D01*
X81481155Y-84948870D01*
X81624184Y-85021747D01*
X81705616Y-85063239D01*
X81705618Y-85063239D01*
X81705621Y-85063241D01*
X81945215Y-85141090D01*
X82194038Y-85180500D01*
X82194039Y-85180500D01*
X82445961Y-85180500D01*
X82445962Y-85180500D01*
X82694785Y-85141090D01*
X82934379Y-85063241D01*
X83158845Y-84948870D01*
X83362656Y-84800793D01*
X83540793Y-84622656D01*
X83688870Y-84418845D01*
X83803241Y-84194379D01*
X83881090Y-83954785D01*
X83920500Y-83705962D01*
X83920500Y-83454038D01*
X83881090Y-83205215D01*
X83803241Y-82965621D01*
X83803239Y-82965618D01*
X83803239Y-82965616D01*
X83761747Y-82884184D01*
X83688870Y-82741155D01*
X83635350Y-82667491D01*
X83540798Y-82537350D01*
X83540794Y-82537345D01*
X83362654Y-82359205D01*
X83362649Y-82359201D01*
X83158848Y-82211132D01*
X83158847Y-82211131D01*
X83158845Y-82211130D01*
X83073844Y-82167820D01*
X82934383Y-82096760D01*
X82732835Y-82031273D01*
X82732834Y-82031272D01*
X82694787Y-82018910D01*
X82528903Y-81992636D01*
X82445962Y-81979500D01*
X82194038Y-81979500D01*
X82069626Y-81999205D01*
X81945214Y-82018910D01*
X81705616Y-82096760D01*
X81481151Y-82211132D01*
X81277350Y-82359201D01*
X81277345Y-82359205D01*
X81099205Y-82537345D01*
X81099201Y-82537350D01*
X80951132Y-82741151D01*
X80836760Y-82965616D01*
X80758910Y-83205214D01*
X80719500Y-83454038D01*
X74000500Y-83454038D01*
X74000500Y-81919429D01*
X130507000Y-81919429D01*
X130507000Y-82080570D01*
X130538433Y-82238594D01*
X130538435Y-82238602D01*
X130600096Y-82387466D01*
X130689619Y-82521447D01*
X130803552Y-82635380D01*
X130937533Y-82724903D01*
X130994364Y-82748443D01*
X131086398Y-82786565D01*
X131244429Y-82817999D01*
X131244433Y-82818000D01*
X131244434Y-82818000D01*
X131405567Y-82818000D01*
X131405568Y-82817999D01*
X131563602Y-82786565D01*
X131690666Y-82733932D01*
X131712466Y-82724903D01*
X131712466Y-82724902D01*
X131712468Y-82724902D01*
X131846445Y-82635382D01*
X131960382Y-82521445D01*
X132049902Y-82387468D01*
X132111565Y-82238602D01*
X132143000Y-82080566D01*
X132143000Y-81919434D01*
X132111565Y-81761398D01*
X132080733Y-81686965D01*
X132049903Y-81612533D01*
X131960380Y-81478552D01*
X131846447Y-81364619D01*
X131712466Y-81275096D01*
X131563602Y-81213435D01*
X131563594Y-81213433D01*
X131405570Y-81182000D01*
X131405566Y-81182000D01*
X131244434Y-81182000D01*
X131244429Y-81182000D01*
X131086405Y-81213433D01*
X131086397Y-81213435D01*
X130937533Y-81275096D01*
X130803552Y-81364619D01*
X130689619Y-81478552D01*
X130600096Y-81612533D01*
X130538435Y-81761397D01*
X130538433Y-81761405D01*
X130507000Y-81919429D01*
X74000500Y-81919429D01*
X74000500Y-78966929D01*
X98632000Y-78966929D01*
X98632000Y-79128070D01*
X98663433Y-79286094D01*
X98663435Y-79286102D01*
X98725096Y-79434966D01*
X98814619Y-79568947D01*
X98928552Y-79682880D01*
X99062533Y-79772403D01*
X99136965Y-79803233D01*
X99211398Y-79834065D01*
X99369429Y-79865499D01*
X99369433Y-79865500D01*
X99369434Y-79865500D01*
X99530567Y-79865500D01*
X99530568Y-79865499D01*
X99688602Y-79834065D01*
X99837468Y-79772402D01*
X99971445Y-79682882D01*
X100085382Y-79568945D01*
X100174902Y-79434968D01*
X100236565Y-79286102D01*
X100268000Y-79128066D01*
X100268000Y-78969429D01*
X101232000Y-78969429D01*
X101232000Y-79130570D01*
X101263433Y-79288594D01*
X101263435Y-79288602D01*
X101325096Y-79437466D01*
X101414619Y-79571447D01*
X101528552Y-79685380D01*
X101662533Y-79774903D01*
X101722621Y-79799792D01*
X101811398Y-79836565D01*
X101956866Y-79865500D01*
X101969429Y-79867999D01*
X101969433Y-79868000D01*
X101969434Y-79868000D01*
X102130567Y-79868000D01*
X102130568Y-79867999D01*
X102288602Y-79836565D01*
X102437468Y-79774902D01*
X102571445Y-79685382D01*
X102685382Y-79571445D01*
X102774902Y-79437468D01*
X102775939Y-79434966D01*
X102783932Y-79415666D01*
X102836565Y-79288602D01*
X102868000Y-79130566D01*
X102868000Y-78969434D01*
X102845622Y-78856933D01*
X102845621Y-78856929D01*
X126119500Y-78856929D01*
X126119500Y-79018070D01*
X126150933Y-79176094D01*
X126150935Y-79176102D01*
X126212596Y-79324966D01*
X126302119Y-79458947D01*
X126416052Y-79572880D01*
X126550033Y-79662403D01*
X126605505Y-79685380D01*
X126698898Y-79724065D01*
X126856929Y-79755499D01*
X126856933Y-79755500D01*
X126856934Y-79755500D01*
X127018067Y-79755500D01*
X127018068Y-79755499D01*
X127176102Y-79724065D01*
X127324968Y-79662402D01*
X127458945Y-79572882D01*
X127572882Y-79458945D01*
X127662402Y-79324968D01*
X127724065Y-79176102D01*
X127755500Y-79018066D01*
X127755500Y-78856934D01*
X127724065Y-78698898D01*
X127684656Y-78603757D01*
X127662403Y-78550033D01*
X127572880Y-78416052D01*
X127458947Y-78302119D01*
X127324966Y-78212596D01*
X127176102Y-78150935D01*
X127176094Y-78150933D01*
X127018070Y-78119500D01*
X127018066Y-78119500D01*
X126856934Y-78119500D01*
X126856929Y-78119500D01*
X126698905Y-78150933D01*
X126698897Y-78150935D01*
X126550033Y-78212596D01*
X126416052Y-78302119D01*
X126302119Y-78416052D01*
X126212596Y-78550033D01*
X126150935Y-78698897D01*
X126150933Y-78698905D01*
X126119500Y-78856929D01*
X102845621Y-78856929D01*
X102836566Y-78811405D01*
X102836565Y-78811398D01*
X102805733Y-78736965D01*
X102774903Y-78662533D01*
X102685380Y-78528552D01*
X102571447Y-78414619D01*
X102437466Y-78325096D01*
X102288602Y-78263435D01*
X102288594Y-78263433D01*
X102130570Y-78232000D01*
X102130566Y-78232000D01*
X101969434Y-78232000D01*
X101969429Y-78232000D01*
X101811405Y-78263433D01*
X101811397Y-78263435D01*
X101662533Y-78325096D01*
X101528552Y-78414619D01*
X101414619Y-78528552D01*
X101325096Y-78662533D01*
X101263435Y-78811397D01*
X101263433Y-78811405D01*
X101232000Y-78969429D01*
X100268000Y-78969429D01*
X100268000Y-78966934D01*
X100236565Y-78808898D01*
X100191001Y-78698897D01*
X100174903Y-78660033D01*
X100085380Y-78526052D01*
X99971447Y-78412119D01*
X99837466Y-78322596D01*
X99688602Y-78260935D01*
X99688594Y-78260933D01*
X99530570Y-78229500D01*
X99530566Y-78229500D01*
X99369434Y-78229500D01*
X99369429Y-78229500D01*
X99211405Y-78260933D01*
X99211397Y-78260935D01*
X99062533Y-78322596D01*
X98928552Y-78412119D01*
X98814619Y-78526052D01*
X98725096Y-78660033D01*
X98663435Y-78808897D01*
X98663433Y-78808905D01*
X98632000Y-78966929D01*
X74000500Y-78966929D01*
X74000500Y-76169429D01*
X119682000Y-76169429D01*
X119682000Y-76330570D01*
X119713433Y-76488594D01*
X119713435Y-76488602D01*
X119775096Y-76637466D01*
X119864619Y-76771447D01*
X119978552Y-76885380D01*
X120112533Y-76974903D01*
X120186965Y-77005733D01*
X120261398Y-77036565D01*
X120419429Y-77067999D01*
X120419433Y-77068000D01*
X120419434Y-77068000D01*
X120580567Y-77068000D01*
X120580568Y-77067999D01*
X120738602Y-77036565D01*
X120887468Y-76974902D01*
X121021445Y-76885382D01*
X121135382Y-76771445D01*
X121145081Y-76756929D01*
X125019500Y-76756929D01*
X125019500Y-76918070D01*
X125050933Y-77076094D01*
X125050935Y-77076102D01*
X125112596Y-77224966D01*
X125202119Y-77358947D01*
X125316052Y-77472880D01*
X125450033Y-77562403D01*
X125524465Y-77593233D01*
X125598898Y-77624065D01*
X125755989Y-77655312D01*
X125756929Y-77655499D01*
X125756933Y-77655500D01*
X125756934Y-77655500D01*
X125918067Y-77655500D01*
X125918068Y-77655499D01*
X126076102Y-77624065D01*
X126224968Y-77562402D01*
X126358945Y-77472882D01*
X126472882Y-77358945D01*
X126562398Y-77224974D01*
X126562398Y-77224973D01*
X126562402Y-77224968D01*
X126585969Y-77168071D01*
X126629808Y-77113671D01*
X126676335Y-77093909D01*
X126776102Y-77074065D01*
X126924968Y-77012402D01*
X127058945Y-76922882D01*
X127172882Y-76808945D01*
X127262402Y-76674968D01*
X127324065Y-76526102D01*
X127336245Y-76464866D01*
X127368629Y-76402958D01*
X127410407Y-76374499D01*
X127499968Y-76337402D01*
X127633945Y-76247882D01*
X127747882Y-76133945D01*
X127837402Y-75999968D01*
X127899065Y-75851102D01*
X127930500Y-75693066D01*
X127930500Y-75531934D01*
X127899065Y-75373898D01*
X127881681Y-75331929D01*
X128194500Y-75331929D01*
X128194500Y-75493070D01*
X128225933Y-75651094D01*
X128225935Y-75651102D01*
X128287596Y-75799966D01*
X128377119Y-75933947D01*
X128491052Y-76047880D01*
X128625033Y-76137403D01*
X128699465Y-76168233D01*
X128773898Y-76199065D01*
X128931929Y-76230499D01*
X128931933Y-76230500D01*
X128931934Y-76230500D01*
X129093067Y-76230500D01*
X129093068Y-76230499D01*
X129251102Y-76199065D01*
X129399968Y-76137402D01*
X129533945Y-76047882D01*
X129647882Y-75933945D01*
X129737402Y-75799968D01*
X129799065Y-75651102D01*
X129830500Y-75493066D01*
X129830500Y-75331934D01*
X129799065Y-75173898D01*
X129766150Y-75094434D01*
X129737403Y-75025033D01*
X129647880Y-74891052D01*
X129569509Y-74812681D01*
X129536024Y-74751358D01*
X129541008Y-74681666D01*
X129569509Y-74637319D01*
X129660379Y-74546448D01*
X129660380Y-74546447D01*
X129660382Y-74546445D01*
X129749902Y-74412468D01*
X129811565Y-74263602D01*
X129843000Y-74105566D01*
X129843000Y-73944434D01*
X129811565Y-73786398D01*
X129811563Y-73786393D01*
X129808616Y-73779277D01*
X129808611Y-73779266D01*
X129789742Y-73733713D01*
X163649500Y-73733713D01*
X163649500Y-73946286D01*
X163674727Y-74105567D01*
X163682754Y-74156243D01*
X163741637Y-74337466D01*
X163748444Y-74358414D01*
X163844951Y-74547820D01*
X163969890Y-74719786D01*
X164120213Y-74870109D01*
X164292182Y-74995050D01*
X164300946Y-74999516D01*
X164351742Y-75047491D01*
X164368536Y-75115312D01*
X164345998Y-75181447D01*
X164300946Y-75220484D01*
X164292182Y-75224949D01*
X164120213Y-75349890D01*
X163969890Y-75500213D01*
X163844951Y-75672179D01*
X163748444Y-75861585D01*
X163682753Y-76063760D01*
X163660839Y-76202119D01*
X163649500Y-76273713D01*
X163649500Y-76486287D01*
X163649867Y-76488602D01*
X163680490Y-76681952D01*
X163682754Y-76696243D01*
X163744209Y-76885382D01*
X163748444Y-76898414D01*
X163844951Y-77087820D01*
X163969890Y-77259786D01*
X164120213Y-77410109D01*
X164292182Y-77535050D01*
X164300946Y-77539516D01*
X164351742Y-77587491D01*
X164368536Y-77655312D01*
X164345998Y-77721447D01*
X164300946Y-77760484D01*
X164292182Y-77764949D01*
X164120213Y-77889890D01*
X163969890Y-78040213D01*
X163844951Y-78212179D01*
X163748444Y-78401585D01*
X163682753Y-78603760D01*
X163649500Y-78813713D01*
X163649500Y-79026286D01*
X163673228Y-79176102D01*
X163682754Y-79236243D01*
X163748136Y-79437468D01*
X163748444Y-79438414D01*
X163844951Y-79627820D01*
X163969890Y-79799786D01*
X164120213Y-79950109D01*
X164292182Y-80075050D01*
X164300946Y-80079516D01*
X164351742Y-80127491D01*
X164368536Y-80195312D01*
X164345998Y-80261447D01*
X164300946Y-80300484D01*
X164292182Y-80304949D01*
X164120213Y-80429890D01*
X163969890Y-80580213D01*
X163844951Y-80752179D01*
X163748444Y-80941585D01*
X163682753Y-81143760D01*
X163649500Y-81353713D01*
X163649500Y-81566286D01*
X163680402Y-81761398D01*
X163682754Y-81776243D01*
X163729279Y-81919433D01*
X163748444Y-81978414D01*
X163844951Y-82167820D01*
X163969890Y-82339786D01*
X164120213Y-82490109D01*
X164292182Y-82615050D01*
X164300946Y-82619516D01*
X164351742Y-82667491D01*
X164368536Y-82735312D01*
X164345998Y-82801447D01*
X164300946Y-82840484D01*
X164292182Y-82844949D01*
X164120213Y-82969890D01*
X163969890Y-83120213D01*
X163844951Y-83292179D01*
X163748444Y-83481585D01*
X163682753Y-83683760D01*
X163649500Y-83893713D01*
X163649500Y-84106286D01*
X163682753Y-84316239D01*
X163748444Y-84518414D01*
X163844951Y-84707820D01*
X163969890Y-84879786D01*
X164120213Y-85030109D01*
X164292182Y-85155050D01*
X164300946Y-85159516D01*
X164351742Y-85207491D01*
X164368536Y-85275312D01*
X164345998Y-85341447D01*
X164300946Y-85380484D01*
X164292182Y-85384949D01*
X164120213Y-85509890D01*
X163969890Y-85660213D01*
X163844951Y-85832179D01*
X163748444Y-86021585D01*
X163682753Y-86223760D01*
X163649500Y-86433713D01*
X163649500Y-86646286D01*
X163682753Y-86856239D01*
X163748444Y-87058414D01*
X163844951Y-87247820D01*
X163969890Y-87419786D01*
X164120213Y-87570109D01*
X164292182Y-87695050D01*
X164300946Y-87699516D01*
X164351742Y-87747491D01*
X164368536Y-87815312D01*
X164345998Y-87881447D01*
X164300946Y-87920484D01*
X164292182Y-87924949D01*
X164120213Y-88049890D01*
X163969890Y-88200213D01*
X163844951Y-88372179D01*
X163748444Y-88561585D01*
X163682753Y-88763760D01*
X163649500Y-88973713D01*
X163649500Y-89186286D01*
X163678507Y-89369433D01*
X163682754Y-89396243D01*
X163732878Y-89550509D01*
X163748444Y-89598414D01*
X163844951Y-89787820D01*
X163969890Y-89959786D01*
X164120213Y-90110109D01*
X164292182Y-90235050D01*
X164300946Y-90239516D01*
X164351742Y-90287491D01*
X164368536Y-90355312D01*
X164345998Y-90421447D01*
X164300946Y-90460484D01*
X164292182Y-90464949D01*
X164120213Y-90589890D01*
X163969890Y-90740213D01*
X163844951Y-90912179D01*
X163748444Y-91101585D01*
X163682753Y-91303760D01*
X163649500Y-91513713D01*
X163649500Y-91726286D01*
X163673038Y-91874903D01*
X163682754Y-91936243D01*
X163693072Y-91967999D01*
X163748444Y-92138414D01*
X163844951Y-92327820D01*
X163969890Y-92499786D01*
X164120213Y-92650109D01*
X164292182Y-92775050D01*
X164300946Y-92779516D01*
X164351742Y-92827491D01*
X164368536Y-92895312D01*
X164345998Y-92961447D01*
X164300946Y-93000484D01*
X164292182Y-93004949D01*
X164120213Y-93129890D01*
X163969890Y-93280213D01*
X163844951Y-93452179D01*
X163748444Y-93641585D01*
X163682753Y-93843760D01*
X163649500Y-94053713D01*
X163649500Y-94266287D01*
X163682754Y-94476243D01*
X163748150Y-94677511D01*
X163748444Y-94678414D01*
X163844951Y-94867820D01*
X163969890Y-95039786D01*
X164083430Y-95153326D01*
X164116915Y-95214649D01*
X164111931Y-95284341D01*
X164070059Y-95340274D01*
X164039083Y-95357189D01*
X163907669Y-95406203D01*
X163907664Y-95406206D01*
X163792455Y-95492452D01*
X163792452Y-95492455D01*
X163706206Y-95607664D01*
X163706202Y-95607671D01*
X163655908Y-95742517D01*
X163649501Y-95802116D01*
X163649501Y-95802123D01*
X163649500Y-95802135D01*
X163649500Y-97597870D01*
X163649501Y-97597876D01*
X163655908Y-97657483D01*
X163706202Y-97792328D01*
X163706206Y-97792335D01*
X163792452Y-97907544D01*
X163792455Y-97907547D01*
X163907664Y-97993793D01*
X163907671Y-97993797D01*
X164042517Y-98044091D01*
X164042516Y-98044091D01*
X164049444Y-98044835D01*
X164102127Y-98050500D01*
X165897872Y-98050499D01*
X165957483Y-98044091D01*
X166092331Y-97993796D01*
X166207546Y-97907546D01*
X166293796Y-97792331D01*
X166344091Y-97657483D01*
X166350500Y-97597873D01*
X166350499Y-95802128D01*
X166344091Y-95742517D01*
X166293796Y-95607669D01*
X166293795Y-95607668D01*
X166293793Y-95607664D01*
X166207547Y-95492455D01*
X166207544Y-95492452D01*
X166092335Y-95406206D01*
X166092328Y-95406202D01*
X165960917Y-95357189D01*
X165904983Y-95315318D01*
X165880566Y-95249853D01*
X165895418Y-95181580D01*
X165916563Y-95153332D01*
X166030104Y-95039792D01*
X166155051Y-94867816D01*
X166251557Y-94678412D01*
X166317246Y-94476243D01*
X166350500Y-94266287D01*
X166350500Y-94053713D01*
X166317246Y-93843757D01*
X166251557Y-93641588D01*
X166155051Y-93452184D01*
X166155049Y-93452181D01*
X166155048Y-93452179D01*
X166030109Y-93280213D01*
X165879786Y-93129890D01*
X165707820Y-93004951D01*
X165707115Y-93004591D01*
X165699054Y-93000485D01*
X165648259Y-92952512D01*
X165631463Y-92884692D01*
X165653999Y-92818556D01*
X165699054Y-92779515D01*
X165707816Y-92775051D01*
X165729789Y-92759086D01*
X165879786Y-92650109D01*
X165879788Y-92650106D01*
X165879792Y-92650104D01*
X166030104Y-92499792D01*
X166030106Y-92499788D01*
X166030109Y-92499786D01*
X166155048Y-92327820D01*
X166155047Y-92327820D01*
X166155051Y-92327816D01*
X166251557Y-92138412D01*
X166317246Y-91936243D01*
X166350500Y-91726287D01*
X166350500Y-91513713D01*
X166317246Y-91303757D01*
X166251557Y-91101588D01*
X166155051Y-90912184D01*
X166155049Y-90912181D01*
X166155048Y-90912179D01*
X166030109Y-90740213D01*
X165879786Y-90589890D01*
X165707820Y-90464951D01*
X165707115Y-90464591D01*
X165699054Y-90460485D01*
X165648259Y-90412512D01*
X165631463Y-90344692D01*
X165653999Y-90278556D01*
X165699054Y-90239515D01*
X165707816Y-90235051D01*
X165790602Y-90174904D01*
X165879786Y-90110109D01*
X165879788Y-90110106D01*
X165879792Y-90110104D01*
X166030104Y-89959792D01*
X166030106Y-89959788D01*
X166030109Y-89959786D01*
X166155048Y-89787820D01*
X166155047Y-89787820D01*
X166155051Y-89787816D01*
X166251557Y-89598412D01*
X166317246Y-89396243D01*
X166350500Y-89186287D01*
X166350500Y-88973713D01*
X166317246Y-88763757D01*
X166251557Y-88561588D01*
X166155051Y-88372184D01*
X166155049Y-88372181D01*
X166155048Y-88372179D01*
X166030109Y-88200213D01*
X165879786Y-88049890D01*
X165707820Y-87924951D01*
X165707115Y-87924591D01*
X165699054Y-87920485D01*
X165648259Y-87872512D01*
X165631463Y-87804692D01*
X165653999Y-87738556D01*
X165699054Y-87699515D01*
X165707816Y-87695051D01*
X165729789Y-87679086D01*
X165879786Y-87570109D01*
X165879788Y-87570106D01*
X165879792Y-87570104D01*
X166030104Y-87419792D01*
X166030106Y-87419788D01*
X166030109Y-87419786D01*
X166155048Y-87247820D01*
X166155047Y-87247820D01*
X166155051Y-87247816D01*
X166251557Y-87058412D01*
X166317246Y-86856243D01*
X166350500Y-86646287D01*
X166350500Y-86433713D01*
X166317246Y-86223757D01*
X166251557Y-86021588D01*
X166155051Y-85832184D01*
X166155049Y-85832181D01*
X166155048Y-85832179D01*
X166030109Y-85660213D01*
X165879786Y-85509890D01*
X165707820Y-85384951D01*
X165707115Y-85384591D01*
X165699054Y-85380485D01*
X165648259Y-85332512D01*
X165631463Y-85264692D01*
X165653999Y-85198556D01*
X165699054Y-85159515D01*
X165707816Y-85155051D01*
X165834183Y-85063241D01*
X165879786Y-85030109D01*
X165879788Y-85030106D01*
X165879792Y-85030104D01*
X166030104Y-84879792D01*
X166030106Y-84879788D01*
X166030109Y-84879786D01*
X166155048Y-84707820D01*
X166155047Y-84707820D01*
X166155051Y-84707816D01*
X166251557Y-84518412D01*
X166317246Y-84316243D01*
X166350500Y-84106287D01*
X166350500Y-83893713D01*
X166317246Y-83683757D01*
X166251557Y-83481588D01*
X166155051Y-83292184D01*
X166155049Y-83292181D01*
X166155048Y-83292179D01*
X166030109Y-83120213D01*
X165879786Y-82969890D01*
X165707820Y-82844951D01*
X165707115Y-82844591D01*
X165699054Y-82840485D01*
X165648259Y-82792512D01*
X165631463Y-82724692D01*
X165653999Y-82658556D01*
X165699054Y-82619515D01*
X165707816Y-82615051D01*
X165729789Y-82599086D01*
X165879786Y-82490109D01*
X165879788Y-82490106D01*
X165879792Y-82490104D01*
X166030104Y-82339792D01*
X166030106Y-82339788D01*
X166030109Y-82339786D01*
X166155048Y-82167820D01*
X166155047Y-82167820D01*
X166155051Y-82167816D01*
X166251557Y-81978412D01*
X166317246Y-81776243D01*
X166350500Y-81566287D01*
X166350500Y-81353713D01*
X166317246Y-81143757D01*
X166251557Y-80941588D01*
X166155051Y-80752184D01*
X166155049Y-80752181D01*
X166155048Y-80752179D01*
X166030109Y-80580213D01*
X165879786Y-80429890D01*
X165707820Y-80304951D01*
X165707115Y-80304591D01*
X165699054Y-80300485D01*
X165648259Y-80252512D01*
X165631463Y-80184692D01*
X165653999Y-80118556D01*
X165699054Y-80079515D01*
X165707816Y-80075051D01*
X165729789Y-80059086D01*
X165879786Y-79950109D01*
X165879788Y-79950106D01*
X165879792Y-79950104D01*
X166030104Y-79799792D01*
X166030106Y-79799788D01*
X166030109Y-79799786D01*
X166155048Y-79627820D01*
X166155047Y-79627820D01*
X166155051Y-79627816D01*
X166251557Y-79438412D01*
X166317246Y-79236243D01*
X166350500Y-79026287D01*
X166350500Y-78813713D01*
X166317246Y-78603757D01*
X166251557Y-78401588D01*
X166155051Y-78212184D01*
X166155049Y-78212181D01*
X166155048Y-78212179D01*
X166030109Y-78040213D01*
X165879786Y-77889890D01*
X165707820Y-77764951D01*
X165707115Y-77764591D01*
X165699054Y-77760485D01*
X165648259Y-77712512D01*
X165631463Y-77644692D01*
X165653999Y-77578556D01*
X165699054Y-77539515D01*
X165707816Y-77535051D01*
X165793388Y-77472880D01*
X165879786Y-77410109D01*
X165879788Y-77410106D01*
X165879792Y-77410104D01*
X166030104Y-77259792D01*
X166030106Y-77259788D01*
X166030109Y-77259786D01*
X166155048Y-77087820D01*
X166155047Y-77087820D01*
X166155051Y-77087816D01*
X166251557Y-76898412D01*
X166317246Y-76696243D01*
X166350500Y-76486287D01*
X166350500Y-76273713D01*
X166317246Y-76063757D01*
X166251557Y-75861588D01*
X166155051Y-75672184D01*
X166155049Y-75672181D01*
X166155048Y-75672179D01*
X166030109Y-75500213D01*
X165879786Y-75349890D01*
X165707820Y-75224951D01*
X165707115Y-75224591D01*
X165699054Y-75220485D01*
X165648259Y-75172512D01*
X165631463Y-75104692D01*
X165653999Y-75038556D01*
X165699054Y-74999515D01*
X165707816Y-74995051D01*
X165788536Y-74936405D01*
X165879786Y-74870109D01*
X165879788Y-74870106D01*
X165879792Y-74870104D01*
X166030104Y-74719792D01*
X166030106Y-74719788D01*
X166030109Y-74719786D01*
X166155048Y-74547820D01*
X166155047Y-74547820D01*
X166155051Y-74547816D01*
X166251557Y-74358412D01*
X166317246Y-74156243D01*
X166350500Y-73946287D01*
X166350500Y-73733713D01*
X166317246Y-73523757D01*
X166251557Y-73321588D01*
X166155051Y-73132184D01*
X166155049Y-73132181D01*
X166155048Y-73132179D01*
X166030109Y-72960213D01*
X165879786Y-72809890D01*
X165707820Y-72684951D01*
X165518414Y-72588444D01*
X165518413Y-72588443D01*
X165518412Y-72588443D01*
X165316243Y-72522754D01*
X165316241Y-72522753D01*
X165316240Y-72522753D01*
X165154957Y-72497208D01*
X165106287Y-72489500D01*
X164893713Y-72489500D01*
X164845042Y-72497208D01*
X164683760Y-72522753D01*
X164481585Y-72588444D01*
X164292179Y-72684951D01*
X164120213Y-72809890D01*
X163969890Y-72960213D01*
X163844951Y-73132179D01*
X163748444Y-73321585D01*
X163682753Y-73523760D01*
X163649500Y-73733713D01*
X129789742Y-73733713D01*
X129749902Y-73637532D01*
X129719104Y-73591440D01*
X129715247Y-73583345D01*
X129711074Y-73557342D01*
X129703207Y-73532214D01*
X129705627Y-73523391D01*
X129704178Y-73514358D01*
X129714724Y-73490231D01*
X129721692Y-73464834D01*
X129730930Y-73453158D01*
X129732163Y-73450338D01*
X129734274Y-73448931D01*
X129739502Y-73442324D01*
X129847882Y-73333945D01*
X129937402Y-73199968D01*
X129999065Y-73051102D01*
X130030500Y-72893066D01*
X130030500Y-72731934D01*
X129999065Y-72573898D01*
X129950644Y-72457000D01*
X129937403Y-72425033D01*
X129847880Y-72291052D01*
X129733947Y-72177119D01*
X129599966Y-72087596D01*
X129451102Y-72025935D01*
X129451094Y-72025933D01*
X129293070Y-71994500D01*
X129293066Y-71994500D01*
X129131934Y-71994500D01*
X129131929Y-71994500D01*
X128973905Y-72025933D01*
X128973897Y-72025935D01*
X128825033Y-72087596D01*
X128691052Y-72177119D01*
X128577119Y-72291052D01*
X128487596Y-72425033D01*
X128425935Y-72573897D01*
X128425933Y-72573905D01*
X128394500Y-72731929D01*
X128394500Y-72893070D01*
X128425933Y-73051094D01*
X128425935Y-73051102D01*
X128487598Y-73199969D01*
X128513415Y-73238608D01*
X128534292Y-73305286D01*
X128515806Y-73372666D01*
X128497994Y-73395178D01*
X128389618Y-73503554D01*
X128300096Y-73637533D01*
X128238435Y-73786397D01*
X128238433Y-73786405D01*
X128207000Y-73944429D01*
X128207000Y-74105570D01*
X128238433Y-74263594D01*
X128238435Y-74263602D01*
X128300096Y-74412466D01*
X128389619Y-74546447D01*
X128467991Y-74624819D01*
X128501476Y-74686142D01*
X128496492Y-74755834D01*
X128467991Y-74800181D01*
X128377120Y-74891051D01*
X128377119Y-74891052D01*
X128287596Y-75025033D01*
X128225935Y-75173897D01*
X128225933Y-75173905D01*
X128194500Y-75331929D01*
X127881681Y-75331929D01*
X127852044Y-75260380D01*
X127837403Y-75225033D01*
X127747880Y-75091052D01*
X127633947Y-74977119D01*
X127499966Y-74887596D01*
X127351102Y-74825935D01*
X127351094Y-74825933D01*
X127193070Y-74794500D01*
X127193066Y-74794500D01*
X127031934Y-74794500D01*
X127031929Y-74794500D01*
X126873905Y-74825933D01*
X126873897Y-74825935D01*
X126725033Y-74887596D01*
X126591052Y-74977119D01*
X126477119Y-75091052D01*
X126387596Y-75225033D01*
X126325934Y-75373899D01*
X126325933Y-75373903D01*
X126313754Y-75435132D01*
X126281369Y-75497043D01*
X126239590Y-75525501D01*
X126150034Y-75562596D01*
X126016052Y-75652119D01*
X125902117Y-75766054D01*
X125812601Y-75900025D01*
X125812598Y-75900031D01*
X125789031Y-75956927D01*
X125745189Y-76011330D01*
X125698662Y-76031090D01*
X125598903Y-76050933D01*
X125598897Y-76050935D01*
X125450033Y-76112596D01*
X125316052Y-76202119D01*
X125202119Y-76316052D01*
X125112596Y-76450033D01*
X125050935Y-76598897D01*
X125050933Y-76598905D01*
X125019500Y-76756929D01*
X121145081Y-76756929D01*
X121224902Y-76637468D01*
X121286565Y-76488602D01*
X121318000Y-76330566D01*
X121318000Y-76169434D01*
X121286565Y-76011398D01*
X121240435Y-75900031D01*
X121224903Y-75862533D01*
X121135380Y-75728552D01*
X121021447Y-75614619D01*
X120887466Y-75525096D01*
X120738602Y-75463435D01*
X120738594Y-75463433D01*
X120580570Y-75432000D01*
X120580566Y-75432000D01*
X120419434Y-75432000D01*
X120419429Y-75432000D01*
X120261405Y-75463433D01*
X120261397Y-75463435D01*
X120112533Y-75525096D01*
X119978552Y-75614619D01*
X119864619Y-75728552D01*
X119775096Y-75862533D01*
X119713435Y-76011397D01*
X119713433Y-76011405D01*
X119682000Y-76169429D01*
X74000500Y-76169429D01*
X74000500Y-75094429D01*
X122357000Y-75094429D01*
X122357000Y-75255570D01*
X122388433Y-75413594D01*
X122388435Y-75413602D01*
X122450096Y-75562466D01*
X122539619Y-75696447D01*
X122653552Y-75810380D01*
X122787533Y-75899903D01*
X122861965Y-75930733D01*
X122936398Y-75961565D01*
X123094429Y-75992999D01*
X123094433Y-75993000D01*
X123094434Y-75993000D01*
X123255567Y-75993000D01*
X123255568Y-75992999D01*
X123413602Y-75961565D01*
X123540666Y-75908932D01*
X123562466Y-75899903D01*
X123562466Y-75899902D01*
X123562468Y-75899902D01*
X123696445Y-75810382D01*
X123810382Y-75696445D01*
X123899902Y-75562468D01*
X123925714Y-75500151D01*
X123969551Y-75445751D01*
X124016079Y-75425989D01*
X124088602Y-75411565D01*
X124237468Y-75349902D01*
X124371445Y-75260382D01*
X124485382Y-75146445D01*
X124574902Y-75012468D01*
X124636565Y-74863602D01*
X124637329Y-74859759D01*
X124638283Y-74857935D01*
X124638333Y-74857772D01*
X124638363Y-74857781D01*
X124669712Y-74797848D01*
X124730427Y-74763271D01*
X124734751Y-74762330D01*
X124738602Y-74761565D01*
X124887468Y-74699902D01*
X125021445Y-74610382D01*
X125135382Y-74496445D01*
X125224902Y-74362468D01*
X125286565Y-74213602D01*
X125296655Y-74162873D01*
X125329038Y-74100964D01*
X125389754Y-74066389D01*
X125394051Y-74065453D01*
X125413602Y-74061565D01*
X125562468Y-73999902D01*
X125696445Y-73910382D01*
X125810382Y-73796445D01*
X125899902Y-73662468D01*
X125961565Y-73513602D01*
X125993000Y-73355566D01*
X125993000Y-73194434D01*
X125961565Y-73036398D01*
X125922878Y-72943000D01*
X125899903Y-72887533D01*
X125810380Y-72753552D01*
X125696447Y-72639619D01*
X125562466Y-72550096D01*
X125413602Y-72488435D01*
X125413594Y-72488433D01*
X125255570Y-72457000D01*
X125255566Y-72457000D01*
X125094434Y-72457000D01*
X125094429Y-72457000D01*
X124936405Y-72488433D01*
X124936397Y-72488435D01*
X124787533Y-72550096D01*
X124653552Y-72639619D01*
X124539619Y-72753552D01*
X124450096Y-72887533D01*
X124388435Y-73036397D01*
X124388433Y-73036403D01*
X124378344Y-73087126D01*
X124345959Y-73149037D01*
X124285243Y-73183611D01*
X124280922Y-73184551D01*
X124261399Y-73188434D01*
X124261397Y-73188435D01*
X124112533Y-73250096D01*
X123978552Y-73339619D01*
X123864619Y-73453552D01*
X123775096Y-73587533D01*
X123713435Y-73736397D01*
X123713433Y-73736403D01*
X123712668Y-73740251D01*
X123711712Y-73742078D01*
X123711666Y-73742230D01*
X123711637Y-73742221D01*
X123680279Y-73802160D01*
X123619561Y-73836730D01*
X123615251Y-73837668D01*
X123611403Y-73838433D01*
X123611397Y-73838435D01*
X123462533Y-73900096D01*
X123328552Y-73989619D01*
X123214617Y-74103554D01*
X123125101Y-74237525D01*
X123125096Y-74237535D01*
X123099286Y-74299846D01*
X123055444Y-74354250D01*
X123008916Y-74374010D01*
X122936405Y-74388433D01*
X122936397Y-74388435D01*
X122787533Y-74450096D01*
X122653552Y-74539619D01*
X122539619Y-74653552D01*
X122450096Y-74787533D01*
X122388435Y-74936397D01*
X122388433Y-74936405D01*
X122357000Y-75094429D01*
X74000500Y-75094429D01*
X74000500Y-72519982D01*
X80719500Y-72519982D01*
X80719500Y-74320017D01*
X80730000Y-74422796D01*
X80754405Y-74496445D01*
X80785186Y-74589335D01*
X80877288Y-74738656D01*
X81001344Y-74862712D01*
X81150665Y-74954814D01*
X81317202Y-75009999D01*
X81419990Y-75020500D01*
X81419995Y-75020500D01*
X83220005Y-75020500D01*
X83220010Y-75020500D01*
X83322798Y-75009999D01*
X83489335Y-74954814D01*
X83638656Y-74862712D01*
X83762712Y-74738656D01*
X83854814Y-74589335D01*
X83909999Y-74422798D01*
X83920500Y-74320010D01*
X83920500Y-73869429D01*
X119932000Y-73869429D01*
X119932000Y-74030570D01*
X119963433Y-74188594D01*
X119963435Y-74188602D01*
X120025096Y-74337466D01*
X120114619Y-74471447D01*
X120228552Y-74585380D01*
X120362533Y-74674903D01*
X120422889Y-74699903D01*
X120511398Y-74736565D01*
X120669429Y-74767999D01*
X120669433Y-74768000D01*
X120669434Y-74768000D01*
X120830567Y-74768000D01*
X120830568Y-74767999D01*
X120988602Y-74736565D01*
X121115666Y-74683932D01*
X121137466Y-74674903D01*
X121137466Y-74674902D01*
X121137468Y-74674902D01*
X121271445Y-74585382D01*
X121385382Y-74471445D01*
X121474902Y-74337468D01*
X121536565Y-74188602D01*
X121568000Y-74030566D01*
X121568000Y-73869434D01*
X121536565Y-73711398D01*
X121485258Y-73587533D01*
X121474903Y-73562533D01*
X121385380Y-73428552D01*
X121271447Y-73314619D01*
X121137466Y-73225096D01*
X120988602Y-73163435D01*
X120988594Y-73163433D01*
X120830570Y-73132000D01*
X120830566Y-73132000D01*
X120669434Y-73132000D01*
X120669429Y-73132000D01*
X120511405Y-73163433D01*
X120511397Y-73163435D01*
X120362533Y-73225096D01*
X120228552Y-73314619D01*
X120114619Y-73428552D01*
X120025096Y-73562533D01*
X119963435Y-73711397D01*
X119963433Y-73711405D01*
X119932000Y-73869429D01*
X83920500Y-73869429D01*
X83920500Y-72519990D01*
X83909999Y-72417202D01*
X83854814Y-72250665D01*
X83762712Y-72101344D01*
X83638656Y-71977288D01*
X83545890Y-71920070D01*
X83489337Y-71885187D01*
X83489332Y-71885185D01*
X83487863Y-71884698D01*
X83322798Y-71830001D01*
X83322796Y-71830000D01*
X83220017Y-71819500D01*
X83220010Y-71819500D01*
X81419990Y-71819500D01*
X81419982Y-71819500D01*
X81317203Y-71830000D01*
X81317202Y-71830001D01*
X81240052Y-71855566D01*
X81150667Y-71885185D01*
X81150662Y-71885187D01*
X81001342Y-71977289D01*
X80877289Y-72101342D01*
X80785187Y-72250662D01*
X80785186Y-72250665D01*
X80730001Y-72417202D01*
X80730001Y-72417203D01*
X80730000Y-72417203D01*
X80719500Y-72519982D01*
X74000500Y-72519982D01*
X74000500Y-71694429D01*
X115389500Y-71694429D01*
X115389500Y-71855570D01*
X115420933Y-72013594D01*
X115420935Y-72013602D01*
X115482596Y-72162466D01*
X115572119Y-72296447D01*
X115686052Y-72410380D01*
X115820033Y-72499903D01*
X115875201Y-72522754D01*
X115968898Y-72561565D01*
X116126929Y-72592999D01*
X116126933Y-72593000D01*
X116126934Y-72593000D01*
X116288067Y-72593000D01*
X116288068Y-72592999D01*
X116446102Y-72561565D01*
X116594968Y-72499902D01*
X116728945Y-72410382D01*
X116842882Y-72296445D01*
X116932402Y-72162468D01*
X116981296Y-72044429D01*
X119012000Y-72044429D01*
X119012000Y-72205570D01*
X119043433Y-72363594D01*
X119043435Y-72363602D01*
X119105096Y-72512466D01*
X119194619Y-72646447D01*
X119308552Y-72760380D01*
X119442533Y-72849903D01*
X119516965Y-72880733D01*
X119591398Y-72911565D01*
X119749429Y-72942999D01*
X119749433Y-72943000D01*
X119749434Y-72943000D01*
X119910567Y-72943000D01*
X119910568Y-72942999D01*
X120068602Y-72911565D01*
X120217468Y-72849902D01*
X120351445Y-72760382D01*
X120465382Y-72646445D01*
X120554902Y-72512468D01*
X120616565Y-72363602D01*
X120648000Y-72205566D01*
X120648000Y-72044434D01*
X120616565Y-71886398D01*
X120585733Y-71811965D01*
X120554903Y-71737533D01*
X120465380Y-71603552D01*
X120351447Y-71489619D01*
X120217466Y-71400096D01*
X120068602Y-71338435D01*
X120068594Y-71338433D01*
X119910570Y-71307000D01*
X119910566Y-71307000D01*
X119749434Y-71307000D01*
X119749429Y-71307000D01*
X119591405Y-71338433D01*
X119591397Y-71338435D01*
X119442533Y-71400096D01*
X119308552Y-71489619D01*
X119194619Y-71603552D01*
X119105096Y-71737533D01*
X119043435Y-71886397D01*
X119043433Y-71886405D01*
X119012000Y-72044429D01*
X116981296Y-72044429D01*
X116994065Y-72013602D01*
X117025500Y-71855566D01*
X117025500Y-71694434D01*
X116994065Y-71536398D01*
X116963233Y-71461965D01*
X116932403Y-71387533D01*
X116842880Y-71253552D01*
X116728947Y-71139619D01*
X116594966Y-71050096D01*
X116446102Y-70988435D01*
X116446094Y-70988433D01*
X116288070Y-70957000D01*
X116288066Y-70957000D01*
X116126934Y-70957000D01*
X116126929Y-70957000D01*
X115968905Y-70988433D01*
X115968897Y-70988435D01*
X115820033Y-71050096D01*
X115686052Y-71139619D01*
X115572119Y-71253552D01*
X115482596Y-71387533D01*
X115420935Y-71536397D01*
X115420933Y-71536405D01*
X115389500Y-71694429D01*
X74000500Y-71694429D01*
X74000500Y-67329982D01*
X80749500Y-67329982D01*
X80749500Y-69130017D01*
X80760000Y-69232796D01*
X80815185Y-69399332D01*
X80815187Y-69399337D01*
X80830341Y-69423905D01*
X80907288Y-69548656D01*
X81031344Y-69672712D01*
X81180665Y-69764814D01*
X81347202Y-69819999D01*
X81449990Y-69830500D01*
X81449995Y-69830500D01*
X83250005Y-69830500D01*
X83250010Y-69830500D01*
X83352798Y-69819999D01*
X83519335Y-69764814D01*
X83668656Y-69672712D01*
X83759439Y-69581929D01*
X109019500Y-69581929D01*
X109019500Y-69743070D01*
X109050933Y-69901094D01*
X109050935Y-69901102D01*
X109112596Y-70049966D01*
X109202119Y-70183947D01*
X109316052Y-70297880D01*
X109450033Y-70387403D01*
X109524465Y-70418233D01*
X109598898Y-70449065D01*
X109756929Y-70480499D01*
X109756933Y-70480500D01*
X109756934Y-70480500D01*
X109918067Y-70480500D01*
X109918068Y-70480499D01*
X110076102Y-70449065D01*
X110224968Y-70387402D01*
X110358945Y-70297882D01*
X110472882Y-70183945D01*
X110562402Y-70049968D01*
X110624065Y-69901102D01*
X110655500Y-69743066D01*
X110655500Y-69581934D01*
X110624065Y-69423898D01*
X110593233Y-69349465D01*
X110562403Y-69275033D01*
X110472880Y-69141052D01*
X110358947Y-69027119D01*
X110224966Y-68937596D01*
X110076102Y-68875935D01*
X110076094Y-68875933D01*
X109918070Y-68844500D01*
X109918066Y-68844500D01*
X109756934Y-68844500D01*
X109756929Y-68844500D01*
X109598905Y-68875933D01*
X109598897Y-68875935D01*
X109450033Y-68937596D01*
X109316052Y-69027119D01*
X109202119Y-69141052D01*
X109112596Y-69275033D01*
X109050935Y-69423897D01*
X109050933Y-69423905D01*
X109019500Y-69581929D01*
X83759439Y-69581929D01*
X83792712Y-69548656D01*
X83884814Y-69399335D01*
X83939999Y-69232798D01*
X83950500Y-69130010D01*
X83950500Y-68069429D01*
X129432000Y-68069429D01*
X129432000Y-68230570D01*
X129463433Y-68388594D01*
X129463435Y-68388602D01*
X129525096Y-68537466D01*
X129614619Y-68671447D01*
X129728552Y-68785380D01*
X129862533Y-68874903D01*
X129936965Y-68905733D01*
X130011398Y-68936565D01*
X130169429Y-68967999D01*
X130169433Y-68968000D01*
X130169434Y-68968000D01*
X130330567Y-68968000D01*
X130330568Y-68967999D01*
X130488602Y-68936565D01*
X130615666Y-68883932D01*
X130637466Y-68874903D01*
X130637466Y-68874902D01*
X130637468Y-68874902D01*
X130771445Y-68785382D01*
X130885382Y-68671445D01*
X130974902Y-68537468D01*
X131036565Y-68388602D01*
X131068000Y-68230566D01*
X131068000Y-68069434D01*
X131036565Y-67911398D01*
X131005733Y-67836965D01*
X130974903Y-67762533D01*
X130885380Y-67628552D01*
X130771447Y-67514619D01*
X130637466Y-67425096D01*
X130488602Y-67363435D01*
X130488594Y-67363433D01*
X130330570Y-67332000D01*
X130330566Y-67332000D01*
X130169434Y-67332000D01*
X130169429Y-67332000D01*
X130011405Y-67363433D01*
X130011397Y-67363435D01*
X129862533Y-67425096D01*
X129728552Y-67514619D01*
X129614619Y-67628552D01*
X129525096Y-67762533D01*
X129463435Y-67911397D01*
X129463433Y-67911405D01*
X129432000Y-68069429D01*
X83950500Y-68069429D01*
X83950500Y-67329990D01*
X83939999Y-67227202D01*
X83884814Y-67060665D01*
X83792712Y-66911344D01*
X83668656Y-66787288D01*
X83615383Y-66754429D01*
X110882000Y-66754429D01*
X110882000Y-66915570D01*
X110913433Y-67073594D01*
X110913435Y-67073602D01*
X110975096Y-67222466D01*
X111064619Y-67356447D01*
X111178552Y-67470380D01*
X111312533Y-67559903D01*
X111386965Y-67590733D01*
X111461398Y-67621565D01*
X111619429Y-67652999D01*
X111619433Y-67653000D01*
X111619434Y-67653000D01*
X111780567Y-67653000D01*
X111780568Y-67652999D01*
X111938602Y-67621565D01*
X112087468Y-67559902D01*
X112221445Y-67470382D01*
X112335382Y-67356445D01*
X112424902Y-67222468D01*
X112486565Y-67073602D01*
X112518000Y-66915566D01*
X112518000Y-66754434D01*
X112486565Y-66596398D01*
X112455733Y-66521965D01*
X112424903Y-66447533D01*
X112335380Y-66313552D01*
X112221447Y-66199619D01*
X112087466Y-66110096D01*
X111938602Y-66048435D01*
X111938594Y-66048433D01*
X111780570Y-66017000D01*
X111780566Y-66017000D01*
X111619434Y-66017000D01*
X111619429Y-66017000D01*
X111461405Y-66048433D01*
X111461397Y-66048435D01*
X111312533Y-66110096D01*
X111178552Y-66199619D01*
X111064619Y-66313552D01*
X110975096Y-66447533D01*
X110913435Y-66596397D01*
X110913433Y-66596405D01*
X110882000Y-66754429D01*
X83615383Y-66754429D01*
X83519335Y-66695186D01*
X83352798Y-66640001D01*
X83352796Y-66640000D01*
X83250017Y-66629500D01*
X83250010Y-66629500D01*
X81449990Y-66629500D01*
X81449982Y-66629500D01*
X81347203Y-66640000D01*
X81347202Y-66640001D01*
X81264669Y-66667349D01*
X81180667Y-66695185D01*
X81180662Y-66695187D01*
X81031342Y-66787289D01*
X80907289Y-66911342D01*
X80815187Y-67060662D01*
X80815185Y-67060667D01*
X80810899Y-67073602D01*
X80760001Y-67227202D01*
X80760001Y-67227203D01*
X80760000Y-67227203D01*
X80749500Y-67329982D01*
X74000500Y-67329982D01*
X74000500Y-65484429D01*
X116457000Y-65484429D01*
X116457000Y-65645570D01*
X116488433Y-65803594D01*
X116488435Y-65803602D01*
X116550096Y-65952466D01*
X116639619Y-66086447D01*
X116753552Y-66200380D01*
X116887533Y-66289903D01*
X116961965Y-66320733D01*
X117036398Y-66351565D01*
X117194429Y-66382999D01*
X117194433Y-66383000D01*
X117194434Y-66383000D01*
X117355567Y-66383000D01*
X117355568Y-66382999D01*
X117513602Y-66351565D01*
X117662468Y-66289902D01*
X117796445Y-66200382D01*
X117910382Y-66086445D01*
X117999902Y-65952468D01*
X118061565Y-65803602D01*
X118093000Y-65645566D01*
X118093000Y-65484434D01*
X118061565Y-65326398D01*
X118030733Y-65251965D01*
X117999903Y-65177533D01*
X117910380Y-65043552D01*
X117899511Y-65032684D01*
X117866024Y-64971362D01*
X117871006Y-64901670D01*
X117899509Y-64857318D01*
X117935380Y-64821447D01*
X117935382Y-64821445D01*
X118024902Y-64687468D01*
X118086565Y-64538602D01*
X118118000Y-64380566D01*
X118118000Y-64219434D01*
X118118000Y-64219431D01*
X118117005Y-64214429D01*
X133682000Y-64214429D01*
X133682000Y-64375570D01*
X133713433Y-64533594D01*
X133713435Y-64533602D01*
X133775096Y-64682466D01*
X133864619Y-64816447D01*
X133928712Y-64880540D01*
X133962197Y-64941863D01*
X133957213Y-65011555D01*
X133942076Y-65037872D01*
X133943002Y-65038491D01*
X133850097Y-65177532D01*
X133788435Y-65326397D01*
X133788433Y-65326405D01*
X133757000Y-65484429D01*
X133757000Y-65645570D01*
X133788433Y-65803594D01*
X133788435Y-65803602D01*
X133850096Y-65952466D01*
X133943003Y-66091511D01*
X133941013Y-66092840D01*
X133964197Y-66147419D01*
X133952408Y-66216287D01*
X133928712Y-66249460D01*
X133869620Y-66308551D01*
X133869619Y-66308552D01*
X133780096Y-66442533D01*
X133718435Y-66591397D01*
X133718433Y-66591405D01*
X133687000Y-66749429D01*
X133687000Y-66910570D01*
X133718433Y-67068594D01*
X133718435Y-67068602D01*
X133780096Y-67217466D01*
X133869619Y-67351447D01*
X133983551Y-67465379D01*
X133983557Y-67465384D01*
X133989347Y-67469253D01*
X134034152Y-67522866D01*
X134042858Y-67592191D01*
X134012702Y-67655218D01*
X134008137Y-67660035D01*
X133939618Y-67728554D01*
X133850096Y-67862533D01*
X133788435Y-68011397D01*
X133788433Y-68011405D01*
X133757000Y-68169429D01*
X133757000Y-68330570D01*
X133788433Y-68488594D01*
X133788435Y-68488602D01*
X133850096Y-68637466D01*
X133939619Y-68771447D01*
X134053552Y-68885380D01*
X134187533Y-68974903D01*
X134261965Y-69005733D01*
X134336398Y-69036565D01*
X134494429Y-69067999D01*
X134494433Y-69068000D01*
X134494434Y-69068000D01*
X134655567Y-69068000D01*
X134655568Y-69067999D01*
X134813602Y-69036565D01*
X134962468Y-68974902D01*
X135096445Y-68885382D01*
X135210382Y-68771445D01*
X135299902Y-68637468D01*
X135361565Y-68488602D01*
X135393000Y-68330566D01*
X135393000Y-68169434D01*
X135361565Y-68011398D01*
X135320143Y-67911397D01*
X135299903Y-67862533D01*
X135210380Y-67728552D01*
X135096447Y-67614619D01*
X135090649Y-67610745D01*
X135045846Y-67557131D01*
X135037141Y-67487805D01*
X135067298Y-67424779D01*
X135071844Y-67419982D01*
X135140382Y-67351445D01*
X135229902Y-67217468D01*
X135291565Y-67068602D01*
X135323000Y-66910566D01*
X135323000Y-66749434D01*
X135291565Y-66591398D01*
X135231974Y-66447533D01*
X135229903Y-66442533D01*
X135136997Y-66303489D01*
X135138978Y-66302164D01*
X135115798Y-66247537D01*
X135127611Y-66178673D01*
X135151285Y-66145541D01*
X135210382Y-66086445D01*
X135299902Y-65952468D01*
X135361565Y-65803602D01*
X135393000Y-65645566D01*
X135393000Y-65484434D01*
X135361565Y-65326398D01*
X135330733Y-65251965D01*
X135299903Y-65177533D01*
X135210380Y-65043552D01*
X135146287Y-64979459D01*
X135112802Y-64918136D01*
X135117786Y-64848444D01*
X135132935Y-64822138D01*
X135131997Y-64821511D01*
X135220204Y-64689499D01*
X135224902Y-64682468D01*
X135286565Y-64533602D01*
X135318000Y-64375566D01*
X135318000Y-64214434D01*
X135286565Y-64056398D01*
X135245231Y-63956609D01*
X135224903Y-63907533D01*
X135131997Y-63768489D01*
X135133986Y-63767159D01*
X135110803Y-63712590D01*
X135122586Y-63643721D01*
X135146285Y-63610541D01*
X135235382Y-63521445D01*
X135312263Y-63406384D01*
X156405500Y-63406384D01*
X156405500Y-63593616D01*
X156419889Y-63684460D01*
X156434790Y-63778543D01*
X156492645Y-63956606D01*
X156492646Y-63956609D01*
X156577651Y-64123437D01*
X156687694Y-64274900D01*
X156687698Y-64274905D01*
X156820094Y-64407301D01*
X156820099Y-64407305D01*
X156952212Y-64503290D01*
X156971566Y-64517351D01*
X157080620Y-64572917D01*
X157138390Y-64602353D01*
X157138393Y-64602354D01*
X157227424Y-64631281D01*
X157316458Y-64660210D01*
X157501384Y-64689500D01*
X157501385Y-64689500D01*
X157688615Y-64689500D01*
X157688616Y-64689500D01*
X157873542Y-64660210D01*
X158051609Y-64602353D01*
X158218434Y-64517351D01*
X158369907Y-64407300D01*
X158502300Y-64274907D01*
X158612351Y-64123434D01*
X158697353Y-63956609D01*
X158703568Y-63937478D01*
X158743003Y-63879804D01*
X158807360Y-63852603D01*
X158876207Y-63864514D01*
X158927685Y-63911757D01*
X158945500Y-63975794D01*
X158945500Y-64236869D01*
X158945501Y-64236876D01*
X158951908Y-64296483D01*
X159002202Y-64431328D01*
X159002206Y-64431335D01*
X159088452Y-64546544D01*
X159088455Y-64546547D01*
X159203664Y-64632793D01*
X159203671Y-64632797D01*
X159338517Y-64683091D01*
X159338516Y-64683091D01*
X159345444Y-64683835D01*
X159398127Y-64689500D01*
X160871872Y-64689499D01*
X160931483Y-64683091D01*
X161066331Y-64632796D01*
X161181546Y-64546546D01*
X161267796Y-64431331D01*
X161318091Y-64296483D01*
X161324500Y-64236873D01*
X161324499Y-62763128D01*
X161318091Y-62703517D01*
X161293480Y-62637532D01*
X161267797Y-62568671D01*
X161267793Y-62568664D01*
X161181547Y-62453455D01*
X161181544Y-62453452D01*
X161066335Y-62367206D01*
X161066328Y-62367202D01*
X160931482Y-62316908D01*
X160931483Y-62316908D01*
X160871883Y-62310501D01*
X160871881Y-62310500D01*
X160871873Y-62310500D01*
X160871864Y-62310500D01*
X159398129Y-62310500D01*
X159398123Y-62310501D01*
X159338516Y-62316908D01*
X159203671Y-62367202D01*
X159203664Y-62367206D01*
X159088455Y-62453452D01*
X159088452Y-62453455D01*
X159002206Y-62568664D01*
X159002202Y-62568671D01*
X158951908Y-62703517D01*
X158945686Y-62761397D01*
X158945501Y-62763123D01*
X158945500Y-62763135D01*
X158945500Y-63024203D01*
X158925815Y-63091242D01*
X158873011Y-63136997D01*
X158803853Y-63146941D01*
X158740297Y-63117916D01*
X158703569Y-63062521D01*
X158697354Y-63043393D01*
X158697353Y-63043390D01*
X158667917Y-62985620D01*
X158612351Y-62876566D01*
X158558539Y-62802500D01*
X158502305Y-62725099D01*
X158502301Y-62725094D01*
X158369905Y-62592698D01*
X158369900Y-62592694D01*
X158218437Y-62482651D01*
X158218436Y-62482650D01*
X158218434Y-62482649D01*
X158161132Y-62453452D01*
X158051609Y-62397646D01*
X158051606Y-62397645D01*
X157873543Y-62339790D01*
X157781079Y-62325145D01*
X157688616Y-62310500D01*
X157501384Y-62310500D01*
X157460920Y-62316909D01*
X157316456Y-62339790D01*
X157138393Y-62397645D01*
X157138390Y-62397646D01*
X156971562Y-62482651D01*
X156820099Y-62592694D01*
X156820094Y-62592698D01*
X156687698Y-62725094D01*
X156687694Y-62725099D01*
X156577651Y-62876562D01*
X156492646Y-63043390D01*
X156492645Y-63043393D01*
X156434790Y-63221456D01*
X156428116Y-63263594D01*
X156405500Y-63406384D01*
X135312263Y-63406384D01*
X135324902Y-63387468D01*
X135386565Y-63238602D01*
X135418000Y-63080566D01*
X135418000Y-62919434D01*
X135386565Y-62761398D01*
X135335258Y-62637533D01*
X135324903Y-62612533D01*
X135235380Y-62478552D01*
X135219510Y-62462683D01*
X135186023Y-62401361D01*
X135191006Y-62331669D01*
X135219510Y-62287317D01*
X135235380Y-62271447D01*
X135235382Y-62271445D01*
X135324902Y-62137468D01*
X135386565Y-61988602D01*
X135418000Y-61830566D01*
X135418000Y-61669434D01*
X135386565Y-61511398D01*
X135350763Y-61424965D01*
X135324903Y-61362533D01*
X135235380Y-61228552D01*
X135207008Y-61200180D01*
X135173523Y-61138857D01*
X135178507Y-61069165D01*
X135207009Y-61024817D01*
X135210382Y-61021445D01*
X135299902Y-60887468D01*
X135361565Y-60738602D01*
X135393000Y-60580566D01*
X135393000Y-60419434D01*
X135361565Y-60261398D01*
X135300346Y-60113603D01*
X135299903Y-60112533D01*
X135210380Y-59978552D01*
X135194510Y-59962683D01*
X135161023Y-59901361D01*
X135166006Y-59831669D01*
X135194510Y-59787317D01*
X135210380Y-59771447D01*
X135210382Y-59771445D01*
X135299902Y-59637468D01*
X135361565Y-59488602D01*
X135393000Y-59330566D01*
X135393000Y-59169434D01*
X135361565Y-59011398D01*
X135310231Y-58887467D01*
X135299903Y-58862533D01*
X135210380Y-58728552D01*
X135157008Y-58675180D01*
X135123523Y-58613857D01*
X135128507Y-58544165D01*
X135157008Y-58499818D01*
X135162882Y-58493945D01*
X135252402Y-58359968D01*
X135314065Y-58211102D01*
X135345500Y-58053066D01*
X135345500Y-57891934D01*
X135314065Y-57733898D01*
X135252402Y-57585032D01*
X135252401Y-57585030D01*
X135252401Y-57585029D01*
X135166503Y-57456473D01*
X135145625Y-57389796D01*
X135164110Y-57322416D01*
X135181918Y-57299908D01*
X135210382Y-57271445D01*
X135299902Y-57137468D01*
X135361565Y-56988602D01*
X135393000Y-56830566D01*
X135393000Y-56669434D01*
X135361565Y-56511398D01*
X135330733Y-56436965D01*
X135299903Y-56362533D01*
X135210380Y-56228552D01*
X135096447Y-56114619D01*
X134962466Y-56025096D01*
X134813602Y-55963435D01*
X134813594Y-55963433D01*
X134655570Y-55932000D01*
X134655566Y-55932000D01*
X134494434Y-55932000D01*
X134494429Y-55932000D01*
X134336405Y-55963433D01*
X134336397Y-55963435D01*
X134187533Y-56025096D01*
X134053552Y-56114619D01*
X133939619Y-56228552D01*
X133850096Y-56362533D01*
X133788435Y-56511397D01*
X133788433Y-56511405D01*
X133757000Y-56669429D01*
X133757000Y-56830570D01*
X133788433Y-56988594D01*
X133788435Y-56988602D01*
X133850096Y-57137466D01*
X133935997Y-57266026D01*
X133956874Y-57332703D01*
X133938389Y-57400083D01*
X133920575Y-57422597D01*
X133892120Y-57451051D01*
X133892119Y-57451052D01*
X133802596Y-57585033D01*
X133740935Y-57733897D01*
X133740933Y-57733905D01*
X133709500Y-57891929D01*
X133709500Y-58053070D01*
X133740933Y-58211094D01*
X133740935Y-58211102D01*
X133802596Y-58359966D01*
X133892119Y-58493947D01*
X133945491Y-58547319D01*
X133978976Y-58608642D01*
X133973992Y-58678334D01*
X133945496Y-58722677D01*
X133939618Y-58728555D01*
X133939617Y-58728555D01*
X133850097Y-58862532D01*
X133788435Y-59011397D01*
X133788433Y-59011405D01*
X133757000Y-59169429D01*
X133757000Y-59330570D01*
X133788433Y-59488594D01*
X133788435Y-59488602D01*
X133850096Y-59637466D01*
X133939619Y-59771447D01*
X133955491Y-59787319D01*
X133988976Y-59848642D01*
X133983992Y-59918334D01*
X133955491Y-59962681D01*
X133939620Y-59978551D01*
X133939619Y-59978552D01*
X133850096Y-60112533D01*
X133788435Y-60261397D01*
X133788433Y-60261405D01*
X133757000Y-60419429D01*
X133757000Y-60580570D01*
X133788433Y-60738594D01*
X133788435Y-60738602D01*
X133850096Y-60887466D01*
X133939619Y-61021447D01*
X133967991Y-61049819D01*
X134001476Y-61111142D01*
X133996492Y-61180834D01*
X133967997Y-61225176D01*
X133964618Y-61228554D01*
X133964617Y-61228555D01*
X133875097Y-61362532D01*
X133813435Y-61511397D01*
X133813433Y-61511405D01*
X133782000Y-61669429D01*
X133782000Y-61830570D01*
X133813433Y-61988594D01*
X133813435Y-61988602D01*
X133875096Y-62137466D01*
X133964619Y-62271447D01*
X133980491Y-62287319D01*
X134013976Y-62348642D01*
X134008992Y-62418334D01*
X133980491Y-62462681D01*
X133964620Y-62478551D01*
X133964619Y-62478552D01*
X133875096Y-62612533D01*
X133813435Y-62761397D01*
X133813433Y-62761405D01*
X133782000Y-62919429D01*
X133782000Y-63080570D01*
X133813433Y-63238594D01*
X133813435Y-63238602D01*
X133875096Y-63387466D01*
X133968003Y-63526511D01*
X133966022Y-63527834D01*
X133989202Y-63582472D01*
X133977384Y-63651335D01*
X133953712Y-63684460D01*
X133864618Y-63773554D01*
X133775096Y-63907533D01*
X133713435Y-64056397D01*
X133713433Y-64056405D01*
X133682000Y-64214429D01*
X118117005Y-64214429D01*
X118086566Y-64061405D01*
X118086565Y-64061398D01*
X118024902Y-63912532D01*
X118024901Y-63912530D01*
X117968450Y-63828044D01*
X117947572Y-63761367D01*
X117966057Y-63693987D01*
X117992898Y-63663292D01*
X117996436Y-63660387D01*
X117996445Y-63660382D01*
X118110382Y-63546445D01*
X118199902Y-63412468D01*
X118261565Y-63263602D01*
X118293000Y-63105566D01*
X118293000Y-62944434D01*
X118261565Y-62786398D01*
X118231676Y-62714240D01*
X121699310Y-62714240D01*
X121836542Y-62771083D01*
X121836551Y-62771086D01*
X121994478Y-62802499D01*
X121994481Y-62802500D01*
X122155519Y-62802500D01*
X122155521Y-62802499D01*
X122313448Y-62771085D01*
X122313456Y-62771083D01*
X122450688Y-62714240D01*
X123099310Y-62714240D01*
X123236542Y-62771083D01*
X123236551Y-62771086D01*
X123394478Y-62802499D01*
X123394481Y-62802500D01*
X123555519Y-62802500D01*
X123555521Y-62802499D01*
X123713448Y-62771085D01*
X123713456Y-62771083D01*
X123850688Y-62714240D01*
X123475001Y-62338553D01*
X123475000Y-62338553D01*
X123099310Y-62714240D01*
X122450688Y-62714240D01*
X122075001Y-62338553D01*
X122075000Y-62338553D01*
X121699310Y-62714240D01*
X118231676Y-62714240D01*
X118199902Y-62637532D01*
X118150537Y-62563652D01*
X118147577Y-62558062D01*
X118141802Y-62529781D01*
X118133179Y-62502242D01*
X118134898Y-62495974D01*
X118133598Y-62489605D01*
X118144028Y-62462693D01*
X118151664Y-62434862D01*
X118157843Y-62427052D01*
X118158849Y-62424457D01*
X118161323Y-62422653D01*
X118169471Y-62412355D01*
X118222882Y-62358945D01*
X118312402Y-62224968D01*
X118374065Y-62076102D01*
X118386370Y-62014240D01*
X120999310Y-62014240D01*
X121136543Y-62071083D01*
X121182372Y-62080199D01*
X121244283Y-62112584D01*
X121278858Y-62173299D01*
X121279799Y-62177625D01*
X121288914Y-62223449D01*
X121345758Y-62360687D01*
X121721446Y-61985000D01*
X121721446Y-61984999D01*
X121688606Y-61952159D01*
X121909900Y-61952159D01*
X121909900Y-62017841D01*
X121935035Y-62078522D01*
X121981478Y-62124965D01*
X122042159Y-62150100D01*
X122107841Y-62150100D01*
X122168522Y-62124965D01*
X122214965Y-62078522D01*
X122240100Y-62017841D01*
X122240100Y-61985000D01*
X122428553Y-61985000D01*
X122775000Y-62331446D01*
X122775001Y-62331446D01*
X123121446Y-61985001D01*
X123121446Y-61984999D01*
X123088606Y-61952159D01*
X123309900Y-61952159D01*
X123309900Y-62017841D01*
X123335035Y-62078522D01*
X123381478Y-62124965D01*
X123442159Y-62150100D01*
X123507841Y-62150100D01*
X123568522Y-62124965D01*
X123614965Y-62078522D01*
X123640100Y-62017841D01*
X123640100Y-61985000D01*
X123828553Y-61985000D01*
X124204240Y-62360688D01*
X124261083Y-62223457D01*
X124261083Y-62223456D01*
X124270199Y-62177627D01*
X124302584Y-62115716D01*
X124363299Y-62081141D01*
X124367627Y-62080199D01*
X124413456Y-62071083D01*
X124413457Y-62071083D01*
X124550688Y-62014240D01*
X124175000Y-61638553D01*
X123828553Y-61985000D01*
X123640100Y-61985000D01*
X123640100Y-61952159D01*
X123614965Y-61891478D01*
X123568522Y-61845035D01*
X123507841Y-61819900D01*
X123442159Y-61819900D01*
X123381478Y-61845035D01*
X123335035Y-61891478D01*
X123309900Y-61952159D01*
X123088606Y-61952159D01*
X122775000Y-61638553D01*
X122428553Y-61985000D01*
X122240100Y-61985000D01*
X122240100Y-61952159D01*
X122214965Y-61891478D01*
X122168522Y-61845035D01*
X122107841Y-61819900D01*
X122042159Y-61819900D01*
X121981478Y-61845035D01*
X121935035Y-61891478D01*
X121909900Y-61952159D01*
X121688606Y-61952159D01*
X121542573Y-61806126D01*
X121375001Y-61638553D01*
X121375000Y-61638553D01*
X120999310Y-62014240D01*
X118386370Y-62014240D01*
X118392186Y-61985000D01*
X118399295Y-61949264D01*
X118399300Y-61949236D01*
X118405500Y-61918064D01*
X118405500Y-61756933D01*
X118405499Y-61756929D01*
X118388094Y-61669429D01*
X118374065Y-61598898D01*
X118312402Y-61450032D01*
X118222882Y-61316055D01*
X118222880Y-61316052D01*
X118111306Y-61204478D01*
X120557500Y-61204478D01*
X120557500Y-61365521D01*
X120588914Y-61523453D01*
X120588917Y-61523461D01*
X120645757Y-61660687D01*
X120645758Y-61660688D01*
X121021446Y-61285000D01*
X121021446Y-61284999D01*
X120988606Y-61252159D01*
X121209900Y-61252159D01*
X121209900Y-61317841D01*
X121235035Y-61378522D01*
X121281478Y-61424965D01*
X121342159Y-61450100D01*
X121407841Y-61450100D01*
X121468522Y-61424965D01*
X121514965Y-61378522D01*
X121540100Y-61317841D01*
X121540100Y-61285000D01*
X121728553Y-61285000D01*
X121893585Y-61450032D01*
X122075000Y-61631446D01*
X122256415Y-61450032D01*
X122421446Y-61285000D01*
X122421446Y-61284999D01*
X122388606Y-61252159D01*
X122609900Y-61252159D01*
X122609900Y-61317841D01*
X122635035Y-61378522D01*
X122681478Y-61424965D01*
X122742159Y-61450100D01*
X122807841Y-61450100D01*
X122868522Y-61424965D01*
X122914965Y-61378522D01*
X122940100Y-61317841D01*
X122940100Y-61285000D01*
X123128553Y-61285000D01*
X123293585Y-61450032D01*
X123475000Y-61631446D01*
X123656415Y-61450032D01*
X123821446Y-61285000D01*
X123821446Y-61284999D01*
X123788606Y-61252159D01*
X124009900Y-61252159D01*
X124009900Y-61317841D01*
X124035035Y-61378522D01*
X124081478Y-61424965D01*
X124142159Y-61450100D01*
X124207841Y-61450100D01*
X124268522Y-61424965D01*
X124314965Y-61378522D01*
X124340100Y-61317841D01*
X124340100Y-61284999D01*
X124528553Y-61284999D01*
X124528553Y-61285001D01*
X124904240Y-61660688D01*
X124961083Y-61523456D01*
X124961085Y-61523448D01*
X124992499Y-61365521D01*
X124992500Y-61365519D01*
X124992500Y-61204480D01*
X124992499Y-61204478D01*
X124961086Y-61046551D01*
X124961083Y-61046542D01*
X124904240Y-60909310D01*
X124528553Y-61284999D01*
X124340100Y-61284999D01*
X124340100Y-61252159D01*
X124314965Y-61191478D01*
X124268522Y-61145035D01*
X124207841Y-61119900D01*
X124142159Y-61119900D01*
X124081478Y-61145035D01*
X124035035Y-61191478D01*
X124009900Y-61252159D01*
X123788606Y-61252159D01*
X123475000Y-60938553D01*
X123128553Y-61285000D01*
X122940100Y-61285000D01*
X122940100Y-61252159D01*
X122914965Y-61191478D01*
X122868522Y-61145035D01*
X122807841Y-61119900D01*
X122742159Y-61119900D01*
X122681478Y-61145035D01*
X122635035Y-61191478D01*
X122609900Y-61252159D01*
X122388606Y-61252159D01*
X122075000Y-60938553D01*
X121728553Y-61285000D01*
X121540100Y-61285000D01*
X121540100Y-61252159D01*
X121514965Y-61191478D01*
X121468522Y-61145035D01*
X121407841Y-61119900D01*
X121342159Y-61119900D01*
X121281478Y-61145035D01*
X121235035Y-61191478D01*
X121209900Y-61252159D01*
X120988606Y-61252159D01*
X120645757Y-60909311D01*
X120588917Y-61046538D01*
X120588914Y-61046546D01*
X120557500Y-61204478D01*
X118111306Y-61204478D01*
X118108947Y-61202119D01*
X117974966Y-61112596D01*
X117826102Y-61050935D01*
X117826094Y-61050933D01*
X117668070Y-61019500D01*
X117668066Y-61019500D01*
X117506934Y-61019500D01*
X117506929Y-61019500D01*
X117348905Y-61050933D01*
X117348897Y-61050935D01*
X117200033Y-61112596D01*
X117066052Y-61202119D01*
X116952119Y-61316052D01*
X116862598Y-61450032D01*
X116800935Y-61598897D01*
X116800933Y-61598905D01*
X116769500Y-61756929D01*
X116769500Y-61918070D01*
X116800933Y-62076094D01*
X116800935Y-62076102D01*
X116862598Y-62224968D01*
X116908442Y-62293581D01*
X116929319Y-62360258D01*
X116910834Y-62427638D01*
X116893021Y-62450150D01*
X116839619Y-62503552D01*
X116750096Y-62637533D01*
X116688435Y-62786397D01*
X116688433Y-62786405D01*
X116657000Y-62944429D01*
X116657000Y-63105570D01*
X116688433Y-63263594D01*
X116688435Y-63263602D01*
X116750097Y-63412466D01*
X116806550Y-63496955D01*
X116827427Y-63563632D01*
X116808942Y-63631012D01*
X116782114Y-63661697D01*
X116778549Y-63664622D01*
X116664619Y-63778552D01*
X116575096Y-63912533D01*
X116513435Y-64061397D01*
X116513433Y-64061405D01*
X116482000Y-64219429D01*
X116482000Y-64380570D01*
X116513433Y-64538594D01*
X116513435Y-64538602D01*
X116575096Y-64687466D01*
X116664619Y-64821447D01*
X116675491Y-64832319D01*
X116708976Y-64893642D01*
X116703992Y-64963334D01*
X116675491Y-65007681D01*
X116639620Y-65043551D01*
X116639619Y-65043552D01*
X116550096Y-65177533D01*
X116488435Y-65326397D01*
X116488433Y-65326405D01*
X116457000Y-65484429D01*
X74000500Y-65484429D01*
X74000500Y-57944038D01*
X80749500Y-57944038D01*
X80749500Y-58195961D01*
X80788910Y-58444785D01*
X80866760Y-58684383D01*
X80930414Y-58809310D01*
X80970237Y-58887467D01*
X80981132Y-58908848D01*
X81129201Y-59112649D01*
X81129205Y-59112654D01*
X81307345Y-59290794D01*
X81307350Y-59290798D01*
X81485117Y-59419952D01*
X81511155Y-59438870D01*
X81649403Y-59509311D01*
X81735616Y-59553239D01*
X81735618Y-59553239D01*
X81735621Y-59553241D01*
X81975215Y-59631090D01*
X82224038Y-59670500D01*
X82224039Y-59670500D01*
X82475961Y-59670500D01*
X82475962Y-59670500D01*
X82724785Y-59631090D01*
X82964379Y-59553241D01*
X83188845Y-59438870D01*
X83392656Y-59290793D01*
X83570793Y-59112656D01*
X83718870Y-58908845D01*
X83833241Y-58684379D01*
X83911090Y-58444785D01*
X83915106Y-58419429D01*
X112932000Y-58419429D01*
X112932000Y-58580570D01*
X112963433Y-58738594D01*
X112963435Y-58738602D01*
X113025096Y-58887466D01*
X113114617Y-59021444D01*
X113114618Y-59021445D01*
X113138048Y-59044875D01*
X113171533Y-59106196D01*
X113166550Y-59175887D01*
X113153470Y-59201446D01*
X113087597Y-59300033D01*
X113025935Y-59448897D01*
X113025933Y-59448905D01*
X112994500Y-59606929D01*
X112994500Y-59768070D01*
X113025933Y-59926094D01*
X113025935Y-59926102D01*
X113087596Y-60074966D01*
X113177119Y-60208947D01*
X113210493Y-60242321D01*
X113243978Y-60303644D01*
X113238994Y-60373336D01*
X113225916Y-60398890D01*
X113200097Y-60437531D01*
X113138435Y-60586397D01*
X113138433Y-60586405D01*
X113107000Y-60744429D01*
X113107000Y-60905570D01*
X113138433Y-61063594D01*
X113138435Y-61063602D01*
X113200096Y-61212466D01*
X113289619Y-61346447D01*
X113403552Y-61460380D01*
X113537533Y-61549903D01*
X113611965Y-61580733D01*
X113686398Y-61611565D01*
X113786348Y-61631446D01*
X113844429Y-61642999D01*
X113844433Y-61643000D01*
X113844434Y-61643000D01*
X114005567Y-61643000D01*
X114005568Y-61642999D01*
X114163602Y-61611565D01*
X114312468Y-61549902D01*
X114446445Y-61460382D01*
X114560382Y-61346445D01*
X114649902Y-61212468D01*
X114711565Y-61063602D01*
X114743000Y-60905566D01*
X114743000Y-60744434D01*
X114743000Y-60744429D01*
X114714085Y-60599066D01*
X114711565Y-60586398D01*
X114680733Y-60511965D01*
X114649903Y-60437533D01*
X114560380Y-60303552D01*
X114527005Y-60270177D01*
X114493520Y-60208854D01*
X114498504Y-60139162D01*
X114511579Y-60113613D01*
X114537402Y-60074968D01*
X114599065Y-59926102D01*
X114630500Y-59768066D01*
X114630500Y-59731929D01*
X117369500Y-59731929D01*
X117369500Y-59893070D01*
X117400933Y-60051094D01*
X117400935Y-60051102D01*
X117462596Y-60199966D01*
X117552119Y-60333947D01*
X117666052Y-60447880D01*
X117800033Y-60537403D01*
X117874465Y-60568233D01*
X117948898Y-60599065D01*
X118106929Y-60630499D01*
X118106933Y-60630500D01*
X118106934Y-60630500D01*
X118268067Y-60630500D01*
X118268068Y-60630499D01*
X118426102Y-60599065D01*
X118460058Y-60585000D01*
X121028553Y-60585000D01*
X121374999Y-60931446D01*
X121562013Y-60744434D01*
X121721446Y-60585000D01*
X121721446Y-60584999D01*
X121688606Y-60552159D01*
X121909900Y-60552159D01*
X121909900Y-60617841D01*
X121935035Y-60678522D01*
X121981478Y-60724965D01*
X122042159Y-60750100D01*
X122107841Y-60750100D01*
X122168522Y-60724965D01*
X122214965Y-60678522D01*
X122240100Y-60617841D01*
X122240100Y-60585000D01*
X122428553Y-60585000D01*
X122587987Y-60744434D01*
X122775000Y-60931446D01*
X122962013Y-60744434D01*
X123121446Y-60585000D01*
X123121446Y-60584999D01*
X123088606Y-60552159D01*
X123309900Y-60552159D01*
X123309900Y-60617841D01*
X123335035Y-60678522D01*
X123381478Y-60724965D01*
X123442159Y-60750100D01*
X123507841Y-60750100D01*
X123568522Y-60724965D01*
X123614965Y-60678522D01*
X123640100Y-60617841D01*
X123640100Y-60585000D01*
X123828553Y-60585000D01*
X123987987Y-60744434D01*
X124175000Y-60931446D01*
X124175001Y-60931446D01*
X124521446Y-60585001D01*
X124521446Y-60584999D01*
X124175001Y-60238553D01*
X124175000Y-60238553D01*
X123828553Y-60585000D01*
X123640100Y-60585000D01*
X123640100Y-60552159D01*
X123614965Y-60491478D01*
X123568522Y-60445035D01*
X123507841Y-60419900D01*
X123442159Y-60419900D01*
X123381478Y-60445035D01*
X123335035Y-60491478D01*
X123309900Y-60552159D01*
X123088606Y-60552159D01*
X122775000Y-60238553D01*
X122428553Y-60585000D01*
X122240100Y-60585000D01*
X122240100Y-60552159D01*
X122214965Y-60491478D01*
X122168522Y-60445035D01*
X122107841Y-60419900D01*
X122042159Y-60419900D01*
X121981478Y-60445035D01*
X121935035Y-60491478D01*
X121909900Y-60552159D01*
X121688606Y-60552159D01*
X121375000Y-60238553D01*
X121028553Y-60585000D01*
X118460058Y-60585000D01*
X118574968Y-60537402D01*
X118708945Y-60447882D01*
X118708948Y-60447879D01*
X118710871Y-60445957D01*
X118822879Y-60333948D01*
X118822880Y-60333947D01*
X118822882Y-60333945D01*
X118912402Y-60199968D01*
X118974065Y-60051102D01*
X119005500Y-59893066D01*
X119005500Y-59804478D01*
X120557500Y-59804478D01*
X120557500Y-59965521D01*
X120588914Y-60123453D01*
X120588917Y-60123461D01*
X120645757Y-60260687D01*
X120645758Y-60260688D01*
X121021446Y-59885000D01*
X121021446Y-59884999D01*
X120988606Y-59852159D01*
X121209900Y-59852159D01*
X121209900Y-59917841D01*
X121235035Y-59978522D01*
X121281478Y-60024965D01*
X121342159Y-60050100D01*
X121407841Y-60050100D01*
X121468522Y-60024965D01*
X121514965Y-59978522D01*
X121540100Y-59917841D01*
X121540100Y-59885000D01*
X121728553Y-59885000D01*
X121894655Y-60051102D01*
X122075000Y-60231446D01*
X122255345Y-60051102D01*
X122421446Y-59885000D01*
X122421446Y-59884999D01*
X122388606Y-59852159D01*
X122609900Y-59852159D01*
X122609900Y-59917841D01*
X122635035Y-59978522D01*
X122681478Y-60024965D01*
X122742159Y-60050100D01*
X122807841Y-60050100D01*
X122868522Y-60024965D01*
X122914965Y-59978522D01*
X122940100Y-59917841D01*
X122940100Y-59885000D01*
X123128553Y-59885000D01*
X123294655Y-60051102D01*
X123475000Y-60231446D01*
X123655345Y-60051102D01*
X123821446Y-59885001D01*
X123821446Y-59884999D01*
X123788606Y-59852159D01*
X124009900Y-59852159D01*
X124009900Y-59917841D01*
X124035035Y-59978522D01*
X124081478Y-60024965D01*
X124142159Y-60050100D01*
X124207841Y-60050100D01*
X124268522Y-60024965D01*
X124314965Y-59978522D01*
X124340100Y-59917841D01*
X124340100Y-59884999D01*
X124528553Y-59884999D01*
X124528553Y-59885001D01*
X124904240Y-60260688D01*
X124961083Y-60123456D01*
X124961085Y-60123448D01*
X124992499Y-59965521D01*
X124992500Y-59965519D01*
X124992500Y-59804480D01*
X124992499Y-59804478D01*
X124961086Y-59646551D01*
X124961083Y-59646542D01*
X124904240Y-59509310D01*
X124528553Y-59884999D01*
X124340100Y-59884999D01*
X124340100Y-59852159D01*
X124314965Y-59791478D01*
X124268522Y-59745035D01*
X124207841Y-59719900D01*
X124142159Y-59719900D01*
X124081478Y-59745035D01*
X124035035Y-59791478D01*
X124009900Y-59852159D01*
X123788606Y-59852159D01*
X123475000Y-59538553D01*
X123128553Y-59885000D01*
X122940100Y-59885000D01*
X122940100Y-59852159D01*
X122914965Y-59791478D01*
X122868522Y-59745035D01*
X122807841Y-59719900D01*
X122742159Y-59719900D01*
X122681478Y-59745035D01*
X122635035Y-59791478D01*
X122609900Y-59852159D01*
X122388606Y-59852159D01*
X122075000Y-59538553D01*
X121728553Y-59885000D01*
X121540100Y-59885000D01*
X121540100Y-59852159D01*
X121514965Y-59791478D01*
X121468522Y-59745035D01*
X121407841Y-59719900D01*
X121342159Y-59719900D01*
X121281478Y-59745035D01*
X121235035Y-59791478D01*
X121209900Y-59852159D01*
X120988606Y-59852159D01*
X120645757Y-59509311D01*
X120588917Y-59646538D01*
X120588914Y-59646546D01*
X120557500Y-59804478D01*
X119005500Y-59804478D01*
X119005500Y-59731934D01*
X118974065Y-59573898D01*
X118922288Y-59448898D01*
X118912403Y-59425033D01*
X118822880Y-59291052D01*
X118708947Y-59177119D01*
X118676976Y-59155757D01*
X120999311Y-59155757D01*
X121375000Y-59531446D01*
X121375001Y-59531446D01*
X121548223Y-59358223D01*
X121721446Y-59185000D01*
X121721446Y-59184999D01*
X121688606Y-59152159D01*
X121909900Y-59152159D01*
X121909900Y-59217841D01*
X121935035Y-59278522D01*
X121981478Y-59324965D01*
X122042159Y-59350100D01*
X122107841Y-59350100D01*
X122168522Y-59324965D01*
X122214965Y-59278522D01*
X122240100Y-59217841D01*
X122240100Y-59185000D01*
X122428553Y-59185000D01*
X122601776Y-59358223D01*
X122775000Y-59531446D01*
X122775001Y-59531446D01*
X122948223Y-59358223D01*
X123121446Y-59185000D01*
X123121446Y-59184999D01*
X123088606Y-59152159D01*
X123309900Y-59152159D01*
X123309900Y-59217841D01*
X123335035Y-59278522D01*
X123381478Y-59324965D01*
X123442159Y-59350100D01*
X123507841Y-59350100D01*
X123568522Y-59324965D01*
X123614965Y-59278522D01*
X123640100Y-59217841D01*
X123640100Y-59184999D01*
X123828553Y-59184999D01*
X123828553Y-59185000D01*
X124001776Y-59358223D01*
X124175000Y-59531446D01*
X124175001Y-59531446D01*
X124550688Y-59155758D01*
X124413448Y-59098914D01*
X124413449Y-59098914D01*
X124367625Y-59089799D01*
X124305714Y-59057414D01*
X124271140Y-58996698D01*
X124270199Y-58992372D01*
X124261083Y-58946543D01*
X124261083Y-58946542D01*
X124204240Y-58809310D01*
X123828553Y-59184999D01*
X123640100Y-59184999D01*
X123640100Y-59152159D01*
X123614965Y-59091478D01*
X123568522Y-59045035D01*
X123507841Y-59019900D01*
X123442159Y-59019900D01*
X123381478Y-59045035D01*
X123335035Y-59091478D01*
X123309900Y-59152159D01*
X123088606Y-59152159D01*
X122775001Y-58838553D01*
X122775000Y-58838553D01*
X122428553Y-59185000D01*
X122240100Y-59185000D01*
X122240100Y-59152159D01*
X122214965Y-59091478D01*
X122168522Y-59045035D01*
X122107841Y-59019900D01*
X122042159Y-59019900D01*
X121981478Y-59045035D01*
X121935035Y-59091478D01*
X121909900Y-59152159D01*
X121688606Y-59152159D01*
X121345757Y-58809311D01*
X121288917Y-58946538D01*
X121288915Y-58946545D01*
X121279799Y-58992374D01*
X121247413Y-59054285D01*
X121186697Y-59088859D01*
X121182374Y-59089799D01*
X121136545Y-59098915D01*
X121136538Y-59098917D01*
X120999311Y-59155757D01*
X118676976Y-59155757D01*
X118574966Y-59087596D01*
X118426102Y-59025935D01*
X118426094Y-59025933D01*
X118268070Y-58994500D01*
X118268066Y-58994500D01*
X118106934Y-58994500D01*
X118106929Y-58994500D01*
X117948905Y-59025933D01*
X117948897Y-59025935D01*
X117800033Y-59087596D01*
X117666052Y-59177119D01*
X117552119Y-59291052D01*
X117462596Y-59425033D01*
X117400935Y-59573897D01*
X117400933Y-59573905D01*
X117369500Y-59731929D01*
X114630500Y-59731929D01*
X114630500Y-59606934D01*
X114599065Y-59448898D01*
X114558141Y-59350100D01*
X114537403Y-59300033D01*
X114447882Y-59166055D01*
X114437584Y-59155757D01*
X114424450Y-59142623D01*
X114390966Y-59081303D01*
X114395949Y-59011612D01*
X114409027Y-58986056D01*
X114474902Y-58887468D01*
X114536565Y-58738602D01*
X114568000Y-58580566D01*
X114568000Y-58455757D01*
X121699311Y-58455757D01*
X122075000Y-58831446D01*
X122075001Y-58831446D01*
X122450688Y-58455758D01*
X122450687Y-58455757D01*
X123099311Y-58455757D01*
X123475000Y-58831446D01*
X123475001Y-58831446D01*
X123850688Y-58455758D01*
X123850687Y-58455757D01*
X123713461Y-58398917D01*
X123713453Y-58398914D01*
X123555520Y-58367500D01*
X123394480Y-58367500D01*
X123236546Y-58398914D01*
X123236538Y-58398917D01*
X123099311Y-58455757D01*
X122450687Y-58455757D01*
X122313461Y-58398917D01*
X122313453Y-58398914D01*
X122155520Y-58367500D01*
X121994480Y-58367500D01*
X121836546Y-58398914D01*
X121836538Y-58398917D01*
X121699311Y-58455757D01*
X114568000Y-58455757D01*
X114568000Y-58419434D01*
X114536565Y-58261398D01*
X114474902Y-58112532D01*
X114454037Y-58081305D01*
X114433160Y-58014627D01*
X114451645Y-57947247D01*
X114454038Y-57943525D01*
X114524901Y-57837469D01*
X114524902Y-57837468D01*
X114586565Y-57688602D01*
X114618000Y-57530566D01*
X114618000Y-57369434D01*
X114586565Y-57211398D01*
X114555733Y-57136965D01*
X114524903Y-57062533D01*
X114435380Y-56928552D01*
X114321447Y-56814619D01*
X114187466Y-56725096D01*
X114038602Y-56663435D01*
X114038594Y-56663433D01*
X113880570Y-56632000D01*
X113880566Y-56632000D01*
X113719434Y-56632000D01*
X113719429Y-56632000D01*
X113561405Y-56663433D01*
X113561397Y-56663435D01*
X113412533Y-56725096D01*
X113278552Y-56814619D01*
X113164619Y-56928552D01*
X113075096Y-57062533D01*
X113013435Y-57211397D01*
X113013433Y-57211405D01*
X112982000Y-57369429D01*
X112982000Y-57530570D01*
X113013433Y-57688594D01*
X113013435Y-57688602D01*
X113075097Y-57837466D01*
X113095963Y-57868695D01*
X113116840Y-57935373D01*
X113098355Y-58002753D01*
X113095962Y-58006475D01*
X113025098Y-58112530D01*
X112963435Y-58261397D01*
X112963433Y-58261405D01*
X112932000Y-58419429D01*
X83915106Y-58419429D01*
X83918355Y-58398917D01*
X83919143Y-58393943D01*
X83919143Y-58393942D01*
X83950500Y-58195961D01*
X83950500Y-57944038D01*
X83942247Y-57891929D01*
X83911090Y-57695215D01*
X83833241Y-57455621D01*
X83833239Y-57455618D01*
X83833239Y-57455616D01*
X83770611Y-57332703D01*
X83718870Y-57231155D01*
X83650801Y-57137466D01*
X83570798Y-57027350D01*
X83570794Y-57027345D01*
X83392654Y-56849205D01*
X83392649Y-56849201D01*
X83188848Y-56701132D01*
X83188847Y-56701131D01*
X83188845Y-56701130D01*
X83053170Y-56632000D01*
X82964383Y-56586760D01*
X82724785Y-56508910D01*
X82475962Y-56469500D01*
X82224038Y-56469500D01*
X82099626Y-56489205D01*
X81975214Y-56508910D01*
X81735616Y-56586760D01*
X81511151Y-56701132D01*
X81307350Y-56849201D01*
X81307345Y-56849205D01*
X81129205Y-57027345D01*
X81129201Y-57027350D01*
X80981132Y-57231151D01*
X80866760Y-57455616D01*
X80788910Y-57695214D01*
X80749500Y-57944038D01*
X74000500Y-57944038D01*
X74000500Y-56131929D01*
X130469500Y-56131929D01*
X130469500Y-56293070D01*
X130500933Y-56451094D01*
X130500935Y-56451102D01*
X130562596Y-56599966D01*
X130652119Y-56733947D01*
X130766052Y-56847880D01*
X130900033Y-56937403D01*
X130974465Y-56968233D01*
X131048898Y-56999065D01*
X131191068Y-57027344D01*
X131206929Y-57030499D01*
X131206933Y-57030500D01*
X131206934Y-57030500D01*
X131368067Y-57030500D01*
X131368068Y-57030499D01*
X131526102Y-56999065D01*
X131674968Y-56937402D01*
X131808945Y-56847882D01*
X131922882Y-56733945D01*
X132012402Y-56599968D01*
X132074065Y-56451102D01*
X132105500Y-56293066D01*
X132105500Y-56131934D01*
X132074065Y-55973898D01*
X132043233Y-55899465D01*
X132012403Y-55825033D01*
X131922880Y-55691052D01*
X131808947Y-55577119D01*
X131674966Y-55487596D01*
X131526102Y-55425935D01*
X131526094Y-55425933D01*
X131368070Y-55394500D01*
X131368066Y-55394500D01*
X131206934Y-55394500D01*
X131206929Y-55394500D01*
X131048905Y-55425933D01*
X131048897Y-55425935D01*
X130900033Y-55487596D01*
X130766052Y-55577119D01*
X130652119Y-55691052D01*
X130562596Y-55825033D01*
X130500935Y-55973897D01*
X130500933Y-55973905D01*
X130469500Y-56131929D01*
X74000500Y-56131929D01*
X74000500Y-54054429D01*
X130057000Y-54054429D01*
X130057000Y-54215570D01*
X130088433Y-54373594D01*
X130088435Y-54373602D01*
X130150096Y-54522466D01*
X130239619Y-54656447D01*
X130353552Y-54770380D01*
X130487533Y-54859903D01*
X130561965Y-54890733D01*
X130636398Y-54921565D01*
X130794429Y-54952999D01*
X130794433Y-54953000D01*
X130794434Y-54953000D01*
X130955567Y-54953000D01*
X130955568Y-54952999D01*
X131113602Y-54921565D01*
X131262468Y-54859902D01*
X131396445Y-54770382D01*
X131510382Y-54656445D01*
X131599902Y-54522468D01*
X131661565Y-54373602D01*
X131693000Y-54215566D01*
X131693000Y-54054434D01*
X131661565Y-53896398D01*
X131630733Y-53821965D01*
X131599903Y-53747533D01*
X131510380Y-53613552D01*
X131396447Y-53499619D01*
X131262466Y-53410096D01*
X131113602Y-53348435D01*
X131113594Y-53348433D01*
X130955570Y-53317000D01*
X130955566Y-53317000D01*
X130794434Y-53317000D01*
X130794429Y-53317000D01*
X130636405Y-53348433D01*
X130636397Y-53348435D01*
X130487533Y-53410096D01*
X130353552Y-53499619D01*
X130239619Y-53613552D01*
X130150096Y-53747533D01*
X130088435Y-53896397D01*
X130088433Y-53896405D01*
X130057000Y-54054429D01*
X74000500Y-54054429D01*
X74000500Y-52319429D01*
X134282000Y-52319429D01*
X134282000Y-52480570D01*
X134313433Y-52638594D01*
X134313435Y-52638602D01*
X134375096Y-52787466D01*
X134464619Y-52921447D01*
X134578552Y-53035380D01*
X134712533Y-53124903D01*
X134786965Y-53155733D01*
X134861398Y-53186565D01*
X135019429Y-53217999D01*
X135019433Y-53218000D01*
X135019434Y-53218000D01*
X135180567Y-53218000D01*
X135180568Y-53217999D01*
X135338602Y-53186565D01*
X135487468Y-53124902D01*
X135621445Y-53035382D01*
X135735382Y-52921445D01*
X135824902Y-52787468D01*
X135886565Y-52638602D01*
X135918000Y-52480566D01*
X135918000Y-52319434D01*
X135886565Y-52161398D01*
X135855733Y-52086965D01*
X135824903Y-52012533D01*
X135735380Y-51878552D01*
X135621447Y-51764619D01*
X135487466Y-51675096D01*
X135338602Y-51613435D01*
X135338594Y-51613433D01*
X135180570Y-51582000D01*
X135180566Y-51582000D01*
X135019434Y-51582000D01*
X135019429Y-51582000D01*
X134861405Y-51613433D01*
X134861397Y-51613435D01*
X134712533Y-51675096D01*
X134578552Y-51764619D01*
X134464619Y-51878552D01*
X134375096Y-52012533D01*
X134313435Y-52161397D01*
X134313433Y-52161405D01*
X134282000Y-52319429D01*
X74000500Y-52319429D01*
X74000500Y-48868872D01*
X80459500Y-48868872D01*
X80459500Y-49131127D01*
X80480232Y-49288594D01*
X80493730Y-49391116D01*
X80547109Y-49590330D01*
X80561602Y-49644418D01*
X80561605Y-49644428D01*
X80661953Y-49886690D01*
X80661958Y-49886700D01*
X80793075Y-50113803D01*
X80952718Y-50321851D01*
X80952726Y-50321860D01*
X81138140Y-50507274D01*
X81138148Y-50507281D01*
X81346196Y-50666924D01*
X81573299Y-50798041D01*
X81573309Y-50798046D01*
X81716096Y-50857190D01*
X81815581Y-50898398D01*
X82068884Y-50966270D01*
X82317188Y-50998960D01*
X82325074Y-50999999D01*
X82328880Y-51000500D01*
X82328887Y-51000500D01*
X82591113Y-51000500D01*
X82591120Y-51000500D01*
X82851116Y-50966270D01*
X83104419Y-50898398D01*
X83346697Y-50798043D01*
X83573803Y-50666924D01*
X83781851Y-50507282D01*
X83781855Y-50507277D01*
X83781860Y-50507274D01*
X83967274Y-50321860D01*
X83967277Y-50321855D01*
X83967282Y-50321851D01*
X84126924Y-50113803D01*
X84258043Y-49886697D01*
X84358398Y-49644419D01*
X84426270Y-49391116D01*
X84460500Y-49131120D01*
X84460500Y-48868880D01*
X84426270Y-48608884D01*
X84358398Y-48355581D01*
X84307209Y-48232000D01*
X84258046Y-48113309D01*
X84258041Y-48113299D01*
X84126924Y-47886196D01*
X83967281Y-47678148D01*
X83967274Y-47678140D01*
X83781860Y-47492726D01*
X83781851Y-47492718D01*
X83728989Y-47452155D01*
X85540000Y-47452155D01*
X85540000Y-48750000D01*
X86820936Y-48750000D01*
X86809207Y-48778316D01*
X86780000Y-48925147D01*
X86780000Y-49074853D01*
X86809207Y-49221684D01*
X86820936Y-49250000D01*
X85540000Y-49250000D01*
X85540000Y-50547844D01*
X85546401Y-50607372D01*
X85546403Y-50607379D01*
X85596645Y-50742086D01*
X85596649Y-50742093D01*
X85682809Y-50857187D01*
X85682812Y-50857190D01*
X85797906Y-50943350D01*
X85797913Y-50943354D01*
X85932620Y-50993596D01*
X85932627Y-50993598D01*
X85992155Y-50999999D01*
X85992172Y-51000000D01*
X87290000Y-51000000D01*
X87290000Y-49719064D01*
X87318316Y-49730793D01*
X87465147Y-49760000D01*
X87614853Y-49760000D01*
X87761684Y-49730793D01*
X87790000Y-49719064D01*
X87790000Y-51000000D01*
X89087828Y-51000000D01*
X89087844Y-50999999D01*
X89147372Y-50993598D01*
X89147379Y-50993596D01*
X89282086Y-50943354D01*
X89282093Y-50943350D01*
X89397187Y-50857190D01*
X89397190Y-50857187D01*
X89483350Y-50742093D01*
X89483354Y-50742086D01*
X89533596Y-50607379D01*
X89533598Y-50607372D01*
X89539999Y-50547844D01*
X89540000Y-50547827D01*
X89540000Y-49250000D01*
X88259064Y-49250000D01*
X88270793Y-49221684D01*
X88300000Y-49074853D01*
X88300000Y-48925147D01*
X88270793Y-48778316D01*
X88259064Y-48750000D01*
X89540000Y-48750000D01*
X89540000Y-47852155D01*
X95125000Y-47852155D01*
X95125000Y-48500000D01*
X96041988Y-48500000D01*
X96009075Y-48557007D01*
X95975000Y-48684174D01*
X95975000Y-48815826D01*
X96009075Y-48942993D01*
X96041988Y-49000000D01*
X95125000Y-49000000D01*
X95125000Y-49647844D01*
X95131401Y-49707372D01*
X95131403Y-49707379D01*
X95181645Y-49842086D01*
X95181649Y-49842093D01*
X95267809Y-49957187D01*
X95267812Y-49957190D01*
X95382906Y-50043350D01*
X95382913Y-50043354D01*
X95517620Y-50093596D01*
X95517627Y-50093598D01*
X95577155Y-50099999D01*
X95577172Y-50100000D01*
X96225000Y-50100000D01*
X96225000Y-49183012D01*
X96282007Y-49215925D01*
X96409174Y-49250000D01*
X96540826Y-49250000D01*
X96667993Y-49215925D01*
X96725000Y-49183012D01*
X96725000Y-50100000D01*
X97372828Y-50100000D01*
X97372844Y-50099999D01*
X97432372Y-50093598D01*
X97432379Y-50093596D01*
X97567086Y-50043354D01*
X97567093Y-50043350D01*
X97682187Y-49957190D01*
X97682190Y-49957187D01*
X97768350Y-49842093D01*
X97768354Y-49842086D01*
X97817422Y-49710529D01*
X97859293Y-49654595D01*
X97924757Y-49630178D01*
X97993030Y-49645030D01*
X98021285Y-49666181D01*
X98135213Y-49780109D01*
X98307179Y-49905048D01*
X98307181Y-49905049D01*
X98307184Y-49905051D01*
X98496588Y-50001557D01*
X98698757Y-50067246D01*
X98908713Y-50100500D01*
X98908714Y-50100500D01*
X99121286Y-50100500D01*
X99121287Y-50100500D01*
X99331243Y-50067246D01*
X99533412Y-50001557D01*
X99722816Y-49905051D01*
X99809471Y-49842093D01*
X99894786Y-49780109D01*
X99894788Y-49780106D01*
X99894792Y-49780104D01*
X100045104Y-49629792D01*
X100045106Y-49629788D01*
X100045109Y-49629786D01*
X100170048Y-49457820D01*
X100170047Y-49457820D01*
X100170051Y-49457816D01*
X100266557Y-49268412D01*
X100332246Y-49066243D01*
X100347580Y-48969429D01*
X108482000Y-48969429D01*
X108482000Y-49130570D01*
X108513433Y-49288594D01*
X108513435Y-49288602D01*
X108575096Y-49437466D01*
X108664619Y-49571447D01*
X108778552Y-49685380D01*
X108912533Y-49774903D01*
X108986965Y-49805733D01*
X109061398Y-49836565D01*
X109219429Y-49867999D01*
X109219433Y-49868000D01*
X109219434Y-49868000D01*
X109380567Y-49868000D01*
X109380568Y-49867999D01*
X109538602Y-49836565D01*
X109665666Y-49783932D01*
X109687466Y-49774903D01*
X109687466Y-49774902D01*
X109687468Y-49774902D01*
X109821445Y-49685382D01*
X109935382Y-49571445D01*
X110024902Y-49437468D01*
X110086565Y-49288602D01*
X110118000Y-49130566D01*
X110118000Y-48969434D01*
X110086565Y-48811398D01*
X110033867Y-48684174D01*
X110024903Y-48662533D01*
X109935380Y-48528552D01*
X109821447Y-48414619D01*
X109687466Y-48325096D01*
X109538602Y-48263435D01*
X109538594Y-48263433D01*
X109380570Y-48232000D01*
X109380566Y-48232000D01*
X109219434Y-48232000D01*
X109219429Y-48232000D01*
X109061405Y-48263433D01*
X109061397Y-48263435D01*
X108912533Y-48325096D01*
X108778552Y-48414619D01*
X108664619Y-48528552D01*
X108575096Y-48662533D01*
X108513435Y-48811397D01*
X108513433Y-48811405D01*
X108482000Y-48969429D01*
X100347580Y-48969429D01*
X100365500Y-48856287D01*
X100365500Y-48643713D01*
X100332246Y-48433757D01*
X100266557Y-48231588D01*
X100170051Y-48042184D01*
X100170049Y-48042181D01*
X100170048Y-48042179D01*
X100045109Y-47870213D01*
X99894786Y-47719890D01*
X99722820Y-47594951D01*
X99533414Y-47498444D01*
X99533413Y-47498443D01*
X99533412Y-47498443D01*
X99331243Y-47432754D01*
X99331241Y-47432753D01*
X99331240Y-47432753D01*
X99169957Y-47407208D01*
X99121287Y-47399500D01*
X98908713Y-47399500D01*
X98860042Y-47407208D01*
X98698760Y-47432753D01*
X98496585Y-47498444D01*
X98307179Y-47594951D01*
X98135215Y-47719889D01*
X98021285Y-47833819D01*
X97959962Y-47867303D01*
X97890270Y-47862319D01*
X97834337Y-47820447D01*
X97817422Y-47789470D01*
X97768354Y-47657913D01*
X97768350Y-47657906D01*
X97682190Y-47542812D01*
X97682187Y-47542809D01*
X97567093Y-47456649D01*
X97567086Y-47456645D01*
X97432379Y-47406403D01*
X97432372Y-47406401D01*
X97372844Y-47400000D01*
X96725000Y-47400000D01*
X96725000Y-48316988D01*
X96667993Y-48284075D01*
X96540826Y-48250000D01*
X96409174Y-48250000D01*
X96282007Y-48284075D01*
X96225000Y-48316988D01*
X96225000Y-47400000D01*
X95577155Y-47400000D01*
X95517627Y-47406401D01*
X95517620Y-47406403D01*
X95382913Y-47456645D01*
X95382906Y-47456649D01*
X95267812Y-47542809D01*
X95267809Y-47542812D01*
X95181649Y-47657906D01*
X95181645Y-47657913D01*
X95131403Y-47792620D01*
X95131401Y-47792627D01*
X95125000Y-47852155D01*
X89540000Y-47852155D01*
X89540000Y-47452172D01*
X89539999Y-47452155D01*
X89533598Y-47392627D01*
X89533596Y-47392620D01*
X89483354Y-47257913D01*
X89483350Y-47257906D01*
X89397190Y-47142812D01*
X89397187Y-47142809D01*
X89282093Y-47056649D01*
X89282086Y-47056645D01*
X89147379Y-47006403D01*
X89147372Y-47006401D01*
X89087844Y-47000000D01*
X87790000Y-47000000D01*
X87790000Y-48280935D01*
X87761684Y-48269207D01*
X87614853Y-48240000D01*
X87465147Y-48240000D01*
X87318316Y-48269207D01*
X87290000Y-48280935D01*
X87290000Y-47000000D01*
X85992155Y-47000000D01*
X85932627Y-47006401D01*
X85932620Y-47006403D01*
X85797913Y-47056645D01*
X85797906Y-47056649D01*
X85682812Y-47142809D01*
X85682809Y-47142812D01*
X85596649Y-47257906D01*
X85596645Y-47257913D01*
X85546403Y-47392620D01*
X85546401Y-47392627D01*
X85540000Y-47452155D01*
X83728989Y-47452155D01*
X83573803Y-47333075D01*
X83346700Y-47201958D01*
X83346690Y-47201953D01*
X83104428Y-47101605D01*
X83104421Y-47101603D01*
X83104419Y-47101602D01*
X82851116Y-47033730D01*
X82793339Y-47026123D01*
X82591127Y-46999500D01*
X82591120Y-46999500D01*
X82328880Y-46999500D01*
X82328872Y-46999500D01*
X82097772Y-47029926D01*
X82068884Y-47033730D01*
X81983364Y-47056645D01*
X81815581Y-47101602D01*
X81815571Y-47101605D01*
X81573309Y-47201953D01*
X81573299Y-47201958D01*
X81346196Y-47333075D01*
X81138148Y-47492718D01*
X80952718Y-47678148D01*
X80793075Y-47886196D01*
X80661958Y-48113299D01*
X80661953Y-48113309D01*
X80561605Y-48355571D01*
X80561602Y-48355581D01*
X80507631Y-48557007D01*
X80493730Y-48608885D01*
X80459500Y-48868872D01*
X74000500Y-48868872D01*
X74000500Y-45624500D01*
X74020185Y-45557461D01*
X74072989Y-45511706D01*
X74124500Y-45500500D01*
X114876000Y-45500500D01*
X114943039Y-45520185D01*
G37*
%TD.AperFunction*%
%TD*%
M02*
