%TF.GenerationSoftware,KiCad,Pcbnew,9.0.2*%
%TF.CreationDate,2026-03-14T11:02:16+00:00*%
%TF.ProjectId,AI_ASSISTANT,41495f41-5353-4495-9354-414e542e6b69,rev?*%
%TF.SameCoordinates,Original*%
%TF.FileFunction,Soldermask,Top*%
%TF.FilePolarity,Negative*%
%FSLAX46Y46*%
G04 Gerber Fmt 4.6, Leading zero omitted, Abs format (unit mm)*
G04 Created by KiCad (PCBNEW 9.0.2) date 2026-03-14 11:02:16*
%MOMM*%
%LPD*%
G01*
G04 APERTURE LIST*
G04 Aperture macros list*
%AMRoundRect*
0 Rectangle with rounded corners*
0 $1 Rounding radius*
0 $2 $3 $4 $5 $6 $7 $8 $9 X,Y pos of 4 corners*
0 Add a 4 corners polygon primitive as box body*
4,1,4,$2,$3,$4,$5,$6,$7,$8,$9,$2,$3,0*
0 Add four circle primitives for the rounded corners*
1,1,$1+$1,$2,$3*
1,1,$1+$1,$4,$5*
1,1,$1+$1,$6,$7*
1,1,$1+$1,$8,$9*
0 Add four rect primitives between the rounded corners*
20,1,$1+$1,$2,$3,$4,$5,0*
20,1,$1+$1,$4,$5,$6,$7,0*
20,1,$1+$1,$6,$7,$8,$9,0*
20,1,$1+$1,$8,$9,$2,$3,0*%
G04 Aperture macros list end*
%ADD10C,0.010000*%
%ADD11RoundRect,0.250000X0.650000X-0.412500X0.650000X0.412500X-0.650000X0.412500X-0.650000X-0.412500X0*%
%ADD12RoundRect,0.102000X-0.750000X-0.450000X0.750000X-0.450000X0.750000X0.450000X-0.750000X0.450000X0*%
%ADD13RoundRect,0.102000X-0.450000X-0.750000X0.450000X-0.750000X0.450000X0.750000X-0.450000X0.750000X0*%
%ADD14RoundRect,0.102000X-0.450000X-0.450000X0.450000X-0.450000X0.450000X0.450000X-0.450000X0.450000X0*%
%ADD15RoundRect,0.250000X0.400000X0.625000X-0.400000X0.625000X-0.400000X-0.625000X0.400000X-0.625000X0*%
%ADD16C,1.700000*%
%ADD17R,1.700000X1.700000*%
%ADD18RoundRect,0.250000X0.625000X-0.400000X0.625000X0.400000X-0.625000X0.400000X-0.625000X-0.400000X0*%
%ADD19C,0.700000*%
%ADD20RoundRect,0.102000X-0.750000X0.750000X-0.750000X-0.750000X0.750000X-0.750000X0.750000X0.750000X0*%
%ADD21RoundRect,0.250000X-0.650000X0.412500X-0.650000X-0.412500X0.650000X-0.412500X0.650000X0.412500X0*%
%ADD22R,2.286000X0.558800*%
%ADD23RoundRect,0.100500X0.301500X-0.951500X0.301500X0.951500X-0.301500X0.951500X-0.301500X-0.951500X0*%
%ADD24RoundRect,0.250000X-0.412500X-0.650000X0.412500X-0.650000X0.412500X0.650000X-0.412500X0.650000X0*%
%ADD25RoundRect,0.250000X-0.625000X0.400000X-0.625000X-0.400000X0.625000X-0.400000X0.625000X0.400000X0*%
%ADD26RoundRect,0.250000X0.412500X0.650000X-0.412500X0.650000X-0.412500X-0.650000X0.412500X-0.650000X0*%
%ADD27RoundRect,0.150000X-0.825000X-0.150000X0.825000X-0.150000X0.825000X0.150000X-0.825000X0.150000X0*%
%ADD28RoundRect,0.250000X-0.400000X-0.625000X0.400000X-0.625000X0.400000X0.625000X-0.400000X0.625000X0*%
%ADD29RoundRect,0.249999X-0.850001X0.850001X-0.850001X-0.850001X0.850001X-0.850001X0.850001X0.850001X0*%
%ADD30C,2.200000*%
%ADD31RoundRect,0.250001X0.462499X0.624999X-0.462499X0.624999X-0.462499X-0.624999X0.462499X-0.624999X0*%
%ADD32RoundRect,0.250001X-0.624999X0.462499X-0.624999X-0.462499X0.624999X-0.462499X0.624999X0.462499X0*%
%ADD33R,1.358900X0.406400*%
%ADD34RoundRect,0.250001X0.624999X-0.462499X0.624999X0.462499X-0.624999X0.462499X-0.624999X-0.462499X0*%
%ADD35RoundRect,0.102000X0.689000X-0.689000X0.689000X0.689000X-0.689000X0.689000X-0.689000X-0.689000X0*%
%ADD36C,1.582000*%
%ADD37RoundRect,0.249999X0.850001X-0.850001X0.850001X0.850001X-0.850001X0.850001X-0.850001X-0.850001X0*%
%ADD38RoundRect,0.250001X-0.462499X-0.624999X0.462499X-0.624999X0.462499X0.624999X-0.462499X0.624999X0*%
%ADD39R,3.000000X3.000000*%
%ADD40C,3.000000*%
%ADD41C,2.000000*%
%ADD42RoundRect,0.150000X0.150000X-0.825000X0.150000X0.825000X-0.150000X0.825000X-0.150000X-0.825000X0*%
G04 APERTURE END LIST*
D10*
%TO.C,J3*%
X81625000Y-89150000D02*
X80375000Y-89150000D01*
X80375000Y-88450000D01*
X81625000Y-88450000D01*
X81625000Y-89150000D01*
G36*
X81625000Y-89150000D02*
G01*
X80375000Y-89150000D01*
X80375000Y-88450000D01*
X81625000Y-88450000D01*
X81625000Y-89150000D01*
G37*
X81625000Y-89950000D02*
X80375000Y-89950000D01*
X80375000Y-89250000D01*
X81625000Y-89250000D01*
X81625000Y-89950000D01*
G36*
X81625000Y-89950000D02*
G01*
X80375000Y-89950000D01*
X80375000Y-89250000D01*
X81625000Y-89250000D01*
X81625000Y-89950000D01*
G37*
X81625000Y-90450000D02*
X80375000Y-90450000D01*
X80375000Y-90050000D01*
X81625000Y-90050000D01*
X81625000Y-90450000D01*
G36*
X81625000Y-90450000D02*
G01*
X80375000Y-90450000D01*
X80375000Y-90050000D01*
X81625000Y-90050000D01*
X81625000Y-90450000D01*
G37*
X81625000Y-90950000D02*
X80375000Y-90950000D01*
X80375000Y-90550000D01*
X81625000Y-90550000D01*
X81625000Y-90950000D01*
G36*
X81625000Y-90950000D02*
G01*
X80375000Y-90950000D01*
X80375000Y-90550000D01*
X81625000Y-90550000D01*
X81625000Y-90950000D01*
G37*
X81625000Y-91450000D02*
X80375000Y-91450000D01*
X80375000Y-91050000D01*
X81625000Y-91050000D01*
X81625000Y-91450000D01*
G36*
X81625000Y-91450000D02*
G01*
X80375000Y-91450000D01*
X80375000Y-91050000D01*
X81625000Y-91050000D01*
X81625000Y-91450000D01*
G37*
X81625000Y-91950000D02*
X80375000Y-91950000D01*
X80375000Y-91550000D01*
X81625000Y-91550000D01*
X81625000Y-91950000D01*
G36*
X81625000Y-91950000D02*
G01*
X80375000Y-91950000D01*
X80375000Y-91550000D01*
X81625000Y-91550000D01*
X81625000Y-91950000D01*
G37*
X81625000Y-92450000D02*
X80375000Y-92450000D01*
X80375000Y-92050000D01*
X81625000Y-92050000D01*
X81625000Y-92450000D01*
G36*
X81625000Y-92450000D02*
G01*
X80375000Y-92450000D01*
X80375000Y-92050000D01*
X81625000Y-92050000D01*
X81625000Y-92450000D01*
G37*
X81625000Y-92950000D02*
X80375000Y-92950000D01*
X80375000Y-92550000D01*
X81625000Y-92550000D01*
X81625000Y-92950000D01*
G36*
X81625000Y-92950000D02*
G01*
X80375000Y-92950000D01*
X80375000Y-92550000D01*
X81625000Y-92550000D01*
X81625000Y-92950000D01*
G37*
X81625000Y-93450000D02*
X80375000Y-93450000D01*
X80375000Y-93050000D01*
X81625000Y-93050000D01*
X81625000Y-93450000D01*
G36*
X81625000Y-93450000D02*
G01*
X80375000Y-93450000D01*
X80375000Y-93050000D01*
X81625000Y-93050000D01*
X81625000Y-93450000D01*
G37*
X81625000Y-93950000D02*
X80375000Y-93950000D01*
X80375000Y-93550000D01*
X81625000Y-93550000D01*
X81625000Y-93950000D01*
G36*
X81625000Y-93950000D02*
G01*
X80375000Y-93950000D01*
X80375000Y-93550000D01*
X81625000Y-93550000D01*
X81625000Y-93950000D01*
G37*
X81625000Y-94750000D02*
X80375000Y-94750000D01*
X80375000Y-94050000D01*
X81625000Y-94050000D01*
X81625000Y-94750000D01*
G36*
X81625000Y-94750000D02*
G01*
X80375000Y-94750000D01*
X80375000Y-94050000D01*
X81625000Y-94050000D01*
X81625000Y-94750000D01*
G37*
X81625000Y-95550000D02*
X80375000Y-95550000D01*
X80375000Y-94850000D01*
X81625000Y-94850000D01*
X81625000Y-95550000D01*
G36*
X81625000Y-95550000D02*
G01*
X80375000Y-95550000D01*
X80375000Y-94850000D01*
X81625000Y-94850000D01*
X81625000Y-95550000D01*
G37*
%TD*%
D11*
%TO.C,C14*%
X148590000Y-91605500D03*
X148590000Y-88480500D03*
%TD*%
D12*
%TO.C,U1*%
X115525000Y-52865000D03*
X115525000Y-54135000D03*
X115525000Y-55405000D03*
X115525000Y-56675000D03*
X115525000Y-57945000D03*
X115525000Y-59215000D03*
X115525000Y-60485000D03*
X115525000Y-61755000D03*
X115525000Y-63025000D03*
X115525000Y-65565000D03*
X115525000Y-66835000D03*
X115525000Y-68105000D03*
X115525000Y-69375000D03*
D13*
X117290000Y-70625000D03*
X118560000Y-70625000D03*
X119830000Y-70625000D03*
X121100000Y-70625000D03*
X122370000Y-70625000D03*
X123640000Y-70625000D03*
X124910000Y-70625000D03*
X126180000Y-70625000D03*
X127450000Y-70625000D03*
X128720000Y-70625000D03*
X129990000Y-70625000D03*
X131260000Y-70625000D03*
D12*
X133025000Y-69375000D03*
X133025000Y-68105000D03*
X133025000Y-66835000D03*
X133025000Y-65565000D03*
X133025000Y-64295000D03*
X133025000Y-63025000D03*
X133025000Y-61755000D03*
X133025000Y-60485000D03*
X133025000Y-59215000D03*
X133025000Y-57945000D03*
X133025000Y-56675000D03*
X133025000Y-55405000D03*
X133025000Y-54135000D03*
X133025000Y-52865000D03*
D14*
X122775000Y-60585000D03*
X121375000Y-60585000D03*
X124175000Y-60585000D03*
X121375000Y-61985000D03*
X122775000Y-61985000D03*
X124175000Y-61985000D03*
X121375000Y-59185000D03*
X122775000Y-59185000D03*
X124175000Y-59185000D03*
D12*
X115525000Y-64295000D03*
%TD*%
D15*
%TO.C,R1*%
X124600000Y-79050000D03*
X121500000Y-79050000D03*
%TD*%
D16*
%TO.C,J7*%
X158370000Y-105250000D03*
X148210000Y-105250000D03*
X150750000Y-105250000D03*
X153290000Y-105250000D03*
X155830000Y-105250000D03*
X160910000Y-105250000D03*
D17*
X145670000Y-105250000D03*
%TD*%
D18*
%TO.C,R10*%
X119200000Y-84450000D03*
X119200000Y-81350000D03*
%TD*%
D19*
%TO.C,J3*%
X79925000Y-89110000D03*
X79925000Y-94890000D03*
D20*
X80425000Y-86880000D03*
X80425000Y-97120000D03*
X76495000Y-86880000D03*
X76495000Y-97120000D03*
%TD*%
D15*
%TO.C,SPEAKER*%
X138300000Y-105500000D03*
X135200000Y-105500000D03*
%TD*%
D21*
%TO.C,C12*%
X94865000Y-74462500D03*
X94865000Y-77587500D03*
%TD*%
%TO.C,C17*%
X123750000Y-92187500D03*
X123750000Y-95312500D03*
%TD*%
D22*
%TO.C,U3*%
X141963800Y-95195000D03*
X141963800Y-93925000D03*
X141963800Y-92655000D03*
X141963800Y-91385000D03*
X141963800Y-90115000D03*
X141963800Y-88845000D03*
X141963800Y-87575000D03*
X141963800Y-86305000D03*
X137036200Y-86305000D03*
X137036200Y-87575000D03*
X137036200Y-88845000D03*
X137036200Y-90115000D03*
X137036200Y-91385000D03*
X137036200Y-92655000D03*
X137036200Y-93925000D03*
X137036200Y-95195000D03*
%TD*%
D15*
%TO.C,R15*%
X109550000Y-58400000D03*
X106450000Y-58400000D03*
%TD*%
D23*
%TO.C,U2*%
X149555000Y-59910000D03*
X150825000Y-59910000D03*
X152095000Y-59910000D03*
X153365000Y-59910000D03*
X153365000Y-55000000D03*
X152095000Y-55000000D03*
X150825000Y-55000000D03*
X149555000Y-55000000D03*
%TD*%
D24*
%TO.C,C11*%
X94802500Y-54025000D03*
X97927500Y-54025000D03*
%TD*%
D25*
%TO.C,R4*%
X151095000Y-67950000D03*
X151095000Y-71050000D03*
%TD*%
D21*
%TO.C,C9*%
X120500000Y-100687500D03*
X120500000Y-103812500D03*
%TD*%
%TO.C,C7*%
X112000000Y-52437500D03*
X112000000Y-55562500D03*
%TD*%
D26*
%TO.C,C15*%
X139562500Y-82500000D03*
X136437500Y-82500000D03*
%TD*%
D27*
%TO.C,U6*%
X111525000Y-81095000D03*
X111525000Y-82365000D03*
X111525000Y-83635000D03*
X111525000Y-84905000D03*
X116475000Y-84905000D03*
X116475000Y-83635000D03*
X116475000Y-82365000D03*
X116475000Y-81095000D03*
%TD*%
D28*
%TO.C,R11*%
X123450000Y-84500000D03*
X126550000Y-84500000D03*
%TD*%
D26*
%TO.C,C16*%
X132962500Y-91250000D03*
X129837500Y-91250000D03*
%TD*%
D24*
%TO.C,C8*%
X106437500Y-61400000D03*
X109562500Y-61400000D03*
%TD*%
D17*
%TO.C,J2*%
X96475000Y-48750000D03*
D16*
X99015000Y-48750000D03*
%TD*%
D21*
%TO.C,C3*%
X144660000Y-64517500D03*
X144660000Y-67642500D03*
%TD*%
D29*
%TO.C,D3*%
X82320000Y-73420000D03*
D30*
X82320000Y-83580000D03*
%TD*%
D25*
%TO.C,R17*%
X99500000Y-62950000D03*
X99500000Y-66050000D03*
%TD*%
D31*
%TO.C,D6*%
X140237500Y-75250000D03*
X137262500Y-75250000D03*
%TD*%
D21*
%TO.C,C5*%
X104650000Y-52537500D03*
X104650000Y-55662500D03*
%TD*%
D28*
%TO.C,R14*%
X148200000Y-83750000D03*
X151300000Y-83750000D03*
%TD*%
D16*
%TO.C,J5*%
X99670000Y-105750000D03*
D17*
X114910000Y-105750000D03*
D16*
X112370000Y-105750000D03*
X109830000Y-105750000D03*
X107290000Y-105750000D03*
X104750000Y-105750000D03*
X102210000Y-105750000D03*
X97130000Y-105750000D03*
%TD*%
D18*
%TO.C,R12*%
X160095000Y-58050000D03*
X160095000Y-54950000D03*
%TD*%
D11*
%TO.C,C1*%
X151003000Y-91605500D03*
X151003000Y-88480500D03*
%TD*%
D21*
%TO.C,C13*%
X129500000Y-84437500D03*
X129500000Y-87562500D03*
%TD*%
D32*
%TO.C,FB2*%
X146150000Y-88562500D03*
X146150000Y-91537500D03*
%TD*%
D15*
%TO.C,R21*%
X89100000Y-91400000D03*
X86000000Y-91400000D03*
%TD*%
D16*
%TO.C,J6*%
X165000000Y-94160000D03*
D17*
X165000000Y-96700000D03*
D16*
X165000000Y-91620000D03*
X165000000Y-89080000D03*
X165000000Y-86540000D03*
X165000000Y-84000000D03*
X165000000Y-81460000D03*
X165000000Y-78920000D03*
X165000000Y-76380000D03*
X165000000Y-73840000D03*
%TD*%
D26*
%TO.C,C18*%
X123812500Y-88750000D03*
X120687500Y-88750000D03*
%TD*%
D21*
%TO.C,C6*%
X108350000Y-52487500D03*
X108350000Y-55612500D03*
%TD*%
D31*
%TO.C,D2*%
X157225000Y-83750000D03*
X154250000Y-83750000D03*
%TD*%
D15*
%TO.C,R20*%
X89100000Y-93750000D03*
X86000000Y-93750000D03*
%TD*%
D11*
%TO.C,C2*%
X146150000Y-96762500D03*
X146150000Y-93637500D03*
%TD*%
D15*
%TO.C,R8*%
X94915000Y-63025000D03*
X91815000Y-63025000D03*
%TD*%
D33*
%TO.C,U4*%
X119978850Y-95224999D03*
X119978850Y-94575001D03*
X119978850Y-93924999D03*
X119978850Y-93275001D03*
X115521150Y-93275001D03*
X115521150Y-93924999D03*
X115521150Y-94575001D03*
X115521150Y-95224999D03*
%TD*%
D15*
%TO.C,R18*%
X114737500Y-76250000D03*
X111637500Y-76250000D03*
%TD*%
D25*
%TO.C,R16*%
X85320000Y-85450000D03*
X85320000Y-88550000D03*
%TD*%
D26*
%TO.C,C4*%
X149657500Y-51000000D03*
X146532500Y-51000000D03*
%TD*%
D34*
%TO.C,D4*%
X99500000Y-72487500D03*
X99500000Y-69512500D03*
%TD*%
D18*
%TO.C,R9*%
X94865000Y-60075000D03*
X94865000Y-56975000D03*
%TD*%
D35*
%TO.C,MK2*%
X160135000Y-63500000D03*
D36*
X157595000Y-63500000D03*
%TD*%
D28*
%TO.C,R19*%
X131200000Y-75250000D03*
X134300000Y-75250000D03*
%TD*%
D25*
%TO.C,R2*%
X133250000Y-82700000D03*
X133250000Y-85800000D03*
%TD*%
D37*
%TO.C,D1*%
X82350000Y-68230000D03*
D30*
X82350000Y-58070000D03*
%TD*%
D25*
%TO.C,R22*%
X85320000Y-99950000D03*
X85320000Y-103050000D03*
%TD*%
D26*
%TO.C,C10*%
X109062500Y-84250000D03*
X105937500Y-84250000D03*
%TD*%
D38*
%TO.C,D5*%
X105762500Y-76250000D03*
X108737500Y-76250000D03*
%TD*%
D39*
%TO.C,J1*%
X87540000Y-49000000D03*
D40*
X82460000Y-49000000D03*
%TD*%
D41*
%TO.C,SW1*%
X124750000Y-100000000D03*
X131250000Y-100000000D03*
X124750000Y-104500000D03*
X131250000Y-104500000D03*
%TD*%
D28*
%TO.C,R3*%
X148045000Y-64000000D03*
X151145000Y-64000000D03*
%TD*%
D42*
%TO.C,U5*%
X91460000Y-72000000D03*
X92730000Y-72000000D03*
X94000000Y-72000000D03*
X95270000Y-72000000D03*
X95270000Y-67050000D03*
X94000000Y-67050000D03*
X92730000Y-67050000D03*
X91460000Y-67050000D03*
%TD*%
M02*
