%TF.GenerationSoftware,KiCad,Pcbnew,9.0.2*%
%TF.CreationDate,2026-03-14T11:02:16+00:00*%
%TF.ProjectId,AI_ASSISTANT,41495f41-5353-4495-9354-414e542e6b69,rev?*%
%TF.SameCoordinates,Original*%
%TF.FileFunction,Copper,L4,Bot*%
%TF.FilePolarity,Positive*%
%FSLAX46Y46*%
G04 Gerber Fmt 4.6, Leading zero omitted, Abs format (unit mm)*
G04 Created by KiCad (PCBNEW 9.0.2) date 2026-03-14 11:02:16*
%MOMM*%
%LPD*%
G01*
G04 APERTURE LIST*
G04 Aperture macros list*
%AMRoundRect*
0 Rectangle with rounded corners*
0 $1 Rounding radius*
0 $2 $3 $4 $5 $6 $7 $8 $9 X,Y pos of 4 corners*
0 Add a 4 corners polygon primitive as box body*
4,1,4,$2,$3,$4,$5,$6,$7,$8,$9,$2,$3,0*
0 Add four circle primitives for the rounded corners*
1,1,$1+$1,$2,$3*
1,1,$1+$1,$4,$5*
1,1,$1+$1,$6,$7*
1,1,$1+$1,$8,$9*
0 Add four rect primitives between the rounded corners*
20,1,$1+$1,$2,$3,$4,$5,0*
20,1,$1+$1,$4,$5,$6,$7,0*
20,1,$1+$1,$6,$7,$8,$9,0*
20,1,$1+$1,$8,$9,$2,$3,0*%
G04 Aperture macros list end*
%TA.AperFunction,ComponentPad*%
%ADD10C,0.635000*%
%TD*%
%TA.AperFunction,ComponentPad*%
%ADD11C,1.700000*%
%TD*%
%TA.AperFunction,ComponentPad*%
%ADD12R,1.700000X1.700000*%
%TD*%
%TA.AperFunction,ComponentPad*%
%ADD13RoundRect,0.249999X-0.850001X0.850001X-0.850001X-0.850001X0.850001X-0.850001X0.850001X0.850001X0*%
%TD*%
%TA.AperFunction,ComponentPad*%
%ADD14C,2.200000*%
%TD*%
%TA.AperFunction,ComponentPad*%
%ADD15R,1.378000X1.378000*%
%TD*%
%TA.AperFunction,ComponentPad*%
%ADD16C,1.378000*%
%TD*%
%TA.AperFunction,ComponentPad*%
%ADD17RoundRect,0.249999X0.850001X-0.850001X0.850001X0.850001X-0.850001X0.850001X-0.850001X-0.850001X0*%
%TD*%
%TA.AperFunction,ComponentPad*%
%ADD18R,3.000000X3.000000*%
%TD*%
%TA.AperFunction,ComponentPad*%
%ADD19C,3.000000*%
%TD*%
%TA.AperFunction,ComponentPad*%
%ADD20C,2.000000*%
%TD*%
%TA.AperFunction,ViaPad*%
%ADD21C,0.635000*%
%TD*%
%TA.AperFunction,Conductor*%
%ADD22C,0.508000*%
%TD*%
%TA.AperFunction,Conductor*%
%ADD23C,0.152400*%
%TD*%
G04 APERTURE END LIST*
D10*
%TO.P,U1,41_10*%
%TO.N,GND*%
X122775000Y-59885000D03*
%TO.P,U1,41_11*%
X121375000Y-59885000D03*
%TO.P,U1,41_12*%
X124175000Y-59885000D03*
%TO.P,U1,41_13*%
X121375000Y-61285000D03*
%TO.P,U1,41_14*%
X122775000Y-61285000D03*
%TO.P,U1,41_15*%
X124175000Y-61285000D03*
%TO.P,U1,41_16*%
X122075000Y-59185000D03*
%TO.P,U1,41_17*%
X123475000Y-59185000D03*
%TO.P,U1,41_18*%
X122075000Y-60585000D03*
%TO.P,U1,41_19*%
X123475000Y-60585000D03*
%TO.P,U1,41_21*%
X123475000Y-61985000D03*
%TO.P,U1,GND*%
X122075000Y-61985000D03*
%TD*%
D11*
%TO.P,J7,*%
%TO.N,/GPIO14*%
X158370000Y-105250000D03*
%TO.P,J7,2,Pin_2*%
%TO.N,N/C*%
X148210000Y-105250000D03*
%TO.P,J7,3,Pin_3*%
%TO.N,/GPIO16*%
X150750000Y-105250000D03*
%TO.P,J7,4,Pin_4*%
%TO.N,/GPIO15*%
X153290000Y-105250000D03*
%TO.P,J7,5,Pin_5*%
%TO.N,/GPIO13*%
X155830000Y-105250000D03*
%TO.P,J7,7,Pin_7*%
%TO.N,/GPIO21*%
X160910000Y-105250000D03*
D12*
%TO.P,J7,GND,Pin_1*%
%TO.N,N/C*%
X145670000Y-105250000D03*
%TD*%
%TO.P,J2,1,Pin_1*%
%TO.N,GND*%
X96475000Y-48750000D03*
D11*
%TO.P,J2,2,Pin_2*%
%TO.N,/BOOT*%
X99015000Y-48750000D03*
%TD*%
D13*
%TO.P,D3,1,K*%
%TO.N,VS*%
X82320000Y-73420000D03*
D14*
%TO.P,D3,2,A*%
%TO.N,Net-(D3-A)*%
X82320000Y-83580000D03*
%TD*%
D11*
%TO.P,J5,*%
%TO.N,/A5*%
X99670000Y-105750000D03*
D12*
%TO.P,J5,1,Pin_1*%
%TO.N,/A2*%
X114910000Y-105750000D03*
D11*
%TO.P,J5,2,Pin_2*%
%TO.N,/A9*%
X112370000Y-105750000D03*
%TO.P,J5,3,Pin_3*%
%TO.N,/A3*%
X109830000Y-105750000D03*
%TO.P,J5,4,Pin_4*%
%TO.N,/A8*%
X107290000Y-105750000D03*
%TO.P,J5,5,Pin_5*%
%TO.N,/A7*%
X104750000Y-105750000D03*
%TO.P,J5,6,Pin_6*%
%TO.N,/A6*%
X102210000Y-105750000D03*
%TO.P,J5,8,Pin_8*%
%TO.N,/A4*%
X97130000Y-105750000D03*
%TD*%
%TO.P,J6,*%
%TO.N,/GPIO36*%
X165000000Y-94160000D03*
D12*
%TO.P,J6,1,Pin_1*%
%TO.N,/GPIO35*%
X165000000Y-96700000D03*
D11*
%TO.P,J6,3,Pin_3*%
%TO.N,/GPIO37*%
X165000000Y-91620000D03*
%TO.P,J6,4,Pin_4*%
%TO.N,/GPIO38*%
X165000000Y-89080000D03*
%TO.P,J6,5,Pin_5*%
%TO.N,/GPIO39*%
X165000000Y-86540000D03*
%TO.P,J6,6,Pin_6*%
%TO.N,/GPIO40*%
X165000000Y-84000000D03*
%TO.P,J6,7,Pin_7*%
%TO.N,/GPIO41*%
X165000000Y-81460000D03*
%TO.P,J6,8,Pin_8*%
%TO.N,/GPIO42*%
X165000000Y-78920000D03*
%TO.P,J6,9,Pin_9*%
%TO.N,/RX*%
X165000000Y-76380000D03*
%TO.P,J6,10,Pin_10*%
%TO.N,/TX*%
X165000000Y-73840000D03*
%TD*%
D15*
%TO.P,MK2,1*%
%TO.N,Net-(MK2-Pad1)*%
X160135000Y-63500000D03*
D16*
%TO.P,MK2,2*%
%TO.N,Net-(MK2-Pad2)*%
X157595000Y-63500000D03*
%TD*%
D17*
%TO.P,D1,1,K*%
%TO.N,VS*%
X82350000Y-68230000D03*
D14*
%TO.P,D1,2,A*%
%TO.N,Net-(D1-A)*%
X82350000Y-58070000D03*
%TD*%
D18*
%TO.P,J1,1,Pin_1*%
%TO.N,GND*%
X87540000Y-49000000D03*
D19*
%TO.P,J1,2,Pin_2*%
%TO.N,Net-(D1-A)*%
X82460000Y-49000000D03*
%TD*%
D20*
%TO.P,SW1,1,1*%
%TO.N,GND*%
X124750000Y-100000000D03*
X131250000Y-100000000D03*
%TO.P,SW1,2,2*%
%TO.N,Net-(U1-EN)*%
X124750000Y-104500000D03*
X131250000Y-104500000D03*
%TD*%
D21*
%TO.N,GND*%
X127400000Y-51975000D03*
X79250000Y-99250000D03*
X134525000Y-49525000D03*
X167350000Y-75075000D03*
X111525000Y-79175000D03*
X126000000Y-52050000D03*
X76075000Y-63275000D03*
X167400000Y-82000000D03*
X126075000Y-73625000D03*
X163725000Y-46800000D03*
X127225000Y-74550000D03*
X103525000Y-100850000D03*
X82000000Y-87000000D03*
X166650000Y-65500000D03*
X113875000Y-50975000D03*
X76850000Y-104000000D03*
X76225000Y-51450000D03*
X103750000Y-62750000D03*
X106050000Y-102625000D03*
X145950000Y-46225000D03*
X84925000Y-107000000D03*
X105937500Y-81750000D03*
X138750000Y-93500000D03*
X152527000Y-90170000D03*
X134250000Y-89250000D03*
X150525000Y-75700000D03*
X167475000Y-89825000D03*
X127200000Y-87562500D03*
X111125000Y-73025000D03*
X138000000Y-85350000D03*
X120800000Y-107275000D03*
X134450000Y-51025000D03*
X113925000Y-47850000D03*
X98000000Y-75250000D03*
X129575000Y-107450000D03*
X119775000Y-56175000D03*
X79250000Y-84750000D03*
X98050000Y-103450000D03*
X122950000Y-52075000D03*
X159725000Y-95550000D03*
X76300000Y-73050000D03*
X76100000Y-81175000D03*
X87000000Y-83750000D03*
X108550000Y-98325000D03*
X128950000Y-96775000D03*
X140750000Y-107475000D03*
X153800000Y-107850000D03*
X123850000Y-86650000D03*
X93000000Y-79500000D03*
X133500000Y-84250000D03*
X154600000Y-93700000D03*
X134450000Y-46550000D03*
X93025000Y-46775000D03*
X166275000Y-58325000D03*
X101000000Y-95600000D03*
X127950000Y-91250000D03*
X146000000Y-99500000D03*
X108625000Y-81300000D03*
X121650000Y-92187500D03*
X93225000Y-98550000D03*
X119525000Y-78750000D03*
X113925000Y-46375000D03*
X139750000Y-94250000D03*
X152250000Y-72750000D03*
X117400000Y-52125000D03*
X106050000Y-71500000D03*
X124575000Y-52075000D03*
X144150000Y-51000000D03*
X87500000Y-55250000D03*
X156750000Y-46250000D03*
X167475000Y-96650000D03*
X102250000Y-50500000D03*
X116000000Y-96750000D03*
X106050000Y-93850000D03*
X83250000Y-104500000D03*
X155650000Y-59900000D03*
X121400000Y-76825000D03*
X166750000Y-50325000D03*
X114000000Y-49375000D03*
X148717000Y-89916000D03*
X159725000Y-102475000D03*
X123225000Y-76425000D03*
X118850000Y-100100000D03*
X128975000Y-52025000D03*
X103500000Y-74150000D03*
X134500000Y-48050000D03*
X76500000Y-99000000D03*
X112000000Y-50250000D03*
X106100000Y-46600000D03*
X118625000Y-51925000D03*
X100925000Y-88375000D03*
X130500000Y-52025000D03*
X120025000Y-52100000D03*
X76475000Y-91025000D03*
X113650000Y-72700000D03*
X105750000Y-78650000D03*
X103475000Y-89550000D03*
X159000000Y-84500000D03*
X111125000Y-97025000D03*
X93100000Y-106675000D03*
X76500000Y-84750000D03*
X89000000Y-71500000D03*
X124225000Y-77650000D03*
X121475000Y-52025000D03*
X134700000Y-80950000D03*
X154575000Y-102725000D03*
X142550000Y-75250000D03*
X132050000Y-52075000D03*
X126850000Y-65300000D03*
X165825000Y-107275000D03*
X107000000Y-50250000D03*
X119800000Y-73950000D03*
%TO.N,+3.3V AMP*%
X126000000Y-89450000D03*
X126000000Y-91150000D03*
%TO.N,+3V3 ESP*%
X135100000Y-52400000D03*
X130875000Y-54135000D03*
%TO.N,Net-(U1-EN)*%
X109837500Y-69662500D03*
X118187500Y-59812500D03*
%TO.N,VS*%
X102050000Y-79050000D03*
X99450000Y-79047500D03*
%TO.N,/BOOT*%
X109300000Y-49050000D03*
X130250000Y-68150000D03*
%TO.N,/AMPLIFIER CIRCUIT/MUTE_IO*%
X140000000Y-90250000D03*
X117275000Y-65565000D03*
X123175000Y-75175000D03*
X126937500Y-78937500D03*
%TO.N,/AMPLIFIER CIRCUIT/SHND_IO*%
X123850000Y-74625000D03*
X125837500Y-76837500D03*
X117300000Y-64300000D03*
X131325000Y-82000000D03*
%TO.N,/GPIO14*%
X129025000Y-74025000D03*
%TO.N,/RX*%
X134527500Y-57972500D03*
%TO.N,/A4*%
X113800000Y-57450000D03*
%TO.N,/A8*%
X111700000Y-66835000D03*
%TO.N,/A2*%
X131287500Y-56212500D03*
%TO.N,/GPIO37*%
X134575000Y-65565000D03*
%TO.N,/TX*%
X134575000Y-56750000D03*
%TO.N,/AUDIO_SYNC*%
X120750000Y-73950000D03*
X120500000Y-76250000D03*
%TO.N,/GPIO21*%
X129212500Y-72812500D03*
%TO.N,/GPIO15*%
X117587500Y-61837500D03*
X127112500Y-75612500D03*
X125175000Y-73275000D03*
%TO.N,/GPIO40*%
X134600000Y-61750000D03*
%TO.N,/GPIO35*%
X134575000Y-68250000D03*
%TO.N,/A6*%
X113812500Y-59687500D03*
%TO.N,/GPIO41*%
X134575000Y-60500000D03*
%TO.N,/GPIO39*%
X134600000Y-63000000D03*
%TO.N,/A3*%
X116207500Y-71775000D03*
%TO.N,/GPIO42*%
X134575000Y-59250000D03*
%TO.N,/GPIO38*%
X134500000Y-64295000D03*
%TO.N,/A5*%
X113750000Y-58500000D03*
%TO.N,/A9*%
X119830000Y-72125000D03*
%TO.N,/A7*%
X113925000Y-60825000D03*
%TO.N,/GPIO13*%
X129012500Y-75412500D03*
%TO.N,/GPIO36*%
X134505000Y-66830000D03*
%TO.N,/GPIO16*%
X126537500Y-76287500D03*
X117475000Y-63025000D03*
X124500000Y-73975000D03*
%TD*%
D22*
%TO.N,GND*%
X126075000Y-73625000D02*
X123275000Y-76425000D01*
X127225000Y-74550000D02*
X127000000Y-74550000D01*
X124225000Y-77325000D02*
X124225000Y-77650000D01*
X123275000Y-76425000D02*
X123225000Y-76425000D01*
X126125000Y-73625000D02*
X126075000Y-73625000D01*
X127000000Y-74550000D02*
X124225000Y-77325000D01*
%TO.N,+3.3V AMP*%
X126000000Y-89500000D02*
X126000000Y-91150000D01*
X126000000Y-91150000D02*
X126000000Y-91250000D01*
%TO.N,+3V3 ESP*%
X130800000Y-54135000D02*
X130875000Y-54135000D01*
X134000000Y-53500000D02*
X135100000Y-52400000D01*
X130875000Y-54135000D02*
X131365000Y-54135000D01*
X132000000Y-53500000D02*
X134000000Y-53500000D01*
X131365000Y-54135000D02*
X132000000Y-53500000D01*
X135100000Y-52400000D02*
X135150000Y-52350000D01*
D23*
%TO.N,Net-(U1-EN)*%
X118200000Y-59800000D02*
X118187500Y-59812500D01*
X118187500Y-59812500D02*
X116750000Y-61250000D01*
X116750000Y-61250000D02*
X116750000Y-62750000D01*
X116750000Y-62750000D02*
X109875000Y-69625000D01*
D22*
%TO.N,VS*%
X99450000Y-79047500D02*
X102047500Y-79047500D01*
X102047500Y-79047500D02*
X102050000Y-79050000D01*
D23*
%TO.N,/BOOT*%
X113000000Y-52750000D02*
X109300000Y-49050000D01*
X126750000Y-52750000D02*
X113000000Y-52750000D01*
X109300000Y-49050000D02*
X109250000Y-49000000D01*
X130250000Y-68250000D02*
X130250000Y-68150000D01*
X130250000Y-68150000D02*
X130250000Y-56250000D01*
X130250000Y-56250000D02*
X126750000Y-52750000D01*
%TO.N,/AMPLIFIER CIRCUIT/MUTE_IO*%
X127000000Y-79000000D02*
X138250000Y-90250000D01*
X117275000Y-65565000D02*
X117815000Y-65565000D01*
X123175000Y-70925000D02*
X123175000Y-75150000D01*
X138250000Y-90250000D02*
X140000000Y-90250000D01*
X117250000Y-65565000D02*
X117275000Y-65565000D01*
X117815000Y-65565000D02*
X123175000Y-70925000D01*
%TO.N,/AMPLIFIER CIRCUIT/SHND_IO*%
X131000000Y-82000000D02*
X131300000Y-82000000D01*
X117305000Y-64295000D02*
X117300000Y-64300000D01*
X123850000Y-74625000D02*
X123850000Y-70000000D01*
X123850000Y-70000000D02*
X123500000Y-70000000D01*
X123800000Y-74625000D02*
X123750000Y-74575000D01*
X125837500Y-76837500D02*
X131000000Y-82000000D01*
X123500000Y-70000000D02*
X117795000Y-64295000D01*
X123850000Y-74625000D02*
X123800000Y-74625000D01*
X117795000Y-64295000D02*
X117305000Y-64295000D01*
%TO.N,/GPIO14*%
X129064607Y-74014607D02*
X132300000Y-77250000D01*
X129050000Y-74025000D02*
X129054214Y-74025000D01*
X144000000Y-77250000D02*
X158370000Y-91620000D01*
X158370000Y-91620000D02*
X158370000Y-105250000D01*
X129054214Y-74025000D02*
X129064607Y-74014607D01*
X132300000Y-77250000D02*
X144000000Y-77250000D01*
%TO.N,/RX*%
X134555000Y-58000000D02*
X146500000Y-58000000D01*
X164880000Y-76380000D02*
X165000000Y-76380000D01*
X134527500Y-57972500D02*
X134555000Y-58000000D01*
X146500000Y-58000000D02*
X164880000Y-76380000D01*
X134500000Y-57945000D02*
X134527500Y-57972500D01*
%TO.N,/A4*%
X97250000Y-105630000D02*
X97130000Y-105750000D01*
X97250000Y-74000000D02*
X97250000Y-105630000D01*
X113825000Y-57425000D02*
X113800000Y-57450000D01*
X113800000Y-57450000D02*
X97250000Y-74000000D01*
%TO.N,/A8*%
X111665000Y-66835000D02*
X107290000Y-71210000D01*
X107290000Y-71210000D02*
X107290000Y-105750000D01*
%TO.N,/A2*%
X114750000Y-86000000D02*
X114750000Y-105590000D01*
X131250000Y-69500000D02*
X114750000Y-86000000D01*
X131250000Y-56250000D02*
X131250000Y-69500000D01*
X114750000Y-105590000D02*
X114910000Y-105750000D01*
%TO.N,/GPIO37*%
X134575000Y-65565000D02*
X138945000Y-65565000D01*
X134500000Y-65565000D02*
X134575000Y-65565000D01*
X138945000Y-65565000D02*
X165000000Y-91620000D01*
%TO.N,/TX*%
X134500000Y-56750000D02*
X134575000Y-56750000D01*
X164365806Y-73840000D02*
X165000000Y-73840000D01*
X147275806Y-56750000D02*
X164365806Y-73840000D01*
X134575000Y-56750000D02*
X147275806Y-56750000D01*
%TO.N,/AUDIO_SYNC*%
X120750000Y-74000000D02*
X120750000Y-76000000D01*
X120750000Y-76000000D02*
X120500000Y-76250000D01*
%TO.N,/GPIO21*%
X133150000Y-76750000D02*
X144500000Y-76750000D01*
X144500000Y-76750000D02*
X161000000Y-93250000D01*
X161000000Y-105160000D02*
X160910000Y-105250000D01*
X129200000Y-72825000D02*
X129212500Y-72812500D01*
X161000000Y-93250000D02*
X161000000Y-105160000D01*
X129175000Y-72825000D02*
X129200000Y-72825000D01*
X129212500Y-72812500D02*
X133150000Y-76750000D01*
%TO.N,/GPIO15*%
X153290000Y-88540000D02*
X153290000Y-105250000D01*
X143750000Y-79000000D02*
X153290000Y-88540000D01*
X127000000Y-75500000D02*
X127112500Y-75612500D01*
X130500000Y-79000000D02*
X143750000Y-79000000D01*
X125175000Y-73275000D02*
X125175000Y-69425000D01*
X117587500Y-61837500D02*
X117505000Y-61755000D01*
X125175000Y-69425000D02*
X117587500Y-61837500D01*
X127112500Y-75612500D02*
X130500000Y-79000000D01*
X125200000Y-73300000D02*
X125175000Y-73275000D01*
%TO.N,/GPIO40*%
X134600000Y-61750000D02*
X137922000Y-61750000D01*
X134505000Y-61750000D02*
X134600000Y-61750000D01*
X134500000Y-61755000D02*
X134505000Y-61750000D01*
X142750000Y-61750000D02*
X165000000Y-84000000D01*
X137922000Y-61750000D02*
X142750000Y-61750000D01*
%TO.N,/GPIO35*%
X165000000Y-96250000D02*
X165000000Y-96700000D01*
X134575000Y-68250000D02*
X137000000Y-68250000D01*
X134500000Y-68250000D02*
X134575000Y-68250000D01*
X137000000Y-68250000D02*
X165000000Y-96250000D01*
%TO.N,/A6*%
X102800000Y-105160000D02*
X102210000Y-105750000D01*
X113812500Y-59687500D02*
X102800000Y-70700000D01*
X113850000Y-59650000D02*
X113812500Y-59687500D01*
X102800000Y-70700000D02*
X102800000Y-105160000D01*
%TO.N,/GPIO41*%
X134515000Y-60500000D02*
X134575000Y-60500000D01*
X134575000Y-60500000D02*
X144040000Y-60500000D01*
X134500000Y-60485000D02*
X134515000Y-60500000D01*
X144040000Y-60500000D02*
X165000000Y-81460000D01*
%TO.N,/GPIO39*%
X134600000Y-63000000D02*
X141460000Y-63000000D01*
X134525000Y-63000000D02*
X134600000Y-63000000D01*
X141460000Y-63000000D02*
X165000000Y-86540000D01*
X134500000Y-63025000D02*
X134525000Y-63000000D01*
%TO.N,/A3*%
X109830000Y-78170000D02*
X116207500Y-71792500D01*
X109830000Y-105750000D02*
X109830000Y-78170000D01*
X116207500Y-71775000D02*
X116207500Y-71707500D01*
X116207500Y-71792500D02*
X116207500Y-71775000D01*
%TO.N,/GPIO42*%
X134575000Y-59250000D02*
X145500000Y-59250000D01*
X134535000Y-59250000D02*
X134575000Y-59250000D01*
X145500000Y-59250000D02*
X165000000Y-78750000D01*
X134500000Y-59215000D02*
X134535000Y-59250000D01*
X165000000Y-78750000D02*
X165000000Y-78920000D01*
%TO.N,/GPIO38*%
X134545000Y-64250000D02*
X140170000Y-64250000D01*
X134500000Y-64295000D02*
X134545000Y-64250000D01*
X140170000Y-64250000D02*
X165000000Y-89080000D01*
%TO.N,/A5*%
X98650000Y-73600000D02*
X98650000Y-104730000D01*
X113825000Y-58425000D02*
X113750000Y-58500000D01*
X113750000Y-58500000D02*
X98650000Y-73600000D01*
X98650000Y-104730000D02*
X99670000Y-105750000D01*
%TO.N,/A9*%
X112370000Y-79630000D02*
X112370000Y-105750000D01*
X119830000Y-72170000D02*
X112370000Y-79630000D01*
%TO.N,/A7*%
X113875000Y-60875000D02*
X104750000Y-70000000D01*
X104750000Y-70000000D02*
X104750000Y-105750000D01*
%TO.N,/GPIO13*%
X129012500Y-75412500D02*
X131350000Y-77750000D01*
X131350000Y-77750000D02*
X143250000Y-77750000D01*
X143250000Y-77750000D02*
X155830000Y-90330000D01*
X155830000Y-90330000D02*
X155830000Y-105250000D01*
%TO.N,/GPIO36*%
X137590000Y-66750000D02*
X165000000Y-94160000D01*
X134500000Y-66835000D02*
X134505000Y-66830000D01*
X134585000Y-66750000D02*
X137590000Y-66750000D01*
X134505000Y-66830000D02*
X134585000Y-66750000D01*
%TO.N,/GPIO16*%
X126375000Y-76125000D02*
X126537500Y-76287500D01*
X117400000Y-63025000D02*
X117475000Y-63025000D01*
X150750000Y-87750000D02*
X150750000Y-105250000D01*
X130000000Y-79750000D02*
X142750000Y-79750000D01*
X126537500Y-76287500D02*
X130000000Y-79750000D01*
X124500000Y-69750000D02*
X124500000Y-73975000D01*
X117775000Y-63025000D02*
X124500000Y-69750000D01*
X117475000Y-63025000D02*
X117775000Y-63025000D01*
X142750000Y-79750000D02*
X150750000Y-87750000D01*
%TD*%
%TA.AperFunction,Conductor*%
%TO.N,GND*%
G36*
X114943039Y-45520185D02*
G01*
X114988794Y-45572989D01*
X115000000Y-45624500D01*
X115000000Y-51482033D01*
X115022338Y-51522942D01*
X115017354Y-51592634D01*
X114975482Y-51648567D01*
X114910018Y-51672984D01*
X114901172Y-51673300D01*
X113497346Y-51673300D01*
X113430307Y-51653615D01*
X113409665Y-51636981D01*
X110627491Y-48854807D01*
X110594006Y-48793484D01*
X110592699Y-48786524D01*
X110591127Y-48776605D01*
X110585547Y-48741367D01*
X110521439Y-48544063D01*
X110427255Y-48359217D01*
X110305314Y-48191380D01*
X110158620Y-48044686D01*
X109990783Y-47922745D01*
X109805941Y-47828562D01*
X109608633Y-47764452D01*
X109403734Y-47732000D01*
X109403729Y-47732000D01*
X109196271Y-47732000D01*
X109196266Y-47732000D01*
X108991366Y-47764452D01*
X108794058Y-47828562D01*
X108609216Y-47922745D01*
X108513459Y-47992317D01*
X108441380Y-48044686D01*
X108441378Y-48044688D01*
X108441377Y-48044688D01*
X108294688Y-48191377D01*
X108294688Y-48191378D01*
X108294686Y-48191380D01*
X108242317Y-48263459D01*
X108172745Y-48359216D01*
X108078562Y-48544058D01*
X108014452Y-48741366D01*
X107982000Y-48946265D01*
X107982000Y-49153734D01*
X108014452Y-49358633D01*
X108078562Y-49555941D01*
X108148560Y-49693317D01*
X108172745Y-49740783D01*
X108294686Y-49908620D01*
X108441380Y-50055314D01*
X108609217Y-50177255D01*
X108794063Y-50271439D01*
X108991367Y-50335547D01*
X109022481Y-50340474D01*
X109036524Y-50342699D01*
X109099658Y-50372628D01*
X109104807Y-50377491D01*
X112298578Y-53571262D01*
X112298583Y-53571266D01*
X112300787Y-53572867D01*
X112435686Y-53670876D01*
X112586690Y-53747817D01*
X112586694Y-53747819D01*
X112728094Y-53793762D01*
X112737612Y-53796854D01*
X112747872Y-53800188D01*
X112915262Y-53826700D01*
X126252654Y-53826700D01*
X126319693Y-53846385D01*
X126340335Y-53863019D01*
X129136981Y-56659664D01*
X129170466Y-56720987D01*
X129173300Y-56747345D01*
X129173300Y-67349344D01*
X129153615Y-67416383D01*
X129149618Y-67422230D01*
X129122745Y-67459216D01*
X129028562Y-67644058D01*
X128964452Y-67841366D01*
X128932000Y-68046265D01*
X128932000Y-68253734D01*
X128964452Y-68458633D01*
X129028562Y-68655941D01*
X129122745Y-68840783D01*
X129244686Y-69008620D01*
X129391380Y-69155314D01*
X129559217Y-69277255D01*
X129651860Y-69324459D01*
X129666065Y-69331697D01*
X129716861Y-69379672D01*
X129733656Y-69447493D01*
X129711118Y-69513628D01*
X129697451Y-69529863D01*
X126537986Y-72689328D01*
X126516387Y-72701121D01*
X126497138Y-72716463D01*
X126486259Y-72717573D01*
X126476663Y-72722813D01*
X126452114Y-72721057D01*
X126427629Y-72723556D01*
X126417878Y-72718609D01*
X126406971Y-72717829D01*
X126387268Y-72703079D01*
X126365320Y-72691944D01*
X126356265Y-72679870D01*
X126351038Y-72675957D01*
X126343323Y-72664343D01*
X126341472Y-72661184D01*
X126302255Y-72584217D01*
X126271800Y-72542300D01*
X126268718Y-72537040D01*
X126261678Y-72508824D01*
X126251902Y-72481424D01*
X126251700Y-72474344D01*
X126251700Y-69340262D01*
X126249552Y-69326700D01*
X126225188Y-69172872D01*
X126172817Y-69011691D01*
X126172815Y-69011688D01*
X126172815Y-69011686D01*
X126095875Y-68860685D01*
X125996260Y-68723577D01*
X125876423Y-68603740D01*
X122412921Y-65140238D01*
X118914991Y-61642307D01*
X118881506Y-61580984D01*
X118880199Y-61574024D01*
X118878627Y-61564105D01*
X118873047Y-61528867D01*
X118808939Y-61331563D01*
X118721036Y-61159044D01*
X118708140Y-61090375D01*
X118734416Y-61025634D01*
X118775224Y-60992266D01*
X118878283Y-60939755D01*
X119046120Y-60817814D01*
X119192814Y-60671120D01*
X119314755Y-60503283D01*
X119408939Y-60318437D01*
X119473047Y-60121133D01*
X119478536Y-60086475D01*
X119505500Y-59916234D01*
X119505500Y-59708765D01*
X119473047Y-59503866D01*
X119408937Y-59306558D01*
X119345246Y-59181559D01*
X119314755Y-59121717D01*
X119192814Y-58953880D01*
X119046120Y-58807186D01*
X118878283Y-58685245D01*
X118693441Y-58591062D01*
X118496133Y-58526952D01*
X118291234Y-58494500D01*
X118291229Y-58494500D01*
X118083771Y-58494500D01*
X118083766Y-58494500D01*
X117878866Y-58526952D01*
X117681558Y-58591062D01*
X117496716Y-58685245D01*
X117415761Y-58744063D01*
X117328880Y-58807186D01*
X117328878Y-58807188D01*
X117328877Y-58807188D01*
X117182188Y-58953877D01*
X117182188Y-58953878D01*
X117182186Y-58953880D01*
X117156359Y-58989428D01*
X117060245Y-59121716D01*
X116966062Y-59306560D01*
X116901952Y-59503868D01*
X116894800Y-59549025D01*
X116864869Y-59612159D01*
X116860008Y-59617306D01*
X115928737Y-60548578D01*
X115928733Y-60548583D01*
X115829126Y-60685682D01*
X115751735Y-60837567D01*
X115750675Y-60841329D01*
X115699812Y-60997867D01*
X115699812Y-60997870D01*
X115673300Y-61165262D01*
X115673300Y-62252653D01*
X115653615Y-62319692D01*
X115636981Y-62340334D01*
X112374188Y-65603126D01*
X112312865Y-65636611D01*
X112243173Y-65631627D01*
X112230214Y-65625931D01*
X112205937Y-65613561D01*
X112157549Y-65597839D01*
X112008633Y-65549452D01*
X111803734Y-65517000D01*
X111803729Y-65517000D01*
X111596271Y-65517000D01*
X111596266Y-65517000D01*
X111391366Y-65549452D01*
X111194058Y-65613562D01*
X111009216Y-65707745D01*
X110913459Y-65777317D01*
X110841380Y-65829686D01*
X110841378Y-65829688D01*
X110841377Y-65829688D01*
X110694688Y-65976377D01*
X110694688Y-65976378D01*
X110694686Y-65976380D01*
X110642317Y-66048459D01*
X110572745Y-66144216D01*
X110478562Y-66329060D01*
X110414451Y-66526371D01*
X110413884Y-66529954D01*
X110383946Y-66593085D01*
X110379094Y-66598221D01*
X106468737Y-70508578D01*
X106468733Y-70508583D01*
X106369126Y-70645682D01*
X106292182Y-70796689D01*
X106292180Y-70796695D01*
X106273522Y-70854123D01*
X106273522Y-70854124D01*
X106239811Y-70957874D01*
X106213300Y-71125262D01*
X106213300Y-104182525D01*
X106212226Y-104186182D01*
X106213081Y-104189898D01*
X106202456Y-104219452D01*
X106193615Y-104249564D01*
X106190360Y-104253101D01*
X106189445Y-104255649D01*
X106164787Y-104280901D01*
X106095487Y-104334077D01*
X106030318Y-104359271D01*
X105961873Y-104345233D01*
X105944513Y-104334077D01*
X105875213Y-104280901D01*
X105834011Y-104224473D01*
X105826700Y-104182525D01*
X105826700Y-70497345D01*
X105846385Y-70430306D01*
X105863014Y-70409669D01*
X114120193Y-62152489D01*
X114181514Y-62119006D01*
X114188446Y-62117703D01*
X114233633Y-62110547D01*
X114430937Y-62046439D01*
X114615783Y-61952255D01*
X114783620Y-61830314D01*
X114930314Y-61683620D01*
X115052255Y-61515783D01*
X115146439Y-61330937D01*
X115210547Y-61133633D01*
X115230772Y-61005937D01*
X115243000Y-60928734D01*
X115243000Y-60721265D01*
X115210547Y-60516366D01*
X115146437Y-60319058D01*
X115076138Y-60181089D01*
X115063242Y-60112420D01*
X115068690Y-60086482D01*
X115098047Y-59996133D01*
X115125904Y-59820249D01*
X115130500Y-59791234D01*
X115130500Y-59583765D01*
X115098047Y-59378866D01*
X115052757Y-59239479D01*
X115033939Y-59181563D01*
X114984248Y-59084041D01*
X114971352Y-59015373D01*
X114976799Y-58989437D01*
X115035547Y-58808633D01*
X115050511Y-58714154D01*
X115068000Y-58603734D01*
X115068000Y-58396265D01*
X115038131Y-58207684D01*
X115035547Y-58191367D01*
X114999215Y-58079550D01*
X114997220Y-58009709D01*
X115006659Y-57984943D01*
X115021439Y-57955937D01*
X115085547Y-57758633D01*
X115118000Y-57553734D01*
X115118000Y-57346265D01*
X115085547Y-57141366D01*
X115038876Y-56997730D01*
X115021439Y-56944063D01*
X115021437Y-56944060D01*
X115021437Y-56944058D01*
X114927254Y-56759216D01*
X114897629Y-56718441D01*
X114805314Y-56591380D01*
X114658620Y-56444686D01*
X114490783Y-56322745D01*
X114484907Y-56319751D01*
X114305941Y-56228562D01*
X114108633Y-56164452D01*
X113903734Y-56132000D01*
X113903729Y-56132000D01*
X113696271Y-56132000D01*
X113696266Y-56132000D01*
X113491366Y-56164452D01*
X113294058Y-56228562D01*
X113109216Y-56322745D01*
X113013459Y-56392317D01*
X112941380Y-56444686D01*
X112941378Y-56444688D01*
X112941377Y-56444688D01*
X112794688Y-56591377D01*
X112794688Y-56591378D01*
X112794686Y-56591380D01*
X112754810Y-56646265D01*
X112672745Y-56759216D01*
X112578562Y-56944058D01*
X112514453Y-57141364D01*
X112507300Y-57186526D01*
X112477370Y-57249660D01*
X112472508Y-57254807D01*
X96428737Y-73298578D01*
X96428733Y-73298583D01*
X96329126Y-73435682D01*
X96252182Y-73586689D01*
X96252180Y-73586695D01*
X96234418Y-73641365D01*
X96234418Y-73641366D01*
X96199811Y-73747874D01*
X96173300Y-73915262D01*
X96173300Y-104093986D01*
X96153615Y-104161025D01*
X96111302Y-104201371D01*
X96099711Y-104208064D01*
X96099702Y-104208070D01*
X95907263Y-104355733D01*
X95907256Y-104355739D01*
X95735739Y-104527256D01*
X95735733Y-104527263D01*
X95588067Y-104719706D01*
X95588064Y-104719710D01*
X95588064Y-104719711D01*
X95586405Y-104722584D01*
X95466777Y-104929785D01*
X95466773Y-104929794D01*
X95373947Y-105153895D01*
X95311161Y-105388214D01*
X95279500Y-105628711D01*
X95279500Y-105871288D01*
X95311161Y-106111785D01*
X95373947Y-106346104D01*
X95423722Y-106466270D01*
X95466776Y-106570212D01*
X95588064Y-106780289D01*
X95588066Y-106780292D01*
X95588067Y-106780293D01*
X95735733Y-106972736D01*
X95735739Y-106972743D01*
X95907256Y-107144260D01*
X95907263Y-107144266D01*
X95920947Y-107154766D01*
X96099711Y-107291936D01*
X96309788Y-107413224D01*
X96533900Y-107506054D01*
X96768211Y-107568838D01*
X96948586Y-107592584D01*
X97008711Y-107600500D01*
X97008712Y-107600500D01*
X97251289Y-107600500D01*
X97299388Y-107594167D01*
X97491789Y-107568838D01*
X97726100Y-107506054D01*
X97950212Y-107413224D01*
X98160289Y-107291936D01*
X98324514Y-107165922D01*
X98389683Y-107140728D01*
X98458128Y-107154766D01*
X98475486Y-107165922D01*
X98639711Y-107291936D01*
X98849788Y-107413224D01*
X99073900Y-107506054D01*
X99308211Y-107568838D01*
X99488586Y-107592584D01*
X99548711Y-107600500D01*
X99548712Y-107600500D01*
X99791289Y-107600500D01*
X99839388Y-107594167D01*
X100031789Y-107568838D01*
X100266100Y-107506054D01*
X100490212Y-107413224D01*
X100700289Y-107291936D01*
X100864514Y-107165922D01*
X100929683Y-107140728D01*
X100998128Y-107154766D01*
X101015486Y-107165922D01*
X101179711Y-107291936D01*
X101389788Y-107413224D01*
X101613900Y-107506054D01*
X101848211Y-107568838D01*
X102028586Y-107592584D01*
X102088711Y-107600500D01*
X102088712Y-107600500D01*
X102331289Y-107600500D01*
X102379388Y-107594167D01*
X102571789Y-107568838D01*
X102806100Y-107506054D01*
X103030212Y-107413224D01*
X103240289Y-107291936D01*
X103404514Y-107165922D01*
X103469683Y-107140728D01*
X103538128Y-107154766D01*
X103555486Y-107165922D01*
X103719711Y-107291936D01*
X103929788Y-107413224D01*
X104153900Y-107506054D01*
X104388211Y-107568838D01*
X104568586Y-107592584D01*
X104628711Y-107600500D01*
X104628712Y-107600500D01*
X104871289Y-107600500D01*
X104919388Y-107594167D01*
X105111789Y-107568838D01*
X105346100Y-107506054D01*
X105570212Y-107413224D01*
X105780289Y-107291936D01*
X105944514Y-107165922D01*
X106009683Y-107140728D01*
X106078128Y-107154766D01*
X106095486Y-107165922D01*
X106259711Y-107291936D01*
X106469788Y-107413224D01*
X106693900Y-107506054D01*
X106928211Y-107568838D01*
X107108586Y-107592584D01*
X107168711Y-107600500D01*
X107168712Y-107600500D01*
X107411289Y-107600500D01*
X107459388Y-107594167D01*
X107651789Y-107568838D01*
X107886100Y-107506054D01*
X108110212Y-107413224D01*
X108320289Y-107291936D01*
X108484514Y-107165922D01*
X108549683Y-107140728D01*
X108618128Y-107154766D01*
X108635486Y-107165922D01*
X108799711Y-107291936D01*
X109009788Y-107413224D01*
X109233900Y-107506054D01*
X109468211Y-107568838D01*
X109648586Y-107592584D01*
X109708711Y-107600500D01*
X109708712Y-107600500D01*
X109951289Y-107600500D01*
X109999388Y-107594167D01*
X110191789Y-107568838D01*
X110426100Y-107506054D01*
X110650212Y-107413224D01*
X110860289Y-107291936D01*
X111024514Y-107165922D01*
X111089683Y-107140728D01*
X111158128Y-107154766D01*
X111175486Y-107165922D01*
X111339711Y-107291936D01*
X111549788Y-107413224D01*
X111773900Y-107506054D01*
X112008211Y-107568838D01*
X112188586Y-107592584D01*
X112248711Y-107600500D01*
X112248712Y-107600500D01*
X112491289Y-107600500D01*
X112539388Y-107594167D01*
X112731789Y-107568838D01*
X112966100Y-107506054D01*
X113190212Y-107413224D01*
X113282359Y-107360022D01*
X113350257Y-107343550D01*
X113416284Y-107366402D01*
X113422719Y-107371308D01*
X113506593Y-107439698D01*
X113686951Y-107533909D01*
X113882582Y-107589886D01*
X114001963Y-107600500D01*
X115818036Y-107600499D01*
X115937418Y-107589886D01*
X116133049Y-107533909D01*
X116313407Y-107439698D01*
X116471109Y-107311109D01*
X116599698Y-107153407D01*
X116693909Y-106973049D01*
X116749886Y-106777418D01*
X116760500Y-106658037D01*
X116760499Y-104841964D01*
X116749886Y-104722582D01*
X116693909Y-104526951D01*
X116611336Y-104368872D01*
X122749500Y-104368872D01*
X122749500Y-104631127D01*
X122776123Y-104833339D01*
X122783730Y-104891116D01*
X122851602Y-105144418D01*
X122851605Y-105144428D01*
X122951953Y-105386690D01*
X122951958Y-105386700D01*
X123083075Y-105613803D01*
X123242718Y-105821851D01*
X123242726Y-105821860D01*
X123428140Y-106007274D01*
X123428148Y-106007281D01*
X123636196Y-106166924D01*
X123863299Y-106298041D01*
X123863309Y-106298046D01*
X123979332Y-106346104D01*
X124105581Y-106398398D01*
X124358884Y-106466270D01*
X124618880Y-106500500D01*
X124618887Y-106500500D01*
X124881113Y-106500500D01*
X124881120Y-106500500D01*
X125141116Y-106466270D01*
X125394419Y-106398398D01*
X125636697Y-106298043D01*
X125863803Y-106166924D01*
X126071851Y-106007282D01*
X126071855Y-106007277D01*
X126071860Y-106007274D01*
X126257274Y-105821860D01*
X126257277Y-105821855D01*
X126257282Y-105821851D01*
X126416924Y-105613803D01*
X126548043Y-105386697D01*
X126648398Y-105144419D01*
X126716270Y-104891116D01*
X126750500Y-104631120D01*
X126750500Y-104368880D01*
X126750499Y-104368872D01*
X129249500Y-104368872D01*
X129249500Y-104631127D01*
X129276123Y-104833339D01*
X129283730Y-104891116D01*
X129351602Y-105144418D01*
X129351605Y-105144428D01*
X129451953Y-105386690D01*
X129451958Y-105386700D01*
X129583075Y-105613803D01*
X129742718Y-105821851D01*
X129742726Y-105821860D01*
X129928140Y-106007274D01*
X129928148Y-106007281D01*
X130136196Y-106166924D01*
X130363299Y-106298041D01*
X130363309Y-106298046D01*
X130479332Y-106346104D01*
X130605581Y-106398398D01*
X130858884Y-106466270D01*
X131118880Y-106500500D01*
X131118887Y-106500500D01*
X131381113Y-106500500D01*
X131381120Y-106500500D01*
X131641116Y-106466270D01*
X131894419Y-106398398D01*
X132136697Y-106298043D01*
X132363803Y-106166924D01*
X132571851Y-106007282D01*
X132571855Y-106007277D01*
X132571860Y-106007274D01*
X132757274Y-105821860D01*
X132757277Y-105821855D01*
X132757282Y-105821851D01*
X132916924Y-105613803D01*
X133048043Y-105386697D01*
X133148398Y-105144419D01*
X133216270Y-104891116D01*
X133250500Y-104631120D01*
X133250500Y-104368880D01*
X133216270Y-104108884D01*
X133148398Y-103855581D01*
X133118024Y-103782251D01*
X133048046Y-103613309D01*
X133048041Y-103613299D01*
X132916924Y-103386196D01*
X132757281Y-103178148D01*
X132757274Y-103178140D01*
X132571860Y-102992726D01*
X132571851Y-102992718D01*
X132363803Y-102833075D01*
X132136700Y-102701958D01*
X132136690Y-102701953D01*
X131894428Y-102601605D01*
X131894421Y-102601603D01*
X131894419Y-102601602D01*
X131641116Y-102533730D01*
X131583339Y-102526123D01*
X131381127Y-102499500D01*
X131381120Y-102499500D01*
X131118880Y-102499500D01*
X131118872Y-102499500D01*
X130887772Y-102529926D01*
X130858884Y-102533730D01*
X130605581Y-102601602D01*
X130605571Y-102601605D01*
X130363309Y-102701953D01*
X130363299Y-102701958D01*
X130136196Y-102833075D01*
X129928148Y-102992718D01*
X129742718Y-103178148D01*
X129583075Y-103386196D01*
X129451958Y-103613299D01*
X129451953Y-103613309D01*
X129351605Y-103855571D01*
X129351602Y-103855581D01*
X129289656Y-104086770D01*
X129283730Y-104108885D01*
X129249500Y-104368872D01*
X126750499Y-104368872D01*
X126716270Y-104108884D01*
X126648398Y-103855581D01*
X126618024Y-103782251D01*
X126548046Y-103613309D01*
X126548041Y-103613299D01*
X126416924Y-103386196D01*
X126257281Y-103178148D01*
X126257274Y-103178140D01*
X126071860Y-102992726D01*
X126071851Y-102992718D01*
X125863803Y-102833075D01*
X125636700Y-102701958D01*
X125636690Y-102701953D01*
X125394428Y-102601605D01*
X125394421Y-102601603D01*
X125394419Y-102601602D01*
X125141116Y-102533730D01*
X125083339Y-102526123D01*
X124881127Y-102499500D01*
X124881120Y-102499500D01*
X124618880Y-102499500D01*
X124618872Y-102499500D01*
X124387772Y-102529926D01*
X124358884Y-102533730D01*
X124105581Y-102601602D01*
X124105571Y-102601605D01*
X123863309Y-102701953D01*
X123863299Y-102701958D01*
X123636196Y-102833075D01*
X123428148Y-102992718D01*
X123242718Y-103178148D01*
X123083075Y-103386196D01*
X122951958Y-103613299D01*
X122951953Y-103613309D01*
X122851605Y-103855571D01*
X122851602Y-103855581D01*
X122789656Y-104086770D01*
X122783730Y-104108885D01*
X122749500Y-104368872D01*
X116611336Y-104368872D01*
X116599698Y-104346593D01*
X116525543Y-104255649D01*
X116471109Y-104188890D01*
X116313409Y-104060304D01*
X116313410Y-104060304D01*
X116313407Y-104060302D01*
X116133049Y-103966091D01*
X116133048Y-103966090D01*
X116133045Y-103966089D01*
X116015829Y-103932550D01*
X115937418Y-103910114D01*
X115937414Y-103910113D01*
X115931615Y-103909036D01*
X115931943Y-103907267D01*
X115874672Y-103884763D01*
X115833781Y-103828109D01*
X115826700Y-103786805D01*
X115826700Y-89346265D01*
X124682000Y-89346265D01*
X124682000Y-89553734D01*
X124714452Y-89758629D01*
X124739431Y-89835506D01*
X124745500Y-89873824D01*
X124745500Y-90726174D01*
X124739431Y-90764492D01*
X124714453Y-90841365D01*
X124682000Y-91046265D01*
X124682000Y-91253734D01*
X124714452Y-91458633D01*
X124778562Y-91655941D01*
X124872745Y-91840783D01*
X124994686Y-92008620D01*
X124994688Y-92008622D01*
X125009128Y-92023062D01*
X125021765Y-92037858D01*
X125043118Y-92067248D01*
X125043123Y-92067254D01*
X125182753Y-92206884D01*
X125332234Y-92315486D01*
X125342499Y-92322944D01*
X125518439Y-92412591D01*
X125643637Y-92453270D01*
X125706236Y-92473610D01*
X125901264Y-92504500D01*
X125901269Y-92504500D01*
X126098736Y-92504500D01*
X126293763Y-92473610D01*
X126481561Y-92412591D01*
X126657501Y-92322944D01*
X126817252Y-92206879D01*
X126956879Y-92067252D01*
X126957801Y-92065984D01*
X126965571Y-92055286D01*
X126978233Y-92037858D01*
X126990864Y-92023068D01*
X127005314Y-92008620D01*
X127127255Y-91840783D01*
X127221439Y-91655937D01*
X127285547Y-91458633D01*
X127310642Y-91300188D01*
X127318000Y-91253734D01*
X127318000Y-91046265D01*
X127299120Y-90927066D01*
X127285547Y-90841367D01*
X127260569Y-90764492D01*
X127254500Y-90726174D01*
X127254500Y-89873824D01*
X127260569Y-89835506D01*
X127285547Y-89758633D01*
X127301089Y-89660500D01*
X127318000Y-89553734D01*
X127318000Y-89346265D01*
X127285547Y-89141366D01*
X127243184Y-89010987D01*
X127221439Y-88944063D01*
X127221437Y-88944060D01*
X127221437Y-88944058D01*
X127150599Y-88805032D01*
X127127255Y-88759217D01*
X127005314Y-88591380D01*
X126858620Y-88444686D01*
X126690783Y-88322745D01*
X126505941Y-88228562D01*
X126308633Y-88164452D01*
X126103734Y-88132000D01*
X126103729Y-88132000D01*
X125896271Y-88132000D01*
X125896266Y-88132000D01*
X125691366Y-88164452D01*
X125494058Y-88228562D01*
X125309216Y-88322745D01*
X125213459Y-88392317D01*
X125141380Y-88444686D01*
X125141378Y-88444688D01*
X125141377Y-88444688D01*
X124994688Y-88591377D01*
X124994688Y-88591378D01*
X124994686Y-88591380D01*
X124942317Y-88663459D01*
X124872745Y-88759216D01*
X124778562Y-88944058D01*
X124714452Y-89141366D01*
X124682000Y-89346265D01*
X115826700Y-89346265D01*
X115826700Y-86497345D01*
X115846385Y-86430306D01*
X115863014Y-86409669D01*
X124621958Y-77650724D01*
X124683279Y-77617241D01*
X124752971Y-77622225D01*
X124808904Y-77664097D01*
X124809927Y-77665484D01*
X124832186Y-77696120D01*
X124978880Y-77842814D01*
X125146717Y-77964755D01*
X125331563Y-78058939D01*
X125528867Y-78123047D01*
X125559981Y-78127974D01*
X125574024Y-78130199D01*
X125593255Y-78139315D01*
X125614053Y-78143840D01*
X125633484Y-78158386D01*
X125637158Y-78160128D01*
X125642307Y-78164991D01*
X125717440Y-78240124D01*
X125750925Y-78301447D01*
X125745941Y-78371139D01*
X125740245Y-78384098D01*
X125716059Y-78431566D01*
X125651953Y-78628862D01*
X125651953Y-78628865D01*
X125619500Y-78833765D01*
X125619500Y-79041234D01*
X125651952Y-79246133D01*
X125716062Y-79443441D01*
X125810245Y-79628283D01*
X125932186Y-79796120D01*
X126078880Y-79942814D01*
X126246717Y-80064755D01*
X126431563Y-80158939D01*
X126628867Y-80223047D01*
X126659981Y-80227974D01*
X126674024Y-80230199D01*
X126737158Y-80260128D01*
X126742307Y-80264991D01*
X137548578Y-91071262D01*
X137548583Y-91071266D01*
X137685685Y-91170876D01*
X137685687Y-91170877D01*
X137824754Y-91241735D01*
X137836691Y-91247817D01*
X137997872Y-91300188D01*
X138165262Y-91326700D01*
X138165263Y-91326700D01*
X138334738Y-91326700D01*
X139199344Y-91326700D01*
X139266383Y-91346385D01*
X139272221Y-91350376D01*
X139309217Y-91377255D01*
X139396548Y-91421752D01*
X139494058Y-91471437D01*
X139494060Y-91471437D01*
X139494063Y-91471439D01*
X139577998Y-91498711D01*
X139691366Y-91535547D01*
X139896266Y-91568000D01*
X139896271Y-91568000D01*
X140103734Y-91568000D01*
X140308633Y-91535547D01*
X140505937Y-91471439D01*
X140690783Y-91377255D01*
X140858620Y-91255314D01*
X141005314Y-91108620D01*
X141127255Y-90940783D01*
X141221439Y-90755937D01*
X141285547Y-90558633D01*
X141318000Y-90353734D01*
X141318000Y-90146265D01*
X141285547Y-89941366D01*
X141226173Y-89758633D01*
X141221439Y-89744063D01*
X141221437Y-89744060D01*
X141221437Y-89744058D01*
X141127254Y-89559216D01*
X141123271Y-89553734D01*
X141005314Y-89391380D01*
X140858620Y-89244686D01*
X140690783Y-89122745D01*
X140505941Y-89028562D01*
X140308633Y-88964452D01*
X140103734Y-88932000D01*
X140103729Y-88932000D01*
X139896271Y-88932000D01*
X139896266Y-88932000D01*
X139691366Y-88964452D01*
X139494058Y-89028562D01*
X139309216Y-89122745D01*
X139289623Y-89136981D01*
X139272228Y-89149618D01*
X139206424Y-89173098D01*
X139199344Y-89173300D01*
X138747346Y-89173300D01*
X138680307Y-89153615D01*
X138659665Y-89136981D01*
X132426658Y-82903974D01*
X132393173Y-82842651D01*
X132398157Y-82772959D01*
X132414021Y-82743407D01*
X132423762Y-82730000D01*
X132452255Y-82690783D01*
X132546439Y-82505937D01*
X132610547Y-82308633D01*
X132615048Y-82280212D01*
X132643000Y-82103734D01*
X132643000Y-81896265D01*
X132610547Y-81691366D01*
X132546437Y-81494058D01*
X132460838Y-81326062D01*
X132452255Y-81309217D01*
X132330314Y-81141380D01*
X132227315Y-81038381D01*
X132193830Y-80977058D01*
X132198814Y-80907366D01*
X132240686Y-80851433D01*
X132306150Y-80827016D01*
X132314996Y-80826700D01*
X142252654Y-80826700D01*
X142319693Y-80846385D01*
X142340335Y-80863019D01*
X149636981Y-88159664D01*
X149670466Y-88220987D01*
X149673300Y-88247345D01*
X149673300Y-103682525D01*
X149672226Y-103686182D01*
X149673081Y-103689899D01*
X149662457Y-103719449D01*
X149653615Y-103749564D01*
X149650359Y-103753102D01*
X149649444Y-103755649D01*
X149624786Y-103780901D01*
X149555485Y-103834077D01*
X149490316Y-103859271D01*
X149421871Y-103845232D01*
X149404513Y-103834077D01*
X149240293Y-103708067D01*
X149240292Y-103708066D01*
X149240289Y-103708064D01*
X149030212Y-103586776D01*
X149030205Y-103586773D01*
X148806104Y-103493947D01*
X148571785Y-103431161D01*
X148331289Y-103399500D01*
X148331288Y-103399500D01*
X148088712Y-103399500D01*
X148088711Y-103399500D01*
X147848214Y-103431161D01*
X147613895Y-103493947D01*
X147389794Y-103586773D01*
X147389789Y-103586775D01*
X147297640Y-103639977D01*
X147229740Y-103656449D01*
X147163713Y-103633596D01*
X147157281Y-103628691D01*
X147073412Y-103560305D01*
X147073408Y-103560303D01*
X147073407Y-103560302D01*
X146893049Y-103466091D01*
X146893048Y-103466090D01*
X146893045Y-103466089D01*
X146775829Y-103432550D01*
X146697418Y-103410114D01*
X146697415Y-103410113D01*
X146697413Y-103410113D01*
X146631102Y-103404217D01*
X146578037Y-103399500D01*
X146578032Y-103399500D01*
X144761971Y-103399500D01*
X144761965Y-103399500D01*
X144761964Y-103399501D01*
X144750316Y-103400536D01*
X144642584Y-103410113D01*
X144446954Y-103466089D01*
X144393625Y-103493946D01*
X144266593Y-103560302D01*
X144266591Y-103560303D01*
X144266590Y-103560304D01*
X144108890Y-103688890D01*
X143980304Y-103846590D01*
X143980302Y-103846593D01*
X143936127Y-103931161D01*
X143886089Y-104026954D01*
X143846425Y-104165577D01*
X143830936Y-104219711D01*
X143830114Y-104222583D01*
X143830113Y-104222586D01*
X143819500Y-104341966D01*
X143819500Y-106158028D01*
X143819501Y-106158034D01*
X143830113Y-106277415D01*
X143886089Y-106473045D01*
X143886090Y-106473048D01*
X143886091Y-106473049D01*
X143980302Y-106653407D01*
X143990507Y-106665922D01*
X144108890Y-106811109D01*
X144168879Y-106860023D01*
X144266593Y-106939698D01*
X144446951Y-107033909D01*
X144642582Y-107089886D01*
X144761963Y-107100500D01*
X146578036Y-107100499D01*
X146697418Y-107089886D01*
X146893049Y-107033909D01*
X147073407Y-106939698D01*
X147157279Y-106871308D01*
X147221674Y-106844199D01*
X147290504Y-106856208D01*
X147297639Y-106860023D01*
X147389777Y-106913218D01*
X147389780Y-106913219D01*
X147389788Y-106913224D01*
X147613900Y-107006054D01*
X147848211Y-107068838D01*
X148028586Y-107092584D01*
X148088711Y-107100500D01*
X148088712Y-107100500D01*
X148331289Y-107100500D01*
X148379388Y-107094167D01*
X148571789Y-107068838D01*
X148806100Y-107006054D01*
X149030212Y-106913224D01*
X149240289Y-106791936D01*
X149404514Y-106665922D01*
X149469683Y-106640728D01*
X149538128Y-106654766D01*
X149555486Y-106665922D01*
X149719711Y-106791936D01*
X149929788Y-106913224D01*
X150153900Y-107006054D01*
X150388211Y-107068838D01*
X150568586Y-107092584D01*
X150628711Y-107100500D01*
X150628712Y-107100500D01*
X150871289Y-107100500D01*
X150919388Y-107094167D01*
X151111789Y-107068838D01*
X151346100Y-107006054D01*
X151570212Y-106913224D01*
X151780289Y-106791936D01*
X151944514Y-106665922D01*
X152009683Y-106640728D01*
X152078128Y-106654766D01*
X152095486Y-106665922D01*
X152259711Y-106791936D01*
X152469788Y-106913224D01*
X152693900Y-107006054D01*
X152928211Y-107068838D01*
X153108586Y-107092584D01*
X153168711Y-107100500D01*
X153168712Y-107100500D01*
X153411289Y-107100500D01*
X153459388Y-107094167D01*
X153651789Y-107068838D01*
X153886100Y-107006054D01*
X154110212Y-106913224D01*
X154320289Y-106791936D01*
X154484514Y-106665922D01*
X154549683Y-106640728D01*
X154618128Y-106654766D01*
X154635486Y-106665922D01*
X154799711Y-106791936D01*
X155009788Y-106913224D01*
X155233900Y-107006054D01*
X155468211Y-107068838D01*
X155648586Y-107092584D01*
X155708711Y-107100500D01*
X155708712Y-107100500D01*
X155951289Y-107100500D01*
X155999388Y-107094167D01*
X156191789Y-107068838D01*
X156426100Y-107006054D01*
X156650212Y-106913224D01*
X156860289Y-106791936D01*
X157024514Y-106665922D01*
X157089683Y-106640728D01*
X157158128Y-106654766D01*
X157175486Y-106665922D01*
X157339711Y-106791936D01*
X157549788Y-106913224D01*
X157773900Y-107006054D01*
X158008211Y-107068838D01*
X158188586Y-107092584D01*
X158248711Y-107100500D01*
X158248712Y-107100500D01*
X158491289Y-107100500D01*
X158539388Y-107094167D01*
X158731789Y-107068838D01*
X158966100Y-107006054D01*
X159190212Y-106913224D01*
X159400289Y-106791936D01*
X159564514Y-106665922D01*
X159629683Y-106640728D01*
X159698128Y-106654766D01*
X159715486Y-106665922D01*
X159879711Y-106791936D01*
X160089788Y-106913224D01*
X160313900Y-107006054D01*
X160548211Y-107068838D01*
X160728586Y-107092584D01*
X160788711Y-107100500D01*
X160788712Y-107100500D01*
X161031289Y-107100500D01*
X161079388Y-107094167D01*
X161271789Y-107068838D01*
X161506100Y-107006054D01*
X161730212Y-106913224D01*
X161940289Y-106791936D01*
X162132738Y-106644265D01*
X162304265Y-106472738D01*
X162451936Y-106280289D01*
X162573224Y-106070212D01*
X162666054Y-105846100D01*
X162728838Y-105611789D01*
X162760500Y-105371288D01*
X162760500Y-105128712D01*
X162728838Y-104888211D01*
X162666054Y-104653900D01*
X162573224Y-104429788D01*
X162451936Y-104219711D01*
X162329619Y-104060304D01*
X162304266Y-104027263D01*
X162304261Y-104027257D01*
X162132743Y-103855740D01*
X162132738Y-103855735D01*
X162125207Y-103849956D01*
X162084008Y-103793526D01*
X162076700Y-103751585D01*
X162076700Y-95148746D01*
X162096385Y-95081707D01*
X162149189Y-95035952D01*
X162218347Y-95026008D01*
X162281903Y-95055033D01*
X162288381Y-95061065D01*
X163113181Y-95885865D01*
X163146666Y-95947188D01*
X163149500Y-95973546D01*
X163149500Y-97608028D01*
X163149501Y-97608034D01*
X163160113Y-97727415D01*
X163216089Y-97923045D01*
X163216090Y-97923048D01*
X163216091Y-97923049D01*
X163310302Y-98103407D01*
X163310304Y-98103409D01*
X163438890Y-98261109D01*
X163532803Y-98337684D01*
X163596593Y-98389698D01*
X163776951Y-98483909D01*
X163972582Y-98539886D01*
X164091963Y-98550500D01*
X165908036Y-98550499D01*
X166027418Y-98539886D01*
X166223049Y-98483909D01*
X166403407Y-98389698D01*
X166561109Y-98261109D01*
X166689698Y-98103407D01*
X166783909Y-97923049D01*
X166839886Y-97727418D01*
X166850500Y-97608037D01*
X166850499Y-95791964D01*
X166839886Y-95672582D01*
X166783909Y-95476951D01*
X166689698Y-95296593D01*
X166621308Y-95212719D01*
X166594199Y-95148322D01*
X166606208Y-95079493D01*
X166610012Y-95072376D01*
X166663224Y-94980212D01*
X166756054Y-94756100D01*
X166818838Y-94521789D01*
X166850500Y-94281288D01*
X166850500Y-94038712D01*
X166818838Y-93798211D01*
X166756054Y-93563900D01*
X166663224Y-93339788D01*
X166541936Y-93129711D01*
X166415922Y-92965486D01*
X166390728Y-92900317D01*
X166404766Y-92831872D01*
X166415922Y-92814514D01*
X166417099Y-92812979D01*
X166541936Y-92650289D01*
X166663224Y-92440212D01*
X166756054Y-92216100D01*
X166818838Y-91981789D01*
X166850500Y-91741288D01*
X166850500Y-91498712D01*
X166818838Y-91258211D01*
X166756054Y-91023900D01*
X166663224Y-90799788D01*
X166541936Y-90589711D01*
X166415922Y-90425486D01*
X166390728Y-90360317D01*
X166404766Y-90291872D01*
X166415922Y-90274514D01*
X166417099Y-90272979D01*
X166541936Y-90110289D01*
X166663224Y-89900212D01*
X166756054Y-89676100D01*
X166818838Y-89441789D01*
X166850500Y-89201288D01*
X166850500Y-88958712D01*
X166848571Y-88944063D01*
X166842443Y-88897511D01*
X166818838Y-88718211D01*
X166756054Y-88483900D01*
X166663224Y-88259788D01*
X166541936Y-88049711D01*
X166415922Y-87885486D01*
X166390728Y-87820317D01*
X166404766Y-87751872D01*
X166415922Y-87734514D01*
X166417099Y-87732979D01*
X166541936Y-87570289D01*
X166663224Y-87360212D01*
X166756054Y-87136100D01*
X166818838Y-86901789D01*
X166850500Y-86661288D01*
X166850500Y-86418712D01*
X166818838Y-86178211D01*
X166756054Y-85943900D01*
X166663224Y-85719788D01*
X166541936Y-85509711D01*
X166415922Y-85345486D01*
X166390728Y-85280317D01*
X166404766Y-85211872D01*
X166415922Y-85194514D01*
X166440393Y-85162623D01*
X166541936Y-85030289D01*
X166663224Y-84820212D01*
X166756054Y-84596100D01*
X166818838Y-84361789D01*
X166850500Y-84121288D01*
X166850500Y-83878712D01*
X166818838Y-83638211D01*
X166756054Y-83403900D01*
X166663224Y-83179788D01*
X166541936Y-82969711D01*
X166415922Y-82805486D01*
X166390728Y-82740317D01*
X166404766Y-82671872D01*
X166415922Y-82654514D01*
X166420175Y-82648971D01*
X166541936Y-82490289D01*
X166663224Y-82280212D01*
X166756054Y-82056100D01*
X166818838Y-81821789D01*
X166850500Y-81581288D01*
X166850500Y-81338712D01*
X166818838Y-81098211D01*
X166756054Y-80863900D01*
X166663224Y-80639788D01*
X166541936Y-80429711D01*
X166415922Y-80265486D01*
X166390728Y-80200317D01*
X166404766Y-80131872D01*
X166415922Y-80114514D01*
X166473356Y-80039664D01*
X166541936Y-79950289D01*
X166663224Y-79740212D01*
X166756054Y-79516100D01*
X166818838Y-79281789D01*
X166850500Y-79041288D01*
X166850500Y-78798712D01*
X166818838Y-78558211D01*
X166756054Y-78323900D01*
X166663224Y-78099788D01*
X166541936Y-77889711D01*
X166415922Y-77725486D01*
X166390728Y-77660317D01*
X166404766Y-77591872D01*
X166415922Y-77574514D01*
X166445822Y-77535547D01*
X166541936Y-77410289D01*
X166663224Y-77200212D01*
X166756054Y-76976100D01*
X166818838Y-76741789D01*
X166850500Y-76501288D01*
X166850500Y-76258712D01*
X166818838Y-76018211D01*
X166756054Y-75783900D01*
X166663224Y-75559788D01*
X166541936Y-75349711D01*
X166415922Y-75185486D01*
X166390728Y-75120317D01*
X166404766Y-75051872D01*
X166415922Y-75034514D01*
X166417099Y-75032979D01*
X166541936Y-74870289D01*
X166663224Y-74660212D01*
X166756054Y-74436100D01*
X166818838Y-74201789D01*
X166850500Y-73961288D01*
X166850500Y-73718712D01*
X166818838Y-73478211D01*
X166756054Y-73243900D01*
X166663224Y-73019788D01*
X166541936Y-72809711D01*
X166430476Y-72664453D01*
X166394266Y-72617263D01*
X166394260Y-72617256D01*
X166222743Y-72445739D01*
X166222736Y-72445733D01*
X166030293Y-72298067D01*
X166030292Y-72298066D01*
X166030289Y-72298064D01*
X165820212Y-72176776D01*
X165820205Y-72176773D01*
X165596104Y-72083947D01*
X165361785Y-72021161D01*
X165121289Y-71989500D01*
X165121288Y-71989500D01*
X164878712Y-71989500D01*
X164878711Y-71989500D01*
X164638214Y-72021161D01*
X164403892Y-72083948D01*
X164288491Y-72131748D01*
X164219021Y-72139217D01*
X164156542Y-72107941D01*
X164153358Y-72104868D01*
X157449671Y-65401181D01*
X157416186Y-65339858D01*
X157421170Y-65270166D01*
X157463042Y-65214233D01*
X157528506Y-65189816D01*
X157537352Y-65189500D01*
X157705729Y-65189500D01*
X157705736Y-65189500D01*
X157925312Y-65160592D01*
X158139237Y-65103271D01*
X158343850Y-65018518D01*
X158535650Y-64907782D01*
X158566545Y-64884074D01*
X158631713Y-64858879D01*
X158700158Y-64872916D01*
X158729280Y-64896816D01*
X158730439Y-64895658D01*
X158734885Y-64900103D01*
X158734888Y-64900105D01*
X158734891Y-64900109D01*
X158892593Y-65028698D01*
X159072951Y-65122909D01*
X159268582Y-65178886D01*
X159387963Y-65189500D01*
X160882036Y-65189499D01*
X161001418Y-65178886D01*
X161197049Y-65122909D01*
X161377407Y-65028698D01*
X161535109Y-64900109D01*
X161663698Y-64742407D01*
X161757909Y-64562049D01*
X161813886Y-64366418D01*
X161824500Y-64247037D01*
X161824499Y-62752964D01*
X161813886Y-62633582D01*
X161757909Y-62437951D01*
X161663698Y-62257593D01*
X161611684Y-62193803D01*
X161535109Y-62099890D01*
X161389895Y-61981485D01*
X161377407Y-61971302D01*
X161197049Y-61877091D01*
X161197048Y-61877090D01*
X161197045Y-61877089D01*
X161079829Y-61843550D01*
X161001418Y-61821114D01*
X161001415Y-61821113D01*
X161001413Y-61821113D01*
X160935102Y-61815217D01*
X160882037Y-61810500D01*
X160882032Y-61810500D01*
X159387971Y-61810500D01*
X159387965Y-61810500D01*
X159387964Y-61810501D01*
X159376316Y-61811536D01*
X159268584Y-61821113D01*
X159072954Y-61877089D01*
X158982772Y-61924196D01*
X158892593Y-61971302D01*
X158892591Y-61971303D01*
X158892590Y-61971304D01*
X158734887Y-62099894D01*
X158730445Y-62104337D01*
X158728587Y-62102479D01*
X158680433Y-62135455D01*
X158610593Y-62137498D01*
X158566549Y-62115927D01*
X158535656Y-62092222D01*
X158535652Y-62092220D01*
X158535650Y-62092218D01*
X158343850Y-61981482D01*
X158343846Y-61981480D01*
X158139239Y-61896729D01*
X157978777Y-61853734D01*
X157925312Y-61839408D01*
X157897865Y-61835794D01*
X157705743Y-61810500D01*
X157705736Y-61810500D01*
X157484264Y-61810500D01*
X157484256Y-61810500D01*
X157264688Y-61839408D01*
X157050760Y-61896729D01*
X156846153Y-61981480D01*
X156846142Y-61981485D01*
X156654357Y-62092213D01*
X156654341Y-62092224D01*
X156478646Y-62227039D01*
X156478639Y-62227045D01*
X156322045Y-62383639D01*
X156322039Y-62383646D01*
X156187224Y-62559341D01*
X156187213Y-62559357D01*
X156076485Y-62751142D01*
X156076480Y-62751153D01*
X155991729Y-62955760D01*
X155934408Y-63169688D01*
X155905500Y-63389256D01*
X155905500Y-63557648D01*
X155885815Y-63624687D01*
X155833011Y-63670442D01*
X155763853Y-63680386D01*
X155700297Y-63651361D01*
X155693819Y-63645329D01*
X147977227Y-55928737D01*
X147977222Y-55928733D01*
X147840123Y-55829126D01*
X147840122Y-55829125D01*
X147840120Y-55829124D01*
X147763059Y-55789859D01*
X147689111Y-55752180D01*
X147548714Y-55706563D01*
X147548714Y-55706564D01*
X147548711Y-55706563D01*
X147527934Y-55699812D01*
X147527930Y-55699811D01*
X147527929Y-55699811D01*
X147432887Y-55684758D01*
X147360544Y-55673300D01*
X147360543Y-55673300D01*
X135375656Y-55673300D01*
X135308617Y-55653615D01*
X135302778Y-55649623D01*
X135265783Y-55622745D01*
X135080941Y-55528562D01*
X134883633Y-55464452D01*
X134678734Y-55432000D01*
X134678729Y-55432000D01*
X134471271Y-55432000D01*
X134471266Y-55432000D01*
X134266366Y-55464452D01*
X134069058Y-55528562D01*
X133884216Y-55622745D01*
X133841728Y-55653615D01*
X133716380Y-55744686D01*
X133716378Y-55744688D01*
X133716377Y-55744688D01*
X133569688Y-55891377D01*
X133569688Y-55891378D01*
X133569686Y-55891380D01*
X133542543Y-55928739D01*
X133447745Y-56059216D01*
X133353562Y-56244058D01*
X133289452Y-56441366D01*
X133257000Y-56646265D01*
X133257000Y-56853734D01*
X133289453Y-57058634D01*
X133289453Y-57058637D01*
X133353560Y-57255935D01*
X133353560Y-57255936D01*
X133354791Y-57258352D01*
X133354981Y-57259366D01*
X133355424Y-57260435D01*
X133355199Y-57260528D01*
X133367681Y-57327023D01*
X133354786Y-57370931D01*
X133306060Y-57466562D01*
X133306060Y-57466563D01*
X133241953Y-57663862D01*
X133241953Y-57663865D01*
X133209500Y-57868765D01*
X133209500Y-58076234D01*
X133241952Y-58281133D01*
X133306063Y-58478444D01*
X133368798Y-58601568D01*
X133381694Y-58670237D01*
X133368799Y-58714154D01*
X133353561Y-58744062D01*
X133353560Y-58744064D01*
X133289453Y-58941362D01*
X133289453Y-58941365D01*
X133257000Y-59146265D01*
X133257000Y-59353734D01*
X133289453Y-59558634D01*
X133289453Y-59558637D01*
X133353560Y-59755936D01*
X133353560Y-59755937D01*
X133385542Y-59818706D01*
X133398438Y-59887375D01*
X133385542Y-59931294D01*
X133353560Y-59994062D01*
X133353560Y-59994063D01*
X133289453Y-60191362D01*
X133289453Y-60191365D01*
X133257000Y-60396265D01*
X133257000Y-60603734D01*
X133289452Y-60808633D01*
X133353563Y-61005944D01*
X133398042Y-61093238D01*
X133410938Y-61161907D01*
X133398043Y-61205824D01*
X133378561Y-61244062D01*
X133378560Y-61244064D01*
X133314453Y-61441362D01*
X133314453Y-61441365D01*
X133282000Y-61646265D01*
X133282000Y-61853734D01*
X133314453Y-62058634D01*
X133314453Y-62058637D01*
X133378560Y-62255936D01*
X133378560Y-62255937D01*
X133410542Y-62318706D01*
X133423438Y-62387375D01*
X133410542Y-62431294D01*
X133378560Y-62494062D01*
X133378560Y-62494063D01*
X133314453Y-62691362D01*
X133314453Y-62691365D01*
X133282000Y-62896265D01*
X133282000Y-63103734D01*
X133314453Y-63308634D01*
X133314453Y-63308637D01*
X133379923Y-63510130D01*
X133381918Y-63579971D01*
X133372477Y-63604743D01*
X133278562Y-63789058D01*
X133214452Y-63986366D01*
X133182000Y-64191265D01*
X133182000Y-64398734D01*
X133214452Y-64603633D01*
X133278562Y-64800941D01*
X133353138Y-64947302D01*
X133366034Y-65015971D01*
X133354784Y-65054299D01*
X133355424Y-65054565D01*
X133353560Y-65059064D01*
X133289453Y-65256362D01*
X133289453Y-65256365D01*
X133257000Y-65461265D01*
X133257000Y-65668734D01*
X133289452Y-65873633D01*
X133353563Y-66070942D01*
X133354367Y-66072520D01*
X133354492Y-66073185D01*
X133355428Y-66075446D01*
X133354953Y-66075642D01*
X133367259Y-66141190D01*
X133354364Y-66185104D01*
X133283562Y-66324058D01*
X133219452Y-66521366D01*
X133187000Y-66726265D01*
X133187000Y-66933734D01*
X133219452Y-67138633D01*
X133283562Y-67335941D01*
X133377746Y-67520784D01*
X133385737Y-67531784D01*
X133409215Y-67597591D01*
X133395902Y-67660961D01*
X133353560Y-67744062D01*
X133353560Y-67744063D01*
X133289453Y-67941362D01*
X133289453Y-67941365D01*
X133257000Y-68146265D01*
X133257000Y-68353734D01*
X133289452Y-68558633D01*
X133353562Y-68755941D01*
X133406933Y-68860686D01*
X133447745Y-68940783D01*
X133569686Y-69108620D01*
X133716380Y-69255314D01*
X133884217Y-69377255D01*
X133971548Y-69421752D01*
X134069058Y-69471437D01*
X134069060Y-69471437D01*
X134069063Y-69471439D01*
X134140604Y-69494684D01*
X134266366Y-69535547D01*
X134471266Y-69568000D01*
X134471271Y-69568000D01*
X134678734Y-69568000D01*
X134883633Y-69535547D01*
X135080937Y-69471439D01*
X135265783Y-69377255D01*
X135302771Y-69350381D01*
X135368576Y-69326902D01*
X135375656Y-69326700D01*
X136502654Y-69326700D01*
X136569693Y-69346385D01*
X136590335Y-69363019D01*
X142688935Y-75461619D01*
X142722420Y-75522942D01*
X142717436Y-75592634D01*
X142675564Y-75648567D01*
X142610100Y-75672984D01*
X142601254Y-75673300D01*
X133647346Y-75673300D01*
X133580307Y-75653615D01*
X133559665Y-75636981D01*
X130539991Y-72617307D01*
X130506506Y-72555984D01*
X130505199Y-72549024D01*
X130499752Y-72514634D01*
X130498047Y-72503867D01*
X130433939Y-72306563D01*
X130339755Y-72121717D01*
X130339753Y-72121714D01*
X130322560Y-72098049D01*
X130299081Y-72032243D01*
X130314907Y-71964189D01*
X130335194Y-71937488D01*
X132071261Y-70201423D01*
X132170877Y-70064313D01*
X132247817Y-69913309D01*
X132272186Y-69838309D01*
X132300188Y-69752128D01*
X132326700Y-69584738D01*
X132326700Y-57064769D01*
X132346385Y-56997730D01*
X132350383Y-56991883D01*
X132385127Y-56944063D01*
X132414755Y-56903283D01*
X132508939Y-56718437D01*
X132573047Y-56521133D01*
X132605500Y-56316234D01*
X132605500Y-56108765D01*
X132573047Y-55903866D01*
X132523761Y-55752180D01*
X132508939Y-55706563D01*
X132508937Y-55706560D01*
X132508937Y-55706558D01*
X132459252Y-55609048D01*
X132414755Y-55521717D01*
X132292814Y-55353880D01*
X132194213Y-55255279D01*
X132160728Y-55193956D01*
X132165712Y-55124264D01*
X132194211Y-55079919D01*
X132483312Y-54790819D01*
X132544635Y-54757334D01*
X132570993Y-54754500D01*
X134098736Y-54754500D01*
X134293763Y-54723610D01*
X134481561Y-54662591D01*
X134481564Y-54662588D01*
X134481568Y-54662588D01*
X134481569Y-54662587D01*
X134524059Y-54640938D01*
X134524059Y-54640937D01*
X134657501Y-54572945D01*
X134817252Y-54456879D01*
X135687378Y-53586751D01*
X135718756Y-53563953D01*
X135790783Y-53527255D01*
X135958620Y-53405314D01*
X136105314Y-53258620D01*
X136227255Y-53090783D01*
X136321439Y-52905937D01*
X136385547Y-52708633D01*
X136411761Y-52543123D01*
X136418000Y-52503734D01*
X136418000Y-52296265D01*
X136385547Y-52091366D01*
X136365717Y-52030336D01*
X136321439Y-51894063D01*
X136321436Y-51894059D01*
X136321436Y-51894056D01*
X136320879Y-51892711D01*
X136317509Y-51883576D01*
X136312591Y-51868439D01*
X136312591Y-51868438D01*
X136253356Y-51752184D01*
X136222945Y-51692499D01*
X136106879Y-51532748D01*
X135967252Y-51393121D01*
X135807501Y-51277055D01*
X135631561Y-51187409D01*
X135631560Y-51187408D01*
X135631557Y-51187407D01*
X135616414Y-51182487D01*
X135607293Y-51179122D01*
X135605938Y-51178561D01*
X135408635Y-51114453D01*
X135203734Y-51082000D01*
X135203729Y-51082000D01*
X134996271Y-51082000D01*
X134996266Y-51082000D01*
X134791366Y-51114452D01*
X134594058Y-51178562D01*
X134409216Y-51272745D01*
X134352711Y-51313799D01*
X134241380Y-51394686D01*
X134241378Y-51394688D01*
X134241377Y-51394688D01*
X134094688Y-51541377D01*
X134094688Y-51541378D01*
X134094686Y-51541380D01*
X134094196Y-51542055D01*
X133972743Y-51709219D01*
X133936047Y-51781238D01*
X133913244Y-51812623D01*
X133516688Y-52209181D01*
X133455365Y-52242666D01*
X133429007Y-52245500D01*
X131901264Y-52245500D01*
X131706236Y-52276389D01*
X131520657Y-52336687D01*
X131520658Y-52336688D01*
X131518441Y-52337408D01*
X131518439Y-52337409D01*
X131342498Y-52427055D01*
X131251354Y-52493275D01*
X131182748Y-52543121D01*
X131182746Y-52543123D01*
X131182745Y-52543123D01*
X130945188Y-52780681D01*
X130883865Y-52814166D01*
X130857507Y-52817000D01*
X130771266Y-52817000D01*
X130566366Y-52849452D01*
X130369058Y-52913562D01*
X130184216Y-53007745D01*
X130088459Y-53077317D01*
X130016380Y-53129686D01*
X130016378Y-53129688D01*
X130016377Y-53129688D01*
X129869688Y-53276377D01*
X129869688Y-53276378D01*
X129869686Y-53276380D01*
X129802996Y-53368170D01*
X129747746Y-53444215D01*
X129747737Y-53444230D01*
X129743970Y-53451622D01*
X129733818Y-53468189D01*
X129727055Y-53477498D01*
X129678463Y-53572867D01*
X129637409Y-53653439D01*
X129625255Y-53690844D01*
X129586813Y-53809155D01*
X129547375Y-53866830D01*
X129483016Y-53894028D01*
X129414170Y-53882113D01*
X129381201Y-53858517D01*
X127451421Y-51928737D01*
X127451416Y-51928733D01*
X127314317Y-51829126D01*
X127314316Y-51829125D01*
X127314314Y-51829124D01*
X127254675Y-51798736D01*
X127163314Y-51752184D01*
X127124643Y-51739619D01*
X127082718Y-51725997D01*
X127082717Y-51725996D01*
X127047940Y-51714697D01*
X126990265Y-51675260D01*
X126963066Y-51610901D01*
X126974981Y-51542055D01*
X127022225Y-51490579D01*
X127086258Y-51472766D01*
X133500000Y-51472766D01*
X133500000Y-45624500D01*
X133519685Y-45557461D01*
X133572489Y-45511706D01*
X133624000Y-45500500D01*
X167875500Y-45500500D01*
X167942539Y-45520185D01*
X167988294Y-45572989D01*
X167999500Y-45624500D01*
X167999500Y-108625500D01*
X167979815Y-108692539D01*
X167927011Y-108738294D01*
X167875500Y-108749500D01*
X74124500Y-108749500D01*
X74057461Y-108729815D01*
X74011706Y-108677011D01*
X74000500Y-108625500D01*
X74000500Y-94817525D01*
X79374500Y-94817525D01*
X79374500Y-94962475D01*
X79412016Y-95102485D01*
X79412017Y-95102488D01*
X79484488Y-95228011D01*
X79484490Y-95228013D01*
X79484491Y-95228015D01*
X79586985Y-95330509D01*
X79586986Y-95330510D01*
X79586988Y-95330511D01*
X79712511Y-95402982D01*
X79712512Y-95402982D01*
X79712515Y-95402984D01*
X79852525Y-95440500D01*
X79852528Y-95440500D01*
X79997472Y-95440500D01*
X79997475Y-95440500D01*
X80137485Y-95402984D01*
X80263015Y-95330509D01*
X80365509Y-95228015D01*
X80437984Y-95102485D01*
X80475500Y-94962475D01*
X80475500Y-94817525D01*
X80437984Y-94677515D01*
X80365509Y-94551985D01*
X80263015Y-94449491D01*
X80263013Y-94449490D01*
X80263011Y-94449488D01*
X80137488Y-94377017D01*
X80137489Y-94377017D01*
X80126006Y-94373940D01*
X79997475Y-94339500D01*
X79852525Y-94339500D01*
X79723993Y-94373940D01*
X79712511Y-94377017D01*
X79586988Y-94449488D01*
X79586982Y-94449493D01*
X79484493Y-94551982D01*
X79484488Y-94551988D01*
X79412017Y-94677511D01*
X79412016Y-94677515D01*
X79374500Y-94817525D01*
X74000500Y-94817525D01*
X74000500Y-89037525D01*
X79374500Y-89037525D01*
X79374500Y-89182475D01*
X79412016Y-89322485D01*
X79412017Y-89322488D01*
X79484488Y-89448011D01*
X79484490Y-89448013D01*
X79484491Y-89448015D01*
X79586985Y-89550509D01*
X79586986Y-89550510D01*
X79586988Y-89550511D01*
X79712511Y-89622982D01*
X79712512Y-89622982D01*
X79712515Y-89622984D01*
X79852525Y-89660500D01*
X79852528Y-89660500D01*
X79997472Y-89660500D01*
X79997475Y-89660500D01*
X80137485Y-89622984D01*
X80263015Y-89550509D01*
X80365509Y-89448015D01*
X80437984Y-89322485D01*
X80475500Y-89182475D01*
X80475500Y-89037525D01*
X80437984Y-88897515D01*
X80388071Y-88811064D01*
X80365511Y-88771988D01*
X80365506Y-88771982D01*
X80263017Y-88669493D01*
X80263011Y-88669488D01*
X80137488Y-88597017D01*
X80137489Y-88597017D01*
X80116440Y-88591377D01*
X79997475Y-88559500D01*
X79852525Y-88559500D01*
X79733560Y-88591377D01*
X79712511Y-88597017D01*
X79586988Y-88669488D01*
X79586982Y-88669493D01*
X79484493Y-88771982D01*
X79484488Y-88771988D01*
X79412017Y-88897511D01*
X79412016Y-88897515D01*
X79374500Y-89037525D01*
X74000500Y-89037525D01*
X74000500Y-83442332D01*
X80219500Y-83442332D01*
X80219500Y-83717667D01*
X80219501Y-83717684D01*
X80255438Y-83990655D01*
X80255439Y-83990660D01*
X80255440Y-83990666D01*
X80255441Y-83990668D01*
X80326704Y-84256630D01*
X80432075Y-84511017D01*
X80432080Y-84511028D01*
X80514861Y-84654407D01*
X80569751Y-84749479D01*
X80569753Y-84749482D01*
X80569754Y-84749483D01*
X80737370Y-84967926D01*
X80737376Y-84967933D01*
X80932066Y-85162623D01*
X80932072Y-85162628D01*
X81150521Y-85330249D01*
X81303778Y-85418732D01*
X81388971Y-85467919D01*
X81388976Y-85467921D01*
X81388979Y-85467923D01*
X81643368Y-85573295D01*
X81909334Y-85644560D01*
X82182326Y-85680500D01*
X82182333Y-85680500D01*
X82457667Y-85680500D01*
X82457674Y-85680500D01*
X82730666Y-85644560D01*
X82996632Y-85573295D01*
X83251021Y-85467923D01*
X83489479Y-85330249D01*
X83707928Y-85162628D01*
X83902628Y-84967928D01*
X84070249Y-84749479D01*
X84207923Y-84511021D01*
X84313295Y-84256632D01*
X84384560Y-83990666D01*
X84420500Y-83717674D01*
X84420500Y-83442326D01*
X84384560Y-83169334D01*
X84313295Y-82903368D01*
X84207923Y-82648979D01*
X84207921Y-82648976D01*
X84207919Y-82648971D01*
X84158732Y-82563778D01*
X84070249Y-82410521D01*
X83902628Y-82192072D01*
X83902623Y-82192066D01*
X83707933Y-81997376D01*
X83707926Y-81997370D01*
X83489483Y-81829754D01*
X83489482Y-81829753D01*
X83489479Y-81829751D01*
X83394407Y-81774861D01*
X83251028Y-81692080D01*
X83251017Y-81692075D01*
X82996630Y-81586704D01*
X82863649Y-81551072D01*
X82730666Y-81515440D01*
X82730660Y-81515439D01*
X82730655Y-81515438D01*
X82457684Y-81479501D01*
X82457679Y-81479500D01*
X82457674Y-81479500D01*
X82182326Y-81479500D01*
X82182320Y-81479500D01*
X82182315Y-81479501D01*
X81909344Y-81515438D01*
X81909337Y-81515439D01*
X81909334Y-81515440D01*
X81853125Y-81530500D01*
X81643369Y-81586704D01*
X81388982Y-81692075D01*
X81388971Y-81692080D01*
X81166106Y-81820752D01*
X81164319Y-81821785D01*
X81150516Y-81829754D01*
X80932073Y-81997370D01*
X80932066Y-81997376D01*
X80737376Y-82192066D01*
X80737370Y-82192073D01*
X80569754Y-82410516D01*
X80432080Y-82648971D01*
X80432075Y-82648982D01*
X80326704Y-82903369D01*
X80255441Y-83169331D01*
X80255438Y-83169344D01*
X80219501Y-83442315D01*
X80219500Y-83442332D01*
X74000500Y-83442332D01*
X74000500Y-72505776D01*
X80219500Y-72505776D01*
X80219500Y-74334223D01*
X80229904Y-74466412D01*
X80284903Y-74684686D01*
X80377991Y-74889624D01*
X80377997Y-74889634D01*
X80506173Y-75074645D01*
X80506177Y-75074650D01*
X80506180Y-75074654D01*
X80665346Y-75233820D01*
X80665350Y-75233823D01*
X80665354Y-75233826D01*
X80850365Y-75362002D01*
X80850375Y-75362008D01*
X81055313Y-75455096D01*
X81055314Y-75455096D01*
X81055316Y-75455097D01*
X81273587Y-75510096D01*
X81405782Y-75520500D01*
X81405790Y-75520500D01*
X83234210Y-75520500D01*
X83234218Y-75520500D01*
X83366413Y-75510096D01*
X83584684Y-75455097D01*
X83789627Y-75362007D01*
X83974654Y-75233820D01*
X84133820Y-75074654D01*
X84262007Y-74889627D01*
X84355097Y-74684684D01*
X84410096Y-74466413D01*
X84420500Y-74334218D01*
X84420500Y-72505782D01*
X84410096Y-72373587D01*
X84355097Y-72155316D01*
X84347784Y-72139217D01*
X84262008Y-71950375D01*
X84262002Y-71950365D01*
X84133826Y-71765354D01*
X84133823Y-71765350D01*
X84133820Y-71765346D01*
X83974654Y-71606180D01*
X83974650Y-71606177D01*
X83974645Y-71606173D01*
X83789634Y-71477997D01*
X83789624Y-71477991D01*
X83584686Y-71384903D01*
X83439170Y-71348237D01*
X83366413Y-71329904D01*
X83344380Y-71328170D01*
X83234223Y-71319500D01*
X83234218Y-71319500D01*
X81405782Y-71319500D01*
X81405776Y-71319500D01*
X81273587Y-71329904D01*
X81055313Y-71384903D01*
X80850375Y-71477991D01*
X80850365Y-71477997D01*
X80665354Y-71606173D01*
X80665342Y-71606183D01*
X80506183Y-71765342D01*
X80506173Y-71765354D01*
X80377997Y-71950365D01*
X80377991Y-71950375D01*
X80284903Y-72155313D01*
X80229904Y-72373587D01*
X80219500Y-72505776D01*
X74000500Y-72505776D01*
X74000500Y-67315776D01*
X80249500Y-67315776D01*
X80249500Y-69144223D01*
X80259904Y-69276412D01*
X80314903Y-69494686D01*
X80407991Y-69699624D01*
X80407997Y-69699634D01*
X80536173Y-69884645D01*
X80536177Y-69884650D01*
X80536180Y-69884654D01*
X80695346Y-70043820D01*
X80695350Y-70043823D01*
X80695354Y-70043826D01*
X80880365Y-70172002D01*
X80880375Y-70172008D01*
X81085313Y-70265096D01*
X81085314Y-70265096D01*
X81085316Y-70265097D01*
X81303587Y-70320096D01*
X81435782Y-70330500D01*
X81435790Y-70330500D01*
X83264210Y-70330500D01*
X83264218Y-70330500D01*
X83396413Y-70320096D01*
X83614684Y-70265097D01*
X83819627Y-70172007D01*
X84004654Y-70043820D01*
X84163820Y-69884654D01*
X84292007Y-69699627D01*
X84385097Y-69494684D01*
X84440096Y-69276413D01*
X84450500Y-69144218D01*
X84450500Y-67315782D01*
X84440096Y-67183587D01*
X84385097Y-66965316D01*
X84370749Y-66933729D01*
X84292008Y-66760375D01*
X84292002Y-66760365D01*
X84163826Y-66575354D01*
X84163823Y-66575350D01*
X84163820Y-66575346D01*
X84004654Y-66416180D01*
X84004650Y-66416177D01*
X84004645Y-66416173D01*
X83819634Y-66287997D01*
X83819624Y-66287991D01*
X83614686Y-66194903D01*
X83469170Y-66158237D01*
X83396413Y-66139904D01*
X83374380Y-66138170D01*
X83264223Y-66129500D01*
X83264218Y-66129500D01*
X81435782Y-66129500D01*
X81435776Y-66129500D01*
X81303587Y-66139904D01*
X81085313Y-66194903D01*
X80880375Y-66287991D01*
X80880365Y-66287997D01*
X80695354Y-66416173D01*
X80695342Y-66416183D01*
X80536183Y-66575342D01*
X80536173Y-66575354D01*
X80407997Y-66760365D01*
X80407991Y-66760375D01*
X80314903Y-66965313D01*
X80259904Y-67183587D01*
X80249500Y-67315776D01*
X74000500Y-67315776D01*
X74000500Y-57932332D01*
X80249500Y-57932332D01*
X80249500Y-58207667D01*
X80249501Y-58207684D01*
X80285438Y-58480655D01*
X80285439Y-58480660D01*
X80285440Y-58480666D01*
X80315020Y-58591061D01*
X80356704Y-58746630D01*
X80462075Y-59001017D01*
X80462080Y-59001028D01*
X80510009Y-59084042D01*
X80599751Y-59239479D01*
X80599753Y-59239482D01*
X80599754Y-59239483D01*
X80767370Y-59457926D01*
X80767376Y-59457933D01*
X80962066Y-59652623D01*
X80962073Y-59652629D01*
X81035239Y-59708771D01*
X81180521Y-59820249D01*
X81333778Y-59908732D01*
X81418971Y-59957919D01*
X81418976Y-59957921D01*
X81418979Y-59957923D01*
X81673368Y-60063295D01*
X81939334Y-60134560D01*
X82212326Y-60170500D01*
X82212333Y-60170500D01*
X82487667Y-60170500D01*
X82487674Y-60170500D01*
X82760666Y-60134560D01*
X83026632Y-60063295D01*
X83281021Y-59957923D01*
X83519479Y-59820249D01*
X83737928Y-59652628D01*
X83932628Y-59457928D01*
X84100249Y-59239479D01*
X84237923Y-59001021D01*
X84343295Y-58746632D01*
X84414560Y-58480666D01*
X84450500Y-58207674D01*
X84450500Y-57932326D01*
X84414560Y-57659334D01*
X84343295Y-57393368D01*
X84237923Y-57138979D01*
X84237921Y-57138976D01*
X84237919Y-57138971D01*
X84171817Y-57024480D01*
X84100249Y-56900521D01*
X83991822Y-56759216D01*
X83932629Y-56682073D01*
X83932623Y-56682066D01*
X83737933Y-56487376D01*
X83737926Y-56487370D01*
X83519483Y-56319754D01*
X83519482Y-56319753D01*
X83519479Y-56319751D01*
X83388384Y-56244063D01*
X83281028Y-56182080D01*
X83281017Y-56182075D01*
X83026630Y-56076704D01*
X82893649Y-56041072D01*
X82760666Y-56005440D01*
X82760660Y-56005439D01*
X82760655Y-56005438D01*
X82487684Y-55969501D01*
X82487679Y-55969500D01*
X82487674Y-55969500D01*
X82212326Y-55969500D01*
X82212320Y-55969500D01*
X82212315Y-55969501D01*
X81939344Y-56005438D01*
X81939337Y-56005439D01*
X81939334Y-56005440D01*
X81883125Y-56020500D01*
X81673369Y-56076704D01*
X81418982Y-56182075D01*
X81418971Y-56182080D01*
X81180516Y-56319754D01*
X80962073Y-56487370D01*
X80962066Y-56487376D01*
X80767376Y-56682066D01*
X80767370Y-56682073D01*
X80599754Y-56900516D01*
X80462080Y-57138971D01*
X80462075Y-57138982D01*
X80356704Y-57393369D01*
X80285441Y-57659331D01*
X80285438Y-57659344D01*
X80249501Y-57932315D01*
X80249500Y-57932332D01*
X74000500Y-57932332D01*
X74000500Y-48859568D01*
X79959500Y-48859568D01*
X79959500Y-49140431D01*
X79990942Y-49419494D01*
X79990945Y-49419512D01*
X80053439Y-49693317D01*
X80053443Y-49693329D01*
X80146200Y-49958411D01*
X80268053Y-50211442D01*
X80268055Y-50211445D01*
X80417477Y-50449248D01*
X80592584Y-50668825D01*
X80791175Y-50867416D01*
X81010752Y-51042523D01*
X81248555Y-51191945D01*
X81501592Y-51313801D01*
X81700680Y-51383465D01*
X81766670Y-51406556D01*
X81766682Y-51406560D01*
X82040491Y-51469055D01*
X82040497Y-51469055D01*
X82040505Y-51469057D01*
X82226547Y-51490018D01*
X82319569Y-51500499D01*
X82319572Y-51500500D01*
X82319575Y-51500500D01*
X82600428Y-51500500D01*
X82600429Y-51500499D01*
X82743055Y-51484429D01*
X82879494Y-51469057D01*
X82879499Y-51469056D01*
X82879509Y-51469055D01*
X83153318Y-51406560D01*
X83418408Y-51313801D01*
X83671445Y-51191945D01*
X83909248Y-51042523D01*
X84128825Y-50867416D01*
X84327416Y-50668825D01*
X84502523Y-50449248D01*
X84651945Y-50211445D01*
X84773801Y-49958408D01*
X84866560Y-49693318D01*
X84929055Y-49419509D01*
X84960500Y-49140425D01*
X84960500Y-48859575D01*
X84955943Y-48819138D01*
X84935596Y-48638536D01*
X84934489Y-48628711D01*
X97164500Y-48628711D01*
X97164500Y-48871288D01*
X97196161Y-49111785D01*
X97258947Y-49346104D01*
X97289354Y-49419512D01*
X97351776Y-49570212D01*
X97473064Y-49780289D01*
X97473066Y-49780292D01*
X97473067Y-49780293D01*
X97620733Y-49972736D01*
X97620739Y-49972743D01*
X97792256Y-50144260D01*
X97792262Y-50144265D01*
X97984711Y-50291936D01*
X98194788Y-50413224D01*
X98418900Y-50506054D01*
X98653211Y-50568838D01*
X98833586Y-50592584D01*
X98893711Y-50600500D01*
X98893712Y-50600500D01*
X99136289Y-50600500D01*
X99184388Y-50594167D01*
X99376789Y-50568838D01*
X99611100Y-50506054D01*
X99835212Y-50413224D01*
X100045289Y-50291936D01*
X100237738Y-50144265D01*
X100409265Y-49972738D01*
X100556936Y-49780289D01*
X100678224Y-49570212D01*
X100771054Y-49346100D01*
X100833838Y-49111789D01*
X100865500Y-48871288D01*
X100865500Y-48628712D01*
X100833838Y-48388211D01*
X100771054Y-48153900D01*
X100678224Y-47929788D01*
X100556936Y-47719711D01*
X100427290Y-47550753D01*
X100409266Y-47527263D01*
X100409260Y-47527256D01*
X100237743Y-47355739D01*
X100237736Y-47355733D01*
X100045293Y-47208067D01*
X100045292Y-47208066D01*
X100045289Y-47208064D01*
X99835212Y-47086776D01*
X99835205Y-47086773D01*
X99611104Y-46993947D01*
X99376785Y-46931161D01*
X99136289Y-46899500D01*
X99136288Y-46899500D01*
X98893712Y-46899500D01*
X98893711Y-46899500D01*
X98653214Y-46931161D01*
X98418895Y-46993947D01*
X98194794Y-47086773D01*
X98194785Y-47086777D01*
X97984706Y-47208067D01*
X97792263Y-47355733D01*
X97792256Y-47355739D01*
X97620739Y-47527256D01*
X97620733Y-47527263D01*
X97473067Y-47719706D01*
X97351777Y-47929785D01*
X97351773Y-47929794D01*
X97258947Y-48153895D01*
X97196161Y-48388214D01*
X97164500Y-48628711D01*
X84934489Y-48628711D01*
X84930832Y-48596268D01*
X84929055Y-48580491D01*
X84866560Y-48306682D01*
X84773801Y-48041592D01*
X84651945Y-47788555D01*
X84502523Y-47550752D01*
X84327416Y-47331175D01*
X84128825Y-47132584D01*
X83909248Y-46957477D01*
X83671445Y-46808055D01*
X83671442Y-46808053D01*
X83418411Y-46686200D01*
X83153329Y-46593443D01*
X83153317Y-46593439D01*
X82879512Y-46530945D01*
X82879494Y-46530942D01*
X82600431Y-46499500D01*
X82600425Y-46499500D01*
X82319575Y-46499500D01*
X82319568Y-46499500D01*
X82040505Y-46530942D01*
X82040487Y-46530945D01*
X81766682Y-46593439D01*
X81766670Y-46593443D01*
X81501588Y-46686200D01*
X81248557Y-46808053D01*
X81010753Y-46957476D01*
X80791175Y-47132583D01*
X80592583Y-47331175D01*
X80417476Y-47550753D01*
X80268053Y-47788557D01*
X80146200Y-48041588D01*
X80053443Y-48306670D01*
X80053439Y-48306682D01*
X79990945Y-48580487D01*
X79990942Y-48580505D01*
X79959500Y-48859568D01*
X74000500Y-48859568D01*
X74000500Y-45624500D01*
X74020185Y-45557461D01*
X74072989Y-45511706D01*
X74124500Y-45500500D01*
X114876000Y-45500500D01*
X114943039Y-45520185D01*
G37*
%TD.AperFunction*%
%TA.AperFunction,Conductor*%
G36*
X101642634Y-81209880D02*
G01*
X101698567Y-81251752D01*
X101722984Y-81317216D01*
X101723300Y-81326062D01*
X101723300Y-103869483D01*
X101703615Y-103936522D01*
X101650811Y-103982277D01*
X101631398Y-103989257D01*
X101613899Y-103993946D01*
X101389799Y-104086770D01*
X101389785Y-104086777D01*
X101179706Y-104208067D01*
X101015486Y-104334077D01*
X100950317Y-104359271D01*
X100881872Y-104345232D01*
X100864514Y-104334077D01*
X100700293Y-104208067D01*
X100700292Y-104208066D01*
X100700289Y-104208064D01*
X100490212Y-104086776D01*
X100426303Y-104060304D01*
X100266104Y-103993947D01*
X100148944Y-103962554D01*
X100031789Y-103931162D01*
X100031788Y-103931161D01*
X100031785Y-103931161D01*
X99834514Y-103905190D01*
X99770618Y-103876923D01*
X99732147Y-103818599D01*
X99726700Y-103782251D01*
X99726700Y-81374000D01*
X99746385Y-81306961D01*
X99799189Y-81261206D01*
X99850700Y-81250000D01*
X101500000Y-81250000D01*
X101511619Y-81238381D01*
X101572942Y-81204896D01*
X101642634Y-81209880D01*
G37*
%TD.AperFunction*%
%TA.AperFunction,Conductor*%
G36*
X115854369Y-65229856D02*
G01*
X115885900Y-65230307D01*
X115888950Y-65232329D01*
X115892605Y-65232591D01*
X115917855Y-65251493D01*
X115944133Y-65268916D01*
X115945606Y-65272268D01*
X115948538Y-65274463D01*
X115959558Y-65304009D01*
X115972248Y-65332879D01*
X115972177Y-65337841D01*
X115972955Y-65339927D01*
X115971744Y-65368170D01*
X115957000Y-65461264D01*
X115957000Y-65668734D01*
X115989452Y-65873633D01*
X116053562Y-66070941D01*
X116090899Y-66144217D01*
X116147745Y-66255783D01*
X116269686Y-66423620D01*
X116416380Y-66570314D01*
X116584217Y-66692255D01*
X116650965Y-66726265D01*
X116769058Y-66786437D01*
X116769060Y-66786437D01*
X116769063Y-66786439D01*
X116874823Y-66820802D01*
X116966366Y-66850547D01*
X117171266Y-66883000D01*
X117171271Y-66883000D01*
X117378727Y-66883000D01*
X117378729Y-66883000D01*
X117516249Y-66861218D01*
X117585540Y-66870172D01*
X117623326Y-66896010D01*
X122061981Y-71334665D01*
X122095466Y-71395988D01*
X122098300Y-71422346D01*
X122098300Y-73181826D01*
X122078615Y-73248865D01*
X122025811Y-73294620D01*
X121956653Y-73304564D01*
X121893097Y-73275539D01*
X121873982Y-73254712D01*
X121868032Y-73246522D01*
X121755314Y-73091380D01*
X121608620Y-72944686D01*
X121440783Y-72822745D01*
X121426990Y-72815717D01*
X121255941Y-72728562D01*
X121202164Y-72711089D01*
X121160204Y-72697455D01*
X121102530Y-72658018D01*
X121075332Y-72593659D01*
X121080593Y-72541208D01*
X121111615Y-72445735D01*
X121115545Y-72433640D01*
X121115545Y-72433638D01*
X121115547Y-72433633D01*
X121139731Y-72280941D01*
X121148000Y-72228734D01*
X121148000Y-72021265D01*
X121115547Y-71816366D01*
X121051437Y-71619058D01*
X120973636Y-71466367D01*
X120957255Y-71434217D01*
X120835314Y-71266380D01*
X120688620Y-71119686D01*
X120520783Y-70997745D01*
X120486938Y-70980500D01*
X120335941Y-70903562D01*
X120138633Y-70839452D01*
X119933734Y-70807000D01*
X119933729Y-70807000D01*
X119726271Y-70807000D01*
X119726266Y-70807000D01*
X119521366Y-70839452D01*
X119324058Y-70903562D01*
X119139216Y-70997745D01*
X119043459Y-71067317D01*
X118971380Y-71119686D01*
X118971378Y-71119688D01*
X118971377Y-71119688D01*
X118824688Y-71266377D01*
X118824688Y-71266378D01*
X118824686Y-71266380D01*
X118822737Y-71269063D01*
X118702745Y-71434216D01*
X118608562Y-71619060D01*
X118544452Y-71816369D01*
X118528831Y-71914993D01*
X118498901Y-71978128D01*
X118494039Y-71983275D01*
X111548737Y-78928578D01*
X111548733Y-78928583D01*
X111449126Y-79065682D01*
X111372184Y-79216687D01*
X111362434Y-79246697D01*
X111362433Y-79246699D01*
X111319811Y-79377874D01*
X111293300Y-79545262D01*
X111293300Y-104182525D01*
X111292226Y-104186182D01*
X111293081Y-104189898D01*
X111282456Y-104219452D01*
X111273615Y-104249564D01*
X111270360Y-104253101D01*
X111269445Y-104255649D01*
X111244787Y-104280901D01*
X111175487Y-104334077D01*
X111110318Y-104359271D01*
X111041873Y-104345233D01*
X111024513Y-104334077D01*
X110955213Y-104280901D01*
X110914011Y-104224473D01*
X110906700Y-104182525D01*
X110906700Y-78667345D01*
X110926385Y-78600306D01*
X110943014Y-78579669D01*
X116423486Y-73099196D01*
X116484807Y-73065713D01*
X116491768Y-73064406D01*
X116505423Y-73062243D01*
X116516133Y-73060547D01*
X116713437Y-72996439D01*
X116898283Y-72902255D01*
X117066120Y-72780314D01*
X117212814Y-72633620D01*
X117334755Y-72465783D01*
X117428939Y-72280937D01*
X117493047Y-72083633D01*
X117525500Y-71878734D01*
X117525500Y-71671265D01*
X117493047Y-71466366D01*
X117428937Y-71269058D01*
X117379252Y-71171548D01*
X117334755Y-71084217D01*
X117212814Y-70916380D01*
X117066120Y-70769686D01*
X116898283Y-70647745D01*
X116894234Y-70645682D01*
X116713441Y-70553562D01*
X116516133Y-70489452D01*
X116311234Y-70457000D01*
X116311229Y-70457000D01*
X116103771Y-70457000D01*
X116103766Y-70457000D01*
X115898866Y-70489452D01*
X115701558Y-70553562D01*
X115516716Y-70647745D01*
X115489094Y-70667814D01*
X115348880Y-70769686D01*
X115348878Y-70769688D01*
X115348877Y-70769688D01*
X115202188Y-70916377D01*
X115202188Y-70916378D01*
X115202186Y-70916380D01*
X115179179Y-70948047D01*
X115080245Y-71084216D01*
X114986062Y-71269058D01*
X114921953Y-71466365D01*
X114911507Y-71532317D01*
X114881577Y-71595451D01*
X114876715Y-71600599D01*
X109008737Y-77468578D01*
X109008733Y-77468583D01*
X108909126Y-77605682D01*
X108832184Y-77756685D01*
X108806824Y-77834738D01*
X108779812Y-77917870D01*
X108753300Y-78085262D01*
X108753300Y-104182525D01*
X108752226Y-104186182D01*
X108753081Y-104189898D01*
X108742456Y-104219452D01*
X108733615Y-104249564D01*
X108730360Y-104253101D01*
X108729445Y-104255649D01*
X108704787Y-104280901D01*
X108635487Y-104334077D01*
X108570318Y-104359271D01*
X108501873Y-104345233D01*
X108484513Y-104334077D01*
X108415213Y-104280901D01*
X108374011Y-104224473D01*
X108366700Y-104182525D01*
X108366700Y-71707344D01*
X108386385Y-71640305D01*
X108403015Y-71619667D01*
X109140125Y-70882556D01*
X109201446Y-70849073D01*
X109271137Y-70854057D01*
X109284090Y-70859750D01*
X109331563Y-70883939D01*
X109490009Y-70935421D01*
X109528866Y-70948047D01*
X109733766Y-70980500D01*
X109733771Y-70980500D01*
X109941234Y-70980500D01*
X110146133Y-70948047D01*
X110343437Y-70883939D01*
X110528283Y-70789755D01*
X110696120Y-70667814D01*
X110842814Y-70521120D01*
X110964755Y-70353283D01*
X111058939Y-70168437D01*
X111123047Y-69971133D01*
X111130199Y-69925972D01*
X111160127Y-69862840D01*
X111164973Y-69857709D01*
X115761592Y-65261090D01*
X115789263Y-65245981D01*
X115816038Y-65229309D01*
X115819700Y-65229361D01*
X115822913Y-65227607D01*
X115854369Y-65229856D01*
G37*
%TD.AperFunction*%
%TA.AperFunction,Conductor*%
G36*
X152031903Y-88805032D02*
G01*
X152038381Y-88811064D01*
X152176981Y-88949664D01*
X152210466Y-89010987D01*
X152213300Y-89037345D01*
X152213300Y-103682525D01*
X152193615Y-103749564D01*
X152164787Y-103780901D01*
X152095487Y-103834077D01*
X152030318Y-103859271D01*
X151961873Y-103845233D01*
X151944513Y-103834077D01*
X151875213Y-103780901D01*
X151834011Y-103724473D01*
X151826700Y-103682525D01*
X151826700Y-88898745D01*
X151846385Y-88831706D01*
X151899189Y-88785951D01*
X151968347Y-88776007D01*
X152031903Y-88805032D01*
G37*
%TD.AperFunction*%
%TA.AperFunction,Conductor*%
G36*
X154495014Y-90567924D02*
G01*
X154508347Y-90566008D01*
X154528490Y-90575207D01*
X154550127Y-90579914D01*
X154567852Y-90593182D01*
X154571903Y-90595033D01*
X154578381Y-90601065D01*
X154716981Y-90739665D01*
X154750466Y-90800988D01*
X154753300Y-90827346D01*
X154753300Y-103682525D01*
X154733615Y-103749564D01*
X154704787Y-103780901D01*
X154635487Y-103834077D01*
X154570318Y-103859271D01*
X154501873Y-103845233D01*
X154484513Y-103834077D01*
X154415213Y-103780901D01*
X154374011Y-103724473D01*
X154366700Y-103682525D01*
X154366700Y-90688746D01*
X154372938Y-90667500D01*
X154374518Y-90645412D01*
X154382590Y-90634628D01*
X154386385Y-90621707D01*
X154403118Y-90607207D01*
X154416390Y-90589479D01*
X154429010Y-90584771D01*
X154439189Y-90575952D01*
X154461106Y-90572800D01*
X154481854Y-90565062D01*
X154495014Y-90567924D01*
G37*
%TD.AperFunction*%
%TA.AperFunction,Conductor*%
G36*
X159651903Y-93425033D02*
G01*
X159658381Y-93431065D01*
X159886981Y-93659665D01*
X159920466Y-93720988D01*
X159923300Y-93747346D01*
X159923300Y-103613466D01*
X159922226Y-103617123D01*
X159923081Y-103620840D01*
X159912457Y-103650390D01*
X159903615Y-103680505D01*
X159900359Y-103684043D01*
X159899444Y-103686590D01*
X159874786Y-103711842D01*
X159715486Y-103834077D01*
X159650317Y-103859271D01*
X159581872Y-103845233D01*
X159564513Y-103834077D01*
X159495213Y-103780901D01*
X159454011Y-103724473D01*
X159446700Y-103682525D01*
X159446700Y-93518746D01*
X159466385Y-93451707D01*
X159519189Y-93405952D01*
X159588347Y-93396008D01*
X159651903Y-93425033D01*
G37*
%TD.AperFunction*%
%TA.AperFunction,Conductor*%
G36*
X119403238Y-74221958D02*
G01*
X119459171Y-74263830D01*
X119477835Y-74299821D01*
X119528562Y-74455941D01*
X119542970Y-74484217D01*
X119622745Y-74640783D01*
X119622749Y-74640788D01*
X119649618Y-74677770D01*
X119673098Y-74743576D01*
X119673300Y-74750655D01*
X119673300Y-75161403D01*
X119653615Y-75228442D01*
X119636982Y-75249084D01*
X119494685Y-75391381D01*
X119372745Y-75559216D01*
X119278562Y-75744058D01*
X119214452Y-75941366D01*
X119182000Y-76146265D01*
X119182000Y-76353734D01*
X119214452Y-76558633D01*
X119278562Y-76755941D01*
X119372745Y-76940783D01*
X119494686Y-77108620D01*
X119641380Y-77255314D01*
X119809217Y-77377255D01*
X119874050Y-77410289D01*
X119994058Y-77471437D01*
X119994060Y-77471437D01*
X119994063Y-77471439D01*
X120099823Y-77505802D01*
X120191366Y-77535547D01*
X120396266Y-77568000D01*
X120396271Y-77568000D01*
X120603734Y-77568000D01*
X120808633Y-77535547D01*
X121005937Y-77471439D01*
X121190783Y-77377255D01*
X121358620Y-77255314D01*
X121505314Y-77108620D01*
X121627255Y-76940783D01*
X121721439Y-76755937D01*
X121785547Y-76558633D01*
X121786042Y-76555505D01*
X121818000Y-76353734D01*
X121818000Y-76149423D01*
X121818110Y-76144197D01*
X121818410Y-76137075D01*
X121826700Y-76084738D01*
X121826700Y-75940554D01*
X121826810Y-75937947D01*
X121837250Y-75907242D01*
X121846385Y-75876134D01*
X121848431Y-75874360D01*
X121849303Y-75871797D01*
X121874688Y-75851608D01*
X121899189Y-75830379D01*
X121901868Y-75829993D01*
X121903988Y-75828308D01*
X121936251Y-75825049D01*
X121968347Y-75820435D01*
X121970810Y-75821560D01*
X121973504Y-75821288D01*
X122002398Y-75835985D01*
X122031903Y-75849460D01*
X122034543Y-75852336D01*
X122035780Y-75852966D01*
X122036937Y-75854945D01*
X122051018Y-75870288D01*
X122053976Y-75874360D01*
X122169686Y-76033620D01*
X122316380Y-76180314D01*
X122484217Y-76302255D01*
X122585240Y-76353729D01*
X122624188Y-76373574D01*
X122674984Y-76421549D01*
X122691779Y-76489370D01*
X122669242Y-76555505D01*
X122655574Y-76571740D01*
X113928737Y-85298578D01*
X113928733Y-85298583D01*
X113829126Y-85435682D01*
X113751955Y-85587136D01*
X113751352Y-85589247D01*
X113699812Y-85747872D01*
X113691998Y-85797202D01*
X113689938Y-85804423D01*
X113675123Y-85827862D01*
X113663244Y-85852923D01*
X113656716Y-85856987D01*
X113652610Y-85863485D01*
X113627474Y-85875195D01*
X113603932Y-85889854D01*
X113596245Y-85889744D01*
X113589276Y-85892991D01*
X113561796Y-85889252D01*
X113534070Y-85888856D01*
X113527662Y-85884607D01*
X113520044Y-85883571D01*
X113498946Y-85865568D01*
X113475837Y-85850246D01*
X113472744Y-85843209D01*
X113466895Y-85838218D01*
X113458880Y-85811668D01*
X113447723Y-85786283D01*
X113446775Y-85771566D01*
X113446704Y-85771329D01*
X113446742Y-85771047D01*
X113446700Y-85770390D01*
X113446700Y-80127345D01*
X113466385Y-80060306D01*
X113483014Y-80039669D01*
X119272225Y-74250457D01*
X119333546Y-74216974D01*
X119403238Y-74221958D01*
G37*
%TD.AperFunction*%
%TD*%
M02*
